<svg width="50" height="50" viewBox="0 0 50 50" fill="none" xmlns="http://www.w3.org/2000/svg">
<g clip-path="url(#clip0_1137_16085)">
<path d="M47.0953 34.9434C46.9488 34.7969 46.7501 34.7146 46.5429 34.7146C46.3357 34.7146 46.1371 34.7969 45.9905 34.9434L45.4378 35.4959L43.909 33.9671C43.1347 31.7425 41.8687 29.7212 40.2052 28.0535L38.8087 26.657C38.5441 26.3909 38.2194 26.1924 37.8619 26.0784C37.5044 25.9643 37.1247 25.938 36.7549 26.0017C36.3851 26.0653 36.0361 26.2171 35.7373 26.4442C35.4385 26.6712 35.1989 26.9669 35.0385 27.3061L34.9417 27.2094C34.6525 26.9194 34.2923 26.7104 33.897 26.6032C33.5018 26.496 33.0853 26.4944 32.6892 26.5986C32.2932 26.7027 31.9313 26.909 31.6399 27.1967C31.3485 27.4845 31.1377 27.8437 31.0286 28.2384C30.5118 28.1216 29.9707 28.1846 29.4944 28.4168C29.0182 28.6491 28.6355 29.0367 28.4093 29.5159L27.2081 28.3142C26.7686 27.8747 26.1724 27.6278 25.5508 27.6278C24.9292 27.6278 24.333 27.8748 23.8935 28.3143C23.4539 28.7539 23.207 29.35 23.207 29.9717C23.207 30.5933 23.454 31.1894 23.8936 31.629L28.5237 36.2595L28.2336 37.13C28.0027 37.8228 27.9579 38.564 28.1035 39.2795C28.2491 39.995 28.5801 40.6597 29.0634 41.207C29.5467 41.7544 30.1652 42.1652 30.8572 42.3983C31.5491 42.6315 32.2902 42.6788 33.0062 42.5355L35.5229 42.0322C35.7751 41.9814 36.036 41.9939 36.2822 42.0685C36.5284 42.143 36.7524 42.2774 36.9341 42.4595L37.7044 43.2298L37.152 43.7823C37.0794 43.8548 37.0219 43.941 36.9826 44.0357C36.9433 44.1305 36.9231 44.2321 36.9231 44.3347C36.9231 44.4373 36.9433 44.5389 36.9826 44.6337C37.0219 44.7285 37.0794 44.8146 37.152 44.8872L39.3618 47.0968L40.4666 45.992L38.8093 44.3347L46.5437 36.6004L48.2011 38.2577L49.305 37.1531L47.0953 34.9434ZM38.0387 41.3546C37.6752 40.9905 37.2274 40.7219 36.7349 40.5728C36.2425 40.4236 35.7208 40.3987 35.2164 40.5001L32.6996 41.0034C32.252 41.0929 31.7888 41.0633 31.3562 40.9175C30.9236 40.7717 30.537 40.5149 30.2349 40.1727C29.9328 39.8304 29.7259 39.4149 29.6349 38.9676C29.5439 38.5203 29.572 38.0569 29.7164 37.6239L29.7595 37.4947L31.0753 38.8105L32.1802 37.7055L24.9984 30.5241C24.9251 30.4517 24.8668 30.3655 24.827 30.2706C24.7871 30.1756 24.7665 30.0737 24.7661 29.9707C24.7658 29.8677 24.7859 29.7657 24.8251 29.6704C24.8644 29.5752 24.9221 29.4887 24.9949 29.4159C25.0678 29.3431 25.1543 29.2853 25.2495 29.2461C25.3447 29.2068 25.4467 29.1867 25.5497 29.187C25.6527 29.1873 25.7546 29.208 25.8496 29.2479C25.9446 29.2877 26.0307 29.3459 26.1031 29.4192L31.075 34.3911L32.1799 33.2862L29.9702 31.0764C29.897 31.004 29.8387 30.9179 29.7989 30.8229C29.759 30.7279 29.7384 30.626 29.7381 30.523C29.7378 30.42 29.7578 30.318 29.7971 30.2228C29.8364 30.1276 29.8941 30.0411 29.9669 29.9682C30.0397 29.8954 30.1263 29.8377 30.2215 29.7984C30.3167 29.7592 30.4187 29.7391 30.5217 29.7394C30.6247 29.7397 30.7266 29.7604 30.8216 29.8003C30.9166 29.8401 31.0027 29.8984 31.0751 29.9716L33.2848 32.1813L34.3895 31.0764L32.7314 29.4183C32.5864 29.2714 32.5055 29.0731 32.5063 28.8667C32.507 28.6603 32.5895 28.4626 32.7355 28.3168C32.8816 28.171 33.0794 28.0889 33.2858 28.0884C33.4921 28.0879 33.6903 28.1692 33.837 28.3143L36.0468 30.5241L37.1517 29.4192L36.5993 28.8669C36.5261 28.7945 36.4678 28.7083 36.428 28.6133C36.3881 28.5184 36.3674 28.4165 36.3671 28.3135C36.3668 28.2105 36.3869 28.1084 36.4261 28.0132C36.4654 27.918 36.5231 27.8315 36.5959 27.7587C36.6687 27.6858 36.7552 27.6281 36.8505 27.5888C36.9457 27.5496 37.0477 27.5295 37.1507 27.5298C37.2537 27.5301 37.3556 27.5508 37.4506 27.5906C37.5456 27.6305 37.6317 27.6887 37.7041 27.762L39.1006 29.1585C40.6375 30.6991 41.7967 32.5747 42.4872 34.6384C42.5256 34.7535 42.5903 34.858 42.676 34.9438L44.3332 36.6011L38.809 42.1254L38.0387 41.3546Z" fill="#D819A3"/>
<path d="M3.45732 15.2851C3.55994 15.2852 3.66156 15.265 3.75636 15.2257C3.85117 15.1865 3.93728 15.1289 4.00977 15.0563L4.5625 14.5038L6.09131 16.0325C6.86562 18.2571 8.13162 20.2785 9.79512 21.9462L11.1916 23.3427C11.4562 23.6088 11.7809 23.8072 12.1384 23.9213C12.4959 24.0354 12.8756 24.0617 13.2454 23.998C13.6152 23.9343 13.9643 23.7826 14.263 23.5555C14.5618 23.3285 14.8015 23.0328 14.9618 22.6936L15.0586 22.7902C15.3478 23.0802 15.708 23.2893 16.1033 23.3965C16.4985 23.5037 16.915 23.5053 17.3111 23.4011C17.7071 23.297 18.069 23.0907 18.3604 22.8029C18.6518 22.5152 18.8626 22.156 18.9717 21.7612C19.1379 21.7985 19.3077 21.8176 19.478 21.8183C19.9206 21.8197 20.3545 21.6949 20.7287 21.4586C21.1029 21.2222 21.4021 20.8841 21.591 20.4839L22.7922 21.6851C23.2317 22.1246 23.8279 22.3715 24.4495 22.3715C25.0712 22.3715 25.6673 22.1246 26.1069 21.685C26.5464 21.2454 26.7934 20.6493 26.7934 20.0277C26.7933 19.406 26.5464 18.8099 26.1068 18.3703L21.4766 13.7401L21.7667 12.8696C21.9976 12.1769 22.0424 11.4357 21.8968 10.7202C21.7512 10.0047 21.4202 9.34001 20.9369 8.79265C20.4536 8.24529 19.8351 7.83448 19.1431 7.60133C18.4512 7.36818 17.7101 7.32088 16.9941 7.46416L14.4774 7.96748C14.2252 8.01825 13.9643 8.00579 13.7181 7.93122C13.4719 7.85666 13.2479 7.7223 13.0662 7.54014L12.2959 6.76982L12.8483 6.21738C12.9209 6.14484 12.9784 6.05871 13.0177 5.96392C13.057 5.86913 13.0772 5.76754 13.0772 5.66494C13.0772 5.56234 13.057 5.46075 13.0177 5.36596C12.9784 5.27117 12.9209 5.18505 12.8483 5.1125L10.6388 2.90283L9.53398 4.00771L11.1913 5.66494L3.45693 13.3993L1.7999 11.7416L0.695312 12.8466L2.90508 15.0563C2.97753 15.1289 3.06361 15.1865 3.15838 15.2257C3.25315 15.265 3.35474 15.2852 3.45732 15.2851ZM11.9616 8.64502C12.3251 9.0091 12.773 9.27765 13.2654 9.42675C13.7578 9.57585 14.2795 9.60088 14.7839 9.49961L17.3007 8.99629C17.7483 8.90682 18.2115 8.93647 18.644 9.08228C19.0766 9.22809 19.4632 9.48495 19.7653 9.82714C20.0673 10.1693 20.2742 10.5849 20.3652 11.0321C20.4563 11.4794 20.4282 11.9428 20.2839 12.3758L20.2408 12.505L18.925 11.1892L17.8201 12.2941L25.002 19.4756C25.0752 19.548 25.1335 19.6341 25.1733 19.7291C25.2132 19.8241 25.2338 19.926 25.2342 20.029C25.2345 20.132 25.2144 20.234 25.1752 20.3292C25.1359 20.4244 25.0782 20.511 25.0054 20.5838C24.9325 20.6566 24.846 20.7143 24.7508 20.7536C24.6556 20.7929 24.5536 20.8129 24.4506 20.8126C24.3476 20.8123 24.2457 20.7916 24.1507 20.7518C24.0557 20.712 23.9696 20.6537 23.8972 20.5805L18.9253 15.6086L17.8204 16.7135L20.0301 18.9232C20.1751 19.0701 20.2562 19.2683 20.2555 19.4747C20.2549 19.6811 20.1726 19.8788 20.0267 20.0247C19.8807 20.1707 19.683 20.2529 19.4766 20.2535C19.2702 20.2541 19.072 20.1731 18.9252 20.028L16.7155 17.8184L15.6108 18.9232L17.2689 20.5813C17.4139 20.7283 17.4948 20.9266 17.494 21.133C17.4933 21.3393 17.4108 21.537 17.2648 21.6829C17.1188 21.8287 16.9209 21.9108 16.7146 21.9113C16.5082 21.9117 16.31 21.8305 16.1633 21.6854L13.9535 19.4756L12.8486 20.5805L13.401 21.1328C13.4742 21.2052 13.5325 21.2913 13.5723 21.3863C13.6122 21.4813 13.6329 21.5832 13.6332 21.6862C13.6335 21.7892 13.6134 21.8912 13.5742 21.9865C13.5349 22.0817 13.4772 22.1682 13.4044 22.241C13.3316 22.3138 13.2451 22.3716 13.1498 22.4108C13.0546 22.4501 12.9526 22.4702 12.8496 22.4699C12.7466 22.4695 12.6447 22.4489 12.5497 22.409C12.4547 22.3692 12.3686 22.311 12.2962 22.2377L10.8997 20.8412C9.36277 19.3006 8.20359 17.4249 7.51309 15.3612C7.47468 15.2462 7.41005 15.1416 7.32432 15.0559L5.66709 13.3985L11.1913 7.87432L11.9616 8.64502Z" fill="#D819A3"/>
<path d="M27.307 14.9597L27.2103 15.0563C26.9203 15.3455 26.7113 15.7057 26.6041 16.101C26.4969 16.4963 26.4953 16.9127 26.5995 17.3088C26.7036 17.7049 26.9099 18.0667 27.1976 18.3581C27.4854 18.6495 27.8446 18.8603 28.2393 18.9694C28.1225 19.4862 28.1855 20.0274 28.4177 20.5036C28.65 20.9798 29.0377 21.3626 29.5168 21.5888L28.3151 22.7899C27.8756 23.2295 27.6287 23.8257 27.6287 24.4473C27.6287 25.0689 27.8757 25.6651 28.3152 26.1046C28.7548 26.5441 29.3509 26.791 29.9726 26.791C30.5942 26.791 31.1903 26.5441 31.6299 26.1045L36.2604 21.4746L37.1309 21.7647C37.5591 21.908 38.0076 21.9812 38.4591 21.9814C39.075 21.9793 39.6829 21.8408 40.239 21.5759C40.7951 21.311 41.2857 20.9262 41.6755 20.4493C42.0653 19.9723 42.3446 19.415 42.4935 18.8172C42.6423 18.2195 42.657 17.5963 42.5364 16.9922L42.0331 14.4755C41.9824 14.2233 41.9948 13.9624 42.0694 13.7162C42.144 13.4699 42.2783 13.246 42.4604 13.0643L43.2307 12.2939L43.7832 12.8464C43.8557 12.9189 43.9419 12.9765 44.0367 13.0158C44.1314 13.055 44.233 13.0752 44.3356 13.0752C44.4382 13.0752 44.5398 13.055 44.6346 13.0158C44.7294 12.9765 44.8155 12.9189 44.8881 12.8464L47.0977 10.6365L45.9929 9.53203L44.3356 11.1894L36.6013 3.45498L38.2586 1.79756L37.154 0.693359L34.9443 2.90303C34.7978 3.04954 34.7155 3.24824 34.7155 3.45542C34.7155 3.6626 34.7978 3.8613 34.9443 4.00781L35.4968 4.56055L33.9681 6.08896C31.7434 6.86327 29.7221 8.12928 28.0544 9.79277L26.6579 11.1893C26.3918 11.4539 26.1934 11.7786 26.0793 12.1361C25.9653 12.4936 25.939 12.8733 26.0026 13.2431C26.0663 13.6129 26.2181 13.9619 26.4451 14.2607C26.6721 14.5595 26.9678 14.7993 27.307 14.9597ZM27.7628 12.2942L29.1593 10.8978C30.6999 9.3608 32.5756 8.20163 34.6393 7.51113C34.7544 7.47273 34.8589 7.4081 34.9447 7.32236L36.602 5.66514L42.1263 11.1894L41.3559 11.9597C40.9918 12.3231 40.7232 12.771 40.574 13.2634C40.4249 13.7559 40.4 14.2775 40.5014 14.7819L41.0047 17.2987C41.0941 17.7463 41.0645 18.2096 40.9187 18.6421C40.7729 19.0746 40.516 19.4613 40.1738 19.7633C39.8316 20.0654 39.4161 20.2723 38.9688 20.3633C38.5215 20.4543 38.0582 20.4263 37.6252 20.2819L37.496 20.2389L38.8118 18.923L37.7068 17.8182L30.525 25C30.4526 25.0733 30.3665 25.1315 30.2715 25.1714C30.1765 25.2112 30.0746 25.2319 29.9716 25.2322C29.8686 25.2325 29.7666 25.2125 29.6713 25.1732C29.5761 25.1339 29.4896 25.0762 29.4168 25.0034C29.344 24.9306 29.2862 24.8441 29.247 24.7489C29.2077 24.6537 29.1876 24.5516 29.1879 24.4486C29.1883 24.3456 29.2089 24.2437 29.2488 24.1487C29.2886 24.0538 29.3468 23.9676 29.4201 23.8952L34.392 18.9233L33.2871 17.8185L31.0773 20.0281C31.0049 20.1014 30.9188 20.1596 30.8238 20.1995C30.7288 20.2393 30.6269 20.26 30.5239 20.2603C30.4209 20.2606 30.3189 20.2405 30.2237 20.2013C30.1285 20.162 30.042 20.1043 29.9691 20.0314C29.8963 19.9586 29.8386 19.8721 29.7993 19.7769C29.7601 19.6817 29.74 19.5796 29.7403 19.4766C29.7407 19.3736 29.7613 19.2717 29.8012 19.1768C29.841 19.0818 29.8993 18.9956 29.9725 18.9232L32.1822 16.7136L31.0773 15.6089L29.4192 17.267C29.2723 17.4119 29.074 17.4929 28.8676 17.4921C28.6612 17.4913 28.4635 17.4089 28.3177 17.2628C28.1719 17.1168 28.0898 16.919 28.0893 16.7126C28.0888 16.5062 28.1701 16.308 28.3152 16.1613L30.525 13.9516L29.4201 12.8467L28.8678 13.399C28.7954 13.4723 28.7092 13.5305 28.6143 13.5704C28.5193 13.6102 28.4174 13.6309 28.3144 13.6312C28.2114 13.6315 28.1093 13.6115 28.0141 13.5722C27.9189 13.533 27.8324 13.4753 27.7596 13.4024C27.6867 13.3296 27.629 13.2431 27.5897 13.1479C27.5505 13.0527 27.5304 12.9506 27.5307 12.8476C27.531 12.7447 27.5517 12.6427 27.5915 12.5478C27.6314 12.4528 27.6896 12.3666 27.7629 12.2942H27.7628Z" fill="#D819A3"/>
<path d="M22.6931 35.0403L22.7897 34.9437C23.0797 34.6545 23.2888 34.2943 23.396 33.899C23.5032 33.5037 23.5048 33.0873 23.4006 32.6912C23.2965 32.2951 23.0902 31.9333 22.8024 31.6419C22.5147 31.3505 22.1555 31.1397 21.7607 31.0306C21.8775 30.5138 21.8146 29.9726 21.5824 29.4964C21.3501 29.0202 20.9624 28.6374 20.4833 28.4112L21.685 27.2101C22.1245 26.7705 22.3714 26.1743 22.3714 25.5527C22.3714 24.9311 22.1244 24.335 21.6849 23.8954C21.2453 23.4559 20.6491 23.209 20.0275 23.209C19.4059 23.209 18.8098 23.456 18.3702 23.8955L13.7396 28.5254L12.8691 28.2353C12.1764 28.0044 11.4352 27.9595 10.7197 28.1051C10.0042 28.2508 9.33952 28.5818 8.79216 29.0651C8.2448 29.5483 7.83399 30.1669 7.60084 30.8588C7.36769 31.5508 7.32039 32.2918 7.46367 33.0078L7.96699 35.5245C8.01773 35.7767 8.00526 36.0376 7.9307 36.2839C7.85613 36.5301 7.72179 36.754 7.53965 36.9358L6.76934 37.7061L6.21689 37.1536C6.14435 37.0811 6.05822 37.0235 5.96343 36.9843C5.86865 36.945 5.76705 36.9248 5.66445 36.9248C5.56185 36.9248 5.46026 36.945 5.36547 36.9843C5.27068 37.0235 5.18456 37.0811 5.11201 37.1536L2.90234 39.3632L4.00723 40.468L5.66445 38.8107L13.3988 46.545L11.7415 48.2025L12.8461 49.3067L15.0558 47.0969C15.2023 46.9504 15.2845 46.7517 15.2845 46.5445C15.2845 46.3373 15.2023 46.1386 15.0558 45.9921L14.5033 45.4395L16.032 43.9107C18.2566 43.1363 20.278 41.8703 21.9457 40.2068L23.3422 38.8104C23.6083 38.5458 23.8067 38.221 23.9208 37.8635C24.0348 37.506 24.0611 37.1263 23.9974 36.7565C23.9338 36.3867 23.782 36.0377 23.555 35.7389C23.3279 35.4402 23.0323 35.2004 22.6931 35.0401V35.0403ZM22.2373 37.7058L20.8408 39.1023C19.3002 40.6392 17.4245 41.7984 15.3607 42.4889C15.2457 42.5273 15.1412 42.5919 15.0554 42.6777L13.398 44.3349L7.87422 38.8107L8.64453 38.0403C9.00871 37.6769 9.27732 37.229 9.42643 36.7366C9.57554 36.2442 9.60051 35.7225 9.49912 35.2181L8.9958 32.7013C8.90633 32.2537 8.93598 31.7905 9.08179 31.3579C9.2276 30.9254 9.48446 30.5388 9.82665 30.2367C10.1688 29.9346 10.5844 29.7277 11.0317 29.6367C11.4789 29.5457 11.9423 29.5738 12.3753 29.7181L12.5045 29.7611L11.1887 31.077L12.2937 32.1818L19.4751 25C19.5475 24.9267 19.6336 24.8685 19.7286 24.8287C19.8236 24.7888 19.9255 24.7681 20.0285 24.7678C20.1315 24.7675 20.2335 24.7875 20.3287 24.8268C20.424 24.8661 20.5105 24.9238 20.5833 24.9966C20.6561 25.0694 20.7138 25.1559 20.7531 25.2511C20.7924 25.3464 20.8124 25.4484 20.8121 25.5514C20.8118 25.6544 20.7912 25.7563 20.7513 25.8513C20.7115 25.9462 20.6532 26.0324 20.58 26.1048L15.6081 31.0767L16.713 32.1816L18.9228 29.9719C18.9951 29.8986 19.0813 29.8404 19.1763 29.8005C19.2713 29.7607 19.3732 29.74 19.4762 29.7397C19.5792 29.7394 19.6812 29.7595 19.7764 29.7988C19.8716 29.838 19.9581 29.8957 20.031 29.9686C20.1038 30.0414 20.1615 30.1279 20.2007 30.2231C20.24 30.3183 20.2601 30.4204 20.2597 30.5234C20.2594 30.6264 20.2388 30.7283 20.1989 30.8233C20.159 30.9182 20.1008 31.0044 20.0275 31.0768L17.8179 33.2864L18.9228 34.3911L20.5809 32.733C20.7278 32.5881 20.9261 32.5072 21.1325 32.5079C21.3389 32.5087 21.5365 32.5911 21.6824 32.7372C21.8282 32.8832 21.9103 33.081 21.9108 33.2874C21.9112 33.4938 21.83 33.692 21.6849 33.8387L19.4751 36.0484L20.58 37.1533L21.1323 36.601C21.2047 36.5277 21.2909 36.4695 21.3858 36.4296C21.4808 36.3898 21.5827 36.3691 21.6857 36.3688C21.7887 36.3685 21.8907 36.3885 21.986 36.4278C22.0812 36.467 22.1677 36.5248 22.2405 36.5976C22.3134 36.6704 22.3711 36.7569 22.4103 36.8521C22.4496 36.9473 22.4697 37.0494 22.4694 37.1524C22.4691 37.2554 22.4484 37.3573 22.4085 37.4523C22.3687 37.5472 22.3105 37.6334 22.2372 37.7058H22.2373Z" fill="#D819A3"/>
</g>
<defs>
<clipPath id="clip0_1137_16085">
<rect width="50" height="50" fill="white"/>
</clipPath>
</defs>
</svg>
