<svg width="29" height="29" viewBox="0 0 29 29" fill="none" xmlns="http://www.w3.org/2000/svg">
<path d="M27.7923 22.9583C27.7923 23.5993 27.5377 24.214 27.0845 24.6672C26.6313 25.1204 26.0166 25.375 25.3757 25.375H3.62565C2.98471 25.375 2.37002 25.1204 1.91681 24.6672C1.4636 24.214 1.20898 23.5993 1.20898 22.9583V9.66667C1.20898 9.02573 1.4636 8.41104 1.91681 7.95783C2.37002 7.50461 2.98471 7.25 3.62565 7.25H8.45898L10.8757 3.625H18.1257L20.5423 7.25H25.3757C26.0166 7.25 26.6313 7.50461 27.0845 7.95783C27.5377 8.41104 27.7923 9.02573 27.7923 9.66667V22.9583Z" stroke="#3068F7" stroke-width="1.5" stroke-linecap="round" stroke-linejoin="round"/>
<path d="M14.4993 20.5417C17.1687 20.5417 19.3327 18.3777 19.3327 15.7083C19.3327 13.039 17.1687 10.875 14.4993 10.875C11.83 10.875 9.66602 13.039 9.66602 15.7083C9.66602 18.3777 11.83 20.5417 14.4993 20.5417Z" stroke="#3068F7" stroke-width="1.5" stroke-linecap="round" stroke-linejoin="round"/>
</svg>
