<svg width="50" height="50" viewBox="0 0 50 50" fill="none" xmlns="http://www.w3.org/2000/svg">
<g clip-path="url(#clip0_1137_16090)">
<path d="M36.7027 24.2012C36.0953 21.9376 34.0894 20.3507 31.7965 20.2305L29.981 13.4649C29.6578 12.2696 28.4234 11.5596 27.231 11.8809C26.6539 12.0352 26.1705 12.4063 25.8697 12.9249C25.6275 13.3438 25.5308 13.8184 25.5826 14.2901C23.1285 18.838 18.8912 22.2012 13.9166 23.5343L5.06892 25.9005C3.34236 26.3634 2.15877 27.8497 1.99471 29.5323L1.90779 29.5557C0.53865 29.92 -0.278733 31.3321 0.0874784 32.7042L0.737869 35.1221C1.04451 36.2686 2.08748 37.0274 3.22713 37.0274C3.44685 37.0274 3.67049 36.9991 3.89314 36.9395L3.97713 36.9171C4.75447 38.0059 6.02498 38.669 7.37849 38.669C7.73396 38.669 8.09529 38.6231 8.45467 38.5274L8.7281 38.4542L12.149 46.6739C12.6471 47.8692 13.7769 48.5977 15.0094 48.5977C15.2808 48.5977 15.5582 48.5626 15.8346 48.4883L15.9185 48.4659C16.7242 48.2491 17.397 47.7315 17.814 47.0089C18.2291 46.2882 18.3385 45.4503 18.1236 44.6505L17.0855 40.7813C17.5426 40.5186 17.9244 40.1397 18.1959 39.669C18.6012 38.9669 18.7086 38.1524 18.4996 37.376L18.1197 35.9591C22.8599 34.92 27.8717 35.7706 32.0318 38.335C32.3902 39.1544 33.2056 39.6778 34.0894 39.6778C34.2818 39.6778 34.4762 39.6534 34.6705 39.6016C35.8638 39.2794 36.5758 38.0469 36.2564 36.8536L34.441 30.088C36.3687 28.8399 37.3111 26.4639 36.7027 24.2012ZM2.24763 34.7178L1.59724 32.2999C1.46931 31.8194 1.7115 31.3262 2.149 31.1241L3.31502 35.461C2.83357 35.504 2.37556 35.1983 2.24763 34.7178ZM4.85506 35.1739L3.62654 30.6026C3.25545 29.2139 4.08455 27.7813 5.47322 27.4093L11.4517 25.8096L14.0289 35.418L8.05135 37.0186C6.65975 37.3897 5.22615 36.5626 4.85506 35.1739ZM16.4596 46.2296C16.2515 46.5909 15.9156 46.8497 15.5142 46.9571L15.4303 46.9796C14.6676 47.1837 13.8941 46.8028 13.5904 46.0743L10.2496 38.0469L14.4322 36.9268L16.6129 45.0577C16.7213 45.4542 16.6666 45.8712 16.4596 46.2296ZM15.9429 36.5225L16.6051 36.3448L16.9898 37.7823C17.0904 38.1563 17.0377 38.5489 16.8414 38.8887C16.7857 38.9844 16.7203 39.0723 16.6471 39.1514L15.9429 36.5225ZM16.898 34.6495L15.5387 35.0137L12.9615 25.4053L14.3209 25.0421C19.1861 23.7384 23.4 20.6446 26.1285 16.4317L31.4342 36.2091C26.9625 33.9239 21.7652 33.3487 16.898 34.6495ZM34.2662 38.0938C33.901 38.1915 33.525 37.9757 33.4283 37.6124L27.1529 14.2208C27.106 14.0469 27.1314 13.8634 27.2222 13.7061C27.314 13.5479 27.4605 13.4356 27.6344 13.3887L27.6373 13.3878C27.6959 13.3721 27.7555 13.3643 27.8131 13.3643C28.1138 13.3643 28.3902 13.5665 28.4722 13.8702L34.7476 37.2589C34.8453 37.6212 34.6275 37.9962 34.2662 38.0938ZM34.0074 28.4678L32.233 21.8536C33.6363 22.1241 34.8101 23.1749 35.1949 24.6075C35.5787 26.0382 35.0875 27.5333 34.0074 28.4678ZM49.565 7.23152C48.0855 2.77839 43.2555 0.357493 38.7974 1.83406C36.6383 2.54988 34.8873 4.06257 33.8668 6.09382C32.8463 8.12507 32.6793 10.4317 33.3961 12.5889C34.0406 14.5303 35.3424 16.1524 37.0865 17.1993L37.2799 20.7891C37.2974 21.1143 37.5142 21.3946 37.8258 21.4923C37.9029 21.5167 37.982 21.5284 38.0601 21.5284C38.2965 21.5284 38.525 21.421 38.6754 21.2286L40.8883 18.3985C41.9918 18.4776 43.0914 18.3389 44.1627 17.9835C46.3219 17.2676 48.0728 15.7559 49.0933 13.7247C50.1139 11.6954 50.2818 9.38874 49.565 7.23152ZM47.6978 13.0245C46.8648 14.6817 45.4351 15.9171 43.6724 16.501C42.6783 16.8301 41.6568 16.9327 40.6353 16.8048C40.3619 16.7706 40.0924 16.8819 39.9224 17.0987L38.7291 18.6251L38.6246 16.6885C38.6099 16.4151 38.4527 16.169 38.2115 16.0411C36.6275 15.1983 35.4439 13.7979 34.8795 12.0968C34.2945 10.336 34.4312 8.4532 35.2633 6.79499C36.0963 5.13679 37.526 3.90144 39.2887 3.31745C40.0133 3.07722 40.7496 2.96296 41.4742 2.96296C44.3912 2.96296 47.1148 4.81062 48.0816 7.7237C48.6666 9.48542 48.5308 11.3673 47.6978 13.0245ZM44.8668 22.0177C44.9781 22.4346 44.731 22.8624 44.314 22.9747L40.231 24.0665C40.1637 24.085 40.0953 24.0928 40.0289 24.0928C39.6842 24.0928 39.3678 23.8624 39.275 23.5128C39.1637 23.0958 39.4107 22.668 39.8277 22.5557L43.9107 21.4639C44.3267 21.3536 44.7555 21.6007 44.8668 22.0177ZM43.9449 29.0128C43.8004 29.2637 43.5377 29.4044 43.2672 29.4044C43.1344 29.4044 43.0006 29.3712 42.8775 29.2999L39.2183 27.1905C38.8443 26.9747 38.7164 26.4971 38.9312 26.1231C39.1471 25.7491 39.6246 25.6212 39.9986 25.836L43.6578 27.9454C44.0318 28.1612 44.1597 28.6387 43.9449 29.0128ZM44.6041 6.97273L39.6187 13.7735C39.4654 13.9825 39.2281 14.0928 38.9879 14.0928C38.8277 14.0928 38.6656 14.044 38.5269 13.9415C38.1793 13.6866 38.1041 13.1973 38.359 12.8497L43.3443 6.0489C43.5992 5.70124 44.0885 5.62605 44.4361 5.88093C44.7838 6.13581 44.859 6.62409 44.6041 6.97273ZM40.7242 8.56452V7.41413C40.7242 6.45417 39.943 5.6739 38.982 5.6739C38.0211 5.6739 37.2398 6.45515 37.2398 7.41413V8.56452C37.2398 9.52448 38.0211 10.3048 38.982 10.3048C39.943 10.3048 40.7242 9.52448 40.7242 8.56452ZM38.8033 8.56452V7.41413C38.8033 7.31745 38.8853 7.2364 38.983 7.2364C39.0806 7.2364 39.1627 7.31745 39.1627 7.41413V8.56452C39.1627 8.6612 39.0806 8.74226 38.983 8.74226C38.8853 8.74226 38.8033 8.6612 38.8033 8.56452ZM43.9791 9.51667C43.0191 9.51667 42.2369 10.2979 42.2369 11.2569V12.4044C42.2369 13.3653 43.0181 14.1475 43.9791 14.1475C44.94 14.1475 45.7213 13.3653 45.7213 12.4044V11.2569C45.7213 10.2979 44.94 9.51667 43.9791 9.51667ZM44.1588 12.4044C44.1588 12.502 44.0767 12.585 43.9791 12.585C43.8814 12.585 43.7994 12.502 43.7994 12.4044V11.2569C43.7994 11.1602 43.8814 11.0792 43.9791 11.0792C44.0767 11.0792 44.1588 11.1602 44.1588 11.2569V12.4044Z" fill="#D819A3"/>
</g>
<defs>
<clipPath id="clip0_1137_16090">
<rect width="50" height="50" fill="white"/>
</clipPath>
</defs>
</svg>
