<svg width="24" height="24" viewBox="0 0 24 24" fill="none" xmlns="http://www.w3.org/2000/svg">
<g opacity="0.5">
<path d="M19.3003 9.05046L15.0503 4.85046L16.4503 3.45046C16.6341 3.2632 16.8543 3.11558 17.0973 3.01668C17.3403 2.91779 17.601 2.86973 17.8633 2.87546C18.1254 2.86981 18.386 2.91791 18.6288 3.0168C18.8717 3.11569 19.0917 3.26328 19.2753 3.45046L20.6753 4.85046C21.0583 5.23346 21.2583 5.69646 21.2753 6.23846C21.2877 6.49549 21.2451 6.7522 21.1502 6.99141C21.0554 7.23062 20.9105 7.4468 20.7253 7.62546L19.3003 9.05046ZM4.0003 21.1255C3.86823 21.1287 3.73689 21.1049 3.61441 21.0553C3.49194 21.0058 3.38094 20.9316 3.2883 20.8375C3.19411 20.7448 3.11995 20.6338 3.07041 20.5113C3.02087 20.3889 2.99701 20.2575 3.0003 20.1255V17.3005C3.00073 17.0287 3.10856 16.7681 3.3003 16.5755L13.6003 6.27546L17.8503 10.5255L7.5503 20.8255C7.45592 20.9218 7.34304 20.998 7.21845 21.0495C7.09386 21.1011 6.96013 21.1269 6.8253 21.1255H4.0003Z" fill="#ACACAC"/>
</g>
</svg>
