<svg width="40" height="40" viewBox="0 0 40 40" fill="none" xmlns="http://www.w3.org/2000/svg">
<path d="M33.3346 20V36.6667H6.66797V20" stroke="#D819A3" stroke-width="2" stroke-linecap="round" stroke-linejoin="round"/>
<path d="M36.6654 11.667H3.33203V20.0003H36.6654V11.667Z" stroke="#D819A3" stroke-width="2" stroke-linecap="round" stroke-linejoin="round"/>
<path d="M20 36.6665V11.6665" stroke="#D819A3" stroke-width="2" stroke-linecap="round" stroke-linejoin="round"/>
<path d="M19.9987 11.6663H12.4987C11.3936 11.6663 10.3338 11.2274 9.55242 10.446C8.77102 9.66455 8.33203 8.60474 8.33203 7.49967C8.33203 6.39461 8.77102 5.3348 9.55242 4.5534C10.3338 3.77199 11.3936 3.33301 12.4987 3.33301C18.332 3.33301 19.9987 11.6663 19.9987 11.6663Z" stroke="#D819A3" stroke-width="2" stroke-linecap="round" stroke-linejoin="round"/>
<path d="M20 11.6668H27.5C28.6051 11.6668 29.6649 11.2278 30.4463 10.4464C31.2277 9.66504 31.6667 8.60523 31.6667 7.50016C31.6667 6.39509 31.2277 5.33529 30.4463 4.55388C29.6649 3.77248 28.6051 3.3335 27.5 3.3335C21.6667 3.3335 20 11.6668 20 11.6668Z" stroke="#D819A3" stroke-width="2" stroke-linecap="round" stroke-linejoin="round"/>
</svg>
