<svg width="55" height="55" viewBox="0 0 55 55" fill="none" xmlns="http://www.w3.org/2000/svg">
<g clip-path="url(#clip0_3069_36044)">
<path d="M15.5447 21.5215H10.7621C10.1021 21.5215 9.56641 22.0572 9.56641 22.7172V32.2823C9.56641 32.9423 10.1021 33.478 10.7621 33.478C11.4221 33.478 11.9578 32.9423 11.9578 32.2823V23.9127H15.5447C16.2047 23.9127 16.7404 23.3771 16.7404 22.7171C16.7404 22.0571 16.2047 21.5215 15.5447 21.5215Z" fill="white"/>
<path d="M13.1534 26.3047H10.7621C10.1021 26.3047 9.56641 26.8404 9.56641 27.5004C9.56641 28.1604 10.1021 28.696 10.7621 28.696H13.1534C13.8134 28.696 14.349 28.1603 14.349 27.5003C14.349 26.8403 13.8134 26.3047 13.1534 26.3047Z" fill="white"/>
<path d="M27.4999 0C12.3368 0 0 12.3368 0 27.4999C0 42.6631 12.3368 54.9999 27.4999 54.9999C42.6631 54.9999 54.9999 42.6631 54.9999 27.4999C54.9999 12.3368 42.6632 0 27.4999 0ZM27.4999 52.6086C13.6543 52.6086 2.39127 41.3456 2.39127 27.4999C2.39127 13.6543 13.6543 2.39127 27.4999 2.39127C41.3456 2.39127 52.6086 13.6543 52.6086 27.4999C52.6086 41.3456 41.3456 52.6086 27.4999 52.6086Z" fill="white"/>
<path d="M43.3506 14.7949C39.4647 9.95248 33.6874 7.17383 27.4986 7.17383C21.3099 7.17383 15.5326 9.95248 11.6467 14.7949C11.2329 15.309 11.3143 16.0623 11.8308 16.4759C12.345 16.8897 13.0983 16.8083 13.5095 16.2918C16.941 12.0161 22.0393 9.56498 27.4986 9.56498C32.958 9.56498 38.0563 12.0161 41.4854 16.2918C41.7221 16.5859 42.0688 16.7389 42.418 16.7389C42.6835 16.7389 42.9465 16.6528 43.1665 16.4758C43.683 16.0623 43.7644 15.309 43.3506 14.7949Z" fill="white"/>
<path d="M42.194 39.7833C41.7205 39.3314 40.9601 39.3506 40.5058 39.8287C37.0743 43.442 32.4566 45.4339 27.5018 45.4339C22.547 45.4339 17.9295 43.4419 14.5003 39.8287C14.0484 39.3457 13.288 39.3314 12.8121 39.7833C12.3291 40.2377 12.3123 40.9957 12.7667 41.474C16.6526 45.5703 21.8848 47.8253 27.5019 47.8253C33.1191 47.8253 38.3512 45.5703 42.2395 41.474C42.6938 40.9957 42.6746 40.2377 42.194 39.7833Z" fill="white"/>
<path d="M23.1798 28.6643C24.9398 28.4371 26.3028 26.9283 26.3028 25.1084C26.3028 23.1308 24.6935 21.5215 22.7159 21.5215H20.3246C19.6646 21.5215 19.1289 22.0572 19.1289 22.7172V27.4902C19.1289 27.495 19.1289 27.5022 19.1289 27.5069V32.2823C19.1289 32.9423 19.6646 33.478 20.3246 33.478C20.9846 33.478 21.5203 32.9423 21.5203 32.2823V30.3861L24.2607 33.1289C24.4951 33.3608 24.8011 33.478 25.1072 33.478C25.4134 33.478 25.7194 33.3609 25.9514 33.1265C26.4177 32.6602 26.4177 31.9021 25.9514 31.4358L23.1798 28.6643ZM21.5203 26.3041V23.9129H22.716C23.3736 23.9129 23.9117 24.4486 23.9117 25.1086C23.9117 25.7686 23.3736 26.3042 22.716 26.3042L21.5203 26.3041Z" fill="white"/>
<path d="M34.6736 31.0867H31.0867V23.9127H34.6736C35.3336 23.9127 35.8693 23.3771 35.8693 22.7171C35.8693 22.0571 35.3336 21.5215 34.6736 21.5215H29.891C29.231 21.5215 28.6953 22.0572 28.6953 22.7172V32.2823C28.6953 32.9423 29.231 33.478 29.891 33.478H34.6736C35.3336 33.478 35.8693 32.9423 35.8693 32.2823C35.8693 31.6223 35.3336 31.0867 34.6736 31.0867Z" fill="white"/>
<path d="M32.2823 26.3047H29.891C29.231 26.3047 28.6953 26.8404 28.6953 27.5004C28.6953 28.1604 29.231 28.696 29.891 28.696H32.2823C32.9423 28.696 33.478 28.1603 33.478 27.5003C33.478 26.8403 32.9423 26.3047 32.2823 26.3047Z" fill="white"/>
<path d="M44.24 31.0867H40.6531V23.9127H44.24C44.9 23.9127 45.4357 23.3771 45.4357 22.7171C45.4357 22.0571 44.9 21.5215 44.24 21.5215H39.4574C38.7974 21.5215 38.2617 22.0572 38.2617 22.7172V32.2823C38.2617 32.9423 38.7974 33.478 39.4574 33.478H44.24C44.9 33.478 45.4357 32.9423 45.4357 32.2823C45.4357 31.6223 44.9 31.0867 44.24 31.0867Z" fill="white"/>
<path d="M41.8487 26.3047H39.4574C38.7974 26.3047 38.2617 26.8404 38.2617 27.5004C38.2617 28.1604 38.7974 28.696 39.4574 28.696H41.8487C42.5087 28.696 43.0444 28.1603 43.0444 27.5003C43.0444 26.8403 42.5087 26.3047 41.8487 26.3047Z" fill="white"/>
</g>
<defs>
<clipPath id="clip0_3069_36044">
<rect width="55" height="55" fill="white"/>
</clipPath>
</defs>
</svg>
