<svg width="108" height="160" viewBox="0 0 108 160" fill="none" xmlns="http://www.w3.org/2000/svg">
<path d="M53.0405 58.6C50.0805 58.6 47.1805 58.18 44.3405 57.34C41.5405 56.46 39.1805 55.26 37.2605 53.74L40.5605 47.68C42.0805 48.92 43.9205 49.92 46.0805 50.68C48.2805 51.44 50.5605 51.82 52.9205 51.82C55.6805 51.82 57.8405 51.24 59.4005 50.08C61.0005 48.92 61.8005 47.36 61.8005 45.4C61.8005 44.08 61.4605 42.92 60.7805 41.92C60.1405 40.92 58.9805 40.16 57.3005 39.64C55.6605 39.12 53.4005 38.86 50.5205 38.86H40.3805L42.5405 16H67.2005V22.54H45.4205L49.5005 18.82L47.8805 35.92L43.8005 32.26H52.2605C56.4205 32.26 59.7605 32.82 62.2805 33.94C64.8405 35.02 66.7005 36.54 67.8605 38.5C69.0605 40.42 69.6605 42.62 69.6605 45.1C69.6605 47.54 69.0605 49.78 67.8605 51.82C66.6605 53.86 64.8205 55.5 62.3405 56.74C59.9005 57.98 56.8005 58.6 53.0405 58.6Z" fill="#3068F7"/>
<circle cx="54" cy="102" r="34.5" fill="white" stroke="#3068F7"/>
<path d="M0 102C0 94.9086 1.39675 87.8867 4.1105 81.3351C6.82426 74.7835 10.8019 68.8306 15.8162 63.8162C20.8306 58.8019 26.7835 54.8243 33.3351 52.1105C39.8867 49.3968 46.9086 48 54 48C61.0914 48 68.1133 49.3968 74.6649 52.1105C81.2165 54.8243 87.1694 58.8019 92.1838 63.8162C97.1981 68.8306 101.176 74.7835 103.889 81.3351C106.603 87.8867 108 94.9086 108 102H88.9109C88.9109 97.4154 88.008 92.8758 86.2535 88.6402C84.4991 84.4046 81.9276 80.556 78.6858 77.3142C75.444 74.0724 71.5954 71.5009 67.3598 69.7465C63.1243 67.9921 58.5846 67.0891 54 67.0891C49.4154 67.0891 44.8758 67.9921 40.6402 69.7465C36.4046 71.5009 32.556 74.0724 29.3142 77.3142C26.0724 80.556 23.5009 84.4046 21.7465 88.6402C19.9921 92.8757 19.0891 97.4154 19.0891 102H0Z" fill="#3068F7" fill-opacity="0.21"/>
<circle cx="54" cy="156" r="4" fill="#3068F7"/>
<path d="M66.2345 98.5403H41.7617C41.6529 98.5403 41.5486 98.4971 41.4717 98.4202C41.3948 98.3433 41.3516 98.2389 41.3516 98.1302V95.5787C41.3521 95.1198 41.5346 94.6798 41.8591 94.3552C42.1837 94.0307 42.6237 93.8482 43.0827 93.8477H64.9135C65.3725 93.8482 65.8125 94.0307 66.137 94.3552C66.4616 94.6798 66.6441 95.1198 66.6446 95.5787V98.1302C66.6446 98.2389 66.6014 98.3433 66.5245 98.4202C66.4476 98.4971 66.3432 98.5403 66.2345 98.5403ZM42.1719 97.72H65.8243V95.5787C65.824 95.3373 65.7279 95.1058 65.5572 94.9351C65.3865 94.7643 65.155 94.6683 64.9135 94.668H43.0827C42.8412 94.6682 42.6097 94.7643 42.4389 94.935C42.2682 95.1058 42.1721 95.3373 42.1719 95.5787V97.72Z" fill="#3068F7"/>
<path d="M64.1407 96.6034C64.087 96.6039 64.0339 96.5936 63.9843 96.573C63.9348 96.5525 63.8899 96.5222 63.8524 96.4839C63.832 96.4655 63.8146 96.4441 63.8008 96.4204C63.7846 96.3991 63.772 96.3753 63.7633 96.35C63.752 96.3262 63.7441 96.3009 63.7399 96.2748C63.7333 96.248 63.7301 96.2206 63.7305 96.193C63.7301 96.1661 63.7333 96.1394 63.7399 96.1133C63.7444 96.0867 63.7523 96.0607 63.7633 96.036C63.773 96.0112 63.7856 95.9876 63.8008 95.9657C63.816 95.9437 63.8332 95.9233 63.8524 95.9047C63.871 95.8856 63.8914 95.8684 63.9133 95.8532C63.9352 95.8379 63.9588 95.8252 63.9836 95.8154C64.0084 95.8045 64.0343 95.7967 64.061 95.792C64.1142 95.7803 64.1694 95.7803 64.2227 95.792C64.2486 95.7963 64.2739 95.8042 64.2977 95.8154C64.323 95.8242 64.3467 95.837 64.368 95.8532C64.3911 95.8677 64.4123 95.885 64.4313 95.9047C64.4498 95.9239 64.467 95.9443 64.4828 95.9657C64.4969 95.9891 64.5086 96.0125 64.5203 96.036C64.5303 96.0611 64.5381 96.0869 64.5438 96.1133C64.5485 96.1396 64.5508 96.1663 64.5508 96.193C64.5508 96.2204 64.5485 96.2478 64.5438 96.2748C64.5385 96.3006 64.5306 96.3258 64.5203 96.35C64.5107 96.3749 64.4982 96.3985 64.4828 96.4204C64.4683 96.4436 64.451 96.4649 64.4313 96.4839C64.3932 96.522 64.3478 96.5522 64.2979 96.5728C64.2481 96.5933 64.1946 96.6037 64.1407 96.6034Z" fill="#3068F7"/>
<path d="M62.4453 96.6034C62.3918 96.6035 62.3387 96.5929 62.2892 96.5724C62.2398 96.5519 62.1948 96.5218 62.157 96.4839C62.1173 96.4469 62.0868 96.4012 62.068 96.3503C62.0566 96.3264 62.0487 96.3011 62.0445 96.275C62.0391 96.2481 62.0359 96.2207 62.0352 96.1932C62.0359 96.1665 62.0391 96.1398 62.0445 96.1135C62.0491 96.0869 62.057 96.0609 62.068 96.0362C62.0786 96.0118 62.0912 95.9883 62.1055 95.9659C62.1206 95.9439 62.1379 95.9235 62.157 95.905C62.1757 95.8859 62.1961 95.8686 62.218 95.8534C62.2404 95.8376 62.2648 95.8249 62.2906 95.8157C62.3144 95.8044 62.3397 95.7966 62.3656 95.7922C62.4452 95.7774 62.5273 95.786 62.6021 95.8167C62.677 95.8475 62.7413 95.8992 62.7875 95.9657C62.8018 95.9881 62.8143 96.0116 62.825 96.036C62.8349 96.0611 62.8428 96.0869 62.8484 96.1133C62.8531 96.1396 62.8555 96.1663 62.8555 96.193C62.8555 96.2204 62.8531 96.2478 62.8484 96.2748C62.8442 96.3009 62.8363 96.3262 62.825 96.35C62.8154 96.3749 62.8028 96.3985 62.7875 96.4203C62.773 96.4436 62.7557 96.4649 62.7359 96.4839C62.6978 96.522 62.6525 96.5522 62.6026 96.5728C62.5527 96.5933 62.4993 96.6037 62.4453 96.6034Z" fill="#3068F7"/>
<path d="M60.7539 96.6032C60.7 96.6039 60.6466 96.5936 60.5969 96.5727C60.5469 96.5521 60.5015 96.5218 60.4633 96.4836C60.4251 96.4454 60.3948 96.4 60.3742 96.35C60.3629 96.3262 60.355 96.3009 60.3508 96.2748C60.3461 96.2478 60.3438 96.2204 60.3438 96.193C60.3438 96.1663 60.3461 96.1396 60.3508 96.1133C60.3564 96.0869 60.3643 96.0611 60.3742 96.036C60.3849 96.0116 60.3974 95.9881 60.4117 95.9657C60.4579 95.8992 60.5222 95.8475 60.5971 95.8167C60.6719 95.786 60.754 95.7774 60.8336 95.7922C60.8595 95.7966 60.8848 95.8044 60.9086 95.8157C60.9344 95.8249 60.9588 95.8376 60.9813 95.8534C61.0032 95.8686 61.0236 95.8859 61.0422 95.905C61.0613 95.9235 61.0786 95.9439 61.0937 95.9659C61.1081 95.9883 61.1206 96.0118 61.1313 96.0362C61.1412 96.0613 61.149 96.0872 61.1547 96.1135C61.1594 96.1399 61.1617 96.1665 61.1617 96.1932C61.1617 96.2207 61.1594 96.248 61.1547 96.275C61.1505 96.3011 61.1426 96.3264 61.1313 96.3503C61.1116 96.4007 61.0812 96.4463 61.0422 96.4839C61.0044 96.5218 60.9594 96.5518 60.91 96.5723C60.8605 96.5928 60.8074 96.6033 60.7539 96.6032Z" fill="#3068F7"/>
<path d="M59.0575 96.6035H43.8555C43.7467 96.6035 43.6424 96.5603 43.5654 96.4834C43.4885 96.4065 43.4453 96.3021 43.4453 96.1934C43.4453 96.0846 43.4885 95.9803 43.5654 95.9033C43.6424 95.8264 43.7467 95.7832 43.8555 95.7832H59.0575C59.1663 95.7832 59.2706 95.8264 59.3475 95.9033C59.4244 95.9803 59.4677 96.0846 59.4677 96.1934C59.4677 96.3021 59.4244 96.4065 59.3475 96.4834C59.2706 96.5603 59.1663 96.6035 59.0575 96.6035Z" fill="#3068F7"/>
<path d="M64.9116 116.474H43.0859C42.8582 116.474 42.6326 116.429 42.4222 116.342C42.2118 116.255 42.0206 116.127 41.8595 115.966C41.6985 115.805 41.5707 115.614 41.4836 115.403C41.3964 115.193 41.3516 114.967 41.3516 114.739V98.1316C41.3516 98.0228 41.3948 97.9185 41.4717 97.8416C41.5486 97.7647 41.6529 97.7215 41.7617 97.7215H66.207C66.2701 97.7176 66.3333 97.7283 66.3916 97.7527C66.45 97.7771 66.502 97.8145 66.5436 97.8621C66.6094 97.9368 66.6457 98.033 66.6455 98.1325C66.6455 98.1413 66.6455 98.15 66.6455 98.1586V114.741C66.6447 115.201 66.4618 115.641 66.1367 115.966C65.8117 116.291 65.3711 116.473 64.9116 116.474ZM42.1726 98.5418V114.74C42.1726 114.983 42.2689 115.215 42.4403 115.387C42.6117 115.558 42.8442 115.654 43.0866 115.654H64.9116C65.1541 115.654 65.3866 115.558 65.558 115.387C65.7294 115.215 65.8257 114.983 65.8257 114.74V98.5418H42.1726Z" fill="#3068F7"/>
<path d="M46.8554 113.657C46.7709 113.657 46.6884 113.631 46.6194 113.582L44.2735 111.928C44.2292 111.898 44.1913 111.858 44.1622 111.813C44.1331 111.767 44.1133 111.716 44.1039 111.663C44.0945 111.61 44.0957 111.555 44.1075 111.502C44.1193 111.45 44.1414 111.4 44.1725 111.356C44.2037 111.311 44.2432 111.274 44.289 111.245C44.3347 111.216 44.3857 111.197 44.439 111.187C44.4923 111.178 44.5468 111.18 44.5995 111.192C44.6522 111.204 44.702 111.227 44.746 111.258L47.0924 112.911C47.1635 112.962 47.2169 113.033 47.2447 113.116C47.2725 113.198 47.2732 113.288 47.2469 113.371C47.2205 113.454 47.1684 113.526 47.0981 113.578C47.0278 113.629 46.943 113.657 46.8559 113.657H46.8554Z" fill="#3068F7"/>
<path d="M44.5079 113.657C44.4208 113.657 44.3359 113.629 44.2656 113.578C44.1953 113.526 44.1432 113.454 44.1169 113.371C44.0905 113.288 44.0913 113.198 44.1191 113.116C44.1469 113.033 44.2002 112.962 44.2714 112.911L46.6177 111.258C46.6617 111.227 46.7115 111.204 46.7642 111.192C46.8169 111.18 46.8715 111.178 46.9248 111.187C46.9781 111.197 47.029 111.216 47.0748 111.245C47.1205 111.274 47.1601 111.311 47.1912 111.356C47.2224 111.4 47.2445 111.45 47.2562 111.502C47.268 111.555 47.2692 111.61 47.2599 111.663C47.2505 111.716 47.2307 111.767 47.2015 111.813C47.1724 111.858 47.1346 111.898 47.0902 111.928L44.7439 113.582C44.6749 113.631 44.5924 113.657 44.5079 113.657Z" fill="#3068F7"/>
<path d="M45.6836 114.119C45.6297 114.119 45.5764 114.109 45.5266 114.088C45.4768 114.067 45.4316 114.037 45.3935 113.999C45.3554 113.961 45.3252 113.916 45.3046 113.866C45.284 113.816 45.2734 113.763 45.2734 113.709V111.131C45.2734 111.022 45.3167 110.918 45.3936 110.841C45.4705 110.764 45.5748 110.721 45.6836 110.721C45.7924 110.721 45.8967 110.764 45.9736 110.841C46.0505 110.918 46.0938 111.022 46.0938 111.131V113.709C46.0938 113.818 46.0505 113.922 45.9736 113.999C45.8967 114.076 45.7924 114.119 45.6836 114.119Z" fill="#3068F7"/>
<path d="M51.0121 113.657C50.9277 113.657 50.8453 113.631 50.7763 113.582L48.4298 111.928C48.3854 111.898 48.3476 111.858 48.3185 111.813C48.2893 111.767 48.2695 111.716 48.2601 111.663C48.2507 111.61 48.252 111.555 48.2638 111.502C48.2755 111.45 48.2976 111.4 48.3288 111.356C48.3599 111.311 48.3995 111.274 48.4452 111.245C48.491 111.216 48.5419 111.197 48.5952 111.187C48.6485 111.178 48.7031 111.18 48.7558 111.192C48.8085 111.204 48.8583 111.227 48.9023 111.258L51.2488 112.911C51.32 112.962 51.3734 113.033 51.4012 113.116C51.4289 113.198 51.4297 113.288 51.4033 113.371C51.377 113.454 51.3248 113.526 51.2545 113.578C51.1841 113.629 51.0993 113.657 51.0121 113.657Z" fill="#3068F7"/>
<path d="M48.668 113.656C48.5809 113.656 48.4961 113.628 48.4258 113.577C48.3555 113.525 48.3034 113.453 48.277 113.37C48.2507 113.287 48.2514 113.198 48.2792 113.115C48.307 113.032 48.3604 112.961 48.4315 112.911L50.7781 111.257C50.867 111.195 50.9769 111.171 51.0836 111.19C51.1903 111.209 51.2852 111.269 51.3477 111.357C51.4101 111.446 51.4349 111.556 51.4167 111.663C51.3985 111.769 51.3388 111.865 51.2506 111.928L48.904 113.581C48.835 113.63 48.7525 113.656 48.668 113.656Z" fill="#3068F7"/>
<path d="M49.8398 114.119C49.7311 114.119 49.6267 114.076 49.5498 113.999C49.4729 113.922 49.4297 113.818 49.4297 113.709V111.131C49.4297 111.022 49.4729 110.918 49.5498 110.841C49.6267 110.764 49.7311 110.721 49.8398 110.721C49.9486 110.721 50.0529 110.764 50.1299 110.841C50.2068 110.918 50.25 111.022 50.25 111.131V113.709C50.25 113.818 50.2068 113.922 50.1299 113.999C50.0529 114.076 49.9486 114.119 49.8398 114.119Z" fill="#3068F7"/>
<path d="M55.17 113.656C55.086 113.656 55.0042 113.63 54.9356 113.581L52.589 111.928C52.5428 111.898 52.5031 111.859 52.4723 111.813C52.4415 111.767 52.4203 111.716 52.4098 111.662C52.3993 111.608 52.3999 111.552 52.4114 111.498C52.423 111.444 52.4453 111.393 52.477 111.348C52.5087 111.303 52.5492 111.265 52.596 111.236C52.6428 111.207 52.6951 111.187 52.7495 111.179C52.804 111.17 52.8596 111.173 52.9131 111.186C52.9665 111.2 53.0167 111.224 53.0606 111.257L55.4072 112.911C55.4784 112.961 55.5317 113.033 55.5595 113.115C55.5873 113.198 55.588 113.287 55.5617 113.37C55.5353 113.453 55.4831 113.526 55.4128 113.577C55.3425 113.629 55.2576 113.656 55.1705 113.656H55.17Z" fill="#3068F7"/>
<path d="M52.8284 113.657C52.7413 113.657 52.6564 113.629 52.5861 113.578C52.5157 113.526 52.4636 113.454 52.4372 113.371C52.4108 113.288 52.4116 113.198 52.4394 113.116C52.4671 113.033 52.5205 112.962 52.5917 112.911L54.9378 111.258C54.9818 111.227 55.0316 111.204 55.0843 111.192C55.137 111.18 55.1915 111.178 55.2448 111.187C55.2981 111.197 55.3491 111.216 55.3948 111.245C55.4406 111.274 55.4801 111.311 55.5113 111.356C55.5424 111.4 55.5645 111.45 55.5763 111.502C55.5881 111.555 55.5893 111.61 55.5799 111.663C55.5706 111.716 55.5507 111.767 55.5216 111.813C55.4925 111.858 55.4547 111.898 55.4103 111.928L53.0628 113.582C52.9942 113.63 52.9124 113.657 52.8284 113.657Z" fill="#3068F7"/>
<path d="M54 114.119C53.8912 114.119 53.7869 114.076 53.71 113.999C53.6331 113.922 53.5898 113.818 53.5898 113.709V111.131C53.5898 111.022 53.6331 110.918 53.71 110.841C53.7869 110.764 53.8912 110.721 54 110.721C54.1088 110.721 54.2131 110.764 54.29 110.841C54.3669 110.918 54.4102 111.022 54.4102 111.131V113.709C54.4102 113.818 54.3669 113.922 54.29 113.999C54.2131 114.076 54.1088 114.119 54 114.119Z" fill="#3068F7"/>
<path d="M59.3326 113.656C59.2481 113.656 59.1656 113.63 59.0966 113.581L56.7501 111.928C56.6619 111.865 56.6021 111.769 56.5839 111.663C56.5658 111.556 56.5906 111.446 56.653 111.357C56.7154 111.269 56.8104 111.209 56.9171 111.19C57.0238 111.171 57.1336 111.195 57.2226 111.257L59.5691 112.911C59.6403 112.961 59.6937 113.032 59.7214 113.115C59.7492 113.198 59.75 113.287 59.7236 113.37C59.6973 113.453 59.6452 113.525 59.5749 113.577C59.5046 113.628 59.4198 113.656 59.3326 113.656Z" fill="#3068F7"/>
<path d="M56.9847 113.657C56.8975 113.657 56.8127 113.629 56.7423 113.578C56.672 113.526 56.6198 113.454 56.5935 113.371C56.5671 113.288 56.5678 113.198 56.5956 113.116C56.6234 113.033 56.6768 112.962 56.7479 112.911L59.0945 111.258C59.1385 111.227 59.1883 111.204 59.241 111.192C59.2937 111.18 59.3483 111.178 59.4016 111.187C59.4549 111.197 59.5058 111.216 59.5516 111.245C59.5973 111.274 59.6369 111.311 59.668 111.356C59.6992 111.4 59.7212 111.45 59.733 111.502C59.7448 111.555 59.746 111.61 59.7367 111.663C59.7273 111.716 59.7075 111.767 59.6783 111.813C59.6492 111.858 59.6114 111.898 59.567 111.928L57.2204 113.582C57.1515 113.631 57.0691 113.657 56.9847 113.657Z" fill="#3068F7"/>
<path d="M58.1562 114.119C58.0475 114.119 57.9431 114.076 57.8662 113.999C57.7893 113.922 57.7461 113.818 57.7461 113.709V111.131C57.7461 111.077 57.7567 111.024 57.7773 110.974C57.7979 110.924 57.8281 110.879 57.8662 110.841C57.9043 110.803 57.9495 110.773 57.9993 110.752C58.0491 110.731 58.1024 110.721 58.1562 110.721C58.2101 110.721 58.2634 110.731 58.3132 110.752C58.363 110.773 58.4082 110.803 58.4463 110.841C58.4844 110.879 58.5146 110.924 58.5352 110.974C58.5558 111.024 58.5664 111.077 58.5664 111.131V113.709C58.5664 113.818 58.5232 113.922 58.4463 113.999C58.3694 114.076 58.265 114.119 58.1562 114.119Z" fill="#3068F7"/>
<path d="M63.4887 113.657C63.4042 113.657 63.3217 113.631 63.2527 113.582L60.9063 111.928C60.862 111.898 60.8241 111.858 60.795 111.813C60.7659 111.767 60.7461 111.716 60.7367 111.663C60.7273 111.61 60.7285 111.555 60.7403 111.502C60.7521 111.45 60.7742 111.4 60.8053 111.356C60.8365 111.311 60.8761 111.274 60.9218 111.245C60.9675 111.216 61.0185 111.197 61.0718 111.187C61.1251 111.178 61.1797 111.18 61.2324 111.192C61.285 111.204 61.3348 111.227 61.3788 111.258L63.7252 112.911C63.7964 112.962 63.8497 113.033 63.8775 113.116C63.9053 113.198 63.906 113.288 63.8797 113.371C63.8533 113.454 63.8013 113.526 63.731 113.578C63.6607 113.629 63.5758 113.657 63.4887 113.657Z" fill="#3068F7"/>
<path d="M61.1446 113.657C61.0575 113.657 60.9726 113.629 60.9023 113.578C60.832 113.526 60.7799 113.454 60.7536 113.371C60.7272 113.288 60.728 113.198 60.7558 113.116C60.7836 113.033 60.8369 112.962 60.9081 112.911L63.2544 111.258C63.2984 111.227 63.3482 111.204 63.4009 111.192C63.4536 111.18 63.5082 111.178 63.5615 111.187C63.6148 111.197 63.6658 111.216 63.7115 111.245C63.7572 111.274 63.7968 111.311 63.8279 111.356C63.8591 111.4 63.8812 111.45 63.893 111.502C63.9047 111.555 63.906 111.61 63.8966 111.663C63.8872 111.716 63.8674 111.767 63.8383 111.813C63.8091 111.858 63.7713 111.898 63.7269 111.928L61.3806 113.582C61.3116 113.631 61.2291 113.657 61.1446 113.657Z" fill="#3068F7"/>
<path d="M62.3164 114.119C62.2076 114.119 62.1033 114.076 62.0264 113.999C61.9495 113.922 61.9062 113.818 61.9062 113.709V111.131C61.9062 111.022 61.9495 110.918 62.0264 110.841C62.1033 110.764 62.2076 110.721 62.3164 110.721C62.4252 110.721 62.5295 110.764 62.6064 110.841C62.6833 110.918 62.7266 111.022 62.7266 111.131V113.709C62.7266 113.763 62.716 113.816 62.6954 113.866C62.6748 113.916 62.6446 113.961 62.6065 113.999C62.5684 114.037 62.5232 114.067 62.4734 114.088C62.4236 114.109 62.3703 114.119 62.3164 114.119Z" fill="#3068F7"/>
<path d="M63.4908 104.371H60.0234C59.9147 104.371 59.8103 104.328 59.7334 104.251C59.6565 104.174 59.6133 104.07 59.6133 103.961V100.492C59.6133 100.383 59.6566 100.279 59.7335 100.202C59.8104 100.125 59.9147 100.082 60.0234 100.082H63.4908C63.5995 100.082 63.7038 100.125 63.7807 100.202C63.8576 100.279 63.9009 100.383 63.9009 100.492V103.961C63.9009 104.07 63.8577 104.174 63.7808 104.251C63.7039 104.328 63.5996 104.371 63.4908 104.371ZM60.4336 103.551H63.0806V100.902H60.4336V103.551Z" fill="#3068F7"/>
<path d="M63.4908 109.467H60.0234C59.9147 109.467 59.8103 109.424 59.7334 109.347C59.6565 109.27 59.6133 109.166 59.6133 109.057V105.59C59.6133 105.481 59.6565 105.377 59.7334 105.3C59.8103 105.223 59.9147 105.18 60.0234 105.18H63.4908C63.5996 105.18 63.7039 105.223 63.7808 105.3C63.8577 105.377 63.9009 105.481 63.9009 105.59V109.057C63.9009 109.166 63.8577 109.27 63.7808 109.347C63.7039 109.424 63.5996 109.467 63.4908 109.467ZM60.4336 108.647H63.0806V106H60.4336V108.647Z" fill="#3068F7"/>
<path d="M47.6436 101.225H44.3516C44.2428 101.225 44.1385 101.181 44.0615 101.104C43.9846 101.028 43.9414 100.923 43.9414 100.814C43.9414 100.706 43.9846 100.601 44.0615 100.524C44.1385 100.448 44.2428 100.404 44.3516 100.404H47.6436C47.7524 100.404 47.8567 100.448 47.9336 100.524C48.0105 100.601 48.0538 100.706 48.0538 100.814C48.0538 100.923 48.0105 101.028 47.9336 101.104C47.8567 101.181 47.7524 101.225 47.6436 101.225Z" fill="#3068F7"/>
<path d="M56.6533 100.904C56.5994 100.904 56.5461 100.894 56.4963 100.873C56.4464 100.853 56.4012 100.823 56.363 100.785C56.3248 100.747 56.2945 100.702 56.2738 100.652C56.253 100.602 56.2423 100.549 56.2422 100.495C56.2421 100.441 56.2526 100.388 56.2731 100.338C56.2936 100.288 56.3237 100.243 56.3617 100.205C56.3997 100.167 56.4448 100.136 56.4945 100.115C56.5442 100.095 56.5975 100.084 56.6514 100.084L58.266 100.076H58.2679C58.3767 100.076 58.4811 100.119 58.5582 100.196C58.6353 100.272 58.6787 100.377 58.679 100.485C58.6792 100.594 58.6363 100.699 58.5595 100.776C58.4828 100.853 58.3785 100.896 58.2698 100.896L56.6552 100.904H56.6533Z" fill="#3068F7"/>
<path d="M53.0556 102.656C52.9468 102.656 52.8424 102.613 52.7653 102.536C52.6882 102.46 52.6448 102.356 52.6445 102.247C52.6443 102.138 52.6873 102.034 52.764 101.956C52.8407 101.879 52.945 101.836 53.0538 101.836L58.2667 101.811H58.2686C58.3774 101.81 58.4818 101.853 58.5589 101.93C58.636 102.007 58.6794 102.111 58.6797 102.22C58.6799 102.329 58.637 102.433 58.5602 102.51C58.4835 102.587 58.3793 102.631 58.2705 102.631L53.0584 102.656H53.0556Z" fill="#3068F7"/>
<path d="M53.9072 104.384C53.7984 104.384 53.694 104.341 53.6169 104.265C53.5398 104.188 53.4963 104.084 53.4961 103.975C53.4958 103.866 53.5388 103.762 53.6156 103.685C53.6923 103.608 53.7965 103.564 53.9053 103.564L58.2635 103.543H58.2654C58.3742 103.543 58.4786 103.586 58.5557 103.662C58.6328 103.739 58.6762 103.843 58.6765 103.952C58.6767 104.061 58.6338 104.165 58.557 104.242C58.4803 104.32 58.376 104.363 58.2673 104.363L53.91 104.384H53.9072Z" fill="#3068F7"/>
<path d="M56.6495 106C56.5956 106 56.5423 105.99 56.4925 105.969C56.4426 105.949 56.3973 105.919 56.3592 105.881C56.282 105.804 56.2386 105.7 56.2383 105.591C56.238 105.482 56.2809 105.378 56.3577 105.301C56.4344 105.224 56.5386 105.18 56.6474 105.18L58.2646 105.172H58.2664C58.3203 105.172 58.3737 105.182 58.4235 105.203C58.4733 105.223 58.5186 105.253 58.5567 105.291C58.5949 105.329 58.6252 105.374 58.646 105.424C58.6667 105.474 58.6774 105.527 58.6775 105.581C58.6777 105.635 58.6672 105.688 58.6467 105.738C58.6262 105.788 58.5961 105.833 58.5581 105.871C58.5201 105.91 58.4749 105.94 58.4252 105.961C58.3755 105.981 58.3222 105.992 58.2683 105.992L56.6511 106H56.6495Z" fill="#3068F7"/>
<path d="M50.5791 107.764C50.4703 107.764 50.3659 107.721 50.2888 107.644C50.2117 107.567 50.1682 107.463 50.168 107.354C50.1677 107.246 50.2107 107.141 50.2874 107.064C50.3642 106.987 50.4684 106.944 50.5772 106.943L58.267 106.906H58.2689C58.3777 106.906 58.4821 106.949 58.5592 107.026C58.6363 107.102 58.6798 107.207 58.68 107.315C58.6802 107.424 58.6373 107.529 58.5605 107.606C58.4838 107.683 58.3796 107.726 58.2708 107.727L50.5809 107.764H50.5791Z" fill="#3068F7"/>
<path d="M44.5088 109.527C44.4 109.527 44.2955 109.484 44.2185 109.408C44.1414 109.331 44.0979 109.227 44.0977 109.118C44.0974 109.009 44.1404 108.905 44.2171 108.828C44.2939 108.75 44.3981 108.707 44.5069 108.707L58.2647 108.641H58.2666C58.3753 108.64 58.4798 108.683 58.5569 108.76C58.634 108.837 58.6774 108.941 58.6777 109.05C58.6779 109.159 58.6349 109.263 58.5582 109.34C58.4814 109.417 58.3772 109.461 58.2684 109.461L44.5106 109.527H44.5088Z" fill="#3068F7"/>
</svg>
