<svg width="55" height="55" viewBox="0 0 55 55" fill="none" xmlns="http://www.w3.org/2000/svg">
<path d="M42.1085 23.2033C41.6342 23.2033 41.2492 22.8183 41.2492 22.344C41.2492 13.5663 35.0445 5.80614 26.492 3.89489C26.0279 3.79177 25.7392 3.33114 25.8406 2.8688C25.9454 2.40646 26.3975 2.11255 26.8684 2.21911C36.1978 4.30396 42.9679 12.7688 42.9679 22.344C42.9679 22.8183 42.5829 23.2033 42.1085 23.2033Z" fill="#3068F7"/>
<path d="M18.0434 42.5013C17.9833 42.5013 17.9214 42.4944 17.8578 42.4806C8.50609 40.4061 1.71875 31.9395 1.71875 22.3438C1.71875 21.8694 2.10375 21.4844 2.57812 21.4844C3.0525 21.4844 3.4375 21.8694 3.4375 22.3438C3.4375 31.1386 9.65766 38.9022 18.2291 40.8014C18.6931 40.9045 18.9836 41.3634 18.8822 41.8275C18.7945 42.228 18.4387 42.5013 18.0434 42.5013Z" fill="#3068F7"/>
<path d="M22.4688 37.8125C13.9386 37.8125 7 30.8722 7 22.3438C7 13.8153 13.9386 6.875 22.4688 6.875C30.9989 6.875 37.9375 13.8153 37.9375 22.3438C37.9375 23.8666 37.7158 25.3739 37.2792 26.8245C37.1434 27.28 36.6639 27.5344 36.2102 27.4003C35.7547 27.2628 35.4969 26.785 35.6344 26.3295C36.0228 25.0387 36.2188 23.6981 36.2188 22.3438C36.2188 14.7623 30.0502 8.59375 22.4688 8.59375C14.8873 8.59375 8.71875 14.7623 8.71875 22.3438C8.71875 29.9252 14.8873 36.0938 22.4688 36.0938C23.8266 36.0938 25.1689 35.8961 26.4597 35.5059C26.9134 35.365 27.393 35.6245 27.5305 36.08C27.668 36.5338 27.4119 37.0133 26.9564 37.1508C25.5058 37.5908 23.995 37.8125 22.4688 37.8125Z" fill="#3068F7"/>
<path d="M47.2646 53.2819C47.0446 53.2819 46.8246 53.1976 46.6562 53.0309L41.469 47.8437C41.1339 47.5086 41.1339 46.9637 41.469 46.6286C41.8042 46.2934 42.349 46.2934 42.6842 46.6286L47.2629 51.2073L51.204 47.2662L43.504 39.5662C43.3149 39.3772 43.2239 39.109 43.2599 38.8426C43.296 38.5762 43.4542 38.3425 43.6879 38.2101L48.5382 35.4687L29.656 29.6594L35.4757 48.5708L38.786 42.8594C39.0249 42.4469 39.5526 42.3111 39.9617 42.5465C40.3707 42.7854 40.5117 43.3097 40.2745 43.7222L35.9776 51.1351C35.8057 51.429 35.4792 51.6061 35.1371 51.5579C34.7985 51.5201 34.5132 51.2829 34.4135 50.9564L27.5385 28.6126C27.444 28.3084 27.5265 27.9767 27.7517 27.7533C27.9768 27.5298 28.3017 27.4473 28.6128 27.5384L50.9565 34.4134C51.2831 34.5148 51.5203 34.8019 51.5581 35.1422C51.5942 35.4825 51.4257 35.8142 51.1267 35.9826L45.5201 39.1503L53.0293 46.6578C53.1892 46.8194 53.2803 47.0376 53.2803 47.2662C53.2803 47.4948 53.1892 47.7131 53.0293 47.8747L47.8731 53.0309C47.7046 53.1976 47.4846 53.2819 47.2646 53.2819Z" fill="#3068F7"/>
<path d="M19.496 27.001V16.7344H23.5293C24.8493 16.7344 25.8907 17.0277 26.6533 17.6144C27.416 18.1913 27.7973 19.037 27.7973 20.1517C27.7973 21.2664 27.416 22.117 26.6533 22.7037C25.8907 23.2904 24.8493 23.5837 23.5293 23.5837H20.3173L20.9773 22.8944V27.001H19.496ZM20.9773 23.041L20.3173 22.3664H23.5293C24.4289 22.3664 25.1182 22.1757 25.5973 21.7944C26.0764 21.413 26.316 20.8704 26.316 20.1664C26.316 19.4722 26.0764 18.9393 25.5973 18.5677C25.1182 18.1962 24.4289 18.0104 23.5293 18.0104H20.3173L20.9773 17.277V23.041ZM18 25.285V24.449H24.2333V25.285H18Z" fill="#3068F7"/>
</svg>
