<svg width="108" height="160" viewBox="0 0 108 160" fill="none" xmlns="http://www.w3.org/2000/svg">
<path d="M38.1391 58V52.78L54.8191 36.94C56.2191 35.62 57.2591 34.46 57.9391 33.46C58.6191 32.46 59.0591 31.54 59.2591 30.7C59.4991 29.82 59.6191 29 59.6191 28.24C59.6191 26.32 58.9591 24.84 57.6391 23.8C56.3191 22.72 54.3791 22.18 51.8191 22.18C49.7791 22.18 47.9191 22.54 46.2391 23.26C44.5991 23.98 43.1791 25.08 41.9791 26.56L36.5191 22.36C38.1591 20.16 40.3591 18.46 43.1191 17.26C45.9191 16.02 49.0391 15.4 52.4791 15.4C55.5191 15.4 58.1591 15.9 60.3991 16.9C62.6791 17.86 64.4191 19.24 65.6191 21.04C66.8591 22.84 67.4791 24.98 67.4791 27.46C67.4791 28.82 67.2991 30.18 66.9391 31.54C66.5791 32.86 65.8991 34.26 64.8991 35.74C63.8991 37.22 62.4391 38.88 60.5191 40.72L46.1791 54.34L44.5591 51.4H69.0991V58H38.1391Z" fill="#3068F7"/>
<circle cx="54" cy="102" r="34.5" fill="white" stroke="#3068F7"/>
<path d="M40.0722 114.313C40.0235 114.387 39.9988 114.474 40.0012 114.563C40.0036 114.651 40.0331 114.737 40.0858 114.808C40.1716 114.929 40.3115 115 40.456 115C40.4876 115 40.5192 115 40.5553 114.991L44.7043 114.081C45.9006 114.683 47.2415 115 48.5869 115C53.2686 115 57.0834 111.269 57.1557 106.655C59.1873 107.199 61.413 106.994 63.3001 106.048L67.4491 106.954C67.4807 106.963 67.5123 106.963 67.5484 106.963C67.6929 106.963 67.8328 106.891 67.9186 106.771C68.0224 106.624 68.0269 106.427 67.9321 106.275L66.2391 103.629C67.3816 102.15 68.0003 100.34 67.9998 98.4791C67.9998 93.8022 64.1534 90 59.422 90C54.6907 90 50.9254 93.7308 50.8532 98.3408C50.1309 98.1444 49.3724 98.0328 48.5869 98.0328C43.8465 98.0373 40 101.84 40 106.516C40 108.377 40.623 110.194 41.7652 111.666L40.0722 114.313ZM59.413 90.897C63.6432 90.897 67.0879 94.302 67.0879 98.4836C67.0879 100.246 66.4649 101.964 65.3272 103.317C65.2008 103.464 65.1872 103.678 65.2911 103.839L66.5777 105.847L63.3272 105.137C63.2233 105.115 63.1105 105.129 63.0157 105.178C61.2143 106.124 59.0428 106.307 57.1105 105.709C56.8035 102.491 54.6636 99.7911 51.7381 98.6398C51.7381 98.5862 51.7336 98.5327 51.7336 98.4791C51.7336 94.2976 55.1782 90.8925 59.4085 90.8925L59.413 90.897ZM40.9029 106.516C40.9029 102.335 44.3476 98.9298 48.5778 98.9298C52.8081 98.9298 56.2527 102.335 56.2527 106.516C56.2527 110.698 52.8081 114.103 48.5778 114.103C47.3228 114.103 46.0767 113.795 44.9706 113.21C44.9055 113.176 44.8326 113.157 44.7584 113.157C44.7268 113.157 44.6907 113.157 44.6591 113.166L41.4131 113.875L42.6998 111.867C42.8036 111.702 42.7901 111.492 42.6682 111.345C41.5305 109.988 40.9074 108.27 40.9074 106.507L40.9029 106.516Z" fill="#3068F7"/>
<path d="M48.5756 110.534C48.9496 110.534 49.2528 110.234 49.2528 109.865C49.2528 109.495 48.9496 109.195 48.5756 109.195C48.2016 109.195 47.8984 109.495 47.8984 109.865C47.8984 110.234 48.2016 110.534 48.5756 110.534Z" fill="#3068F7"/>
<path d="M48.5815 102.946C49.3265 102.946 49.9359 103.548 49.9359 104.285C49.9359 105.021 49.3265 105.624 48.5815 105.624C48.3332 105.624 48.1301 105.824 48.1301 106.07V108.301H49.033V106.471C49.4515 106.387 49.8371 106.187 50.1452 105.895C50.4532 105.602 50.671 105.229 50.7732 104.819C50.8755 104.409 50.858 103.979 50.7228 103.579C50.5876 103.178 50.3402 102.824 50.0094 102.557C49.6786 102.29 49.2779 102.121 48.8539 102.07C48.43 102.019 48.0001 102.088 47.6142 102.269C47.2283 102.45 46.9022 102.736 46.6739 103.092C46.4456 103.449 46.3243 103.863 46.3242 104.285H47.2271C47.2271 103.548 47.8366 102.946 48.5815 102.946ZM55.805 95.3594H63.0284V96.2519H55.805V95.3594ZM55.805 98.037H63.0284V98.9295H55.805V98.037ZM57.6108 100.715H63.0284V101.607H57.6108V100.715Z" fill="#3068F7"/>
<path d="M0 102C0 94.9086 1.39675 87.8867 4.1105 81.3351C6.82426 74.7835 10.8019 68.8306 15.8162 63.8162C20.8306 58.8019 26.7835 54.8243 33.3351 52.1105C39.8867 49.3968 46.9086 48 54 48C61.0914 48 68.1133 49.3968 74.6649 52.1105C81.2165 54.8243 87.1694 58.8019 92.1838 63.8162C97.1981 68.8306 101.176 74.7835 103.889 81.3351C106.603 87.8867 108 94.9086 108 102H88.9109C88.9109 97.4154 88.008 92.8758 86.2535 88.6402C84.4991 84.4046 81.9276 80.556 78.6858 77.3142C75.444 74.0724 71.5954 71.5009 67.3598 69.7465C63.1243 67.9921 58.5846 67.0891 54 67.0891C49.4154 67.0891 44.8758 67.9921 40.6402 69.7465C36.4046 71.5009 32.556 74.0724 29.3142 77.3142C26.0724 80.556 23.5009 84.4046 21.7465 88.6402C19.9921 92.8757 19.0891 97.4154 19.0891 102H0Z" fill="#3068F7" fill-opacity="0.21"/>
<circle cx="54" cy="156" r="4" fill="#3068F7"/>
</svg>
