<svg width="108" height="160" viewBox="0 0 108 160" fill="none" xmlns="http://www.w3.org/2000/svg">
<path d="M51.8791 58.6C48.9191 58.6 46.0191 58.18 43.1791 57.34C40.3791 56.46 38.0191 55.26 36.0991 53.74L39.4591 47.68C40.9791 48.92 42.8191 49.92 44.9791 50.68C47.1391 51.44 49.3991 51.82 51.7591 51.82C54.5591 51.82 56.7391 51.26 58.2991 50.14C59.8591 48.98 60.6391 47.42 60.6391 45.46C60.6391 43.54 59.9191 42.02 58.4791 40.9C57.0391 39.78 54.7191 39.22 51.5191 39.22H47.6791V33.88L59.6791 19.6L60.6991 22.54H38.1391V16H66.7591V21.22L54.7591 35.5L50.6791 33.1H53.0191C58.1791 33.1 62.0391 34.26 64.5991 36.58C67.1991 38.86 68.4991 41.8 68.4991 45.4C68.4991 47.76 67.8991 49.94 66.6991 51.94C65.4991 53.94 63.6591 55.56 61.1791 56.8C58.7391 58 55.6391 58.6 51.8791 58.6Z" fill="#3068F7"/>
<circle cx="54" cy="102" r="34.5" fill="white" stroke="#3068F7"/>
<path d="M0 102C0 94.9086 1.39675 87.8867 4.1105 81.3351C6.82426 74.7835 10.8019 68.8306 15.8162 63.8162C20.8306 58.8019 26.7835 54.8243 33.3351 52.1105C39.8867 49.3968 46.9086 48 54 48C61.0914 48 68.1133 49.3968 74.6649 52.1105C81.2165 54.8243 87.1694 58.8019 92.1838 63.8162C97.1981 68.8306 101.176 74.7835 103.889 81.3351C106.603 87.8867 108 94.9086 108 102H88.9109C88.9109 97.4154 88.008 92.8758 86.2535 88.6402C84.4991 84.4046 81.9276 80.556 78.6858 77.3142C75.444 74.0724 71.5954 71.5009 67.3598 69.7465C63.1243 67.9921 58.5846 67.0891 54 67.0891C49.4154 67.0891 44.8758 67.9921 40.6402 69.7465C36.4046 71.5009 32.556 74.0724 29.3142 77.3142C26.0724 80.556 23.5009 84.4046 21.7465 88.6402C19.9921 92.8757 19.0891 97.4154 19.0891 102H0Z" fill="#3068F7" fill-opacity="0.21"/>
<circle cx="54" cy="156" r="4" fill="#3068F7"/>
<path d="M51 105.25C53.0554 105.25 55.027 106.066 56.4805 107.52C57.8747 108.914 58.6808 110.785 58.7441 112.75H57.2441C57.1815 111.183 56.5321 109.694 55.4189 108.581C54.2469 107.409 52.6576 106.75 51 106.75C49.3424 106.75 47.7532 107.409 46.5811 108.581C45.468 109.694 44.8185 111.183 44.7559 112.75H43.2559C43.3192 110.785 44.1252 108.914 45.5195 107.52C46.9729 106.066 48.9446 105.25 51 105.25ZM64.75 108.25V109.75H61.25V108.25H64.75ZM64.75 103.25V104.75H58.25V103.25H64.75ZM51 92.25C54.1769 92.25 56.75 94.8231 56.75 98C56.75 101.177 54.1769 103.75 51 103.75C47.8231 103.75 45.25 101.177 45.25 98C45.25 94.8231 47.8231 92.25 51 92.25ZM51 93.75C48.6519 93.75 46.75 95.6519 46.75 98C46.75 100.348 48.6519 102.25 51 102.25C53.3481 102.25 55.25 100.348 55.25 98C55.25 95.6519 53.3481 93.75 51 93.75ZM64.75 98.25V99.75H60.25V98.25H64.75Z" fill="#3068F7" stroke="white" stroke-width="0.5"/>
</svg>
