<svg width="108" height="160" viewBox="0 0 108 160" fill="none" xmlns="http://www.w3.org/2000/svg">
<path d="M35.1787 48.46V43.06L55.8787 16H64.2187L43.8187 43.06L39.9187 41.86H73.2187V48.46H35.1787ZM58.2187 58V48.46L58.4587 41.86V33.4H65.7787V58H58.2187Z" fill="#3068F7"/>
<circle cx="54" cy="102" r="34.5" fill="white" stroke="#3068F7"/>
<path d="M0 102C0 94.9086 1.39675 87.8867 4.1105 81.3351C6.82426 74.7835 10.8019 68.8306 15.8162 63.8162C20.8306 58.8019 26.7835 54.8243 33.3351 52.1105C39.8867 49.3968 46.9086 48 54 48C61.0914 48 68.1133 49.3968 74.6649 52.1105C81.2165 54.8243 87.1694 58.8019 92.1838 63.8162C97.1981 68.8306 101.176 74.7835 103.889 81.3351C106.603 87.8867 108 94.9086 108 102H88.9109C88.9109 97.4154 88.008 92.8758 86.2535 88.6402C84.4991 84.4046 81.9276 80.556 78.6858 77.3142C75.444 74.0724 71.5954 71.5009 67.3598 69.7465C63.1243 67.9921 58.5846 67.0891 54 67.0891C49.4154 67.0891 44.8758 67.9921 40.6402 69.7465C36.4046 71.5009 32.556 74.0724 29.3142 77.3142C26.0724 80.556 23.5009 84.4046 21.7465 88.6402C19.9921 92.8757 19.0891 97.4154 19.0891 102H0Z" fill="#3068F7" fill-opacity="0.21"/>
<circle cx="54" cy="156" r="4" fill="#3068F7"/>
<path d="M57.4936 106.891H50.3704C50.1154 106.893 49.8635 106.835 49.6348 106.722C49.406 106.61 49.2065 106.445 49.0523 106.242C48.2846 105.158 47.8874 103.855 47.9198 102.527C47.921 101.692 48.0936 100.866 48.4269 100.1C48.7602 99.3348 49.2472 98.6457 49.8576 98.0759C50.9767 97.0337 52.4475 96.4515 53.9768 96.4454C55.506 96.4392 56.9814 97.0096 58.1089 98.0428C59.2363 99.0761 59.933 100.496 60.0601 102.02C60.1871 103.544 59.7352 105.06 58.7943 106.266C58.6386 106.461 58.4408 106.619 58.2155 106.727C57.9903 106.836 57.7435 106.891 57.4936 106.891ZM53.9957 97.2657C52.6666 97.2614 51.3861 97.7655 50.4166 98.6747C49.8885 99.1678 49.4673 99.7639 49.1789 100.426C48.8905 101.089 48.7412 101.803 48.7401 102.526C48.7082 103.678 49.0487 104.809 49.7109 105.752C49.7886 105.853 49.8886 105.934 50.0031 105.989C50.1176 106.045 50.2433 106.072 50.3704 106.071H57.4936C57.6191 106.072 57.7432 106.044 57.8566 105.99C57.97 105.936 58.0698 105.858 58.1484 105.76C58.7341 105.009 59.1049 104.113 59.2213 103.168C59.3376 102.223 59.1952 101.264 58.8091 100.393C58.423 99.5225 57.8078 98.7731 57.0292 98.2249C56.2505 97.6767 55.3376 97.3501 54.3878 97.2802C54.2578 97.2708 54.1258 97.2657 53.9957 97.2657Z" fill="#3068F7"/>
<path d="M57.5417 98.5099C57.4486 98.51 57.3582 98.4782 57.2855 98.4199C56.792 98.0233 56.2302 97.7201 55.6278 97.5251C55.5453 97.4984 55.4733 97.4463 55.4223 97.3762C55.3713 97.3061 55.3438 97.2216 55.3437 97.1348V92.8978C55.3437 92.5413 55.2021 92.1993 54.95 91.9472C54.6979 91.6951 54.3559 91.5534 53.9994 91.5534C53.6428 91.5534 53.3009 91.6951 53.0488 91.9472C52.7966 92.1993 52.655 92.5413 52.655 92.8978V97.1348C52.655 97.2216 52.6275 97.3061 52.5764 97.3762C52.5254 97.4463 52.4535 97.4984 52.3709 97.5251C51.7686 97.7201 51.2068 98.0233 50.7132 98.4199C50.6529 98.4682 50.5802 98.4984 50.5034 98.5071C50.4267 98.5159 50.349 98.5028 50.2794 98.4693C50.2098 98.4358 50.151 98.3834 50.1099 98.318C50.0687 98.2527 50.0469 98.177 50.0469 98.0998V92.8978C50.0469 91.8495 50.4633 90.8442 51.2045 90.103C51.9458 89.3617 52.9511 88.9453 53.9994 88.9453C55.0476 88.9453 56.053 89.3617 56.7942 90.103C57.5355 90.8442 57.9519 91.8495 57.9519 92.8978V98.1009C57.9518 98.2097 57.9086 98.314 57.8317 98.3909C57.7548 98.4678 57.6505 98.511 57.5417 98.5111V98.5099ZM56.1641 96.8442C56.5001 96.9715 56.8239 97.129 57.1316 97.3146V92.8978C57.1316 92.4865 57.0505 92.0792 56.8931 91.6992C56.7357 91.3192 56.505 90.9739 56.2142 90.683C55.9233 90.3922 55.578 90.1615 55.198 90.004C54.818 89.8466 54.4107 89.7656 53.9994 89.7656C53.588 89.7656 53.1808 89.8466 52.8007 90.004C52.4207 90.1615 52.0754 90.3922 51.7846 90.683C51.4937 90.9739 51.263 91.3192 51.1056 91.6992C50.9482 92.0792 50.8672 92.4865 50.8672 92.8978V97.3146C51.1748 97.129 51.4987 96.9715 51.8347 96.8442V92.8978C51.8347 92.3237 52.0628 91.7731 52.4687 91.3671C52.8747 90.9612 53.4253 90.7331 53.9994 90.7331C54.5735 90.7331 55.1241 90.9612 55.53 91.3671C55.936 91.7731 56.1641 92.3237 56.1641 92.8978V96.8442Z" fill="#3068F7"/>
<path d="M54.7148 103.904H53.2879C53.1791 103.904 53.0748 103.861 52.9979 103.784C52.921 103.707 52.8777 103.603 52.8777 103.494V102.064C52.5993 101.776 52.4442 101.39 52.4453 100.99C52.4453 100.577 52.6093 100.181 52.9011 99.8893C53.1929 99.5975 53.5887 99.4336 54.0013 99.4336C54.414 99.4336 54.8098 99.5975 55.1016 99.8893C55.3934 100.181 55.5573 100.577 55.5573 100.99C55.5584 101.39 55.4033 101.776 55.1249 102.064V103.494C55.1249 103.603 55.0817 103.707 55.0048 103.784C54.9279 103.861 54.8236 103.904 54.7148 103.904ZM53.6981 103.084H54.3046V101.883C54.3046 101.821 54.3186 101.76 54.3454 101.704C54.3723 101.649 54.4114 101.6 54.4598 101.561C54.5465 101.493 54.6165 101.406 54.6645 101.307C54.7125 101.208 54.7373 101.099 54.737 100.988C54.737 100.793 54.6595 100.606 54.5216 100.468C54.3836 100.33 54.1965 100.253 54.0013 100.253C53.8062 100.253 53.6191 100.33 53.4811 100.468C53.3431 100.606 53.2656 100.793 53.2656 100.988C53.2653 101.099 53.2901 101.208 53.3382 101.307C53.3862 101.406 53.4562 101.493 53.5429 101.561C53.5913 101.6 53.6304 101.649 53.6572 101.704C53.6841 101.76 53.698 101.821 53.6981 101.883V103.084Z" fill="#3068F7"/>
<path d="M66.7873 115.055H41.2127C40.7659 115.055 40.3375 114.877 40.0215 114.561C39.7056 114.245 39.5278 113.816 39.5273 113.37V109.869C39.5278 109.422 39.7056 108.994 40.0215 108.678C40.3375 108.362 40.7659 108.184 41.2127 108.184H66.7873C67.2341 108.184 67.6625 108.362 67.9785 108.678C68.2944 108.994 68.4722 109.422 68.4727 109.869V113.37C68.472 113.817 68.2942 114.245 67.9782 114.561C67.6623 114.877 67.234 115.055 66.7873 115.055ZM41.2127 109.004C40.9834 109.004 40.7637 109.096 40.6016 109.258C40.4394 109.42 40.3482 109.64 40.3477 109.869V113.37C40.3483 113.599 40.4397 113.819 40.6018 113.981C40.7639 114.143 40.9836 114.234 41.2127 114.235H66.7873C67.0166 114.234 67.2363 114.143 67.3984 113.981C67.5606 113.819 67.6518 113.599 67.6523 113.37V109.869C67.6518 109.64 67.5606 109.42 67.3984 109.258C67.2363 109.096 67.0166 109.004 66.7873 109.004H41.2127Z" fill="#3068F7"/>
<path d="M44.6415 113.113C44.5575 113.112 44.4757 113.086 44.4071 113.038L41.3321 110.872C41.2877 110.841 41.2499 110.802 41.2208 110.756C41.1917 110.71 41.1719 110.66 41.1625 110.606C41.1531 110.553 41.1543 110.499 41.1661 110.446C41.1779 110.393 41.2 110.343 41.2311 110.299C41.2623 110.255 41.3018 110.217 41.3476 110.188C41.3933 110.159 41.4443 110.14 41.4976 110.131C41.5509 110.122 41.6054 110.123 41.6581 110.135C41.7108 110.147 41.7606 110.17 41.8046 110.201L44.8782 112.367C44.9495 112.417 45.003 112.489 45.0308 112.572C45.0587 112.654 45.0594 112.744 45.033 112.827C45.0067 112.91 44.9545 112.982 44.8841 113.034C44.8137 113.085 44.7287 113.113 44.6415 113.113Z" fill="#3068F7"/>
<path d="M41.567 113.113C41.4798 113.113 41.3949 113.085 41.3245 113.034C41.2541 112.982 41.2019 112.91 41.1755 112.827C41.1491 112.744 41.1499 112.654 41.1777 112.572C41.2056 112.489 41.259 112.417 41.3303 112.367L44.4041 110.201C44.4931 110.141 44.6022 110.118 44.7078 110.138C44.8135 110.157 44.9074 110.217 44.9692 110.305C45.0311 110.393 45.056 110.501 45.0386 110.607C45.0213 110.713 44.963 110.808 44.8764 110.872L41.8028 113.038C41.7339 113.086 41.6515 113.113 41.567 113.113Z" fill="#3068F7"/>
<path d="M43.1055 113.719C42.9967 113.719 42.8924 113.676 42.8154 113.599C42.7385 113.522 42.6953 113.418 42.6953 113.309V109.932C42.6953 109.823 42.7385 109.719 42.8154 109.642C42.8924 109.565 42.9967 109.521 43.1055 109.521C43.2142 109.521 43.3186 109.565 43.3955 109.642C43.4724 109.719 43.5156 109.823 43.5156 109.932V113.308C43.5157 113.362 43.5052 113.415 43.4847 113.465C43.4641 113.515 43.4339 113.561 43.3958 113.599C43.3577 113.637 43.3125 113.667 43.2627 113.688C43.2128 113.709 43.1594 113.719 43.1055 113.719Z" fill="#3068F7"/>
<path d="M50.0909 113.114C50.0065 113.114 49.9241 113.088 49.8551 113.039L46.7813 110.873C46.6931 110.81 46.6334 110.715 46.6152 110.608C46.597 110.501 46.6218 110.391 46.6843 110.303C46.7467 110.214 46.8416 110.154 46.9483 110.135C47.055 110.116 47.1649 110.141 47.2538 110.202L50.3274 112.368C50.3987 112.418 50.4521 112.49 50.48 112.573C50.5078 112.655 50.5086 112.745 50.4823 112.828C50.4559 112.911 50.4038 112.983 50.3334 113.035C50.263 113.086 50.1781 113.114 50.0909 113.114Z" fill="#3068F7"/>
<path d="M47.0157 113.113C46.9286 113.113 46.8438 113.085 46.7735 113.033C46.7032 112.982 46.6511 112.909 46.6247 112.826C46.5983 112.743 46.5991 112.654 46.6268 112.572C46.6546 112.489 46.7079 112.417 46.779 112.367L49.8529 110.201C49.9418 110.141 50.0509 110.118 50.1566 110.138C50.2622 110.157 50.3561 110.217 50.4179 110.305C50.4798 110.393 50.5047 110.501 50.4874 110.607C50.47 110.713 50.4118 110.808 50.3251 110.872L47.2515 113.038C47.1826 113.086 47.1002 113.113 47.0157 113.113Z" fill="#3068F7"/>
<path d="M48.5547 113.719C48.4459 113.719 48.3416 113.676 48.2647 113.599C48.1877 113.522 48.1445 113.418 48.1445 113.309V109.932C48.1445 109.823 48.1877 109.719 48.2647 109.642C48.3416 109.565 48.4459 109.521 48.5547 109.521C48.6635 109.521 48.7678 109.565 48.8447 109.642C48.9216 109.719 48.9648 109.823 48.9648 109.932V113.308C48.965 113.362 48.9545 113.415 48.934 113.465C48.9134 113.515 48.8832 113.561 48.8451 113.599C48.807 113.637 48.7618 113.667 48.7119 113.688C48.6621 113.709 48.6086 113.719 48.5547 113.719Z" fill="#3068F7"/>
<path d="M55.5369 113.112C55.4524 113.112 55.3701 113.086 55.3011 113.037L52.2273 110.871C52.1821 110.84 52.1435 110.801 52.1137 110.756C52.0839 110.71 52.0634 110.659 52.0536 110.605C52.0438 110.552 52.0447 110.497 52.0564 110.443C52.0681 110.39 52.0903 110.34 52.1217 110.295C52.1531 110.25 52.1931 110.213 52.2393 110.184C52.2855 110.155 52.337 110.135 52.3908 110.126C52.4446 110.118 52.4996 110.12 52.5526 110.132C52.6056 110.145 52.6556 110.168 52.6996 110.2L55.7734 112.366C55.8447 112.417 55.8981 112.488 55.926 112.571C55.9538 112.653 55.9546 112.743 55.9283 112.826C55.9019 112.909 55.8497 112.981 55.7794 113.033C55.709 113.084 55.6241 113.112 55.5369 113.112Z" fill="#3068F7"/>
<path d="M52.4652 113.113C52.3781 113.113 52.2931 113.085 52.2228 113.034C52.1524 112.982 52.1002 112.91 52.0739 112.827C52.0475 112.743 52.0483 112.654 52.0762 112.571C52.104 112.489 52.1575 112.417 52.2287 112.367L55.3026 110.201C55.3916 110.141 55.5006 110.118 55.6063 110.138C55.7119 110.157 55.8058 110.217 55.8676 110.305C55.9295 110.393 55.9544 110.501 55.9371 110.607C55.9197 110.713 55.8615 110.808 55.7748 110.872L52.701 113.038C52.6321 113.086 52.5497 113.113 52.4652 113.113Z" fill="#3068F7"/>
<path d="M54 113.719C53.8912 113.719 53.7869 113.676 53.71 113.599C53.6331 113.522 53.5898 113.418 53.5898 113.309V109.932C53.5898 109.823 53.6331 109.719 53.71 109.642C53.7869 109.565 53.8912 109.521 54 109.521C54.1088 109.521 54.2131 109.565 54.29 109.642C54.3669 109.719 54.4102 109.823 54.4102 109.932V113.308C54.4103 113.362 54.3998 113.415 54.3793 113.465C54.3587 113.515 54.3285 113.561 54.2904 113.599C54.2523 113.637 54.2071 113.667 54.1572 113.688C54.1074 113.709 54.054 113.719 54 113.719Z" fill="#3068F7"/>
<path d="M60.9859 113.112C60.9014 113.112 60.819 113.086 60.7501 113.037L57.6765 110.871C57.6313 110.84 57.5927 110.801 57.5629 110.756C57.5331 110.71 57.5127 110.659 57.5028 110.605C57.493 110.552 57.4939 110.497 57.5056 110.443C57.5173 110.39 57.5395 110.34 57.5709 110.295C57.6023 110.25 57.6423 110.213 57.6885 110.184C57.7347 110.155 57.7862 110.135 57.84 110.126C57.8938 110.118 57.9488 110.12 58.0018 110.132C58.0549 110.145 58.1048 110.168 58.1488 110.2L61.2226 112.366C61.2938 112.417 61.3471 112.488 61.3748 112.571C61.4025 112.653 61.4033 112.743 61.3769 112.826C61.3506 112.909 61.2985 112.981 61.2282 113.033C61.1579 113.084 61.073 113.112 60.9859 113.112Z" fill="#3068F7"/>
<path d="M57.9105 113.114C57.8234 113.114 57.7384 113.086 57.6681 113.035C57.5977 112.983 57.5456 112.911 57.5192 112.828C57.4928 112.745 57.4936 112.655 57.5215 112.573C57.5493 112.49 57.6028 112.418 57.6741 112.368L60.7477 110.202C60.8366 110.141 60.9464 110.116 61.0531 110.135C61.1599 110.154 61.2548 110.214 61.3172 110.303C61.3796 110.391 61.4045 110.501 61.3863 110.608C61.3681 110.715 61.3084 110.81 61.2202 110.873L58.1463 113.039C58.0774 113.088 57.995 113.114 57.9105 113.114Z" fill="#3068F7"/>
<path d="M59.4492 113.719C59.3404 113.719 59.2361 113.676 59.1592 113.599C59.0823 113.522 59.0391 113.418 59.0391 113.309V109.932C59.0391 109.823 59.0823 109.719 59.1592 109.642C59.2361 109.565 59.3404 109.521 59.4492 109.521C59.558 109.521 59.6623 109.565 59.7392 109.642C59.8162 109.719 59.8594 109.823 59.8594 109.932V113.308C59.8595 113.362 59.849 113.415 59.8285 113.465C59.8079 113.515 59.7778 113.561 59.7397 113.599C59.7016 113.637 59.6563 113.667 59.6064 113.688C59.5566 113.709 59.5032 113.719 59.4492 113.719Z" fill="#3068F7"/>
<path d="M66.4312 113.112C66.3467 113.112 66.2644 113.086 66.1954 113.037L63.1218 110.871C63.0767 110.84 63.038 110.801 63.0082 110.756C62.9784 110.71 62.958 110.659 62.9481 110.605C62.9383 110.552 62.9393 110.497 62.951 110.443C62.9626 110.39 62.9848 110.34 63.0162 110.295C63.0476 110.25 63.0876 110.213 63.1338 110.184C63.18 110.155 63.2315 110.135 63.2853 110.126C63.3391 110.118 63.3941 110.12 63.4471 110.132C63.5002 110.145 63.5501 110.168 63.5941 110.2L66.6679 112.366C66.7392 112.417 66.7927 112.488 66.8205 112.571C66.8483 112.653 66.8491 112.743 66.8227 112.826C66.7964 112.909 66.7442 112.981 66.6738 113.033C66.6034 113.084 66.5184 113.112 66.4312 113.112Z" fill="#3068F7"/>
<path d="M63.36 113.113C63.2728 113.113 63.1878 113.085 63.1174 113.034C63.047 112.982 62.9948 112.91 62.9685 112.827C62.9421 112.744 62.9428 112.654 62.9707 112.572C62.9985 112.489 63.052 112.417 63.1233 112.367L66.1969 110.201C66.2409 110.17 66.2907 110.147 66.3434 110.135C66.3961 110.123 66.4506 110.122 66.5039 110.131C66.5572 110.14 66.6082 110.159 66.6539 110.188C66.6997 110.217 66.7392 110.255 66.7704 110.299C66.8015 110.343 66.8236 110.393 66.8354 110.446C66.8472 110.499 66.8484 110.553 66.839 110.606C66.8296 110.66 66.8098 110.71 66.7807 110.756C66.7516 110.802 66.7138 110.841 66.6694 110.872L63.5955 113.038C63.5267 113.086 63.4444 113.113 63.36 113.113Z" fill="#3068F7"/>
<path d="M64.8945 113.719C64.7858 113.719 64.6815 113.676 64.6046 113.599C64.5277 113.522 64.4844 113.418 64.4844 113.309V109.932C64.4844 109.823 64.5276 109.719 64.6045 109.642C64.6814 109.565 64.7858 109.521 64.8945 109.521C65.0033 109.521 65.1076 109.565 65.1846 109.642C65.2615 109.719 65.3047 109.823 65.3047 109.932V113.308C65.3048 113.362 65.2943 113.415 65.2738 113.465C65.2533 113.515 65.2231 113.561 65.185 113.599C65.1469 113.637 65.1016 113.667 65.0518 113.688C65.0019 113.709 64.9485 113.719 64.8945 113.719Z" fill="#3068F7"/>
</svg>
