<svg width="55" height="55" viewBox="0 0 55 55" fill="none" xmlns="http://www.w3.org/2000/svg">
<g clip-path="url(#clip0_3069_36079)">
<path d="M21.001 0.25C32.1411 0.25 41.2583 9.07489 41.7314 20.1006L41.7393 20.2822L41.9141 20.3311C49.4238 22.4119 54.75 29.318 54.75 37.2217C54.75 40.377 53.9099 43.4451 52.3135 46.1406L52.2588 46.2314L52.2871 46.334L54.5635 54.5635L46.334 52.2871L46.2314 52.2588L46.1406 52.3135C43.4451 53.9099 40.377 54.75 37.2217 54.75C29.3175 54.75 22.4105 49.4232 20.3301 41.9131L20.2822 41.7383L20.1006 41.7305L19.4619 41.6934C16.2768 41.4585 13.1998 40.4992 10.4531 38.875L10.3623 38.8203L10.2598 38.8486L0.435547 41.5654L3.15332 31.7422L3.18164 31.6396L3.12695 31.5488C1.24226 28.3615 0.25 24.7304 0.25 21.001C0.25 9.55889 9.55889 0.25 21.001 0.25ZM41.6133 23.3936C40.5136 32.927 32.9267 40.5142 23.3936 41.6133L23.0869 41.6484L23.1855 41.9414C25.1812 47.8837 30.8123 52.0273 37.2217 52.0273C40.0926 52.0273 42.8787 51.2041 45.2764 49.6465L45.7891 49.3115L50.2344 50.542L50.6592 50.6592L50.542 50.2344L49.3115 45.7891L49.6465 45.2764C51.2041 42.8787 52.0273 40.0926 52.0273 37.2217C52.0273 30.8121 47.8836 25.1805 41.9414 23.1846L41.6484 23.0869L41.6133 23.3936ZM21.001 2.97266C11.0598 2.97266 2.97266 11.0598 2.97266 21.001C2.97266 24.4506 3.9499 27.8034 5.79883 30.6963L6.125 31.207L4.45801 37.2363L4.34082 37.6611L4.76562 37.5439L10.7939 35.876L11.3057 36.2031C14.199 38.052 17.5514 39.0293 21.001 39.0293C30.9421 39.0293 39.0293 30.9421 39.0293 21.001C39.0293 11.0598 30.9421 2.97266 21.001 2.97266Z" fill="#3068F7" stroke="#DBE1F8" stroke-width="0.5"/>
<path d="M22.3633 29.3613V32.084H19.6406V29.3613H22.3633Z" fill="#3068F7" stroke="#DBE1F8" stroke-width="0.5"/>
<path d="M21 9.91797C24.4161 9.91797 27.1953 12.6972 27.1953 16.1133C27.1953 17.847 26.4609 19.5138 25.1807 20.6855L22.4424 23.1914L22.3613 23.2656V25.6387H19.6387V22.0664L23.3428 18.6768C24.0708 18.0106 24.4727 17.0988 24.4727 16.1133C24.4727 14.1981 22.9151 12.6406 21 12.6406C19.1689 12.6406 17.6656 14.0644 17.5371 15.8633H14.8105C14.9422 12.5626 17.6677 9.91797 21 9.91797Z" fill="#3068F7" stroke="#DBE1F8" stroke-width="0.5"/>
</g>
<defs>
<clipPath id="clip0_3069_36079">
<rect width="55" height="55" fill="white"/>
</clipPath>
</defs>
</svg>
