<svg width="55" height="55" viewBox="0 0 55 55" fill="none" xmlns="http://www.w3.org/2000/svg">
<path d="M53.1967 46.8944L43.7436 27.1287C43.692 27.0208 43.6184 26.9249 43.5275 26.847C43.4367 26.7692 43.3305 26.7112 43.216 26.6767L36.6443 24.7002C37.8862 22.6959 38.5854 20.4031 38.6733 18.0469C38.6733 15.0839 37.4963 12.2423 35.4011 10.1472C33.306 8.05203 30.4644 6.875 27.5014 6.875C24.5385 6.875 21.6969 8.05203 19.6017 10.1472C17.5066 12.2423 16.3296 15.0839 16.3296 18.0469C16.4195 20.4258 17.1306 22.7397 18.3921 24.7586L12.6231 26.6845C12.4114 26.755 12.2354 26.905 12.1324 27.103L1.81987 46.8686C1.75173 46.9994 1.7184 47.1455 1.72309 47.2929C1.72778 47.4403 1.77032 47.5841 1.84664 47.7103C1.92295 47.8365 2.03046 47.9409 2.15882 48.0136C2.28718 48.0862 2.43207 48.1246 2.57956 48.125C2.66695 48.1251 2.75385 48.112 2.83737 48.0863L16.3021 43.8754L27.1946 48.0648C27.393 48.1422 27.6133 48.1422 27.8117 48.0648L38.7042 43.8754L52.1689 48.0863C52.3287 48.1363 52.4996 48.1385 52.6606 48.0927C52.8216 48.0468 52.9657 47.955 53.0753 47.8284C53.1848 47.7018 53.255 47.5459 53.2772 47.38C53.2994 47.2141 53.2726 47.0453 53.2002 46.8944H53.1967ZM26.6421 33.9367V46.0144L17.3402 42.4368L20.7476 28.1402C22.5065 30.2712 24.4819 32.2137 26.6421 33.9367ZM28.3608 33.9367C30.5209 32.2137 32.4963 30.2712 34.2553 28.1402L37.6627 42.4368L28.3608 46.0144V33.9367ZM27.5014 8.59375C30.0077 8.59671 32.4104 9.59361 34.1825 11.3658C35.9547 13.1379 36.9516 15.5407 36.9546 18.0469C36.9546 24.2954 29.5442 30.7579 27.5014 32.4199C25.457 30.7587 18.0483 24.304 18.0483 18.0469C18.0513 15.5407 19.0482 13.1379 20.8203 11.3658C22.5925 9.59361 24.9952 8.59671 27.5014 8.59375ZM13.4936 28.2055L19.3374 26.2556L19.4078 26.357L15.6068 42.2941L4.29831 45.8279L13.4936 28.2055ZM39.396 42.2941L35.5967 26.357L35.6964 26.2127L42.3592 28.2141L50.7965 45.8571L39.396 42.2941Z" fill="white"/>
<path d="M32.6563 18.0469C32.6563 17.0271 32.3538 16.0302 31.7873 15.1822C31.2207 14.3343 30.4154 13.6734 29.4732 13.2831C28.531 12.8929 27.4943 12.7907 26.4941 12.9897C25.4939 13.1887 24.5751 13.6797 23.854 14.4009C23.1329 15.122 22.6418 16.0407 22.4428 17.0409C22.2439 18.0412 22.346 19.0779 22.7362 20.0201C23.1265 20.9623 23.7874 21.7676 24.6353 22.3341C25.4833 22.9007 26.4802 23.2031 27.5 23.2031C28.8671 23.2018 30.1778 22.6581 31.1445 21.6914C32.1112 20.7247 32.6549 19.414 32.6563 18.0469ZM24.0625 18.0469C24.0625 17.367 24.2641 16.7024 24.6418 16.1371C25.0195 15.5718 25.5564 15.1312 26.1845 14.871C26.8127 14.6109 27.5038 14.5428 28.1706 14.6754C28.8374 14.8081 29.4499 15.1355 29.9307 15.6162C30.4114 16.0969 30.7388 16.7094 30.8715 17.3763C31.0041 18.0431 30.936 18.7342 30.6758 19.3624C30.4157 19.9905 29.9751 20.5273 29.4098 20.9051C28.8445 21.2828 28.1799 21.4844 27.5 21.4844C26.5883 21.4844 25.714 21.1222 25.0693 20.4776C24.4247 19.8329 24.0625 18.9586 24.0625 18.0469Z" fill="white"/>
</svg>
