<svg width="53" height="33" viewBox="0 0 53 33" fill="none" xmlns="http://www.w3.org/2000/svg">
<path d="M52.6366 13.0942L45.5753 1.30849C45.2134 0.704519 44.6275 0.27217 43.9252 0.0909006C43.2227 -0.0906973 42.4912 0.00179995 41.8645 0.35042L37.8411 2.58878C37.2144 2.9375 36.7657 3.50213 36.5775 4.17877C36.4653 4.58262 36.4548 4.99645 36.5409 5.39307C34.008 6.03541 31.4622 6.02949 28.4269 5.38562C25.1895 4.69847 23.62 5.34978 21.492 7.18264L16.4472 5.44601C16.7087 4.3539 16.2173 3.17762 15.1589 2.58888L11.1355 0.35042C10.5091 0.00179995 9.77734 -0.0904781 9.07483 0.0909006C8.37254 0.27217 7.7866 0.704629 7.42471 1.30849L0.363314 13.0943C-0.385486 14.3443 0.0605638 15.9484 1.35766 16.67L5.38109 18.9085C5.7978 19.1404 6.26103 19.2588 6.73119 19.2587C6.96797 19.2587 7.20669 19.2288 7.44189 19.168C8.06502 19.0071 8.59568 18.6477 8.9603 18.1471L11.9765 21.7768L11.8992 21.8829C10.7718 23.4274 11.4166 25.0725 12.6363 25.8994C13.0784 26.199 13.5997 26.394 14.1387 26.4471C14.0856 26.9269 14.167 27.4115 14.3867 27.868C14.8519 28.8347 15.864 29.5207 16.9654 29.6158C17.3792 29.6517 17.7817 29.6018 18.156 29.4738C18.3821 30.0153 18.7816 30.4837 19.2752 30.8182C20.1246 31.3938 21.2673 31.5825 22.2636 31.1228C22.5744 31.6845 23.0837 32.1606 23.7397 32.4529C24.1668 32.6433 24.6023 32.7359 25.0257 32.7358C25.9454 32.7358 26.808 32.2995 27.4045 31.4821L27.6418 31.1571L30.1651 32.5728C30.695 32.8702 31.2203 33 31.715 33C32.8008 33 33.7389 32.3743 34.2546 31.5215C34.5237 31.0762 34.6802 30.5651 34.6921 30.0487C35.8092 30.0771 36.7819 29.4444 37.31 28.5711C37.5596 28.158 37.7122 27.6883 37.7426 27.2104C38.3334 27.276 38.9229 27.1619 39.4558 26.8679C40.4155 26.3385 41.038 25.308 41.0421 24.2424C41.0442 23.7283 40.9024 23.2456 40.6353 22.8245C41.0956 22.5595 41.4798 22.1758 41.7486 21.7305C42.2834 20.8446 42.3714 19.698 41.7627 18.7682L43.798 17.7667L43.9081 17.9504C44.27 18.5543 44.856 18.9867 45.5583 19.168C45.7934 19.2288 46.0321 19.2587 46.2688 19.2587C46.739 19.2587 47.2023 19.1404 47.619 18.9085L51.6425 16.6701C52.9395 15.9484 53.3855 14.3443 52.6366 13.0942ZM6.97093 17.4741C6.73847 17.5346 6.49679 17.5043 6.29094 17.3898L2.2675 15.1512C1.83919 14.9131 1.69202 14.3834 1.93916 13.9708L9.00045 2.18514C9.1193 1.98677 9.31287 1.84463 9.54567 1.78446C9.62414 1.76419 9.70364 1.75421 9.78234 1.75421C9.93713 1.75421 10.0892 1.79301 10.2256 1.86885L14.249 4.10742C14.6773 4.34557 14.8246 4.87513 14.5773 5.28787L7.51593 17.0736C7.39731 17.2719 7.20374 17.4142 6.97093 17.4741ZM13.6835 24.4651C13.5221 24.3557 12.7495 23.7657 13.3875 22.8916L15.477 20.029C16.115 19.1551 16.9522 19.656 17.1135 19.7652C17.2749 19.8745 18.0475 20.4636 17.4116 21.3373L17.4113 21.3376C17.4111 21.3378 17.411 21.3381 17.4109 21.3382C17.4108 21.3384 17.4106 21.3386 17.4105 21.3388L15.3203 24.2021L15.3195 24.2031C14.6814 25.0757 13.8447 24.5746 13.6835 24.4651ZM18.122 27.3704C17.8554 27.7355 17.5208 27.9022 17.1278 27.8693C16.6766 27.8303 16.2282 27.5264 16.0376 27.1302C15.8716 26.7852 15.9224 26.4251 16.1889 26.06L16.8087 25.2109L18.8986 22.3478C18.899 22.3473 18.8994 22.3469 18.8998 22.3464L18.9001 22.3459C18.9002 22.3458 18.9002 22.3457 18.9003 22.3456L19.7315 21.2068C20.3696 20.3328 21.2072 20.834 21.3686 20.9435C21.53 21.0529 22.3028 21.643 21.6648 22.5171L21.4582 22.8001L18.5371 26.8018L18.122 27.3704ZM20.322 29.3837C20.1606 29.2744 19.3881 28.6848 20.0249 27.8111L20.0254 27.8105C20.0255 27.8104 20.0255 27.8104 20.0255 27.8104C20.0256 27.8103 20.0256 27.8101 20.0257 27.8099L22.9451 23.8103C22.9455 23.8099 22.9457 23.8095 22.9461 23.8092C23.5845 22.9356 24.4216 23.4375 24.5829 23.5466C24.7442 23.6561 25.5167 24.2462 24.8788 25.1201L24.1201 26.1593L22.1447 28.8657C22.1445 28.8659 22.1443 28.8662 22.144 28.8664L21.9589 29.12C21.3206 29.9945 20.4832 29.4932 20.322 29.3837ZM25.916 30.4732C25.4283 31.1415 24.8218 31.0033 24.5034 30.8614C24.0637 30.6653 23.6862 30.2219 23.7449 29.7213L25.4957 27.3228C25.9648 27.1004 26.5254 27.2931 26.8653 27.6255C27.1114 27.8662 27.4515 28.3699 26.9639 29.0379L25.916 30.4732ZM40.1754 20.8488C40.0763 21.013 39.5331 21.8055 38.5748 21.2689L34.8974 19.2057C34.4631 18.9621 33.906 19.1039 33.6534 19.5222C33.4005 19.9406 33.5475 20.4774 33.9819 20.7209L37.6588 22.7839C37.6591 22.7842 37.6593 22.7844 37.6597 22.7845L38.6214 23.3241C39.0217 23.5488 39.2238 23.8556 39.2223 24.2359C39.2206 24.6725 38.945 25.1289 38.5517 25.3459C38.2091 25.5349 37.8327 25.517 37.4322 25.2923L36.2423 24.6246C36.2422 24.6245 36.2418 24.6243 36.2416 24.6241L36.2412 24.624L32.5271 22.5401C32.0927 22.2966 31.5359 22.4382 31.2832 22.8566C31.0302 23.275 31.1773 23.8118 31.6116 24.0553L35.3242 26.1384C35.3247 26.1386 35.325 26.139 35.3254 26.1392C36.2837 26.6773 35.8368 27.5241 35.7374 27.6884C35.6381 27.8526 35.0944 28.6449 34.1359 28.1072L33.1883 27.5753C33.1877 27.575 33.1871 27.5746 33.1867 27.5744C33.1866 27.5743 33.1864 27.5743 33.1863 27.5742L30.157 25.8745C29.7226 25.6307 29.1657 25.7727 28.913 26.191C28.6601 26.6094 28.8071 27.1462 29.2415 27.3898L32.2708 29.0895L32.2722 29.0903C33.2281 29.6284 32.7816 30.4743 32.6824 30.6385C32.5831 30.8027 32.0392 31.5951 31.0808 31.0572L28.669 29.7041C29.2913 28.5869 29.1114 27.3231 28.1618 26.3945C27.7416 25.9836 27.2322 25.7066 26.6981 25.5711C27.3317 24.2024 26.7037 22.8405 25.6304 22.1126C25.0775 21.7374 24.3992 21.5259 23.7198 21.5518C23.6201 20.7183 23.1114 19.9805 22.4157 19.5089C21.4798 18.8745 20.1874 18.7098 19.1274 19.3652C18.8933 18.9546 18.557 18.5991 18.1601 18.3302C16.9403 17.5042 15.116 17.476 13.989 19.0198L13.0669 20.2831L9.94509 16.5264L15.6358 7.02822L20.0117 8.5346C19.8353 8.70118 19.6546 8.8727 19.4668 9.05101C19.0561 9.44094 18.6315 9.84392 18.1582 10.2856C17.992 10.4408 17.8934 10.6511 17.8823 10.8738L17.6414 15.7607C17.5792 17.0251 18.216 17.6056 18.6011 17.839C19.4377 18.3463 20.641 18.2393 21.9897 17.5379C23.1353 16.9419 23.7976 15.5783 24.3819 14.3753C24.5006 14.131 24.6146 13.8965 24.7275 13.6779C24.8028 13.6436 24.878 13.6093 24.9532 13.5748C26.5006 12.867 27.5004 12.4617 28.5118 13.0245L39.7628 19.3002C40.7207 19.8377 40.2746 20.6846 40.1754 20.8488ZM40.2477 17.5447L29.4224 11.5065C27.5312 10.4543 25.7471 11.2708 24.1728 11.9909C24.0085 12.0661 23.844 12.1413 23.6792 12.2146C23.4984 12.2949 23.35 12.4301 23.2567 12.5996C23.077 12.9257 22.9025 13.2849 22.7337 13.6323C22.2687 14.5894 21.7418 15.6742 21.1249 15.9951C20.2825 16.4335 19.7241 16.4486 19.5699 16.3552C19.5041 16.3154 19.4443 16.1419 19.4589 15.8442L19.6827 11.3034C20.064 10.9456 20.4214 10.6064 20.7436 10.3005C24.0475 7.1639 24.8325 6.41899 28.0356 7.09804C30.2284 7.56315 33.5248 8.03792 37.3462 6.99852L42.8867 16.2461L40.2477 17.5447ZM50.7324 15.1515L46.709 17.3899C46.5031 17.5043 46.2617 17.5343 46.029 17.4742C45.7963 17.4142 45.6027 17.2719 45.4839 17.0736L38.4226 5.28787C38.3039 5.08961 38.2728 4.85694 38.3351 4.6326C38.3975 4.40837 38.5451 4.22184 38.7508 4.10731L42.7743 1.86885C42.9106 1.79301 43.0627 1.75421 43.2175 1.75421C43.2962 1.75421 43.3758 1.7643 43.4541 1.78446C43.6869 1.84463 43.8805 1.98688 43.9994 2.18514L51.0605 13.9707C51.3079 14.3835 51.1607 14.9132 50.7324 15.1515Z" fill="white"/>
</svg>
