<svg width="108" height="160" viewBox="0 0 108 160" fill="none" xmlns="http://www.w3.org/2000/svg">
<path d="M51.4342 58V19L54.8542 22.54H42.5542V16H59.2342V58H51.4342Z" fill="#3068F7"/>
<circle cx="54" cy="102" r="34.5" fill="white" stroke="#3068F7"/>
<path d="M60.3508 114.092H42.2762C41.573 114.092 41 113.486 41 112.741V91.3529C41 90.6074 41.5713 90 42.2762 90H60.3508C61.054 90 61.6269 90.6057 61.6269 91.3529V102.382C61.6269 102.611 61.4528 102.796 61.2363 102.796C61.0198 102.796 60.8456 102.611 60.8456 102.382V91.3529C60.8456 91.0647 60.6242 90.8283 60.3508 90.8283H42.2762C42.0027 90.83 41.7813 91.0647 41.7813 91.3529V112.739C41.7813 113.027 42.0027 113.262 42.2762 113.262H60.3508C60.6226 113.262 60.8456 113.027 60.8456 112.739V111.51C60.8456 111.281 61.0198 111.096 61.2363 111.096C61.4528 111.096 61.6269 111.281 61.6269 111.51V112.739C61.6253 113.485 61.054 114.092 60.3508 114.092Z" fill="#3068F7"/>
<path d="M46.7255 97.0226C45.5909 97.0226 44.668 96.0442 44.668 94.8414C44.668 93.6386 45.5909 92.6602 46.7255 92.6602C47.86 92.6602 48.7829 93.6386 48.7829 94.8414C48.7829 96.0442 47.86 97.0226 46.7255 97.0226ZM46.7255 93.4902C46.0223 93.4902 45.4493 94.0976 45.4493 94.8431C45.4493 95.5886 46.0223 96.1961 46.7255 96.1961C47.4286 96.1961 48.0016 95.5886 48.0016 94.8431C48.0016 94.0976 47.4286 93.4902 46.7255 93.4902Z" fill="#3068F7"/>
<path d="M49.6373 100.108C49.4208 100.108 49.2466 99.9232 49.2466 99.6937C49.2466 98.22 48.117 97.0224 46.7269 97.0224C45.3368 97.0224 44.2071 98.22 44.2071 99.6937C44.2071 99.9232 44.0329 100.108 43.8164 100.108C43.6 100.108 43.4258 99.9232 43.4258 99.6937C43.4258 97.7644 44.907 96.194 46.7269 96.194C48.5467 96.194 50.028 97.7644 50.028 99.6937C50.028 99.9215 49.8538 100.108 49.6373 100.108ZM58.8097 93.8713H52.2108C51.9943 93.8713 51.8201 93.6866 51.8201 93.4571C51.8201 93.2276 51.9943 93.043 52.2108 93.043H58.8081C59.0246 93.043 59.1988 93.2276 59.1988 93.4571C59.1988 93.6866 59.0246 93.8713 58.8097 93.8713ZM58.8097 96.798H52.2108C51.9943 96.798 51.8201 96.6134 51.8201 96.3839C51.8201 96.1544 51.9943 95.9697 52.2108 95.9697H58.8081C59.0246 95.9697 59.1988 96.1544 59.1988 96.3839C59.1988 96.6134 59.0246 96.798 58.8097 96.798ZM55.4338 99.7248H52.2108C51.9943 99.7248 51.8201 99.5401 51.8201 99.3106C51.8201 99.0811 51.9943 98.8964 52.2108 98.8964H55.4338C55.6502 98.8964 55.8244 99.0811 55.8244 99.3106C55.8244 99.5401 55.6502 99.7248 55.4338 99.7248ZM51.6834 102.653H43.8164C43.6 102.653 43.4258 102.469 43.4258 102.239C43.4258 102.01 43.6 101.825 43.8164 101.825H51.6834C51.8999 101.825 52.0741 102.01 52.0741 102.239C52.0741 102.469 51.8999 102.653 51.6834 102.653ZM50.7133 105.58H43.8164C43.6 105.58 43.4258 105.395 43.4258 105.166C43.4258 104.936 43.6 104.752 43.8164 104.752H50.7133C50.9297 104.752 51.1039 104.936 51.1039 105.166C51.1039 105.395 50.9297 105.58 50.7133 105.58ZM51.0681 108.507H43.8164C43.6 108.507 43.4258 108.322 43.4258 108.093C43.4258 107.863 43.6 107.678 43.8164 107.678H51.0681C51.2846 107.678 51.4588 107.863 51.4588 108.093C51.4588 108.322 51.2846 108.507 51.0681 108.507ZM52.2108 111.433H43.8164C43.6 111.433 43.4258 111.249 43.4258 111.019C43.4258 110.79 43.6 110.605 43.8164 110.605H52.2108C52.4273 110.605 52.6015 110.79 52.6015 111.019C52.6015 111.249 52.4273 111.433 52.2108 111.433ZM57.5075 111.76C56.7734 111.76 56.0621 111.608 55.3914 111.306C54.7436 111.016 54.1625 110.6 53.6628 110.07C53.163 109.54 52.7707 108.924 52.4973 108.237C52.214 107.527 52.0692 106.771 52.0692 105.994C52.0692 105.218 52.2124 104.462 52.4973 103.751C52.7707 103.064 53.163 102.448 53.6628 101.918C54.1625 101.388 54.7436 100.972 55.3914 100.683C56.0621 100.382 56.775 100.229 57.5075 100.229C58.24 100.229 58.953 100.381 59.6236 100.683C60.2714 100.972 60.8526 101.388 61.3523 101.918C61.852 102.448 62.2443 103.064 62.5178 103.751C62.801 104.462 62.9459 105.218 62.9459 105.994C62.9459 106.771 62.8026 107.527 62.5178 108.237C62.2443 108.924 61.852 109.54 61.3523 110.07C60.8526 110.6 60.2714 111.016 59.6236 111.306C58.953 111.606 58.2416 111.76 57.5075 111.76ZM57.5075 101.057C54.9405 101.057 52.8505 103.271 52.8505 105.994C52.8505 108.717 54.9389 110.931 57.5075 110.931C60.0761 110.931 62.1645 108.717 62.1645 105.994C62.1645 103.271 60.0745 101.057 57.5075 101.057Z" fill="#3068F7"/>
<path d="M57.5056 110.191C56.4475 110.191 55.453 109.754 54.7058 108.962C53.9587 108.17 53.5469 107.115 53.5469 105.994C53.5469 104.872 53.9587 103.818 54.7058 103.026C55.453 102.233 56.4475 101.797 57.5056 101.797C58.5636 101.797 59.5582 102.233 60.3053 103.026C61.0525 103.818 61.4643 104.872 61.4643 105.994C61.4643 107.115 61.0525 108.17 60.3053 108.962C59.5582 109.754 58.5636 110.191 57.5056 110.191ZM57.5056 102.623C55.7525 102.623 54.3266 104.135 54.3266 105.994C54.3266 107.852 55.7525 109.364 57.5056 109.364C59.2587 109.364 60.6846 107.852 60.6846 105.994C60.6846 104.135 59.2587 102.623 57.5056 102.623ZM64.5668 115C64.1843 115 63.8245 114.841 63.5527 114.555L59.9847 110.772C59.8316 110.61 59.8316 110.348 59.9847 110.187C60.1377 110.025 60.3851 110.025 60.5365 110.187L64.1045 113.97C64.2282 114.101 64.391 114.172 64.5668 114.172H64.5684C64.7442 114.172 64.9086 114.097 65.0307 113.966C65.2814 113.697 65.2814 113.259 65.0274 112.991L61.4594 109.207C61.3064 109.045 61.3064 108.782 61.4594 108.622C61.6124 108.46 61.8598 108.46 62.0112 108.622L65.5793 112.405C66.1343 112.993 66.1376 113.956 65.5858 114.548C65.3156 114.838 64.9542 114.998 64.5701 115H64.5668Z" fill="#3068F7"/>
<path d="M0 102C0 94.9086 1.39675 87.8867 4.1105 81.3351C6.82426 74.7835 10.8019 68.8306 15.8162 63.8162C20.8306 58.8019 26.7835 54.8243 33.3351 52.1105C39.8867 49.3968 46.9086 48 54 48C61.0914 48 68.1133 49.3968 74.6649 52.1105C81.2165 54.8243 87.1694 58.8019 92.1838 63.8162C97.1981 68.8306 101.176 74.7835 103.889 81.3351C106.603 87.8867 108 94.9086 108 102H88.9109C88.9109 97.4154 88.008 92.8758 86.2535 88.6402C84.4991 84.4046 81.9276 80.556 78.6858 77.3142C75.444 74.0724 71.5954 71.5009 67.3598 69.7465C63.1243 67.9921 58.5846 67.0891 54 67.0891C49.4154 67.0891 44.8758 67.9921 40.6402 69.7465C36.4046 71.5009 32.556 74.0724 29.3142 77.3142C26.0724 80.556 23.5009 84.4046 21.7465 88.6402C19.9921 92.8757 19.0891 97.4154 19.0891 102H0Z" fill="#3068F7" fill-opacity="0.21"/>
<circle cx="54" cy="156" r="4" fill="#3068F7"/>
</svg>
