<svg width="16" height="16" viewBox="0 0 16 16" fill="none" xmlns="http://www.w3.org/2000/svg">
<path fill-rule="evenodd" clip-rule="evenodd" d="M7.25 0C7.44891 0 7.63968 0.0790176 7.78033 0.21967C7.92098 0.360322 8 0.551088 8 0.75V4C8 5.741 7.166 7.38 6 7.996V15C6 15.2652 5.89464 15.5196 5.70711 15.7071C5.51957 15.8946 5.26522 16 5 16C4.73478 16 4.48043 15.8946 4.29289 15.7071C4.10536 15.5196 4 15.2652 4 15V7.996C2.835 7.381 2 5.742 2 4V0.75C2.00001 0.568762 2.06564 0.393658 2.18477 0.257069C2.30389 0.120481 2.46845 0.0316483 2.648 0.007L2.75 0C2.94891 0 3.13968 0.0790176 3.28033 0.21967C3.42098 0.360322 3.5 0.551088 3.5 0.75V4.5C3.5 4.776 3.668 5 3.875 5C4.059 5 4.212 4.823 4.244 4.59L4.25 4.5V0.75C4.25 0.551088 4.32902 0.360322 4.46967 0.21967C4.61032 0.0790176 4.80109 0 5 0C5.19891 0 5.38968 0.0790176 5.53033 0.21967C5.67098 0.360322 5.75 0.551088 5.75 0.75V4.5C5.75 4.776 5.918 5 6.125 5C6.309 5 6.462 4.823 6.494 4.59L6.5 4.5V0.75C6.5 0.551088 6.57902 0.360322 6.71967 0.21967C6.86032 0.0790176 7.05109 0 7.25 0ZM13.5 0C13.6326 0 13.7598 0.0526784 13.8536 0.146447C13.9473 0.240215 14 0.367392 14 0.5V15C14 15.2652 13.8946 15.5196 13.7071 15.7071C13.5196 15.8946 13.2652 16 13 16C12.7348 16 12.4804 15.8946 12.2929 15.7071C12.1054 15.5196 12 15.2652 12 15V9.661C11.9997 9.41888 11.9116 9.18508 11.752 9.003L11.247 8.426C11.0875 8.24352 10.9998 8.00934 11 7.767V4.65C11 4.598 11.004 4.545 11.012 4.494C11.245 3.019 11.575 1.902 12 1.144C12.176 0.841 12.355 0.591 12.535 0.393C12.6473 0.269359 12.7843 0.170539 12.937 0.102865C13.0898 0.0351916 13.2549 0.000155508 13.422 0L13.5 0Z" fill="#4B69DD"/>
</svg>
