<svg width="19" height="19" viewBox="0 0 19 19" fill="none" xmlns="http://www.w3.org/2000/svg">
<path d="M9.89616 1.58301H9.10449L5.54199 5.14551L6.72949 6.33301L8.70866 4.35384V12.6663H10.292V4.35384L12.2712 6.33301L13.4587 5.14551L9.89616 1.58301Z" fill="#3068F7"/>
<path d="M5.54199 9.50033C5.33203 9.50033 5.13067 9.58373 4.9822 9.7322C4.83373 9.88067 4.75033 10.082 4.75033 10.292V14.2503C4.75033 14.4603 4.83373 14.6617 4.9822 14.8101C5.13067 14.9586 5.33203 15.042 5.54199 15.042H13.4587C13.6686 15.042 13.87 14.9586 14.0185 14.8101C14.1669 14.6617 14.2503 14.4603 14.2503 14.2503V10.292C14.2503 10.082 14.1669 9.88067 14.0185 9.7322C13.87 9.58373 13.6686 9.50033 13.4587 9.50033H12.667V7.91699H13.4587C14.0885 7.91699 14.6926 8.16721 15.138 8.61261C15.5834 9.05801 15.8337 9.6621 15.8337 10.292V14.2503C15.8337 14.8802 15.5834 15.4843 15.138 15.9297C14.6926 16.3751 14.0885 16.6253 13.4587 16.6253H5.54199C4.9121 16.6253 4.30801 16.3751 3.86261 15.9297C3.41721 15.4843 3.16699 14.8802 3.16699 14.2503V10.292C3.16699 9.6621 3.41721 9.05801 3.86261 8.61261C4.30801 8.16721 4.9121 7.91699 5.54199 7.91699H6.33366V9.50033H5.54199Z" fill="#3068F7"/>
</svg>
