<svg width="24" height="24" viewBox="0 0 24 24" fill="none" xmlns="http://www.w3.org/2000/svg">
<path fill-rule="evenodd" clip-rule="evenodd" d="M14.74 4.875C14.74 3.84 15.613 3 16.693 3C17.775 3 18.651 3.84 18.651 4.875C18.651 5.91 17.775 6.75 16.693 6.75C15.613 6.75 14.738 5.91 14.738 4.875M8.707 6.97C8.85618 6.82828 9.05423 6.74949 9.26 6.75H13.564C14.646 6.75 15.521 7.59 15.521 8.625C15.5188 8.9663 15.4196 9.29993 15.235 9.587L15.24 9.595L13.006 13.143L14.596 15.319C14.6879 15.4439 14.7377 15.5949 14.738 15.75V20.25C14.738 20.664 14.388 21 13.955 21C13.523 21 13.173 20.664 13.173 20.25L12.723 16.564L9.8 13.667V13.66C9.45827 13.3193 9.26491 12.8575 9.262 12.375C9.262 12.005 9.377 11.663 9.571 11.372L9.569 11.366L11.244 8.691L9.428 8.401L7.468 10.281C7.31841 10.4226 7.11997 10.501 6.914 10.5C6.482 10.5 6.131 10.164 6.131 9.75C6.131 9.551 6.214 9.36 6.361 9.22L8.707 6.97ZM16.533 9.656L15.521 11.25L15.691 11.332L16.688 11.896C16.808 11.964 16.946 12 17.086 12H20.216C20.649 12 20.999 11.664 20.999 11.25C20.999 10.836 20.649 10.5 20.216 10.5H17.6L16.533 9.656ZM7.201 15.302L8.376 13.957L9.963 15.524L8.313 16.964L8.259 17.019C8.10884 17.1674 7.90612 17.2504 7.695 17.25H3.783C3.35 17.25 3 16.914 3 16.5C3 16.086 3.35 15.75 3.783 15.75L7.201 15.302Z" fill="#D819A3"/>
</svg>
