<svg width="39" height="40" viewBox="0 0 39 40" fill="none" xmlns="http://www.w3.org/2000/svg">
<g clip-path="url(#clip0_934_12524)">
<path d="M39 0H0V40H39V0Z" fill="#1B95D5"/>
<path fill-rule="evenodd" clip-rule="evenodd" d="M12.9387 19.6477C12.9387 22.4267 10.7422 24.6713 8.03795 24.6713C5.33374 24.6713 3.14258 22.4267 3.14258 19.6477C3.14258 16.8686 5.33641 14.624 8.03795 14.624C10.7395 14.624 12.9387 16.8686 12.9387 19.6477Z" fill="white"/>
<path fill-rule="evenodd" clip-rule="evenodd" d="M24.6938 19.6477C24.6938 22.4267 22.5 24.6713 19.7984 24.6713C17.0969 24.6713 14.9004 22.4267 14.9004 19.6477C14.9004 16.8686 17.0942 14.624 19.7984 14.624C22.5027 14.624 24.6938 16.8686 24.6938 19.6477Z" fill="#6AAADE"/>
<path fill-rule="evenodd" clip-rule="evenodd" d="M36.4455 19.6477C36.4455 22.4267 34.249 24.6713 31.5475 24.6713C28.8459 24.6713 26.6494 22.4267 26.6494 19.6477C26.6494 16.8686 28.8432 14.624 31.5475 14.624C34.2517 14.624 36.4455 16.8686 36.4455 19.6477Z" fill="#95C3E7"/>
</g>
<defs>
<clipPath id="clip0_934_12524">
<rect width="39" height="40" rx="19.5" fill="white"/>
</clipPath>
</defs>
</svg>
