<svg width="20" height="20" viewBox="0 0 20 20" fill="none" xmlns="http://www.w3.org/2000/svg">
<path d="M13.3192 4.06998C13.4906 3.89856 13.6941 3.76258 13.918 3.66981C14.142 3.57704 14.3821 3.5293 14.6245 3.5293C14.8669 3.5293 15.1069 3.57704 15.3309 3.66981C15.5549 3.76258 15.7584 3.89856 15.9298 4.06998C16.1012 4.24139 16.2372 4.44489 16.33 4.66886C16.4227 4.89283 16.4705 5.13287 16.4705 5.37529C16.4705 5.61771 16.4227 5.85776 16.33 6.08172C16.2372 6.30569 16.1012 6.50919 15.9298 6.68061L7.11891 15.4915L3.5293 16.4705L4.50828 12.8809L13.3192 4.06998Z" stroke="#3068F7" stroke-width="2" stroke-linecap="round" stroke-linejoin="round"/>
</svg>
