<svg width="24" height="24" viewBox="0 0 24 24" fill="none" xmlns="http://www.w3.org/2000/svg">
<path fill-rule="evenodd" clip-rule="evenodd" d="M16.9543 9.79325L14.2353 11.0613C12.2353 10.4213 9.37334 9.82525 6.83734 9.00525L5.63634 9.55525C6.95634 10.5843 8.77134 11.8853 10.1563 12.9633L7.43934 14.2303C6.26634 13.9823 5.02134 13.8923 4.09034 13.6983C3.58434 13.5923 3.27434 14.0373 3.75234 14.4083C6.00834 16.1673 6.91134 16.8773 6.91134 16.8773C7.30334 17.1823 7.78634 17.3743 8.25434 17.1603L20.6993 11.3573C21.6053 10.8973 21.5703 10.2513 21.3393 9.72825C20.7923 8.55525 19.2903 8.72525 16.9553 9.79225" fill="#D819A3"/>
</svg>
