<svg width="14" height="14" viewBox="0 0 14 14" fill="none" xmlns="http://www.w3.org/2000/svg">
<g opacity="0.8" clip-path="url(#clip0_3069_36360)">
<path d="M12 0.999957H11.5V0.514018C11.5 0.244955 11.2931 0.0140169 11.0241 0.000579369C10.9565 -0.00267789 10.8889 0.00782446 10.8255 0.03145C10.762 0.0550756 10.7041 0.0913325 10.6551 0.138024C10.6061 0.184715 10.5671 0.240869 10.5404 0.303082C10.5137 0.365295 10.5 0.432272 10.5 0.499956V0.999957H3.5V0.514018C3.5 0.244955 3.29312 0.0140169 3.02406 0.000579369C2.95646 -0.00267789 2.88889 0.00782446 2.82547 0.03145C2.76205 0.0550756 2.70407 0.0913325 2.65507 0.138024C2.60608 0.184715 2.56707 0.240869 2.54041 0.303082C2.51376 0.365295 2.50001 0.432272 2.5 0.499956V0.999957H2C1.46957 0.999957 0.960862 1.21067 0.585787 1.58575C0.210714 1.96082 0 2.46953 0 2.99996V12C0 12.5304 0.210714 13.0391 0.585787 13.4142C0.960862 13.7893 1.46957 14 2 14H12C12.5304 14 13.0391 13.7893 13.4142 13.4142C13.7893 13.0391 14 12.5304 14 12V2.99996C14 2.46953 13.7893 1.96082 13.4142 1.58575C13.0391 1.21067 12.5304 0.999957 12 0.999957ZM3.25 12C3.10167 12 2.95666 11.956 2.83332 11.8736C2.70999 11.7911 2.61386 11.674 2.55709 11.537C2.50032 11.4 2.48547 11.2491 2.51441 11.1037C2.54335 10.9582 2.61478 10.8245 2.71967 10.7197C2.82456 10.6148 2.95819 10.5433 3.10368 10.5144C3.24917 10.4854 3.39997 10.5003 3.53702 10.557C3.67405 10.6138 3.79119 10.71 3.8736 10.8333C3.95601 10.9567 4 11.1016 4 11.25C4 11.4489 3.92098 11.6397 3.78033 11.7803C3.63968 11.921 3.44891 12 3.25 12ZM3.25 9.49998C3.10167 9.49998 2.95666 9.45602 2.83332 9.37356C2.70999 9.29117 2.61386 9.17406 2.55709 9.037C2.50032 8.89994 2.48547 8.74916 2.51441 8.60363C2.54335 8.45817 2.61478 8.32454 2.71967 8.21968C2.82456 8.11475 2.95819 8.04335 3.10368 8.01437C3.24917 7.98546 3.39997 8.0003 3.53702 8.05707C3.67405 8.11384 3.79119 8.20995 3.8736 8.33329C3.95601 8.45663 4 8.60167 4 8.75C4 8.94887 3.92098 9.13969 3.78033 9.28032C3.63968 9.42095 3.44891 9.49998 3.25 9.49998ZM5.75 12C5.60167 12 5.45666 11.956 5.33332 11.8736C5.20999 11.7911 5.11386 11.674 5.05709 11.537C5.00032 11.4 4.98547 11.2491 5.01441 11.1037C5.04335 10.9582 5.11478 10.8245 5.21967 10.7197C5.32456 10.6148 5.45819 10.5433 5.60368 10.5144C5.74917 10.4854 5.89997 10.5003 6.03701 10.557C6.17406 10.6138 6.29119 10.71 6.37361 10.8333C6.45602 10.9567 6.5 11.1016 6.5 11.25C6.5 11.4489 6.42098 11.6397 6.28033 11.7803C6.13968 11.921 5.94891 12 5.75 12ZM5.75 9.49998C5.60167 9.49998 5.45666 9.45602 5.33332 9.37356C5.20999 9.29117 5.11386 9.17406 5.05709 9.037C5.00032 8.89994 4.98547 8.74916 5.01441 8.60363C5.04335 8.45817 5.11478 8.32454 5.21967 8.21968C5.32456 8.11475 5.45819 8.04335 5.60368 8.01437C5.74917 7.98546 5.89997 8.0003 6.03701 8.05707C6.17406 8.11384 6.29119 8.20995 6.37361 8.33329C6.45602 8.45663 6.5 8.60167 6.5 8.75C6.5 8.94887 6.42098 9.13969 6.28033 9.28032C6.13968 9.42095 5.94891 9.49998 5.75 9.49998ZM8.24999 12C8.10166 12 7.95669 11.956 7.83335 11.8736C7.71001 11.7911 7.61383 11.674 7.55706 11.537C7.50036 11.4 7.48545 11.2491 7.51443 11.1037C7.54334 10.9582 7.61481 10.8245 7.71967 10.7197C7.82453 10.6148 7.95823 10.5433 8.10369 10.5144C8.24915 10.4854 8.4 10.5003 8.53699 10.557C8.67405 10.6138 8.79116 10.71 8.87362 10.8333C8.95601 10.9567 8.99997 11.1016 8.99997 11.25C8.99997 11.4489 8.92101 11.6397 8.78031 11.7803C8.63968 11.921 8.44893 12 8.24999 12ZM8.24999 9.49998C8.10166 9.49998 7.95669 9.45602 7.83335 9.37356C7.71001 9.29117 7.61383 9.17406 7.55706 9.037C7.50036 8.89994 7.48545 8.74916 7.51443 8.60363C7.54334 8.45817 7.61481 8.32454 7.71967 8.21968C7.82453 8.11475 7.95823 8.04335 8.10369 8.01437C8.24915 7.98546 8.4 8.0003 8.53699 8.05707C8.67405 8.11384 8.79116 8.20995 8.87362 8.33329C8.95601 8.45663 8.99997 8.60167 8.99997 8.75C8.99997 8.94887 8.92101 9.13969 8.78031 9.28032C8.63968 9.42095 8.44893 9.49998 8.24999 9.49998ZM8.24999 6.99998C8.10166 6.99998 7.95669 6.95599 7.83335 6.87358C7.71001 6.79117 7.61383 6.67403 7.55706 6.53698C7.50036 6.39995 7.48545 6.24915 7.51443 6.10366C7.54334 5.95817 7.61481 5.82453 7.71967 5.71964C7.82453 5.61476 7.95823 5.54332 8.10369 5.51438C8.24915 5.48545 8.4 5.5003 8.53699 5.55706C8.67405 5.61383 8.79116 5.70996 8.87362 5.8333C8.95601 5.95664 8.99997 6.10164 8.99997 6.24998C8.99997 6.44889 8.92101 6.63965 8.78031 6.7803C8.63968 6.92096 8.44893 6.99998 8.24999 6.99998ZM10.75 9.49998C10.6016 9.49998 10.4567 9.45602 10.3333 9.37356C10.21 9.29117 10.1139 9.17406 10.0571 9.037C10.0003 8.89994 9.9855 8.74916 10.0144 8.60363C10.0433 8.45817 10.1148 8.32454 10.2196 8.21968C10.3246 8.11475 10.4582 8.04335 10.6037 8.01437C10.7492 7.98546 10.9 8.0003 11.037 8.05707C11.174 8.11384 11.2912 8.20995 11.3736 8.33329C11.456 8.45663 11.5 8.60167 11.5 8.75C11.5 8.94887 11.421 9.13969 11.2804 9.28032C11.1397 9.42095 10.9489 9.49998 10.75 9.49998ZM10.75 6.99998C10.6016 6.99998 10.4567 6.95599 10.3333 6.87358C10.21 6.79117 10.1139 6.67403 10.0571 6.53698C10.0003 6.39995 9.9855 6.24915 10.0144 6.10366C10.0433 5.95817 10.1148 5.82453 10.2196 5.71964C10.3246 5.61476 10.4582 5.54332 10.6037 5.51438C10.7492 5.48545 10.9 5.5003 11.037 5.55706C11.174 5.61383 11.2912 5.70996 11.3736 5.8333C11.456 5.95664 11.5 6.10164 11.5 6.24998C11.5 6.44889 11.421 6.63965 11.2804 6.7803C11.1397 6.92096 10.9489 6.99998 10.75 6.99998ZM13 3.24997V3.74997C13 3.81627 12.9737 3.87986 12.9268 3.92674C12.8799 3.97363 12.8163 3.99997 12.75 3.99997H1.25C1.18369 3.99997 1.12011 3.97363 1.07323 3.92674C1.02634 3.87986 0.999999 3.81627 0.999999 3.74997V2.99996C1.00074 2.73498 1.10634 2.48105 1.29371 2.29368C1.48109 2.1063 1.73501 2.00071 2 1.99996H12C12.265 2.00071 12.5189 2.1063 12.7063 2.29368C12.8937 2.48105 12.9993 2.73498 13 2.99996V3.24997Z" fill="#343A60"/>
</g>
<defs>
<clipPath id="clip0_3069_36360">
<rect width="14" height="14" fill="white"/>
</clipPath>
</defs>
</svg>
