<svg width="18" height="18" viewBox="0 0 18 18" fill="none" xmlns="http://www.w3.org/2000/svg">
<path d="M8.875 16.75C7.31747 16.75 5.79492 16.2881 4.49989 15.4228C3.20485 14.5575 2.19549 13.3276 1.59945 11.8886C1.00341 10.4497 0.847461 8.86627 1.15132 7.33867C1.45518 5.81107 2.2052 4.40787 3.30654 3.30654C4.40787 2.2052 5.81107 1.45518 7.33867 1.15132C8.86627 0.84746 10.4496 1.00341 11.8886 1.59945C13.3277 2.19549 14.5576 3.20485 15.4229 4.49989C16.2882 5.79492 16.75 7.31747 16.75 8.875C16.75 10.9636 15.9204 12.9666 14.4434 14.4435C12.9667 15.9203 10.9636 16.75 8.875 16.75ZM8.875 2.125C7.53998 2.125 6.23494 2.52088 5.1249 3.26258C4.01487 4.00428 3.14971 5.05849 2.63882 6.29189C2.12792 7.52529 1.99425 8.88249 2.2547 10.1919C2.51515 11.5012 3.15803 12.704 4.10203 13.648C5.04604 14.592 6.24877 15.2348 7.55814 15.4953C8.86752 15.7557 10.2248 15.6221 11.4582 15.1112C12.6916 14.6003 13.7458 13.7351 14.4875 12.6251C15.2292 11.5151 15.6251 10.21 15.6251 8.875C15.6251 7.08479 14.9138 5.3679 13.648 4.10203C12.3822 2.83616 10.6653 2.125 8.875 2.125Z" fill="white"/>
<path d="M11.4569 12.25L8.3125 9.10563V3.8125H9.4375V8.63875L12.2501 11.4569L11.4569 12.25Z" fill="white"/>
<path fill-rule="evenodd" clip-rule="evenodd" d="M11.4537 12.5336L8.10938 9.18925V3.61328H9.63438V8.55681L12.5296 11.4578L11.4537 12.5336ZM9.43438 8.63953V3.81328H8.30938V9.10641L11.4537 12.2508L12.2469 11.4577L9.43438 8.63953ZM8.87188 16.9508C7.2748 16.9508 5.71358 16.4772 4.38565 15.5899C3.05773 14.7026 2.02273 13.4415 1.41156 11.966C0.800374 10.4904 0.640462 8.86682 0.952037 7.30043C1.26362 5.73403 2.03269 4.2952 3.16199 3.16589C4.2913 2.03658 5.73013 1.26752 7.29653 0.955943C8.86293 0.644368 10.4865 0.80428 11.962 1.41545C13.4375 2.02663 14.6987 3.06162 15.586 4.38955C16.4733 5.71748 16.9469 7.2787 16.9469 8.87578C16.9469 11.0174 16.0961 13.0713 14.5817 14.5857C13.0674 16.1 11.0135 16.9508 8.87188 16.9508ZM8.87188 2.32578C7.57641 2.32578 6.31004 2.70993 5.2329 3.42966C4.15576 4.14938 3.31623 5.17235 2.82047 6.36921C2.32472 7.56606 2.19501 8.88305 2.44774 10.1536C2.70047 11.4242 3.3243 12.5913 4.24033 13.5073C5.15637 14.4234 6.32347 15.0472 7.59404 15.2999C8.86462 15.5527 10.1816 15.423 11.3784 14.9272C12.5753 14.4314 13.5983 13.5919 14.318 12.5148C15.0377 11.4376 15.4219 10.1713 15.4219 8.87578C15.4219 7.13861 14.7318 5.4726 13.5034 4.24423C12.275 3.01587 10.609 2.32578 8.87188 2.32578ZM4.49677 15.4236C5.7918 16.2889 7.31435 16.7508 8.87188 16.7508C10.9604 16.7508 12.9635 15.9211 14.4403 14.4443C15.9172 12.9674 16.7469 10.9644 16.7469 8.87578C16.7469 7.31825 16.285 5.7957 15.4197 4.50067C14.5544 3.20563 13.3245 2.19627 11.8855 1.60023C10.4465 1.00419 8.86315 0.848242 7.33555 1.1521C5.80795 1.45596 4.40475 2.20598 3.30342 3.30732C2.20208 4.40865 1.45206 5.81185 1.1482 7.33945C0.844336 8.86705 1.00029 10.4505 1.59633 11.8894C2.19237 13.3284 3.20173 14.5583 4.49677 15.4236ZM5.12178 3.26336C6.23182 2.52166 7.53686 2.12578 8.87188 2.12578C10.6621 2.12578 12.379 2.83694 13.6448 4.10281C14.9107 5.36868 15.6219 7.08557 15.6219 8.87578C15.6219 10.2108 15.226 11.5159 14.4843 12.6259C13.7426 13.7359 12.6884 14.6011 11.455 15.112C10.2216 15.6229 8.8644 15.7565 7.55502 15.4961C6.24565 15.2356 5.04292 14.5928 4.09891 13.6488C3.15491 12.7048 2.51203 11.502 2.25158 10.1927C1.99113 8.88327 2.1248 7.52607 2.6357 6.29267C3.14659 5.05927 4.01175 4.00506 5.12178 3.26336Z" fill="white"/>
</svg>
