<svg width="15" height="15" viewBox="0 0 15 15" fill="none" xmlns="http://www.w3.org/2000/svg">
<path d="M9.95952 2H5.28853C4.09311 2 3.12402 3.21135 3.12402 4.70564V10.5444C3.12402 12.0386 4.09311 13.25 5.28853 13.25H9.95952C11.1549 13.25 12.124 12.0386 12.124 10.5444V4.70564C12.124 3.21135 11.1549 2 9.95952 2Z" stroke="#6727C4" stroke-width="1.53285"/>
<path d="M4.99224 2C3.202 2 4.57531 4.25 6.36555 4.25H8.88251C10.6727 4.25 12.0461 2 10.2558 2H4.99224Z" fill="#6727C4"/>
<path d="M5.375 13.6225C5.375 13.4168 5.12316 13.25 4.8125 13.25C4.50184 13.25 4.25 13.4168 4.25 13.6225V14.0025C4.25 14.2082 4.50184 14.375 4.8125 14.375C5.12316 14.375 5.375 14.2082 5.375 14.0025V13.6225Z" fill="#6727C4"/>
<path d="M9.875 13.6225C9.875 13.4168 9.62316 13.25 9.3125 13.25C9.00184 13.25 8.75 13.4168 8.75 13.6225V14.0025C8.75 14.2082 9.00184 14.375 9.3125 14.375C9.62316 14.375 9.875 14.2082 9.875 14.0025V13.6225Z" fill="#6727C4"/>
<path d="M13.25 4.95661C13.25 4.56636 12.9982 4.25 12.6875 4.25C12.3768 4.25 12.125 4.56636 12.125 4.95661V6.91839C12.125 7.30864 12.3768 7.625 12.6875 7.625C12.9982 7.625 13.25 7.30864 13.25 6.91839V4.95661Z" fill="#6727C4"/>
<path d="M3.125 4.95661C3.125 4.56636 2.87316 4.25 2.5625 4.25C2.25184 4.25 2 4.56636 2 4.95661V6.91839C2 7.30864 2.25184 7.625 2.5625 7.625C2.87316 7.625 3.125 7.30864 3.125 6.91839V4.95661Z" fill="#6727C4"/>
<path fill-rule="evenodd" clip-rule="evenodd" d="M3.12402 9.36182C3.12402 9.02392 3.39794 8.75 3.73584 8.75H11.5122C11.8501 8.75 12.124 9.02392 12.124 9.36182C12.124 11.5092 10.8286 13.25 9.23068 13.25H6.01736C4.41941 13.25 3.12402 11.5092 3.12402 9.36182ZM5.98313 11.401L4.49823 10.3586C4.24088 10.1779 3.968 10.5623 4.1144 10.8993L4.13383 10.944C4.46974 11.7171 5.06706 12.2187 5.73136 12.2857L6.11296 12.3241C6.42968 12.3561 6.54783 11.7782 6.2634 11.5882L5.98313 11.401ZM10.7498 10.3586L9.2649 11.4011L8.98464 11.5883C8.70025 11.7783 8.81835 12.3562 9.13508 12.3242L9.51667 12.2857C10.181 12.2188 10.7783 11.7171 11.1142 10.9441L11.1336 10.8994C11.2801 10.5624 11.0072 10.178 10.7498 10.3586Z" fill="#6727C4"/>
</svg>
