<svg width="132" height="21" viewBox="0 0 132 21" fill="none" xmlns="http://www.w3.org/2000/svg">
<path d="M10.139 16.8869C13.9496 15.9925 16.3136 12.1783 15.4191 8.36768C14.5246 4.55709 10.7103 2.19307 6.89973 3.08751C3.08911 3.98195 0.72514 7.79613 1.61964 11.6067C2.51415 15.4173 6.3284 17.7813 10.139 16.8869Z" fill="#EA001B"/>
<path d="M22.1206 15.0338C24.8884 12.2661 24.8884 7.77881 22.1206 5.01112C19.3528 2.24343 14.8653 2.24343 12.0975 5.01112C9.32968 7.77881 9.32968 12.2661 12.0975 15.0338C14.8653 17.8015 19.3528 17.8015 22.1206 15.0338Z" fill="#F79F1A"/>
<path fill-rule="evenodd" clip-rule="evenodd" d="M12.4038 4.70703C14.0226 5.94686 15.0615 7.8669 15.0615 10.0225C15.0615 12.178 14.0226 14.0981 12.4038 15.3379C10.7851 14.0981 9.74609 12.178 9.74609 10.0225C9.74609 7.8669 10.7851 5.94686 12.4038 4.70703Z" fill="#FF5F01"/>
<path d="M46.9492 15.3381L49.0235 3.82129H52.2647L50.2552 15.3381H46.9492Z" fill="#3068F7"/>
<path d="M46.9492 15.3381L49.6069 3.82129H52.2647L50.2552 15.3381H46.9492Z" fill="#293688"/>
<path d="M62.0106 4.34351C61.3737 4.0824 60.3546 3.82129 59.0807 3.82129C55.8961 3.82129 53.6032 5.45322 53.6032 7.8032C53.6032 9.56569 55.1955 10.4796 56.4693 11.0671C57.7432 11.6546 58.1253 12.0462 58.1253 12.5684C58.1253 13.3518 57.1063 13.7434 56.2146 13.7434C54.9407 13.7434 54.2401 13.5476 53.1573 13.0907L52.7115 12.8948L52.2656 15.5712C53.0299 15.8976 54.4312 16.224 55.8961 16.224C59.2718 16.224 61.5011 14.592 61.5011 12.1115C61.5011 10.7407 60.673 9.69624 58.7623 8.84764C57.6158 8.26014 56.9152 7.93376 56.9152 7.34626C56.9152 6.82404 57.4884 6.30183 58.7623 6.30183C59.845 6.30183 60.6094 6.49766 61.1826 6.75877L61.5011 6.88932L62.0106 4.34351Z" fill="#3068F7"/>
<path d="M62.0106 4.34351C61.3737 4.0824 60.3546 3.82129 59.0807 3.82129C55.8961 3.82129 54.1764 5.45322 54.1764 7.8032C54.1764 9.56569 55.1955 10.4796 56.4693 11.0671C57.7432 11.6546 58.1253 12.0462 58.1253 12.5684C58.1253 13.3518 57.1063 13.7434 56.2146 13.7434C54.9407 13.7434 54.2401 13.5476 53.1573 13.0907L52.7115 12.8948L52.2656 15.5712C53.0299 15.8976 54.4312 16.224 55.8961 16.224C59.2718 16.224 61.5011 14.592 61.5011 12.1115C61.5011 10.7407 60.673 9.69624 58.7623 8.84764C57.6158 8.26014 56.9152 7.93376 56.9152 7.34626C56.9152 6.82404 57.4884 6.30183 58.7623 6.30183C59.845 6.30183 60.6094 6.49766 61.1826 6.75877L61.5011 6.88932L62.0106 4.34351Z" fill="#293688"/>
<path d="M68.0078 3.82129C67.1901 3.82129 66.5767 3.88527 66.236 4.65306L61.125 15.3381H64.8049L65.4864 13.4186H69.8478L70.2566 15.3381H73.5277L70.6655 3.82129H68.0078ZM66.4404 11.4991C66.6449 10.9233 67.8034 8.10809 67.8034 8.10809C67.8034 8.10809 68.076 7.40429 68.2804 6.95641L68.4848 8.04411C68.4848 8.04411 69.1663 10.9233 69.3026 11.5631H66.4404V11.4991Z" fill="#3068F7"/>
<path d="M68.8256 3.82129C68.0078 3.82129 67.3945 3.88527 67.0538 4.65306L61.125 15.3381H64.8049L65.4864 13.4186H69.8478L70.2566 15.3381H73.5277L70.6655 3.82129H68.8256ZM66.4404 11.4991C66.713 10.8593 67.8034 8.10809 67.8034 8.10809C67.8034 8.10809 68.076 7.40429 68.2804 6.95641L68.4848 8.04411C68.4848 8.04411 69.1663 10.9233 69.3026 11.5631H66.4404V11.4991Z" fill="#293688"/>
<path d="M41.119 12.7048L40.7991 11.0413C40.2232 9.1218 38.3677 7.01039 36.3203 5.98667L39.1995 16.2238H42.6545L47.8371 4.70703H44.3821L41.119 12.7048Z" fill="#3068F7"/>
<path d="M41.119 12.7048L40.7991 11.0413C40.2232 9.1218 38.3677 7.01039 36.3203 5.98667L39.1995 16.2238H42.6545L47.8371 4.70703H45.0219L41.119 12.7048Z" fill="#293688"/>
<path d="M31.8906 3.82129L32.4856 3.94532C36.7168 4.87552 39.6258 7.23203 40.7497 10.0226L39.5597 4.75149C39.3613 4.00733 38.7663 3.82129 38.0391 3.82129H31.8906Z" fill="#FFBC00"/>
<path d="M31.8906 3.82129C36.1218 4.76089 39.6258 7.20384 40.7497 10.0226L39.6258 5.5752C39.4274 4.82353 38.7663 4.38505 38.0391 4.38505L31.8906 3.82129Z" fill="#F7981D"/>
<path d="M31.8906 3.82129C36.1218 4.76089 39.6258 7.20384 40.7497 10.0226L39.9563 7.57968C39.758 6.828 39.4936 6.07632 38.568 5.76312L31.8906 3.82129Z" fill="#ED7C00"/>
<path d="M44.2935 12.2371L42.1073 9.97801L41.0785 12.5028L40.8213 10.8418C40.2426 8.84848 38.3779 6.65586 36.3203 5.59277L39.2138 16.2236H42.686L44.2935 12.2371Z" fill="#051244"/>
<path d="M50.4967 15.3384L47.509 12.6807L46.9531 15.3384H50.4967Z" fill="#051244"/>
<path d="M58.1944 11.7939C58.467 12.0584 58.6033 12.2567 58.5351 12.5212C58.5351 13.3145 57.4448 13.7112 56.4907 13.7112C55.1278 13.7112 54.3782 13.5129 53.2197 13.0501L52.7427 12.8517L52.2656 15.5624C53.0834 15.8929 54.5826 16.2235 56.15 16.2235C58.3307 16.2235 60.1025 15.6285 61.1247 14.5707L58.1944 11.7939Z" fill="#051244"/>
<path d="M62.0117 16.2233H65.1048L65.7629 14.1945H69.9747L70.3696 16.2233H73.5285L72.4097 11.2866L68.4611 7.36426L68.6585 8.44628C68.6585 8.44628 69.3166 11.4895 69.4483 12.1657H66.6842C66.9475 11.4895 68.0004 8.58153 68.0004 8.58153C68.0004 8.58153 68.2637 7.83764 68.4611 7.36426" fill="#051244"/>
<path fill-rule="evenodd" clip-rule="evenodd" d="M82.3906 2.9444C83.9196 2.94883 85.4471 2.94587 86.9775 2.9444C87.6966 2.93555 88.4186 3.30881 88.8111 3.91962C89.1772 4.4419 89.3164 5.07483 89.4965 5.67826C90.0501 7.5564 90.5949 9.43749 91.1499 11.3156C91.1587 11.4853 91.4092 11.5502 91.4575 11.3702C92.0243 9.47438 92.5705 7.57263 93.1329 5.6753C93.3262 5.00696 93.4917 4.29584 93.9413 3.747C94.2298 3.39144 94.634 3.13767 95.0749 3.01964C95.4498 2.91489 95.8408 2.95473 96.2245 2.94883C97.566 2.95325 98.909 2.93702 100.252 2.95768C100.243 7.67443 100.256 12.3927 100.245 17.1094C98.7933 17.1006 97.3405 17.1227 95.8877 17.0976C95.8877 14.3298 95.8935 11.5635 95.8847 8.79571C95.876 8.54932 95.4717 8.56998 95.4439 8.80161C94.5799 11.5664 93.7085 14.3283 92.8576 17.0961C91.8324 17.1197 90.8058 17.1006 89.7791 17.105C88.9165 14.3401 88.0598 11.5738 87.1869 8.81341C87.1503 8.58473 86.8823 8.57735 86.7388 8.71014C86.7417 11.506 86.7359 14.3018 86.7417 17.0976C85.2918 17.1153 83.842 17.0976 82.3921 17.1065C82.3921 12.3853 82.3921 7.66558 82.3921 2.9444H82.3906ZM102.232 2.95325C103.68 2.93112 105.132 2.96505 106.58 2.93555C106.604 5.73579 106.583 8.53752 106.59 11.3378C106.715 11.4499 106.942 11.4838 107.018 11.2994C107.983 9.26192 108.944 7.22149 109.908 5.18401C110.214 4.55107 110.461 3.86503 110.959 3.35308C111.182 3.14062 111.46 2.93555 111.782 2.94883C113.26 2.94883 114.738 2.93997 116.215 2.95325C116.217 7.66853 116.217 12.3838 116.215 17.0991C114.765 17.1109 113.316 17.1094 111.864 17.0991C111.864 14.3062 111.87 11.5119 111.861 8.71899C111.858 8.4785 111.454 8.49916 111.413 8.71456C110.504 10.7358 109.599 12.7585 108.691 14.7783C108.411 15.3921 108.146 16.0235 107.728 16.5576C107.495 16.8556 107.157 17.1227 106.762 17.105C105.252 17.105 103.74 17.1065 102.231 17.105C102.231 12.3882 102.232 7.67148 102.231 2.95473L102.232 2.95325ZM118.337 9.41536C122.892 9.38438 127.447 9.41536 132.001 9.40061C131.848 10.0321 131.442 10.5765 131.013 11.0515C130.165 11.9781 128.948 12.5431 127.696 12.5771C126.032 12.5859 124.368 12.5771 122.705 12.5815C122.694 14.0908 122.705 15.5986 122.7 17.1079C121.249 17.102 119.797 17.1124 118.345 17.102C118.337 14.5408 118.352 11.9796 118.337 9.41684V9.41536Z" fill="#3DA536"/>
<path fill-rule="evenodd" clip-rule="evenodd" d="M117.828 2.9403C121.15 2.93621 124.473 2.93348 127.795 2.93757C128.666 2.99758 129.508 3.33448 130.199 3.8405C131.201 4.58521 131.878 5.72819 131.989 6.93801C132.015 7.37447 132.006 7.81366 131.938 8.24603C129.901 8.25694 127.867 8.24603 125.83 8.24875C125.131 8.2433 124.429 8.27603 123.735 8.17783C122.172 7.98824 120.631 7.36765 119.523 6.27922C118.589 5.38584 118.014 4.18285 117.828 2.94166V2.9403Z" fill="#008CD2"/>
</svg>
