<svg width="13" height="13" viewBox="0 0 13 13" fill="none" xmlns="http://www.w3.org/2000/svg">
<path d="M11.6674 8.81355C10.8261 9.31501 9.86186 9.57993 8.87873 9.57993C5.869 9.57993 3.42021 7.13106 3.42021 4.12121C3.42021 3.13807 3.6851 2.1738 4.18655 1.33246C4.23812 1.24609 4.22436 1.13545 4.15303 1.06432C4.08193 0.99343 3.97149 0.979454 3.88492 1.03081C2.10537 2.09066 1 4.03355 1 6.10128C1 9.3539 3.64623 12 6.89874 12C8.96639 12 10.9092 10.8946 11.969 9.1152C12.0206 9.02861 12.0066 8.91819 11.9355 8.84706C11.8642 8.77552 11.7538 8.76198 11.6674 8.81355Z" fill="#3068F7"/>
<path d="M3.4129 1.90267C2.17927 2.93138 1.44 4.47464 1.44 6.10128C1.44 9.11112 3.88878 11.56 6.89874 11.56C8.52531 11.56 10.0685 10.8205 11.0972 9.58723C10.3962 9.8719 9.64272 10.0199 8.87873 10.0199M11.6674 8.81355C10.8261 9.31501 9.86186 9.57993 8.87873 9.57993C5.869 9.57993 3.42021 7.13106 3.42021 4.12121C3.42021 3.13807 3.6851 2.1738 4.18655 1.33246C4.23812 1.24609 4.22436 1.13545 4.15303 1.06432C4.08193 0.99343 3.97149 0.979454 3.88492 1.03081C2.10537 2.09066 1 4.03355 1 6.10128C1 9.3539 3.64623 12 6.89874 12C8.96639 12 10.9092 10.8946 11.969 9.1152C12.0206 9.02861 12.0066 8.91819 11.9355 8.84706C11.8642 8.77552 11.7538 8.76198 11.6674 8.81355Z" stroke="#3068F7" stroke-width="0.4"/>
</svg>
