<svg width="10" height="12" viewBox="0 0 10 12" fill="none" xmlns="http://www.w3.org/2000/svg">
<path d="M7.07599 0.686523H2.92401C1.86141 0.686523 1 1.76328 1 3.09153V8.28151C1 9.60976 1.86141 10.6865 2.92401 10.6865H7.07599C8.13859 10.6865 9 9.60976 9 8.28151V3.09153C9 1.76328 8.13859 0.686523 7.07599 0.686523Z" stroke="#3068F7" stroke-width="1.37283"/>
<path d="M1 2.68652H9C9 1.58195 8.25651 0.686523 7.33937 0.686523H2.66064C1.74348 0.686523 1 1.58195 1 2.68652Z" fill="#3068F7"/>
<path d="M3 11.0176C3 10.8348 2.77614 10.6865 2.5 10.6865C2.22386 10.6865 2 10.8348 2 11.0176V11.3554C2 11.5383 2.22386 11.6865 2.5 11.6865C2.77614 11.6865 3 11.5383 3 11.3554V11.0176Z" fill="#3068F7"/>
<path d="M7 11.0176C7 10.8348 6.77614 10.6865 6.5 10.6865C6.22386 10.6865 6 10.8348 6 11.0176V11.3554C6 11.5383 6.22386 11.6865 6.5 11.6865C6.77614 11.6865 7 11.5383 7 11.3554V11.0176Z" fill="#3068F7"/>
<path d="M10 3.31462C10 2.96773 9.77614 2.68652 9.5 2.68652C9.22386 2.68652 9 2.96773 9 3.31462V5.05843C9 5.40532 9.22386 5.68652 9.5 5.68652C9.77614 5.68652 10 5.40532 10 5.05843V3.31462Z" fill="#3068F7"/>
<path d="M1 3.31462C1 2.96773 0.776142 2.68652 0.5 2.68652C0.223858 2.68652 0 2.96773 0 3.31462V5.05843C0 5.40532 0.223858 5.68652 0.5 5.68652C0.776142 5.68652 1 5.40532 1 5.05843V3.31462Z" fill="#3068F7"/>
<path fill-rule="evenodd" clip-rule="evenodd" d="M1 6.68652H9V7.23036C9 9.13915 7.84854 10.6865 6.42814 10.6865H3.57186C2.15145 10.6865 1 9.13915 1 7.23036V6.68652ZM3.54143 9.04298L2.22151 8.11638C1.99276 7.95581 1.7502 8.29749 1.88034 8.59703L1.89761 8.63675C2.19619 9.32394 2.72714 9.76984 3.31764 9.82936L3.65683 9.86354C3.93837 9.89194 4.04339 9.37827 3.79056 9.20939L3.54143 9.04298ZM7.77848 8.11643L6.45856 9.04303L6.20944 9.20949C5.95664 9.37837 6.06163 9.89199 6.34316 9.86359L6.68236 9.82941C7.27285 9.76989 7.8038 9.32399 8.10238 8.6368L8.11966 8.59708C8.24982 8.29754 8.00725 7.95586 7.77848 8.11643Z" fill="#3068F7"/>
</svg>
