<svg width="16" height="16" viewBox="0 0 16 16" fill="none" xmlns="http://www.w3.org/2000/svg">
<g clip-path="url(#clip0_1392_21148)">
<path fill-rule="evenodd" clip-rule="evenodd" d="M4 10H7V7H4V10ZM2 14V5H14L14.002 14H2ZM14 2H13V1C13 0.734784 12.8946 0.48043 12.7071 0.292893C12.5196 0.105357 12.2652 0 12 0C11.7348 0 11.4804 0.105357 11.2929 0.292893C11.1054 0.48043 11 0.734784 11 1V2H5V1C5 0.734784 4.89464 0.48043 4.70711 0.292893C4.51957 0.105357 4.26522 0 4 0C3.73478 0 3.48043 0.105357 3.29289 0.292893C3.10536 0.48043 3 0.734784 3 1V2H2C0.897 2 0 2.897 0 4V14C0 15.103 0.897 16 2 16H14C15.103 16 16 15.103 16 14V4C16 2.897 15.103 2 14 2Z" fill="#3068F7"/>
</g>
<defs>
<clipPath id="clip0_1392_21148">
<rect width="16" height="16" fill="white"/>
</clipPath>
</defs>
</svg>
