<svg width="27" height="27" viewBox="0 0 27 27" fill="none" xmlns="http://www.w3.org/2000/svg">
<path d="M22.7358 16.4155H22.4276C21.9522 14.433 20.8968 12.6422 19.4389 11.3532C18.0789 10.1508 16.4737 9.44314 14.7583 9.28213C14.8028 9.16988 14.8278 9.04594 14.8278 8.91561C14.8278 8.41072 14.4565 8 14 8C13.5435 8 13.1722 8.41072 13.1722 8.91561C13.1722 9.04594 13.1972 9.16988 13.2417 9.28229C11.5263 9.44314 9.92105 10.1508 8.56108 11.3532C7.1032 12.6422 6.04782 14.433 5.57239 16.4155H5.26422C5.11824 16.4155 5 16.5463 5 16.7078C5 16.8692 5.11824 17 5.26422 17H22.7358C22.8818 17 23 16.8692 23 16.7078C23 16.5463 22.8818 16.4155 22.7358 16.4155ZM13.7006 8.91561C13.7006 8.73304 13.8349 8.58449 14 8.58449C14.1651 8.58449 14.2994 8.73304 14.2994 8.91561C14.2994 9.09819 14.1651 9.24674 14 9.24674C13.8349 9.24674 13.7006 9.09819 13.7006 8.91561ZM6.11964 16.4155C7.11308 12.52 10.3067 9.83123 14 9.83123C17.6933 9.83123 20.8869 12.5199 21.8804 16.4155H6.11964Z" fill="#3068F7" stroke="#3068F7" stroke-width="0.4"/>
<circle opacity="0.2" cx="13.5" cy="13.5" r="13" stroke="#3068F7"/>
</svg>
