<svg width="108" height="54" viewBox="0 0 108 54" fill="none" xmlns="http://www.w3.org/2000/svg">
<path d="M0 54C0 46.9086 1.39675 39.8867 4.1105 33.3351C6.82426 26.7835 10.8019 20.8306 15.8162 15.8162C20.8306 10.8019 26.7835 6.82426 33.3351 4.1105C39.8867 1.39675 46.9086 0 54 0C61.0914 0 68.1133 1.39675 74.6649 4.1105C81.2165 6.82426 87.1694 10.8019 92.1838 15.8162C97.1981 20.8306 101.176 26.7835 103.889 33.3351C106.603 39.8867 108 46.9086 108 54H88.9109C88.9109 49.4154 88.008 44.8758 86.2535 40.6402C84.4991 36.4046 81.9276 32.556 78.6858 29.3142C75.444 26.0724 71.5954 23.5009 67.3598 21.7465C63.1243 19.9921 58.5846 19.0891 54 19.0891C49.4154 19.0891 44.8758 19.9921 40.6402 21.7465C36.4046 23.5009 32.556 26.0724 29.3142 29.3142C26.0724 32.556 23.5009 36.4046 21.7465 40.6402C19.9921 44.8757 19.0891 49.4154 19.0891 54H0Z" fill="#3068F7" fill-opacity="0.21"/>
</svg>
