<svg width="68" height="58" viewBox="0 0 68 58" fill="none" xmlns="http://www.w3.org/2000/svg">
<path fill-rule="evenodd" clip-rule="evenodd" d="M41.2956 52.9902C31.8623 52.9902 23.3591 48.1131 18.4431 39.9406C18.1774 39.5452 18.3103 39.0179 18.7089 38.6225C19.2403 38.3589 19.7718 38.6225 20.0375 39.0179C24.5548 46.5313 32.5266 51.013 41.2956 51.013C54.9805 51.013 66.0082 40.0725 66.0082 26.4956C66.0082 13.0506 54.9805 1.97821 41.2956 1.97821C30.268 2.11002 20.4361 9.49161 17.5131 20.0367C17.3802 20.564 16.8488 20.8276 16.3173 20.6958C15.7859 20.564 15.5201 20.0367 15.653 19.5095C18.8417 8.04165 29.4708 0.132812 41.2956 0.132812C56.0434 0.132812 68.0011 11.9961 68.0011 26.4956C68.0011 41.127 56.0434 52.9902 41.2956 52.9902Z" fill="#3068F7"/>
<path fill-rule="evenodd" clip-rule="evenodd" d="M41.2957 52.9892C35.8483 52.9892 31.3309 45.8713 29.6037 34.7989C29.6037 34.2716 29.8694 33.7444 30.4009 33.7444C31.0652 33.6126 31.4638 34.008 31.5967 34.5353C33.0582 44.1577 37.0441 51.012 41.2957 51.012C46.8759 51.012 51.659 39.8078 51.659 26.4946C51.659 13.1814 46.8759 1.97721 41.2957 1.97721C35.8483 1.97721 31.0652 13.0496 30.9324 26.0992C30.9324 26.6264 30.5338 27.0219 30.0023 27.0219C29.4709 27.0219 29.0723 26.4946 29.0723 25.9674C29.2051 11.4678 34.6525 0 41.4286 0C48.2046 0.131814 53.652 11.7314 53.652 26.4946C53.652 41.3896 48.2046 52.9892 41.2957 52.9892Z" fill="#3068F7"/>
<path fill-rule="evenodd" clip-rule="evenodd" d="M41.2955 38.3603C36.6453 38.3603 31.995 37.7013 27.8763 36.6467C27.3448 36.6467 26.9462 35.9877 27.0791 35.5922C27.212 35.065 27.7434 34.6695 28.2749 34.8014C32.2608 35.8559 36.7781 36.3831 41.2955 36.3831C54.7147 36.3831 66.008 31.9014 66.008 26.4971C66.008 21.0927 54.7147 16.611 41.2955 16.611C32.3936 16.611 24.1561 18.5882 19.6388 21.8836C19.2402 22.1472 18.5758 22.0154 18.3101 21.62C18.0444 21.2245 18.1773 20.5654 18.5758 20.3018C23.4918 16.8746 31.995 14.7656 41.4283 14.7656C56.309 14.7656 68.001 19.9064 68.001 26.4971C68.001 33.0878 56.309 38.3603 41.2955 38.3603Z" fill="#3068F7"/>
<path fill-rule="evenodd" clip-rule="evenodd" d="M64.0156 58.0006H3.82848C3.29703 58.0006 2.89844 57.6052 2.89844 56.9461C2.89844 56.4189 3.29703 56.0234 3.82848 56.0234H64.0156C64.6799 56.0234 65.0785 56.4189 65.0785 56.9461C65.0785 57.6052 64.6799 58.0006 64.0156 58.0006Z" fill="#3068F7"/>
<path fill-rule="evenodd" clip-rule="evenodd" d="M10.604 44.1549H3.42939C2.63221 44.1549 1.17071 44.1549 0.506394 42.8367C0.37353 42.1776 0.240667 41.5186 0.506394 40.8595C0.904984 40.2004 1.30357 39.805 1.96789 39.5414C2.49934 39.2777 3.69511 38.7505 4.0937 38.4869C4.0937 38.0914 4.22657 37.696 4.62516 37.0369L0.37353 33.6097C-0.0250596 33.3461 -0.157923 32.687 0.240667 32.2916C3.82798 27.6781 9.40823 31.5007 11.4012 32.687C11.4012 32.687 11.534 32.8189 11.6669 32.9507L18.5758 29.9189L9.14251 19.9011C8.74392 19.6375 8.74392 19.1102 8.87678 18.7148C9.14251 18.4511 9.40823 18.1875 9.80682 18.1875L17.1143 18.8466C17.2472 18.8466 17.5129 18.8466 17.6458 18.9784L28.4077 25.8327L36.3795 22.2737C40.4982 20.5602 43.9527 21.4829 45.9456 22.9328C47.4071 23.9873 48.2043 25.3055 47.9386 26.6236C47.9386 27.2827 47.54 28.469 45.8128 29.1281L11.0026 44.1549C10.8697 44.1549 10.7369 44.1549 10.604 44.1549ZM2.36648 32.8189L6.48524 36.246C6.88383 36.6415 7.0167 37.1687 6.61811 37.696C5.95379 38.355 5.95379 38.6187 5.95379 38.8823C5.82093 39.9368 5.15661 40.2004 2.63221 41.3868C2.49934 41.3868 2.36648 41.5186 2.36648 41.6504C2.23362 41.7822 2.23362 41.914 2.36648 42.0458C2.49934 42.3095 3.16366 42.3095 3.42939 42.3095H10.3383L45.0156 27.5463C45.4142 27.2827 45.9456 26.8872 46.0785 26.4918C46.0785 25.8327 45.6799 25.1736 44.8827 24.5146C43.2884 23.3282 40.4982 22.6692 37.1767 24.1191L28.6734 27.8099C28.4077 27.8099 28.0091 27.8099 27.7434 27.6781L16.7157 20.692L12.1984 20.2965L20.9673 29.6553C21.2331 29.7871 21.3659 30.1826 21.2331 30.4462C21.1002 30.8416 20.9673 31.1053 20.7016 31.2371L11.9326 34.9279C11.4012 35.1915 11.0026 34.9279 10.2054 34.4006C7.54815 32.5552 4.49229 30.9735 2.36648 32.8189Z" fill="#D819A3"/>
</svg>
