<svg width="20" height="20" viewBox="0 0 20 20" fill="none" xmlns="http://www.w3.org/2000/svg">
<path d="M10 11C10.5304 11 11.0391 10.7893 11.4142 10.4142C11.7893 10.0391 12 9.53043 12 9C12 8.46957 11.7893 7.96086 11.4142 7.58579C11.0391 7.21071 10.5304 7 10 7C9.46957 7 8.96086 7.21071 8.58579 7.58579C8.21071 7.96086 8 8.46957 8 9C8 9.53043 8.21071 10.0391 8.58579 10.4142C8.96086 10.7893 9.46957 11 10 11Z" fill="#3068F7"/>
<path fill-rule="evenodd" clip-rule="evenodd" d="M17.2915 14.2758C18.2636 12.9323 18.8456 11.3463 18.9733 9.69295C19.101 8.03957 18.7694 6.38306 18.0151 4.90623C17.2608 3.42941 16.1131 2.18971 14.6987 1.32394C13.2844 0.458168 11.6583 0 10 0C8.3417 0 6.71564 0.458168 5.30127 1.32394C3.88691 2.18971 2.73925 3.42941 1.98495 4.90623C1.23065 6.38306 0.89904 8.03957 1.02672 9.69295C1.1544 11.3463 1.73641 12.9323 2.7085 14.2758C5.1895 17.9708 9.4995 19.9988 9.4995 19.9988H10.4995C10.4995 19.9988 14.8105 17.9708 17.2915 14.2758ZM6.9995 4.9988L7.4995 3.4988H12.4995L12.9995 4.9988H13.9995C14.5299 4.9988 15.0386 5.20951 15.4137 5.58458C15.7888 5.95966 15.9995 6.46836 15.9995 6.9988V10.9988C15.9995 11.5292 15.7888 12.0379 15.4137 12.413C15.0386 12.7881 14.5299 12.9988 13.9995 12.9988H5.9995C5.46907 12.9988 4.96036 12.7881 4.58529 12.413C4.21022 12.0379 3.9995 11.5292 3.9995 10.9988V6.9988C3.9995 6.46836 4.21022 5.95966 4.58529 5.58458C4.96036 5.20951 5.46907 4.9988 5.9995 4.9988H6.9995Z" fill="#3068F7"/>
</svg>
