<svg width="22" height="20" viewBox="0 0 22 20" fill="none" xmlns="http://www.w3.org/2000/svg">
<path d="M20 3H2V9H5.5V8C5.5 7.73478 5.60536 7.48043 5.79289 7.29289C5.98043 7.10536 6.23478 7 6.5 7H8.5C8.76522 7 9.01957 7.10536 9.20711 7.29289C9.39464 7.48043 9.5 7.73478 9.5 8V9H12.5V8C12.5 7.73478 12.6054 7.48043 12.7929 7.29289C12.9804 7.10536 13.2348 7 13.5 7H15.5C15.7652 7 16.0196 7.10536 16.2071 7.29289C16.3946 7.48043 16.5 7.73478 16.5 8V9H20V3ZM3 11C2.20435 11 1.44129 11.3161 0.87868 11.8787C0.31607 12.4413 0 13.2044 0 14V17H2L3 15H19L20 17H22V14C22 13.2044 21.6839 12.4413 21.1213 11.8787C20.5587 11.3161 19.7956 11 19 11H3Z" fill="#3068F7"/>
</svg>
