<svg width="20" height="20" viewBox="0 0 20 20" fill="none" xmlns="http://www.w3.org/2000/svg">
<path d="M5.6279 12.2154L3.1186 11.5875L1.00106 13.7051L4.70676 15.2932L6.29492 18.9989L8.41247 16.8814L7.78462 14.3721L10.9048 11.5357L15.2956 19C15.7327 18.8538 16.1009 18.5523 16.3304 18.1526C16.5599 17.7529 16.6348 17.2828 16.5407 16.8316L14.6921 7.95382L17.0235 5.6224C17.9719 4.66874 18.645 3.47655 18.9716 2.17186C19.0113 2.01387 19.0093 1.84829 18.9659 1.69128C18.9226 1.53426 18.8392 1.39118 18.724 1.276C18.6088 1.16081 18.4657 1.07745 18.3087 1.03405C18.1517 0.990656 17.9861 0.988705 17.8281 1.02839C16.5229 1.35437 15.3302 2.02755 14.3765 2.97653L12.0441 5.30795L3.17048 3.45827C2.71875 3.36445 2.24828 3.43959 1.84825 3.66946C1.44821 3.89934 1.1464 4.26797 1 4.70551L8.46435 9.09518L5.6279 12.2154Z" fill="#3068F7"/>
</svg>
