<svg width="20" height="20" viewBox="0 0 20 20" fill="none" xmlns="http://www.w3.org/2000/svg">
<path d="M15.1475 6.33887C15.1472 5.05797 14.109 4.01975 12.8281 4.01953H6.33984C5.05895 4.01975 4.02073 5.05797 4.02051 6.33887V12.8271C4.02073 14.108 5.05895 15.1463 6.33984 15.1465H12.8281C14.109 15.1463 15.1472 14.108 15.1475 12.8271V6.33887ZM16.5205 12.8271C16.5203 14.8662 14.8672 16.5193 12.8281 16.5195H6.33984C4.30075 16.5193 2.64768 14.8662 2.64746 12.8271V6.33887C2.64768 4.29978 4.30075 2.6467 6.33984 2.64648H12.8281C14.8672 2.6467 16.5203 4.29978 16.5205 6.33887V12.8271Z" fill="#3068F7"/>
<path d="M3.33398 5.83301H15.834C15.834 4.4523 14.6723 3.33301 13.2393 3.33301H5.92873C4.49568 3.33301 3.33398 4.4523 3.33398 5.83301Z" fill="#3068F7"/>
<path d="M5.83366 15.8277C5.83366 15.3706 5.46056 15 5.00033 15C4.54009 15 4.16699 15.3706 4.16699 15.8277V16.6723C4.16699 17.1294 4.54009 17.5 5.00033 17.5C5.46056 17.5 5.83366 17.1294 5.83366 16.6723V15.8277Z" fill="#3068F7"/>
<path d="M15.0007 15.8277C15.0007 15.3706 14.6276 15 14.1673 15C13.7071 15 13.334 15.3706 13.334 15.8277V16.6723C13.334 17.1294 13.7071 17.5 14.1673 17.5C14.6276 17.5 15.0007 17.1294 15.0007 16.6723V15.8277Z" fill="#3068F7"/>
<path d="M17.5007 6.70536C17.5007 6.22357 17.1276 5.83301 16.6673 5.83301C16.2071 5.83301 15.834 6.22357 15.834 6.70536V9.12732C15.834 9.60911 16.2071 9.99967 16.6673 9.99967C17.1276 9.99967 17.5007 9.60911 17.5007 9.12732V6.70536Z" fill="#3068F7"/>
<path d="M3.33366 6.70536C3.33366 6.22357 2.96056 5.83301 2.50033 5.83301C2.04009 5.83301 1.66699 6.22357 1.66699 6.70536V9.12732C1.66699 9.60911 2.04009 9.99967 2.50033 9.99967C2.96056 9.99967 3.33366 9.60911 3.33366 9.12732V6.70536Z" fill="#3068F7"/>
<path fill-rule="evenodd" clip-rule="evenodd" d="M3.33398 10.833H15.834V11.5128C15.834 13.8988 14.0348 15.833 11.8154 15.833H7.35251C5.13313 15.833 3.33398 13.8988 3.33398 11.5128V10.833ZM7.30497 13.7786L5.2426 12.6203C4.88517 12.4196 4.50617 12.8467 4.70951 13.2211L4.7365 13.2708C5.20304 14.1298 6.03265 14.6872 6.95529 14.7615L7.48529 14.8043C7.92518 14.8398 8.08928 14.1977 7.69423 13.9866L7.30497 13.7786ZM13.9254 12.6204L11.863 13.7786L11.4737 13.9867C11.0787 14.1978 11.2428 14.8398 11.6827 14.8043L12.2127 14.7616C13.1353 14.6872 13.9649 14.1298 14.4315 13.2709L14.4584 13.2212C14.6618 12.8468 14.2828 12.4197 13.9254 12.6204Z" fill="#3068F7"/>
</svg>
