<svg width="40" height="40" viewBox="0 0 40 40" fill="none" xmlns="http://www.w3.org/2000/svg">
<g clip-path="url(#clip0_1391_18383)">
<path fill-rule="evenodd" clip-rule="evenodd" d="M20 40C36.76 40 40 36.76 40 20C40 3.24 36.76 0 20 0C3.24 0 0 3.24 0 20C0 36.76 3.24 40 20 40Z" fill="#F3F2FD"/>
<path fill-rule="evenodd" clip-rule="evenodd" d="M23.695 16.747C23.382 16.473 22.932 16.479 22.675 16.559C22.843 16.351 23.237 16.181 23.353 16.16C23.441 16.193 23.695 16.454 23.695 16.747ZM24.693 15.612C24.487 14.512 21.931 15.241 20.643 14.773C20.619 15.094 21.04 15.608 21.443 15.798C20.754 16.395 20.137 17.599 20.012 19.07C19.887 17.6 19.269 16.395 18.582 15.798C18.984 15.608 19.405 15.094 19.38 14.774C18.093 15.241 15.536 14.512 15.33 15.612C15.287 15.845 15.4 16.2 15.52 16.302C15.542 16.228 15.655 15.986 16.011 15.932C17.812 15.66 19.316 18.436 17.958 19.558C17.938 19.575 17.949 19.607 17.978 19.607H22.047C22.074 19.607 22.087 19.575 22.066 19.558C20.708 18.436 22.212 15.66 24.013 15.932C24.369 15.987 24.482 16.228 24.503 16.302C24.625 16.2 24.737 15.845 24.693 15.612ZM25.131 13.087C25.099 12.983 26.155 12.981 26.155 13.642C26.155 14.085 25.523 14.294 25.523 14.754C25.523 14.968 25.753 15.125 25.824 15.125C25.661 14.387 26.334 14.773 26.516 14.911C26.155 13.919 26.967 13.925 26.887 13.471C26.832 13.152 26.125 13.248 25.87 13.087C25.416 12.802 24.88 11.69 24.526 12.802C25.185 13.414 24.801 14.315 23.964 14.315C23.964 14.315 23.96 14.447 23.967 14.457C24.966 14.409 25.314 13.675 25.131 13.087ZM13.484 14.911C13.665 14.773 14.338 14.387 14.176 15.125C14.246 15.125 14.476 14.968 14.476 14.755C14.476 14.295 13.845 14.085 13.845 13.642C13.845 12.981 14.901 12.983 14.868 13.087C14.686 13.675 15.034 14.409 16.032 14.457C16.04 14.447 16.035 14.315 16.035 14.315C15.198 14.315 14.815 13.414 15.474 12.802C15.12 11.69 14.584 12.802 14.13 13.087C13.874 13.248 13.168 13.152 13.112 13.47C13.032 13.925 13.845 13.919 13.484 14.911ZM16.318 16.747C16.631 16.473 17.081 16.479 17.338 16.559C17.17 16.351 16.776 16.181 16.66 16.16C16.572 16.193 16.318 16.454 16.318 16.747ZM20.487 10.594L20 10L19.513 10.594L20 11.219L20.487 10.594ZM23.267 12.389L22.92 11.967L22.574 12.389L22.92 12.802L23.267 12.389ZM26.076 24.587L25.636 24.122L25.198 24.586L25.637 24.994L26.076 24.587ZM17.426 12.389L17.079 11.967L16.733 12.389L17.079 12.802L17.425 12.389H17.426ZM16.433 14.457H17.725C18.811 14.457 19.3 13.791 19.447 13.213H20.552C20.7 13.791 21.188 14.457 22.275 14.457H23.567C23.567 14.457 23.792 14.151 23.849 13.999C24.053 13.453 23.792 13.198 23.412 13.198L22.92 13.644L22.429 13.198C22.049 13.198 21.788 13.453 21.992 13.999C22.018 14.069 22.08 14.172 22.139 14.262C21.681 14.199 21.096 13.885 20.967 13.212C20.967 13.212 21.307 12.675 21.391 12.457C21.697 11.674 21.307 11.354 20.736 11.354L20 12.22L19.263 11.354C18.693 11.354 18.303 11.674 18.609 12.457C18.693 12.675 19.033 13.213 19.033 13.213C18.903 13.885 18.319 14.199 17.861 14.262C17.92 14.172 17.982 14.069 18.008 13.999C18.212 13.453 17.952 13.199 17.571 13.199L17.079 13.644L16.587 13.198C16.207 13.198 15.947 13.453 16.151 13.999C16.207 14.151 16.434 14.458 16.434 14.458L16.433 14.457ZM29.788 18.461C29.538 18.588 28.076 19.273 26.202 19.019C26.222 18.929 26.238 18.839 26.252 18.749C27.498 18.6 28.512 18.389 29.158 18.029C29.894 17.619 30.216 16.641 29.845 15.913C29.835 15.895 29.808 15.892 29.795 15.907C29.591 16.142 28.311 17.535 26.293 17.967C26.2877 17.8626 26.278 17.7585 26.264 17.655C27.244 17.1 28.201 16.459 28.657 15.874C29.345 14.988 29.282 13.859 28.627 13.284C28.6237 13.2809 28.6197 13.2787 28.6154 13.2773C28.6111 13.2759 28.6066 13.2755 28.6021 13.2761C28.5976 13.2767 28.5933 13.2782 28.5895 13.2806C28.5857 13.283 28.5824 13.2862 28.58 13.29C28.373 13.632 26.432 16.769 24.302 18.123C24.2759 18.1397 24.2495 18.156 24.223 18.172C24.209 18.1799 24.1971 18.191 24.1883 18.2045C24.1796 18.218 24.1742 18.2333 24.1726 18.2493C24.171 18.2653 24.1733 18.2815 24.1793 18.2964C24.1853 18.3113 24.1948 18.3245 24.207 18.335C24.453 18.558 24.606 18.868 24.606 19.212C24.606 19.81 24.145 20.307 23.536 20.415C23.226 20.475 22.779 20.458 22.349 20.315C22.33 20.31 22.31 20.322 22.31 20.342V22.236C22.31 22.266 22.356 22.274 22.367 22.245C22.628 21.553 23.41 21.406 23.751 21.406C23.874 22.146 24.094 22.757 24.379 23.087C24.844 23.622 25.603 23.615 25.932 23.245C25.9347 23.2419 25.9367 23.2382 25.9378 23.2343C25.9389 23.2303 25.9391 23.2261 25.9383 23.222C25.9375 23.218 25.9359 23.2142 25.9334 23.2109C25.9309 23.2076 25.9277 23.2049 25.924 23.203C25.731 23.093 24.625 22.413 24.404 21.3C24.491 21.27 24.576 21.236 24.658 21.196C25.015 21.786 25.535 22.313 25.953 22.514C26.656 22.851 27.299 22.687 27.584 22.194C27.594 22.176 27.582 22.154 27.561 22.153C27.126 22.118 25.792 21.736 25.224 20.804C25.2897 20.7444 25.3524 20.6817 25.412 20.616C26.007 21.068 26.847 21.468 27.449 21.55C28.153 21.646 28.951 21.421 28.969 20.602C28.97 20.586 28.955 20.572 28.939 20.574C28.688 20.589 27.031 20.661 25.85 19.984C25.891 19.905 25.93 19.826 25.965 19.745C25.965 19.745 27.749 20.167 28.595 20.027C29.435 19.888 29.926 19.262 29.831 18.483C29.828 18.463 29.806 18.452 29.788 18.461ZM14.035 19.745C14.07 19.825 14.109 19.905 14.15 19.983C12.97 20.66 11.313 20.589 11.062 20.573C11.044 20.573 11.029 20.586 11.03 20.603C11.05 21.421 11.847 21.646 12.55 21.55C13.152 21.468 13.993 21.068 14.587 20.616C14.647 20.681 14.709 20.744 14.775 20.804C14.207 21.735 12.873 22.118 12.438 22.152C12.418 22.154 12.405 22.176 12.415 22.193C12.7 22.687 13.344 22.851 14.047 22.513C14.465 22.313 14.984 21.787 15.341 21.196C15.424 21.236 15.509 21.271 15.596 21.3C15.374 22.413 14.268 23.092 14.076 23.203C14.0723 23.2049 14.0691 23.2076 14.0666 23.2109C14.0641 23.2142 14.0624 23.218 14.0617 23.222C14.0609 23.2261 14.0611 23.2303 14.0622 23.2343C14.0633 23.2382 14.0653 23.2419 14.068 23.245C14.397 23.615 15.156 23.622 15.62 23.087C15.906 22.757 16.125 22.145 16.248 21.407C16.59 21.407 17.371 21.553 17.632 22.245C17.643 22.274 17.69 22.266 17.69 22.235V20.342C17.69 20.322 17.67 20.31 17.65 20.316C17.22 20.458 16.774 20.475 16.464 20.415C15.854 20.307 15.394 19.81 15.394 19.212C15.394 18.868 15.547 18.558 15.792 18.335C15.8042 18.3246 15.8138 18.3114 15.8199 18.2966C15.8259 18.2817 15.8283 18.2656 15.8269 18.2496C15.8254 18.2336 15.8201 18.2182 15.8114 18.2047C15.8027 18.1912 15.7909 18.18 15.777 18.172C15.7501 18.156 15.7235 18.1397 15.697 18.123C13.568 16.77 11.628 13.635 11.419 13.291C11.4165 13.2873 11.4133 13.2841 11.4095 13.2817C11.4057 13.2793 11.4015 13.2777 11.3971 13.2771C11.3926 13.2764 11.3881 13.2767 11.3838 13.2779C11.3795 13.2791 11.3755 13.2812 11.372 13.284C10.718 13.86 10.654 14.989 11.342 15.874C11.798 16.459 12.755 17.1 13.735 17.655C13.7213 17.7589 13.7119 17.8633 13.707 17.968C11.69 17.535 10.411 16.144 10.205 15.908C10.191 15.892 10.165 15.895 10.155 15.914C9.784 16.642 10.105 17.62 10.841 18.03C11.488 18.389 12.501 18.6 13.748 18.75C13.762 18.84 13.778 18.93 13.798 19.02C11.926 19.272 10.464 18.589 10.213 18.462C10.193 18.452 10.171 18.464 10.169 18.484C10.074 19.263 10.566 19.888 11.406 20.027C12.251 20.167 14.035 19.745 14.035 19.745ZM25.637 25.592L24.987 25.081C24.727 25.235 24.537 25.481 24.463 25.768C24.072 25.823 23.006 25.586 23.109 25.429C24.278 23.786 23.384 22.807 22.31 22.862V23.965C22.31 24.32 22 24.607 21.62 24.607H20.878C20.346 24.607 20 25.142 20 25.142C20 25.142 19.653 24.607 19.121 24.607H18.38C17.998 24.607 17.69 24.32 17.69 23.965V22.862C16.616 22.807 15.721 23.786 16.89 25.429C16.993 25.584 15.897 25.833 15.383 25.77C15.3115 25.6968 15.2259 25.6387 15.1314 25.5994C15.0369 25.56 14.9354 25.5402 14.833 25.541C14.7401 25.5414 14.648 25.5583 14.561 25.591C14.561 25.591 12.541 23.678 12.505 23.659L12.521 23.621C12.636 23.406 12.461 23.171 12.349 23.188C12.479 23.033 12.484 22.354 11.767 22.196C11.788 22.333 11.799 22.611 11.799 22.611C11.799 22.611 11.245 22.311 10.967 22.571C10.723 22.859 11.062 23.384 11.062 23.384C11.062 23.384 10.778 23.391 10.639 23.379C10.844 24.074 11.533 24.024 11.682 23.887C11.672 23.997 11.921 24.155 12.132 24.029L12.225 23.984C12.241 24.006 14.208 25.864 14.208 25.864C14.113 26.0025 14.0757 26.1725 14.104 26.338C14.1319 26.4772 14.2008 26.605 14.3018 26.7048C14.4028 26.8045 14.5314 26.8718 14.671 26.898C14.877 26.94 15.071 26.9 15.226 26.809L15.746 27.293C15.7701 27.3152 15.7985 27.3323 15.8295 27.3431C15.8604 27.354 15.8933 27.3584 15.926 27.356C16.053 27.347 16.148 27.244 16.139 27.126C16.1336 27.074 16.1085 27.0261 16.069 26.992C16.061 26.982 15.539 26.498 15.539 26.498C15.97 26.196 16.772 25.983 17.439 25.983C17.555 25.983 17.61 25.884 17.57 25.787C17.268 25.062 17.917 24.536 18.588 24.964C18.881 25.15 19.178 25.518 19.402 26.131C18.302 26.398 16.919 27.132 16.639 27.934C16.531 28.244 16.887 28.665 17.319 28.75C17.3267 28.7515 17.3346 28.7499 17.3412 28.7456C17.3477 28.7413 17.3523 28.7346 17.354 28.727C17.58 27.531 18.867 26.639 19.536 26.487L19.593 26.638C18.863 26.983 18.156 27.711 17.954 28.576C17.861 28.972 18.303 29.329 18.668 29.426C18.686 29.431 18.704 29.419 18.705 29.401C18.775 28.307 19.257 27.378 19.69 26.956C19.702 27.038 19.71 27.121 19.717 27.205C19.717 27.205 19.274 28.439 19.274 29.339C19.274 29.759 19.896 30.051 19.988 30.092C20.103 30.051 20.726 29.759 20.726 29.339C20.726 28.439 20.283 27.204 20.283 27.204C20.289 27.1207 20.298 27.0377 20.31 26.955C20.742 27.378 21.225 28.307 21.294 29.401C21.2945 29.4053 21.296 29.4094 21.2983 29.4131C21.3006 29.4167 21.3037 29.4198 21.3073 29.4222C21.3109 29.4246 21.3149 29.4262 21.3192 29.4268C21.3235 29.4275 21.3278 29.4272 21.332 29.426C21.697 29.329 22.138 28.972 22.046 28.576C21.843 27.711 21.136 26.983 20.407 26.638L20.463 26.488C21.133 26.638 22.42 27.531 22.645 28.728C22.6469 28.7355 22.6516 28.7419 22.6581 28.746C22.6646 28.7501 22.6725 28.7515 22.68 28.75C23.112 28.665 23.468 28.243 23.36 27.934C23.081 27.132 21.698 26.397 20.597 26.131C20.822 25.518 21.119 25.151 21.412 24.964C22.082 24.536 22.731 25.061 22.429 25.787C22.389 25.884 22.444 25.983 22.561 25.983C23.314 25.983 24.242 26.255 24.61 26.62C24.844 26.972 25.278 27.197 25.767 27.15C26.323 27.095 26.777 26.677 26.839 26.16C26.894 25.708 26.66 25.302 26.287 25.08L25.637 25.592ZM20.846 22.296C21.077 22.21 21.44 22.28 21.428 22.614C21.425 22.69 21.531 22.69 21.539 22.613C21.609 22.112 21.27 21.968 20.916 22.026C20.872 21.854 20.836 21.704 20.796 21.555C20.762 21.435 20.75 21.207 20.89 21.207C20.965 21.207 20.935 21.418 20.928 21.509C20.922 21.589 20.95 21.637 21.015 21.639C21.055 21.641 21.105 21.589 21.135 21.555C21.338 21.326 21.385 20.971 21.148 20.8C20.949 20.657 20.452 20.763 20.315 20.968C20.295 20.891 20.196 20.764 20.149 20.708C20.103 20.654 20.091 20.618 20.154 20.57C20.184 20.547 20.275 20.456 20.275 20.363C20.275 20.308 20.232 20.207 20.097 20.207C19.99 20.207 19.871 20.281 19.871 20.446C19.871 20.483 19.88 20.522 19.903 20.564C19.7878 20.5531 19.6716 20.5588 19.558 20.581L20.862 24.161C21.235 23.976 21.509 23.684 21.509 23.371C21.509 23.104 21.116 23.193 20.925 23.401C20.864 23.063 20.809 22.751 20.749 22.439C20.733 22.353 20.777 22.322 20.846 22.296ZM19 19.865L19.274 20.626C19.04 20.682 18.662 20.853 18.662 21.08C18.662 21.381 19.196 21.578 19.505 21.554C19.4974 21.5867 19.4979 21.6208 19.5067 21.6533C19.5154 21.6857 19.532 21.7155 19.555 21.74C19.443 21.74 19.232 21.792 19.162 21.867C18.999 21.715 18.742 21.659 18.621 21.752C18.499 21.846 18.495 22.004 18.623 22.183C18.712 22.307 18.745 22.429 18.645 22.573C19.017 22.573 18.88 22.089 19.025 22.089C19.0076 22.1979 19.02 22.3096 19.061 22.412C19.089 22.492 19.089 22.549 19.041 22.626C18.921 22.817 18.734 23.258 18.759 23.656C18.637 23.656 18.575 23.626 18.619 23.459C18.634 23.397 18.596 23.353 18.545 23.429C18.4946 23.5177 18.4662 23.6171 18.462 23.719C18.462 24.074 18.885 24.146 19.046 24.071C19.513 24.522 20.43 24.401 20.736 24.251L19.123 19.821C19.09 19.738 18.971 19.778 19 19.865ZM18.944 23.513C18.911 23.33 19.164 23.005 19.487 22.69C19.419 22.895 19.461 23.248 19.597 23.37C19.362 23.37 19.084 23.414 18.944 23.513Z" fill="#D819A3"/>
</g>
<defs>
<clipPath id="clip0_1391_18383">
<rect width="40" height="40" fill="white"/>
</clipPath>
</defs>
</svg>
