<svg width="20" height="20" viewBox="0 0 20 20" fill="none" xmlns="http://www.w3.org/2000/svg">
<g clip-path="url(#clip0_3001_56126)">
<path d="M9.99967 14.1663C12.3009 14.1663 14.1663 12.3009 14.1663 9.99967C14.1663 7.69849 12.3009 5.83301 9.99967 5.83301C7.69849 5.83301 5.83301 7.69849 5.83301 9.99967C5.83301 12.3009 7.69849 14.1663 9.99967 14.1663Z" fill="#3068F7" stroke="#3068F7" stroke-width="1.5" stroke-linecap="round" stroke-linejoin="round"/>
<path d="M9.25 2.5V0.833008C9.25 0.418794 9.58579 0.0830078 10 0.0830078C10.4142 0.0830078 10.75 0.418794 10.75 0.833008V2.5C10.7498 2.91406 10.4141 3.25 10 3.25C9.58589 3.25 9.25018 2.91406 9.25 2.5Z" fill="#3068F7"/>
<path d="M9.25 19.167V17.5C9.25 17.0858 9.58579 16.75 10 16.75C10.4142 16.75 10.75 17.0858 10.75 17.5V19.167C10.7498 19.5811 10.4141 19.917 10 19.917C9.58589 19.917 9.25018 19.5811 9.25 19.167Z" fill="#3068F7"/>
<path d="M1.96967 2.80268C2.26256 2.50978 2.73732 2.50978 3.03022 2.80268L4.69721 4.46967C4.98978 4.76259 4.98999 5.23743 4.69721 5.53022C4.40442 5.823 3.92958 5.82278 3.63666 5.53022L1.96967 3.86322C1.67678 3.57033 1.67678 3.09557 1.96967 2.80268Z" fill="#3068F7"/>
<path d="M14.4697 14.4697C14.7626 14.1768 15.2373 14.1768 15.5302 14.4697L17.1972 16.1367C17.4898 16.4296 17.49 16.9044 17.1972 17.1972C16.9044 17.49 16.4296 17.4898 16.1367 17.1972L14.4697 15.5302C14.1768 15.2373 14.1768 14.7626 14.4697 14.4697Z" fill="#3068F7"/>
<path d="M2.5 9.25C2.91406 9.25018 3.25 9.58589 3.25 10C3.25 10.4141 2.91406 10.7498 2.5 10.75H0.833008C0.418794 10.75 0.0830078 10.4142 0.0830078 10C0.0830078 9.58579 0.418794 9.25 0.833008 9.25H2.5Z" fill="#3068F7"/>
<path d="M19.167 9.25C19.5811 9.25018 19.917 9.58589 19.917 10C19.917 10.4141 19.5811 10.7498 19.167 10.75H17.5C17.0858 10.75 16.75 10.4142 16.75 10C16.75 9.58579 17.0858 9.25 17.5 9.25H19.167Z" fill="#3068F7"/>
<path d="M5.30382 14.4698C5.59672 14.1771 6.07152 14.177 6.36436 14.4698C6.65704 14.7627 6.65704 15.2375 6.36436 15.5304L4.69737 17.1974C4.40452 17.49 3.92968 17.49 3.63682 17.1974C3.34399 16.9045 3.34409 16.4297 3.63682 16.1368L5.30382 14.4698Z" fill="#3068F7"/>
<path d="M16.9698 2.80284C17.2627 2.51011 17.7375 2.51 18.0304 2.80284C18.3231 3.09569 18.3231 3.57054 18.0304 3.86339L16.3634 5.53038C16.0705 5.82306 15.5957 5.82306 15.3028 5.53038C15.01 5.23754 15.0101 4.76274 15.3028 4.46983L16.9698 2.80284Z" fill="#3068F7"/>
</g>
<defs>
<clipPath id="clip0_3001_56126">
<rect width="20" height="20" fill="white"/>
</clipPath>
</defs>
</svg>
