<svg width="16" height="16" viewBox="0 0 16 16" fill="none" xmlns="http://www.w3.org/2000/svg">
<path fill-rule="evenodd" clip-rule="evenodd" d="M2 13.78C2 11.342 6.33368 10 8.5 10C10.6674 10 15 11.341 15 13.78V15H2V13.78ZM12.14 5.5C12.14 7.437 10.5145 9 8.5 9C8.0218 9.00066 7.54816 8.91058 7.10622 8.73492C6.66429 8.55926 6.26275 8.30148 5.9246 7.97634C5.58646 7.65121 5.31837 7.26511 5.13568 6.84017C4.953 6.41523 4.85932 5.95981 4.86 5.5C4.86 3.563 6.48656 2 8.5 2C10.5145 2 12.14 3.563 12.14 5.5Z" fill="#343A60"/>
</svg>
