<svg width="25" height="25" viewBox="0 0 25 25" fill="none" xmlns="http://www.w3.org/2000/svg">
<path d="M19.3508 24.0921H1.27616C0.572971 24.0921 0 23.4864 0 22.7409V1.35292C0 0.607436 0.571343 0 1.27616 0H19.3508C20.054 0 20.6269 0.60571 20.6269 1.35292V12.3817C20.6269 12.6112 20.4528 12.7958 20.2363 12.7958C20.0198 12.7958 19.8456 12.6112 19.8456 12.3817V1.35292C19.8456 1.06474 19.6242 0.828321 19.3508 0.828321H1.27616C1.0027 0.830047 0.781324 1.06474 0.781324 1.35292V22.7391C0.781324 23.0273 1.0027 23.262 1.27616 23.262H19.3508C19.6226 23.262 19.8456 23.0273 19.8456 22.7391V21.5105C19.8456 21.281 20.0198 21.0963 20.2363 21.0963C20.4528 21.0963 20.6269 21.281 20.6269 21.5105V22.7391C20.6253 23.4846 20.054 24.0921 19.3508 24.0921Z" fill="#3068F7"/>
<path d="M5.72545 7.02265C4.59091 7.02265 3.66797 6.04419 3.66797 4.8414C3.66797 3.63861 4.59091 2.66016 5.72545 2.66016C6.86 2.66016 7.78294 3.63861 7.78294 4.8414C7.78294 6.04419 6.86 7.02265 5.72545 7.02265ZM5.72545 3.4902C5.02226 3.4902 4.44929 4.09764 4.44929 4.84313C4.44929 5.58862 5.02226 6.19605 5.72545 6.19605C6.42865 6.19605 7.00162 5.58862 7.00162 4.84313C7.00162 4.09764 6.42865 3.4902 5.72545 3.4902Z" fill="#3068F7"/>
<path d="M8.6373 10.1079C8.42081 10.1079 8.24664 9.92321 8.24664 9.6937C8.24664 8.21998 7.11698 7.02236 5.72687 7.02236C4.33677 7.02236 3.2071 8.21998 3.2071 9.6937C3.2071 9.92321 3.03293 10.1079 2.81644 10.1079C2.59995 10.1079 2.42578 9.92321 2.42578 9.6937C2.42578 7.7644 3.90704 6.19404 5.72687 6.19404C7.54671 6.19404 9.02797 7.7644 9.02797 9.6937C9.02797 9.92149 8.8538 10.1079 8.6373 10.1079ZM17.8097 3.87129H11.2108C10.9943 3.87129 10.8201 3.68664 10.8201 3.45713C10.8201 3.22762 10.9943 3.04297 11.2108 3.04297H17.8081C18.0246 3.04297 18.1988 3.22762 18.1988 3.45713C18.1988 3.68664 18.0246 3.87129 17.8097 3.87129ZM17.8097 6.79803H11.2108C10.9943 6.79803 10.8201 6.61338 10.8201 6.38387C10.8201 6.15435 10.9943 5.9697 11.2108 5.9697H17.8081C18.0246 5.9697 18.1988 6.15435 18.1988 6.38387C18.1988 6.61338 18.0246 6.79803 17.8097 6.79803ZM14.4338 9.72476H11.2108C10.9943 9.72476 10.8201 9.54011 10.8201 9.3106C10.8201 9.08109 10.9943 8.89644 11.2108 8.89644H14.4338C14.6502 8.89644 14.8244 9.08109 14.8244 9.3106C14.8244 9.54011 14.6502 9.72476 14.4338 9.72476ZM10.6834 12.6532H2.81644C2.59995 12.6532 2.42578 12.4686 2.42578 12.2391C2.42578 12.0095 2.59995 11.8249 2.81644 11.8249H10.6834C10.8999 11.8249 11.0741 12.0095 11.0741 12.2391C11.0741 12.4686 10.8999 12.6532 10.6834 12.6532ZM9.71325 15.58H2.81644C2.59995 15.58 2.42578 15.3953 2.42578 15.1658C2.42578 14.9363 2.59995 14.7516 2.81644 14.7516H9.71325C9.92974 14.7516 10.1039 14.9363 10.1039 15.1658C10.1039 15.3953 9.92974 15.58 9.71325 15.58ZM10.0681 18.5067H2.81644C2.59995 18.5067 2.42578 18.322 2.42578 18.0925C2.42578 17.863 2.59995 17.6784 2.81644 17.6784H10.0681C10.2846 17.6784 10.4588 17.863 10.4588 18.0925C10.4588 18.322 10.2846 18.5067 10.0681 18.5067ZM11.2108 21.4334H2.81644C2.59995 21.4334 2.42578 21.2488 2.42578 21.0193C2.42578 20.7898 2.59995 20.6051 2.81644 20.6051H11.2108C11.4273 20.6051 11.6015 20.7898 11.6015 21.0193C11.6015 21.2488 11.4273 21.4334 11.2108 21.4334ZM16.5075 21.7596C15.7734 21.7596 15.0621 21.6077 14.3914 21.3057C13.7436 21.0158 13.1625 20.5999 12.6628 20.0702C12.163 19.5404 11.7707 18.9243 11.4973 18.2375C11.214 17.5265 11.0692 16.7707 11.0692 15.9941C11.0692 15.2176 11.2124 14.4617 11.4973 13.7507C11.7707 13.0639 12.163 12.4479 12.6628 11.9181C13.1625 11.3883 13.7436 10.9724 14.3914 10.6825C15.0621 10.3822 15.775 10.2287 16.5075 10.2287C17.24 10.2287 17.953 10.3805 18.6236 10.6825C19.2714 10.9724 19.8526 11.3883 20.3523 11.9181C20.852 12.4479 21.2443 13.0639 21.5178 13.7507C21.801 14.4617 21.9459 15.2176 21.9459 15.9941C21.9459 16.7707 21.8026 17.5265 21.5178 18.2375C21.2443 18.9243 20.852 19.5404 20.3523 20.0702C19.8526 20.5999 19.2714 21.0158 18.6236 21.3057C17.953 21.606 17.2416 21.7596 16.5075 21.7596ZM16.5075 11.057C13.9405 11.057 11.8505 13.271 11.8505 15.9941C11.8505 18.7172 13.9389 20.9313 16.5075 20.9313C19.0761 20.9313 21.1645 18.7172 21.1645 15.9941C21.1645 13.271 19.0745 11.057 16.5075 11.057Z" fill="#3068F7"/>
<path d="M16.5056 20.1905C15.4475 20.1905 14.453 19.7539 13.7058 18.9619C12.9587 18.1698 12.5469 17.1154 12.5469 15.9937C12.5469 14.872 12.9587 13.8176 13.7058 13.0256C14.453 12.2335 15.4475 11.7969 16.5056 11.7969C17.5636 11.7969 18.5582 12.2335 19.3053 13.0256C20.0525 13.8176 20.4643 14.872 20.4643 15.9937C20.4643 17.1154 20.0525 18.1698 19.3053 18.9619C18.5582 19.7539 17.5636 20.1905 16.5056 20.1905ZM16.5056 12.6235C14.7525 12.6235 13.3266 14.1352 13.3266 15.9937C13.3266 17.8522 14.7525 19.3639 16.5056 19.3639C18.2587 19.3639 19.6846 17.8522 19.6846 15.9937C19.6846 14.1352 18.2587 12.6235 16.5056 12.6235ZM23.5668 25C23.1843 25 22.8245 24.8412 22.5527 24.5548L18.9847 20.7721C18.8316 20.6099 18.8316 20.3476 18.9847 20.1871C19.1377 20.0249 19.3851 20.0249 19.5365 20.1871L23.1045 23.9697C23.2282 24.1009 23.391 24.1717 23.5668 24.1717H23.5684C23.7442 24.1717 23.9086 24.0974 24.0307 23.9663C24.2814 23.6971 24.2814 23.2588 24.0274 22.9913L20.4594 19.2069C20.3064 19.0447 20.3064 18.7824 20.4594 18.6219C20.6124 18.4597 20.8598 18.4597 21.0112 18.6219L24.5793 22.4046C25.1343 22.993 25.1376 23.9559 24.5858 24.5478C24.3156 24.8378 23.9542 24.9982 23.5701 25H23.5668Z" fill="#3068F7"/>
</svg>
