<svg width="32" height="32" viewBox="0 0 32 32" fill="none" xmlns="http://www.w3.org/2000/svg">
<circle opacity="0.2" cx="16" cy="16" r="16" fill="#3068F7"/>
<path d="M13.2157 11.4827C13.1429 11.7367 13.1429 12.0467 13.1429 12.6667V14C13.1429 14.62 13.1429 14.93 13.2157 15.1847C13.3132 15.5236 13.5045 15.8326 13.7704 16.0807C14.0364 16.3288 14.3675 16.5072 14.7307 16.598C15.0043 16.6667 15.3357 16.6667 16 16.6667C16.6643 16.6667 16.9964 16.6667 17.2693 16.5987C17.6324 16.5077 17.9635 16.3291 18.2293 16.0809C18.4951 15.8327 18.6863 15.5236 18.7836 15.1847C18.8571 14.93 18.8571 14.62 18.8571 14V12.6667C18.8571 12.0467 18.8571 11.7367 18.7843 11.4827C18.687 11.1435 18.4958 10.8342 18.2299 10.5859C17.9639 10.3375 17.6326 10.1589 17.2693 10.068C16.9964 10 16.6643 10 16 10C15.3357 10 15.0036 10 14.7307 10.068C14.3675 10.159 14.0363 10.3377 13.7705 10.586C13.5047 10.8343 13.3129 11.1436 13.2157 11.4827ZM15.2857 18C14.1491 18 13.059 18.4214 12.2553 19.1716C11.4515 19.9217 11 20.9391 11 22H21C21 20.9391 20.5485 19.9217 19.7447 19.1716C18.941 18.4214 17.8509 18 16.7143 18H15.2857Z" fill="#3068F7"/>
</svg>
