<svg width="32" height="32" viewBox="0 0 32 32" fill="none" xmlns="http://www.w3.org/2000/svg">
<g clip-path="url(#clip0_3001_57136)">
<path d="M21.8328 18.8675V20.6175C21.8335 20.7799 21.8002 20.9407 21.7351 21.0896C21.6701 21.2384 21.5746 21.372 21.4549 21.4819C21.3352 21.5917 21.1938 21.6753 21.04 21.7274C20.8861 21.7794 20.723 21.7987 20.5612 21.7841C18.7662 21.5891 17.0419 20.9757 15.527 19.9933C14.1176 19.0977 12.9226 17.9027 12.027 16.4933C11.0412 14.9715 10.4277 13.2389 10.2362 11.4358C10.2216 11.2745 10.2408 11.1119 10.2925 10.9584C10.3442 10.8049 10.4273 10.6639 10.5365 10.5442C10.6457 10.4246 10.7786 10.329 10.9267 10.2636C11.0749 10.1981 11.235 10.1643 11.397 10.1641H13.147C13.4301 10.1613 13.7046 10.2616 13.9192 10.4462C14.1339 10.6308 14.2741 10.8871 14.3137 11.1675C14.3875 11.7275 14.5245 12.2774 14.722 12.8066C14.8005 13.0154 14.8175 13.2423 14.771 13.4605C14.7244 13.6786 14.6164 13.8789 14.4595 14.0375L13.7187 14.7783C14.5491 16.2387 15.7583 17.4479 17.2187 18.2783L17.9595 17.5375C18.1181 17.3806 18.3184 17.2725 18.5365 17.226C18.7546 17.1795 18.9816 17.1965 19.1903 17.275C19.7196 17.4724 20.2695 17.6094 20.8295 17.6833C21.1129 17.7233 21.3717 17.866 21.5567 18.0843C21.7417 18.3027 21.8399 18.5814 21.8328 18.8675Z" stroke="#3068F7" stroke-linecap="round" stroke-linejoin="round"/>
</g>
<circle opacity="0.2" cx="16" cy="16" r="16" fill="#3068F7"/>
<defs>
<clipPath id="clip0_3001_57136">
<rect width="14" height="14" fill="white" transform="translate(9 9)"/>
</clipPath>
</defs>
</svg>
