<svg width="30" height="30" viewBox="0 0 30 30" fill="none" xmlns="http://www.w3.org/2000/svg">
<path d="M15 0C23.2841 8.14333e-05 30 6.71586 30 15C29.9999 23.2841 23.2841 29.9999 15 30C6.71586 30 8.14386e-05 23.2841 0 15C0 6.71581 6.71581 0 15 0ZM6.67383 10.499C6.11104 10.499 5.99815 10.7619 5.99805 11.0518C6.51308 13.3962 7.57808 15.5909 9.10742 17.4609C9.75167 18.4751 10.6318 19.3248 11.6758 19.9395C12.72 20.5542 13.8985 20.9169 15.1133 20.9971C16.3649 20.997 16.5204 20.7213 16.5205 20.251V18.5107C16.5205 17.9587 16.6326 17.8486 17.041 17.8486C17.3364 17.8488 17.8292 17.9866 18.9961 19.0908C20.3317 20.4032 20.5569 20.9959 21.3018 20.9961H23.2725C23.8346 20.9961 24.1165 20.72 23.9473 20.1807C23.5233 19.343 22.9623 18.5783 22.2871 17.917C21.8234 17.3787 21.1327 16.8124 20.9375 16.5225C20.6405 16.1495 20.7252 15.9838 20.9375 15.666C21.9786 14.2757 22.8654 12.7798 23.582 11.2041C23.7072 10.7903 23.5819 10.5 22.9912 10.5H21.0215C20.8369 10.4872 20.6529 10.5343 20.498 10.6338C20.3432 10.7333 20.2259 10.8805 20.1641 11.0518C19.5568 12.4769 18.7414 13.808 17.7441 15.0029C17.279 15.4588 17.0838 15.5966 16.8301 15.5967C16.7023 15.5967 16.5205 15.4586 16.5205 15.0439V11.2031C16.5205 10.7064 16.3809 10.4991 15.958 10.499H12.8623C12.7361 10.494 12.6128 10.5375 12.5186 10.6201C12.4243 10.7028 12.3664 10.8186 12.3574 10.9424C12.3574 11.4121 13.0598 11.5221 13.1436 12.8203V15.666C13.1435 16.287 13.0329 16.3974 12.7793 16.3975C12.117 16.3975 10.4853 13.994 9.5293 11.2314C9.33075 10.7205 9.14842 10.499 8.64258 10.499H6.67383Z" fill="#3068F7"/>
</svg>
