<svg width="27" height="27" viewBox="0 0 27 27" fill="none" xmlns="http://www.w3.org/2000/svg">
<g clip-path="url(#clip0_3042_145)">
<path d="M14.5514 10.125H12.1484V17.55H12.9359V15.1963H14.5514C15.8318 15.1963 16.8734 14.0783 16.8734 12.7041V12.6172C16.8734 11.243 15.8318 10.125 14.5514 10.125ZM16.0859 12.7041C16.0859 13.6122 15.3975 14.3511 14.5514 14.3511H12.9359V10.9702H14.5514C15.3975 10.9702 16.0859 11.7091 16.0859 12.6173V12.7041Z" fill="#6727C4"/>
<path d="M18.8452 8.8266C17.5066 7.48794 15.7267 6.75073 13.8336 6.75073C11.9405 6.75073 10.1606 7.48794 8.82196 8.8266C7.48333 10.1653 6.74609 11.9451 6.74609 13.8382C6.74609 15.7313 7.48333 17.5112 8.82198 18.8498C10.1606 20.1885 11.9405 20.9257 13.8336 20.9257C15.7267 20.9257 17.5066 20.1885 18.8452 18.8499C20.1839 17.5112 20.9211 15.7313 20.9211 13.8382C20.9211 11.9451 20.1839 10.1653 18.8452 8.8266ZM18.2579 18.2626C17.0761 19.4443 15.5049 20.0952 13.8336 20.0952C12.1623 20.0952 10.5911 19.4443 9.40928 18.2626C8.22749 17.0808 7.57666 15.5095 7.57666 13.8382C7.57666 12.167 8.22749 10.5957 9.40928 9.41389C10.5911 8.23213 12.1623 7.5813 13.8336 7.5813C15.5049 7.5813 17.0761 8.23213 18.2579 9.41389C19.4397 10.5957 20.0905 12.167 20.0905 13.8382C20.0905 15.5095 19.4397 17.0808 18.2579 18.2626Z" fill="#6727C4"/>
</g>
<circle opacity="0.2" cx="13.5" cy="13.5" r="13.1632" stroke="#6727C4" stroke-width="0.673677"/>
<defs>
<clipPath id="clip0_3042_145">
<rect width="14.175" height="14.175" fill="white" transform="translate(6.75 6.75049)"/>
</clipPath>
</defs>
</svg>
