<svg width="140" height="124" viewBox="0 0 140 124" fill="none" xmlns="http://www.w3.org/2000/svg">
<path d="M73 74.6989V55.3093C73 50.891 69.4183 47.3093 65 47.3093H64M64 47.3093H9C4.58172 47.3093 1 50.891 1 55.3093V95.6879C1 100.797 6.66918 103.867 10.9478 101.075C13.5762 99.3599 17.0587 99.7919 19.1883 102.097L21.6734 104.788C24.6314 107.99 29.6086 108.235 32.8662 105.338L37.1019 101.571C39.3144 99.6034 42.6582 99.6337 44.8347 101.641C48.5252 105.044 54.5 102.427 54.5 97.4065V92.1286M64 47.3093C55.6 48.1061 54.1667 56.9372 54.5 61.2531V92.1286M73 92.1286H54.5" stroke="#343A60" stroke-width="2"/>
<path d="M64.5774 84.1865L91.5 55.2771L98.4838 48.8778C101.588 46.0332 106.366 46.0818 109.412 48.9891L133.906 72.3677C137.219 75.5305 137.205 80.8246 133.876 83.9702L97.357 118.467C94.129 121.516 89.0353 121.353 86.009 118.104L64.5774 95.0907C61.7167 92.0188 61.7167 87.2583 64.5774 84.1865Z" fill="white"/>
<path d="M38 45.8153V11.9279C38 6.60773 43.7428 3.26841 48.3666 5.89996C50.6015 7.17196 53.3569 7.10296 55.5254 5.72068L59.6368 3.09995C62.5409 1.24876 66.3039 1.46395 68.9781 3.63416L74.5022 8.11725C76.5022 9.74034 79.3966 9.62533 81.2615 7.84866C84.4578 4.80356 89.7518 6.95946 89.9114 11.3712L91.5 55.2771M91.5 55.2771L64.5774 84.1865C61.7167 87.2583 61.7167 92.0188 64.5774 95.0907L86.009 118.104C89.0353 121.353 94.129 121.516 97.357 118.467L133.876 83.9702C137.205 80.8246 137.219 75.5305 133.906 72.3677L109.412 48.9891C106.366 46.0818 101.588 46.0332 98.4838 48.8778L91.5 55.2771Z" stroke="#343A60" stroke-width="2"/>
<path d="M70.4228 88.7196L77.0886 82.0805C77.869 81.3032 79.131 81.3032 79.9114 82.0805L86.5772 88.7196C87.3621 89.5013 87.3621 90.772 86.5772 91.5537L79.9114 98.1928C79.131 98.9701 77.869 98.9701 77.0886 98.1928L70.4228 91.5537C69.6379 90.772 69.6379 89.5013 70.4228 88.7196Z" stroke="url(#paint0_linear_1443_17360)" stroke-width="2"/>
<path d="M84 105.574L103.5 86.1526M89.5 111.55L101 100.096" stroke="#3068F7" stroke-width="2" stroke-linejoin="round"/>
<path d="M118.5 77.6907C121.541 77.6907 124 80.1451 124 83.1643C124 86.1837 121.541 88.6389 118.5 88.6389C115.459 88.6389 113 86.1837 113 83.1643C113 80.1451 115.459 77.6907 118.5 77.6907Z" stroke="url(#paint1_linear_1443_17360)" stroke-width="2"/>
<path d="M122.5 73.7068C125.541 73.7068 128 76.1612 128 79.1804C128 82.1998 125.541 84.655 122.5 84.655C119.459 84.655 117 82.1998 117 79.1804C117 76.1612 119.459 73.7068 122.5 73.7068Z" fill="white" stroke="url(#paint2_linear_1443_17360)" stroke-width="2"/>
<path d="M8 60.2571H44.5M8 71.7109H44.5M8 82.1687H29.5" stroke="#3068F7" stroke-width="2"/>
<path d="M45 18.9236H81.5M45 29.3814H66.5" stroke="#3068F7" stroke-width="2"/>
<defs>
<linearGradient id="paint0_linear_1443_17360" x1="68.8734" y1="90.1632" x2="83.1874" y2="77.4925" gradientUnits="userSpaceOnUse">
<stop stop-color="#D819A3"/>
<stop offset="0.574695" stop-color="#6727C4"/>
<stop offset="1" stop-color="#4B69DD"/>
</linearGradient>
<linearGradient id="paint1_linear_1443_17360" x1="111.913" y1="83.1827" x2="121.707" y2="74.5133" gradientUnits="userSpaceOnUse">
<stop stop-color="#D819A3"/>
<stop offset="0.574695" stop-color="#6727C4"/>
<stop offset="1" stop-color="#4B69DD"/>
</linearGradient>
<linearGradient id="paint2_linear_1443_17360" x1="115.913" y1="79.1988" x2="125.707" y2="70.5294" gradientUnits="userSpaceOnUse">
<stop stop-color="#D819A3"/>
<stop offset="0.574695" stop-color="#6727C4"/>
<stop offset="1" stop-color="#4B69DD"/>
</linearGradient>
</defs>
</svg>
