<svg width="255" height="73" viewBox="0 0 255 73" fill="none" xmlns="http://www.w3.org/2000/svg">
<path d="M74.402 49.3994C74.402 49.9155 74.4648 50.3373 74.5905 50.6646C74.7161 50.9794 74.892 51.2312 75.1182 51.42C75.3569 51.6089 75.6396 51.7411 75.9663 51.8166C76.293 51.8795 76.651 51.911 77.0405 51.911C77.3421 51.911 77.6625 51.8984 78.0017 51.8732C78.3535 51.8481 78.7116 51.8103 79.076 51.7599V45.5469H82.0161V58.6339H79.076V54.2527C78.6488 54.3031 78.2342 54.3408 77.8321 54.366C77.43 54.3912 77.0468 54.4038 76.6824 54.4038C75.8909 54.4038 75.1684 54.3345 74.5151 54.196C73.8743 54.045 73.3277 53.7869 72.8754 53.4218C72.4231 53.0441 72.0713 52.5468 71.82 51.9299C71.5813 51.3004 71.4619 50.5073 71.4619 49.5504V45.5469H74.402V49.3994Z" fill="#6727C4"/>
<path d="M91.9801 54.8004C91.6157 55.6313 91.2325 56.3174 90.8304 56.8588C90.4284 57.3875 90.0137 57.803 89.5865 58.1052C89.1594 58.4073 88.7259 58.615 88.2861 58.7283C87.8464 58.8417 87.4003 58.8983 86.948 58.8983C86.5208 58.8983 86.0748 58.8542 85.6099 58.7661C85.1576 58.6906 84.7304 58.5773 84.3283 58.4262L84.856 56.0656C85.4717 56.2922 86.0811 56.4055 86.6842 56.4055C87.0737 56.4055 87.4443 56.3174 87.7961 56.1412C88.1605 55.9649 88.506 55.5872 88.8327 55.0081C88.3175 54.2023 87.8212 53.3777 87.3438 52.5342C86.8789 51.6781 86.4329 50.8409 86.0057 50.0226C85.5911 49.1916 85.2016 48.3985 84.8372 47.6431C84.4854 46.8751 84.1713 46.1764 83.8948 45.5469H87.1553C87.3564 46.0379 87.5762 46.5667 87.815 47.1332C88.0662 47.6872 88.3301 48.2663 88.6065 48.8706C88.8829 49.4623 89.1594 50.0603 89.4358 50.6646C89.7248 51.2563 90.0012 51.8355 90.265 52.402C90.6671 51.2941 91.0503 50.161 91.4147 49.0028C91.779 47.8445 92.1309 46.6926 92.4701 45.5469H95.6175C95.2908 46.5163 94.9704 47.4228 94.6563 48.2663C94.3422 49.1098 94.0344 49.9092 93.7328 50.6646C93.4313 51.42 93.1297 52.1376 92.8282 52.8175C92.5392 53.4973 92.2565 54.1583 91.9801 54.8004Z" fill="#6727C4"/>
<path d="M95.0483 56.1412H96.9329C97.3978 55.3354 97.7622 54.536 98.026 53.7428C98.2899 52.9497 98.4846 52.1439 98.6103 51.3256C98.7485 50.5073 98.8302 49.6637 98.8553 48.7951C98.893 47.9264 98.9118 47.0136 98.9118 46.0568V45.5469H107.544V56.1412H109.786V62.1276H106.959V58.6339H97.8753V62.1276H95.0483V56.1412ZM101.682 48.0397C101.657 48.7195 101.613 49.4182 101.55 50.1359C101.488 50.8535 101.393 51.5648 101.268 52.2698C101.142 52.9623 100.972 53.6421 100.759 54.3094C100.558 54.964 100.3 55.5746 99.9861 56.1412H104.679V48.0397H101.682Z" fill="#6727C4"/>
<path d="M111.676 58.6339V45.5469H120.496V48.0208H114.616V50.5891H119.837V53.0063H114.616V56.16H120.93V58.6339H111.676Z" fill="#6727C4"/>
<path d="M129.061 58.8983C126.938 58.8983 125.317 58.3066 124.199 57.1232C123.093 55.9397 122.54 54.259 122.54 52.081C122.54 50.9983 122.71 50.0351 123.049 49.1916C123.388 48.3355 123.853 47.6179 124.444 47.0388C125.034 46.4471 125.738 46.0001 126.554 45.698C127.371 45.3958 128.257 45.2448 129.212 45.2448C129.765 45.2448 130.267 45.2888 130.72 45.3769C131.172 45.4525 131.568 45.5469 131.907 45.6602C132.246 45.7609 132.529 45.8679 132.755 45.9813C132.981 46.0946 133.145 46.1827 133.245 46.2456L132.397 48.6251C131.995 48.4111 131.524 48.2285 130.983 48.0774C130.456 47.9264 129.853 47.8508 129.174 47.8508C128.722 47.8508 128.276 47.9264 127.836 48.0774C127.409 48.2285 127.026 48.474 126.686 48.8139C126.36 49.1413 126.096 49.5693 125.895 50.0981C125.694 50.6269 125.593 51.2689 125.593 52.0243C125.593 52.6286 125.656 53.1952 125.782 53.7239C125.92 54.2401 126.134 54.687 126.423 55.0647C126.724 55.4424 127.114 55.7446 127.591 55.9712C128.069 56.1852 128.646 56.2922 129.325 56.2922C129.752 56.2922 130.135 56.2671 130.475 56.2167C130.814 56.1663 131.115 56.1097 131.379 56.0467C131.643 55.9712 131.876 55.8894 132.077 55.8012C132.278 55.7131 132.46 55.6313 132.623 55.5557L133.434 57.9163C133.019 58.1681 132.435 58.3947 131.681 58.5962C130.927 58.7976 130.054 58.8983 129.061 58.8983Z" fill="#6727C4"/>
<path d="M143.204 45.5469H146.144V58.6339H143.204V53.0819H138.267V58.6339H135.326V45.5469H138.267V50.5513H143.204V45.5469Z" fill="#6727C4"/>
<path d="M159.043 54.3471C159.043 55.0773 158.898 55.7194 158.609 56.2734C158.333 56.8273 157.931 57.2931 157.403 57.6708C156.888 58.0485 156.253 58.3318 155.499 58.5206C154.758 58.7095 153.929 58.8039 153.012 58.8039C152.484 58.8039 151.881 58.7661 151.202 58.6906C150.537 58.615 149.858 58.4954 149.167 58.3318V45.5469H152.107V49.8904C152.245 49.8778 152.371 49.8715 152.484 49.8715C152.61 49.8715 152.742 49.8715 152.88 49.8715C154.928 49.8715 156.467 50.2366 157.497 50.9668C158.528 51.697 159.043 52.8238 159.043 54.3471ZM160.682 45.5469H163.622V58.6339H160.682V45.5469ZM152.691 52.3642C152.629 52.3642 152.541 52.3642 152.427 52.3642C152.314 52.3642 152.208 52.3705 152.107 52.3831V56.2922C152.245 56.3048 152.402 56.3111 152.578 56.3111C152.754 56.3111 152.968 56.3111 153.219 56.3111C153.609 56.3111 153.973 56.2796 154.312 56.2167C154.651 56.1538 154.947 56.0467 155.198 55.8957C155.462 55.7446 155.663 55.5431 155.801 55.2914C155.952 55.0396 156.027 54.7248 156.027 54.3471C156.027 53.5792 155.738 53.0567 155.16 52.7797C154.595 52.5027 153.772 52.3642 152.691 52.3642Z" fill="#6727C4"/>
<path d="M166.633 58.6339V45.5469H169.555V53.2707C170.007 52.5909 170.491 51.8858 171.006 51.1556C171.521 50.4128 172.036 49.7015 172.551 49.0217C173.079 48.3292 173.594 47.6809 174.097 47.0766C174.599 46.4723 175.058 45.9624 175.472 45.5469H177.866V58.6339H174.964V50.0603C173.858 51.3571 172.815 52.7356 171.835 54.196C170.855 55.6565 169.944 57.1357 169.102 58.6339H166.633ZM172.476 44.3949C172.074 44.3949 171.684 44.3383 171.307 44.225C170.943 44.0991 170.61 43.9228 170.308 43.6962C170.007 43.457 169.756 43.1737 169.555 42.8464C169.366 42.5065 169.253 42.1225 169.215 41.6945L171.157 41.1846C171.257 41.663 171.42 42.0029 171.647 42.2043C171.885 42.4058 172.162 42.5065 172.476 42.5065C172.802 42.5065 173.079 42.4184 173.305 42.2421C173.544 42.0533 173.713 41.707 173.814 41.2035L175.736 41.7133C175.699 42.1414 175.579 42.5254 175.378 42.8653C175.19 43.1926 174.945 43.4696 174.643 43.6962C174.354 43.9228 174.021 44.0991 173.644 44.225C173.267 44.3383 172.878 44.3949 172.476 44.3949Z" fill="#6727C4"/>
<path d="M187.875 52.081C187.875 52.7231 187.951 53.3022 188.101 53.8184C188.265 54.3345 188.491 54.7815 188.78 55.1592C189.082 55.5243 189.446 55.8075 189.873 56.009C190.3 56.2104 190.79 56.3111 191.343 56.3111C191.883 56.3111 192.367 56.2104 192.794 56.009C193.234 55.8075 193.598 55.5243 193.887 55.1592C194.189 54.7815 194.415 54.3345 194.566 53.8184C194.729 53.3022 194.811 52.7231 194.811 52.081C194.811 51.4389 194.729 50.8598 194.566 50.3436C194.415 49.8148 194.189 49.3679 193.887 49.0028C193.598 48.6251 193.234 48.3355 192.794 48.1341C192.367 47.9327 191.883 47.8319 191.343 47.8319C190.79 47.8319 190.3 47.939 189.873 48.153C189.446 48.3544 189.082 48.644 188.78 49.0217C188.491 49.3868 188.265 49.8337 188.101 50.3625C187.951 50.8787 187.875 51.4515 187.875 52.081ZM197.845 52.081C197.845 53.2015 197.676 54.1898 197.336 55.0459C197.01 55.8894 196.557 56.6007 195.979 57.1798C195.401 57.7463 194.71 58.1744 193.906 58.464C193.115 58.7535 192.26 58.8983 191.343 58.8983C190.451 58.8983 189.609 58.7535 188.818 58.464C188.026 58.1744 187.335 57.7463 186.745 57.1798C186.154 56.6007 185.689 55.8894 185.35 55.0459C185.011 54.1898 184.841 53.2015 184.841 52.081C184.841 50.9605 185.017 49.9785 185.369 49.135C185.721 48.2789 186.192 47.5613 186.782 46.9821C187.385 46.403 188.076 45.9687 188.855 45.6791C189.647 45.3895 190.476 45.2448 191.343 45.2448C192.235 45.2448 193.077 45.3895 193.869 45.6791C194.66 45.9687 195.351 46.403 195.942 46.9821C196.532 47.5613 196.997 48.2789 197.336 49.135C197.676 49.9785 197.845 50.9605 197.845 52.081Z" fill="#6727C4"/>
<path d="M209.542 45.5469V48.0586H205.603V58.6339H202.662V48.0586H198.724V45.5469H209.542Z" fill="#6727C4"/>
<path d="M209.141 56.1412H211.025C211.49 55.3354 211.855 54.536 212.119 53.7428C212.382 52.9497 212.577 52.1439 212.703 51.3256C212.841 50.5073 212.923 49.6637 212.948 48.7951C212.985 47.9264 213.004 47.0136 213.004 46.0568V45.5469H221.636V56.1412H223.879V62.1276H221.052V58.6339H211.968V62.1276H209.141V56.1412ZM215.775 48.0397C215.75 48.7195 215.706 49.4182 215.643 50.1359C215.58 50.8535 215.486 51.5648 215.36 52.2698C215.234 52.9623 215.065 53.6421 214.851 54.3094C214.65 54.964 214.393 55.5746 214.079 56.1412H218.771V48.0397H215.775Z" fill="#6727C4"/>
<path d="M235.644 54.3471C235.644 55.0773 235.5 55.7194 235.211 56.2734C234.934 56.8273 234.532 57.2931 234.005 57.6708C233.489 58.0485 232.855 58.3318 232.101 58.5206C231.36 58.7095 230.53 58.8039 229.613 58.8039C229.086 58.8039 228.482 58.7661 227.804 58.6906C227.138 58.615 226.46 58.4954 225.769 58.3318V45.5469H228.709V49.8904C228.847 49.8778 228.972 49.8715 229.086 49.8715C229.211 49.8715 229.343 49.8715 229.481 49.8715C231.529 49.8715 233.068 50.2366 234.099 50.9668C235.129 51.697 235.644 52.8238 235.644 54.3471ZM237.284 45.5469H240.224V58.6339H237.284V45.5469ZM229.293 52.3642C229.23 52.3642 229.142 52.3642 229.029 52.3642C228.916 52.3642 228.809 52.3705 228.709 52.3831V56.2922C228.847 56.3048 229.004 56.3111 229.18 56.3111C229.356 56.3111 229.569 56.3111 229.821 56.3111C230.21 56.3111 230.574 56.2796 230.914 56.2167C231.253 56.1538 231.548 56.0467 231.799 55.8957C232.063 55.7446 232.264 55.5431 232.403 55.2914C232.553 55.0396 232.629 54.7248 232.629 54.3471C232.629 53.5792 232.34 53.0567 231.762 52.7797C231.196 52.5027 230.373 52.3642 229.293 52.3642Z" fill="#6727C4"/>
<path d="M250.736 58.6339C250.371 57.9037 249.969 57.1672 249.53 56.4244C249.102 55.669 248.606 54.9011 248.041 54.1205C247.865 54.3471 247.639 54.6619 247.362 55.0647C247.098 55.4676 246.828 55.8957 246.552 56.3489C246.288 56.8021 246.037 57.2365 245.798 57.6519C245.559 58.0674 245.383 58.3947 245.27 58.6339H241.916C242.468 57.6142 243.109 56.544 243.838 55.4235C244.579 54.3031 245.402 53.1133 246.307 51.8544L242.104 45.5469H245.666L248.21 49.626L250.698 45.5469H254.053L249.907 51.8921C250.962 53.2644 251.848 54.536 252.564 55.7068C253.28 56.8651 253.846 57.8408 254.26 58.6339H250.736Z" fill="#6727C4"/>
<path d="M74.6015 28.8447V36.879H73.5551V28.8447H74.6015ZM77.1787 28.8447V29.7166H70.9834V28.8447H77.1787Z" fill="#6727C4"/>
<path d="M81.9797 34.2138L84.0999 28.8447H85.3224L82.4863 35.5381C82.4056 35.7257 82.3156 35.9078 82.2165 36.0844C82.1174 36.2573 81.9962 36.4118 81.853 36.5479C81.7098 36.684 81.5318 36.7925 81.3188 36.8735C81.1096 36.9544 80.8489 36.9949 80.5369 36.9949C80.4487 36.9949 80.3441 36.9893 80.223 36.9783C80.1018 36.9709 80.0229 36.9617 79.9862 36.9507L80.0192 36.1009C80.0596 36.1083 80.1385 36.1156 80.256 36.123C80.3735 36.1267 80.4598 36.1285 80.5148 36.1285C80.7241 36.1285 80.8893 36.0862 81.0105 36.0016C81.1316 35.917 81.2289 35.8103 81.3023 35.6816C81.3794 35.5491 81.4492 35.4149 81.5116 35.2787L81.9797 34.2138ZM80.1789 28.8447L82.4092 33.8496L82.6736 34.8373L81.7814 34.9035L78.9894 28.8447H80.1789Z" fill="#6727C4"/>
<path d="M90.6741 33.7282H88.5319V32.8619H90.6741C91.0889 32.8619 91.4248 32.7956 91.6818 32.6632C91.9388 32.5308 92.1261 32.3468 92.2435 32.1114C92.3647 31.876 92.4253 31.6074 92.4253 31.3058C92.4253 31.0299 92.3647 30.7705 92.2435 30.5277C92.1261 30.2849 91.9388 30.09 91.6818 29.9428C91.4248 29.792 91.0889 29.7166 90.6741 29.7166H88.7797V36.879H87.7168V28.8447H90.6741C91.2798 28.8447 91.792 28.9496 92.2105 29.1593C92.629 29.3689 92.9466 29.6596 93.1632 30.0311C93.3798 30.399 93.4881 30.8202 93.4881 31.2947C93.4881 31.8098 93.3798 32.2494 93.1632 32.6135C92.9466 32.9777 92.629 33.2555 92.2105 33.4468C91.792 33.6344 91.2798 33.7282 90.6741 33.7282Z" fill="#6727C4"/>
<path d="M97.0665 35.036L101.015 28.8447H102.078V36.879H101.015V30.6822L97.0665 36.879H96.0092V28.8447H97.0665V35.036Z" fill="#6727C4"/>
<path d="M109.979 34.3241H111.037C110.981 34.8318 110.836 35.2861 110.602 35.6871C110.367 36.0881 110.034 36.4063 109.605 36.6417C109.175 36.8735 108.639 36.9893 107.997 36.9893C107.527 36.9893 107.099 36.901 106.714 36.7245C106.332 36.5479 106.003 36.2977 105.728 35.974C105.453 35.6466 105.24 35.2548 105.089 34.7987C104.942 34.3388 104.869 33.8275 104.869 33.2647V32.4646C104.869 31.9017 104.942 31.3922 105.089 30.9361C105.24 30.4762 105.454 30.0826 105.733 29.7552C106.016 29.4278 106.356 29.1758 106.752 28.9992C107.149 28.8227 107.595 28.7344 108.09 28.7344C108.696 28.7344 109.208 28.8484 109.627 29.0765C110.045 29.3046 110.37 29.6209 110.602 30.0256C110.836 30.4266 110.981 30.8919 111.037 31.4217H109.979C109.928 31.0464 109.832 30.7245 109.693 30.456C109.553 30.1838 109.355 29.9741 109.098 29.8269C108.841 29.6798 108.505 29.6062 108.09 29.6062C107.734 29.6062 107.42 29.6743 107.149 29.8104C106.881 29.9465 106.655 30.1396 106.471 30.3898C106.291 30.6399 106.156 30.9397 106.064 31.2892C105.972 31.6387 105.926 32.0268 105.926 32.4535V33.2647C105.926 33.6583 105.966 34.028 106.047 34.3738C106.132 34.7196 106.258 35.0231 106.427 35.2843C106.596 35.5455 106.811 35.7515 107.072 35.9023C107.332 36.0494 107.641 36.123 107.997 36.123C108.448 36.123 108.808 36.0513 109.076 35.9078C109.344 35.7643 109.546 35.5583 109.682 35.2898C109.821 35.0212 109.92 34.6994 109.979 34.3241Z" fill="#6727C4"/>
<path d="M116.41 28.8447V36.879H115.364V28.8447H116.41ZM118.987 28.8447V29.7166H112.792V28.8447H118.987Z" fill="#6727C4"/>
<path d="M122.412 35.036L126.36 28.8447H127.423V36.879H126.36V30.6822L122.412 36.879H121.354V28.8447H122.412V35.036Z" fill="#6727C4"/>
<path d="M130.23 28.8447H131.293V31.3554C131.293 31.7711 131.354 32.0967 131.475 32.3321C131.596 32.5676 131.78 32.7331 132.026 32.8287C132.272 32.9244 132.578 32.9722 132.945 32.9722C133.166 32.9722 133.379 32.963 133.584 32.9446C133.793 32.9262 133.997 32.9005 134.195 32.8674C134.394 32.8343 134.588 32.7938 134.779 32.746C134.974 32.6982 135.165 32.6467 135.352 32.5915V33.4633C135.172 33.5185 134.992 33.57 134.812 33.6178C134.636 33.6656 134.452 33.7061 134.262 33.7392C134.074 33.7723 133.872 33.7981 133.656 33.8165C133.443 33.8349 133.206 33.8441 132.945 33.8441C132.38 33.8441 131.894 33.7631 131.486 33.6013C131.082 33.4357 130.772 33.1709 130.555 32.8067C130.339 32.4425 130.23 31.9587 130.23 31.3554V28.8447ZM135.082 28.8447H136.145V36.879H135.082V28.8447Z" fill="#6727C4"/>
<path d="M144.272 36.0126V36.879H140.026V36.0126H144.272ZM140.241 28.8447V36.879H139.178V28.8447H140.241ZM143.71 32.299V33.1653H140.026V32.299H143.71ZM144.217 28.8447V29.7166H140.026V28.8447H144.217Z" fill="#6727C4"/>
<path d="M151.557 34.3241H152.614C152.559 34.8318 152.414 35.2861 152.179 35.6871C151.944 36.0881 151.612 36.4063 151.182 36.6417C150.753 36.8735 150.217 36.9893 149.574 36.9893C149.104 36.9893 148.677 36.901 148.291 36.7245C147.909 36.5479 147.581 36.2977 147.305 35.974C147.03 35.6466 146.817 35.2548 146.667 34.7987C146.52 34.3388 146.446 33.8275 146.446 33.2647V32.4646C146.446 31.9017 146.52 31.3922 146.667 30.9361C146.817 30.4762 147.032 30.0826 147.311 29.7552C147.594 29.4278 147.933 29.1758 148.33 28.9992C148.726 28.8227 149.172 28.7344 149.668 28.7344C150.274 28.7344 150.786 28.8484 151.204 29.0765C151.623 29.3046 151.948 29.6209 152.179 30.0256C152.414 30.4266 152.559 30.8919 152.614 31.4217H151.557C151.505 31.0464 151.41 30.7245 151.27 30.456C151.131 30.1838 150.933 29.9741 150.676 29.8269C150.419 29.6798 150.083 29.6062 149.668 29.6062C149.312 29.6062 148.998 29.6743 148.726 29.8104C148.458 29.9465 148.232 30.1396 148.049 30.3898C147.869 30.6399 147.733 30.9397 147.641 31.2892C147.549 31.6387 147.504 32.0268 147.504 32.4535V33.2647C147.504 33.6583 147.544 34.028 147.625 34.3738C147.709 34.7196 147.836 35.0231 148.005 35.2843C148.174 35.5455 148.388 35.7515 148.649 35.9023C148.91 36.0494 149.218 36.123 149.574 36.123C150.026 36.123 150.386 36.0513 150.654 35.9078C150.922 35.7643 151.123 35.5583 151.259 35.2898C151.399 35.0212 151.498 34.6994 151.557 34.3241Z" fill="#6727C4"/>
<path d="M156.303 28.8447V36.879H155.24V28.8447H156.303ZM161.242 28.8447L157.762 33.2647H155.879L155.713 32.3818H157.129L159.926 28.8447H161.242ZM160.174 36.879L157.162 33.1267L157.756 32.1942L161.474 36.879H160.174Z" fill="#6727C4"/>
<path d="M166.533 29.5566L163.879 36.879H162.794L165.851 28.8447H166.55L166.533 29.5566ZM168.758 36.879L166.098 29.5566L166.082 28.8447H166.781L169.849 36.879H168.758ZM168.621 33.9048V34.7766H164.116V33.9048H168.621Z" fill="#6727C4"/>
<path d="M176.5 33.7503H174.248L173.724 33.5351C173.144 33.3511 172.698 33.0697 172.386 32.6908C172.074 32.3082 171.918 31.8337 171.918 31.2671C171.918 30.7485 172.032 30.3089 172.26 29.9483C172.491 29.5878 172.818 29.3138 173.24 29.1262C173.666 28.9385 174.169 28.8447 174.749 28.8447H177.315V36.879H176.252V29.7166H174.749C174.161 29.7166 173.719 29.8564 173.422 30.136C173.128 30.4155 172.981 30.7926 172.981 31.2671C172.981 31.5762 173.045 31.8521 173.174 32.0949C173.306 32.3376 173.5 32.5289 173.757 32.6687C174.014 32.8085 174.334 32.8784 174.716 32.8784H176.505L176.5 33.7503ZM174.694 33.1985L172.744 36.879H171.615L173.62 33.1985H174.694Z" fill="#6727C4"/>
<path d="M185.397 28.8447V36.879H184.334V28.8447H185.397ZM190.337 28.8447L186.856 33.2647H184.973L184.808 32.3818H186.223L189.02 28.8447H190.337ZM189.268 36.879L186.256 33.1267L186.851 32.1942L190.568 36.879H189.268Z" fill="#6727C4"/>
<path d="M198.657 32.608V33.1157C198.657 33.719 198.581 34.2598 198.431 34.738C198.28 35.2162 198.064 35.6227 197.781 35.9575C197.498 36.2922 197.159 36.5479 196.762 36.7245C196.369 36.901 195.929 36.9893 195.44 36.9893C194.967 36.9893 194.532 36.901 194.135 36.7245C193.743 36.5479 193.401 36.2922 193.111 35.9575C192.825 35.6227 192.603 35.2162 192.445 34.738C192.287 34.2598 192.208 33.719 192.208 33.1157V32.608C192.208 32.0047 192.285 31.4658 192.439 30.9912C192.597 30.513 192.819 30.1065 193.106 29.7718C193.392 29.4333 193.732 29.1758 194.124 28.9992C194.521 28.8227 194.956 28.7344 195.429 28.7344C195.918 28.7344 196.358 28.8227 196.751 28.9992C197.148 29.1758 197.487 29.4333 197.77 29.7718C198.056 30.1065 198.275 30.513 198.425 30.9912C198.579 31.4658 198.657 32.0047 198.657 32.608ZM197.605 33.1157V32.597C197.605 32.1188 197.555 31.6957 197.456 31.3278C197.361 30.96 197.219 30.651 197.032 30.4008C196.845 30.1507 196.615 29.9612 196.344 29.8325C196.076 29.7037 195.771 29.6393 195.429 29.6393C195.099 29.6393 194.8 29.7037 194.532 29.8325C194.268 29.9612 194.04 30.1507 193.849 30.4008C193.662 30.651 193.517 30.96 193.414 31.3278C193.311 31.6957 193.26 32.1188 193.26 32.597V33.1157C193.26 33.5976 193.311 34.0243 193.414 34.3959C193.517 34.7637 193.664 35.0746 193.854 35.3284C194.049 35.5786 194.279 35.768 194.543 35.8968C194.811 36.0255 195.11 36.0899 195.44 36.0899C195.786 36.0899 196.092 36.0255 196.36 35.8968C196.628 35.768 196.854 35.5786 197.038 35.3284C197.225 35.0746 197.366 34.7637 197.462 34.3959C197.557 34.0243 197.605 33.5976 197.605 33.1157Z" fill="#6727C4"/>
<path d="M201.712 28.8447H202.742L205.368 35.3946L207.99 28.8447H209.025L205.765 36.879H204.961L201.712 28.8447ZM201.376 28.8447H202.285L202.433 33.7447V36.879H201.376V28.8447ZM208.447 28.8447H209.355V36.879H208.298V33.7447L208.447 28.8447Z" fill="#6727C4"/>
<path d="M218.474 28.8447V36.879H217.417V29.7166H213.463V36.879H212.4V28.8447H218.474Z" fill="#6727C4"/>
<path d="M224.497 29.5566L221.843 36.879H220.758L223.815 28.8447H224.514L224.497 29.5566ZM226.722 36.879L224.062 29.5566L224.046 28.8447H224.745L227.813 36.879H226.722ZM226.585 33.9048V34.7766H222.08V33.9048H226.585Z" fill="#6727C4"/>
<path d="M235.251 32.299V33.1653H230.912V32.299H235.251ZM231.077 28.8447V36.879H230.014V28.8447H231.077ZM236.177 28.8447V36.879H235.119V28.8447H236.177Z" fill="#6727C4"/>
<path d="M240.3 35.036L244.249 28.8447H245.311V36.879H244.249V30.6822L240.3 36.879H239.243V28.8447H240.3V35.036Z" fill="#6727C4"/>
<path d="M252.822 33.7503H250.569L250.046 33.5351C249.466 33.3511 249.02 33.0697 248.708 32.6908C248.396 32.3082 248.24 31.8337 248.24 31.2671C248.24 30.7485 248.354 30.3089 248.581 29.9483C248.813 29.5878 249.14 29.3138 249.562 29.1262C249.988 28.9385 250.491 28.8447 251.071 28.8447H253.637V36.879H252.574V29.7166H251.071C250.483 29.7166 250.041 29.8564 249.743 30.136C249.45 30.4155 249.303 30.7926 249.303 31.2671C249.303 31.5762 249.367 31.8521 249.496 32.0949C249.628 32.3376 249.822 32.5289 250.079 32.6687C250.336 32.8085 250.656 32.8784 251.038 32.8784H252.827L252.822 33.7503ZM251.016 33.1985L249.066 36.879H247.937L249.942 33.1985H251.016Z" fill="#6727C4"/>
<path opacity="0.96" fill-rule="evenodd" clip-rule="evenodd" d="M51.0692 10.1458C50.8418 10.0708 50.5963 10.0248 50.3324 10.008C50.4926 9.86874 50.6461 9.731 50.7929 9.59483C50.5391 9.19971 50.2013 8.81711 49.7798 8.44703C49.9713 8.29646 50.1861 8.18933 50.4245 8.12564C50.9237 8.41278 51.4302 8.68825 51.9441 8.95206C53.1972 8.36231 54.4713 7.82668 55.7663 7.34514C55.6128 7.1921 55.4593 7.03906 55.3058 6.88602C54.8234 7.00511 54.762 6.91328 55.1216 6.61055C55.0141 6.50342 54.9067 6.3963 54.7992 6.28917C54.6667 6.42818 54.5286 6.45879 54.3848 6.38099C54.6412 6.15588 54.6105 5.97223 54.2927 5.83005C53.9278 5.97764 53.8664 5.91642 54.1085 5.6464C54.0646 5.55663 54.0032 5.48012 53.9243 5.41684C53.7348 5.38882 53.5506 5.38882 53.3717 5.41684C53.732 5.20746 53.732 5.00851 53.3717 4.81998C52.8821 4.9777 52.8206 4.90118 53.1875 4.59042C52.6147 4.0655 52.0928 3.49925 51.6218 2.89168C51.8181 2.79082 52.0176 2.699 52.2204 2.61621C53.0503 3.19912 53.8792 3.78067 54.7071 4.36086C54.9313 4.28536 55.1616 4.25475 55.3979 4.26904C55.4826 4.48766 55.4826 4.70193 55.3979 4.91181C55.7193 5.17914 56.0569 5.424 56.411 5.6464C56.8211 5.34599 57.0974 5.43781 57.2399 5.92187C57.1959 6.01164 57.1346 6.08816 57.0557 6.15143C57.3166 6.35039 57.5776 6.54933 57.8385 6.74829C58.6522 6.40138 59.4965 6.15652 60.3713 6.0137C61.3312 6.15861 61.454 6.57182 60.7397 7.25332C59.9465 7.62908 59.133 7.95046 58.299 8.21747C58.2222 8.46286 58.1454 8.70772 58.0688 8.95206C58.2698 9.0615 58.3926 9.22983 58.4372 9.45709C58.2544 9.70915 58.0241 9.90813 57.7464 10.0539C57.6667 10.3996 57.5592 10.7363 57.4241 11.064C57.7291 11.1826 57.8366 11.3969 57.7464 11.7068C57.5703 11.8162 57.3861 11.9081 57.1938 11.9822C56.8989 12.895 56.6226 13.8132 56.3649 14.737C56.1787 14.8551 55.9791 14.9469 55.7663 15.0124C55.7356 14.9053 55.7049 14.7982 55.6742 14.6911C55.7691 14.0049 55.8305 13.3163 55.8584 12.625C55.3806 12.582 55.3806 12.4902 55.8584 12.3495C55.9461 12.2077 55.9767 12.0546 55.9505 11.8904C55.824 11.9048 55.7012 11.8895 55.5821 11.8445C55.7225 11.7519 55.8761 11.706 56.0426 11.7068C56.0861 11.4007 55.9634 11.2017 55.6742 11.1099C56.0336 11.0721 56.1872 10.8731 56.1347 10.5131C55.9782 10.5278 55.8247 10.5125 55.6742 10.4672C56.0371 10.4269 56.2213 10.228 56.2268 9.8703C55.6382 9.89004 55.6228 9.79822 56.1807 9.59483C56.2903 9.34745 56.3056 9.10255 56.2268 8.86024C54.9275 9.31412 53.6075 9.69675 52.2665 10.008C52.0126 10.4987 51.7977 11.0038 51.6218 11.5231C51.3798 11.5775 51.1342 11.6081 50.885 11.615C50.9206 11.1215 50.9821 10.6318 51.0692 10.1458Z" fill="#6727C3"/>
<path fill-rule="evenodd" clip-rule="evenodd" d="M60.0032 6.28984C60.3045 6.1658 60.6116 6.18111 60.9242 6.33575C61.069 6.7721 60.9154 7.01697 60.4637 7.07034C60.8467 6.77664 60.816 6.53178 60.3716 6.33575C60.2525 6.29076 60.1296 6.27545 60.0032 6.28984Z" fill="#EEE6F8"/>
<path opacity="0.91" fill-rule="evenodd" clip-rule="evenodd" d="M50.7931 9.5957C50.6463 9.73188 50.4928 9.86961 50.3326 10.0089C50.5965 10.0257 50.842 10.0716 51.0694 10.1466C48.4381 11.0415 45.8286 11.9903 43.2409 12.9932C43.1252 12.9968 43.0331 12.9509 42.9646 12.8555C43.0075 12.7362 43.0075 12.5984 42.9646 12.4422C45.5388 11.4031 48.1484 10.4542 50.7931 9.5957Z" fill="#5353D4"/>
<path opacity="0.935" fill-rule="evenodd" clip-rule="evenodd" d="M42.9647 12.4424C43.0076 12.5986 43.0076 12.7363 42.9647 12.8556C43.0332 12.951 43.1253 12.9969 43.241 12.9933C40.2977 14.2613 37.3812 15.6081 34.4915 17.0336C34.3712 16.9988 34.2485 16.9682 34.1231 16.9418C34.0804 16.8374 34.0496 16.7456 34.031 16.6663C36.922 15.0875 39.8999 13.6795 42.9647 12.4424Z" fill="#5E3BCB"/>
<path opacity="0.909" fill-rule="evenodd" clip-rule="evenodd" d="M16.0715 19.6045C16.1575 19.8215 16.3111 20.0357 16.532 20.2473C14.3791 20.4012 12.3529 20.9827 10.4534 21.9919C10.2801 21.9242 10.2187 21.8171 10.2692 21.6705C10.1819 21.6262 10.0898 21.6109 9.99292 21.6246C11.2824 20.7839 12.6946 20.2176 14.2295 19.9259C14.8461 19.8082 15.4602 19.701 16.0715 19.6045Z" fill="#9920B5"/>
<path opacity="0.921" fill-rule="evenodd" clip-rule="evenodd" d="M26.7549 21.0735C27.0239 21.3966 27.2694 21.7333 27.4917 22.0835C27.2209 22.0191 26.96 21.9272 26.7088 21.8081C24.9431 23.1092 23.2392 24.4866 21.5973 25.9401C21.3736 25.9049 21.1586 25.8436 20.9526 25.7565C22.5118 24.2479 24.1696 22.8552 25.926 21.5785C22.8784 20.5262 19.747 20.0824 16.5318 20.247C16.3108 20.0355 16.1573 19.8213 16.0713 19.6043C18.3952 19.4588 20.6977 19.6271 22.9788 20.1093C24.243 20.4226 25.5018 20.744 26.7549 21.0735Z" fill="#8123BC"/>
<path opacity="0.935" fill-rule="evenodd" clip-rule="evenodd" d="M34.0308 16.666C34.0494 16.7454 34.0801 16.8372 34.1229 16.9415C34.2482 16.9679 34.371 16.9985 34.4913 17.0333C32.0408 18.3468 29.6768 19.8006 27.3996 21.3949C28.9583 21.9654 30.4779 22.6235 31.9585 23.3692C33.0274 22.3996 34.24 21.6497 35.5965 21.1195C37.9733 20.2384 40.4292 19.7641 42.9645 19.6962C42.9713 19.8717 43.0634 19.9788 43.2408 20.0176C43.1664 20.0459 43.1049 20.0918 43.0566 20.1553C43.1279 20.2665 43.2046 20.2665 43.2868 20.1553C43.3529 20.2053 43.3989 20.2665 43.425 20.339C40.1064 20.3242 36.975 21.074 34.0308 22.5887C33.3464 23.0412 32.7017 23.5462 32.0967 24.1038C30.575 23.3752 29.0401 22.7019 27.4917 22.0836C27.2694 21.7334 27.0239 21.3967 26.7549 21.0736C29.0414 19.3971 31.4667 17.928 34.0308 16.666Z" fill="#6B29C3"/>
<path opacity="0.92" fill-rule="evenodd" clip-rule="evenodd" d="M9.99285 21.624C10.0897 21.6103 10.1818 21.6256 10.2692 21.6699C10.2187 21.8165 10.28 21.9236 10.4534 21.9913C7.89232 23.5659 6.01962 25.7391 4.83526 28.5108C4.53 28.4525 4.3765 28.2995 4.37476 28.0517C5.53198 25.2765 7.40468 23.1339 9.99285 21.624Z" fill="#B71CAC"/>
<path opacity="0.997" fill-rule="evenodd" clip-rule="evenodd" d="M43.9776 35.476C42.8325 35.0736 41.6967 34.645 40.5699 34.1904C38.4746 33.3221 36.3716 32.4651 34.2611 31.6194C33.7426 32.3585 33.451 33.185 33.3861 34.0986C33.2599 34.6427 33.1678 35.1936 33.1098 35.7514C33.0182 36.4525 32.9568 37.1565 32.9256 37.8634C32.7857 38.7319 32.7244 39.6195 32.7414 40.5263C32.6505 40.9675 32.6198 41.4266 32.6493 41.9036C32.4907 43.8756 32.4293 45.865 32.4651 47.8722C32.755 47.8504 33.0313 47.7739 33.294 47.6426C34.5417 47.0664 35.7698 46.4696 36.978 45.8521C37.4985 45.6538 37.9896 45.4089 38.4516 45.1175C39.3405 44.7356 40.2 44.3071 41.0304 43.8319C41.5921 43.5979 42.1447 43.3377 42.6882 43.0514C43.015 42.8635 43.2606 42.6033 43.425 42.2709C43.5441 42.1477 43.6208 41.9946 43.6553 41.8118C43.7012 41.4458 43.7166 41.0785 43.7013 40.7099C43.8728 39.7132 44.0416 38.7031 44.2079 37.6797C44.4534 39.2713 44.6683 40.8629 44.8526 42.4546C45.5916 42.6635 46.3437 42.8165 47.109 42.9137C47.109 43.4341 47.109 43.9543 47.109 44.4747C47.0706 44.532 47.0092 44.5626 46.9248 44.5665C46.232 44.3518 45.526 44.2752 44.8065 44.337C44.581 44.4035 44.366 44.4954 44.1618 44.6124C42.5486 46.2666 40.9522 47.9348 39.3726 49.6168C41.1368 48.3705 42.8867 47.0391 44.6223 45.6225C44.7451 45.5613 44.8679 45.5001 44.9907 45.4389C45.6735 45.3658 46.3488 45.381 47.0169 45.4848C46.4272 48.7727 44.9844 51.6192 42.6882 54.0244C42.4485 53.154 41.988 52.4042 41.3067 51.7747C39.3062 51.0731 37.9554 51.7312 37.2543 53.7489C37.0149 54.3986 36.892 55.0719 36.8859 55.769C36.8097 56.3647 36.7636 56.9769 36.7478 57.6055C36.0688 57.8363 35.3781 58.0199 34.6755 58.1565C33.7296 58.3392 32.7779 58.4922 31.8204 58.6156C31.0914 58.5777 30.6156 58.2105 30.3929 57.5137C30.3052 56.8895 30.2591 56.262 30.2547 55.6313C30.3366 54.2691 30.3826 52.9071 30.3929 51.5451C28.9769 53.0062 27.3345 54.1081 25.4655 54.8508C24.8833 54.898 24.3 54.9286 23.7156 54.9426C20.8066 55.035 17.9209 54.8514 15.0582 54.3917C15.0582 54.3304 15.0276 54.2999 14.9661 54.2999C13.856 52.9742 13.0577 51.4744 12.5715 49.8005C13.9282 50.1621 15.3097 50.3916 16.716 50.4892C18.4033 50.5828 20.0918 50.6287 21.7815 50.6269C22.9555 50.666 24.1222 50.6048 25.2813 50.4433C25.9721 50.3476 26.6474 50.1945 27.3075 49.9841C27.8299 49.9021 28.3212 49.7492 28.7811 49.525C29.3481 49.3418 29.8853 49.0969 30.3929 48.7904C30.4357 48.3912 30.4817 47.9933 30.531 47.5967C30.534 47.0743 30.5647 46.5541 30.6231 46.0357C30.695 44.9928 30.7871 43.9521 30.8994 42.9137C30.9511 41.9907 31.0432 41.0724 31.1757 40.159C31.4156 37.9334 31.784 35.7297 32.2809 33.5477C31.2946 33.2576 30.5732 33.5636 30.1166 34.4659C30.0815 35.8139 30.0201 37.1607 29.9324 38.5062C29.8796 38.7027 29.8029 38.8864 29.7021 39.0571C29.5211 39.2396 29.3063 39.3774 29.0574 39.4703C28.5355 39.5315 28.0137 39.5315 27.4917 39.4703C26.9978 39.2031 26.8136 38.7899 26.9391 38.2307C27.098 37.5173 27.2822 36.8133 27.4917 36.1187C27.7127 35.1366 28.035 34.1878 28.4588 33.2722C28.7435 32.8656 29.1273 32.6055 29.61 32.4917C30.5938 32.4763 31.5763 32.4303 32.5572 32.354C32.7041 32.062 32.7962 31.7559 32.8335 31.4357C29.9025 31.2682 26.986 31.207 24.084 31.2521C28.6655 29.772 33.2399 29.7872 37.8069 31.298C40.2145 32.1909 42.2715 33.5836 43.9776 35.476Z" fill="#F4F3F4"/>
<path opacity="0.946" fill-rule="evenodd" clip-rule="evenodd" d="M20.9526 25.7568C21.1586 25.844 21.3736 25.9052 21.5973 25.9405C20.7382 26.8124 19.894 27.7 19.0645 28.6034C18.2748 29.5366 17.5533 30.5161 16.9002 31.5417C16.8387 31.5417 16.8081 31.5723 16.8081 31.6336C16.7774 31.7254 16.716 31.7866 16.6239 31.8172C16.3144 31.9715 16.0075 32.1245 15.7029 32.2763C17.1212 29.8507 18.8711 27.6776 20.9526 25.7568Z" fill="#A01FB3"/>
<path opacity="0.999" fill-rule="evenodd" clip-rule="evenodd" d="M24.0842 29.7975C26.9861 29.7525 29.9027 29.8137 32.8337 29.9812C32.7964 30.3014 32.7043 30.6074 32.5574 30.8994C31.5764 30.9758 30.594 31.0217 29.6102 31.0372C29.1275 31.1509 28.7437 31.4111 28.4589 31.8177C28.0352 32.7332 27.7128 33.6821 27.4919 34.6642C26.7536 34.289 26.0168 33.8452 25.2815 33.3328C25.3121 33.3022 25.3429 33.2715 25.3736 33.2409C25.1421 33.1455 24.9272 33.0231 24.7289 32.8736C23.7596 32.0915 22.7005 31.3722 21.5514 30.7158C21.5207 30.7464 21.49 30.777 21.4593 30.8076C21.3275 30.6364 21.2201 30.4528 21.137 30.2567C22.1184 30.0767 23.1008 29.9236 24.0842 29.7975Z" fill="#7027C1"/>
<path opacity="0.996" fill-rule="evenodd" clip-rule="evenodd" d="M21.1369 30.2559C21.2201 30.452 21.3274 30.6356 21.4592 30.8068C21.4899 30.7762 21.5207 30.7456 21.5513 30.715C22.7004 31.3714 23.7595 32.0907 24.7288 32.8728C24.9271 33.0223 25.142 33.1447 25.3735 33.2401C25.3428 33.2707 25.3121 33.3014 25.2814 33.332C26.0167 33.8444 26.7535 34.2882 27.4918 34.6634C27.2823 35.358 27.0981 36.062 26.9392 36.7754C26.85 36.9688 26.8193 37.1831 26.8471 37.4181C26.3025 37.1843 25.8266 36.8476 25.4195 36.4081C25.3889 36.4386 25.3581 36.4693 25.3274 36.4999C23.0359 34.8518 20.7488 33.2756 18.466 31.771C18.3603 31.6195 18.2375 31.4818 18.0976 31.3577C17.923 31.4623 17.8309 31.4012 17.8213 31.1741C18.9129 30.8103 20.0181 30.5042 21.1369 30.2559Z" fill="#7E24BD"/>
<path opacity="0.997" fill-rule="evenodd" clip-rule="evenodd" d="M40.57 32.7351C40.6239 32.9575 40.7621 33.1106 40.9845 33.1943C41.0151 33.133 41.0459 33.0718 41.0766 33.0106C41.4117 33.4975 41.8569 33.8495 42.412 34.0666C42.3814 34.0972 42.3506 34.1278 42.3199 34.1584C42.4942 34.2477 42.6784 34.309 42.8725 34.3421C43.1044 34.5951 43.3807 34.7788 43.7014 34.893C43.64 34.9236 43.5787 34.9542 43.5172 34.9848C43.764 35.1078 43.9942 35.1844 44.208 35.2144C44.2386 35.1531 44.2694 35.092 44.3001 35.0307C44.3668 35.2565 44.4895 35.3483 44.6685 35.3062C44.7071 35.4138 44.7684 35.5056 44.8527 35.5817C44.9503 35.6043 45.0578 35.6043 45.175 35.5817C45.3908 35.751 45.5904 35.9346 45.7737 36.1326C45.8043 36.102 45.8351 36.0714 45.8658 36.0408C46.4198 36.6126 47.0031 37.0105 47.6157 37.2345C47.7339 37.3329 47.7646 37.4553 47.7078 37.6018C47.7739 37.5145 47.8506 37.4992 47.938 37.5559C48.1449 37.8474 48.3751 38.0463 48.6288 38.1527C48.7377 38.0397 48.8451 38.0397 48.9511 38.1527C48.9319 38.2066 48.9011 38.2525 48.859 38.2905C49.0425 38.3432 49.1806 38.4503 49.2735 38.6119C49.4346 38.5385 49.5573 38.5997 49.6419 38.7955C49.6725 38.7649 49.7033 38.7343 49.734 38.7037C49.8567 38.8568 49.9796 39.0097 50.1024 39.1628C50.2408 39.132 50.3636 39.132 50.4708 39.1628C50.7357 39.6081 51.1193 39.8835 51.622 39.9892C51.6083 40.0858 51.6236 40.1776 51.6681 40.2647C51.7602 40.2341 51.8523 40.2034 51.9444 40.1729C52.0548 40.5625 52.3157 40.7461 52.7272 40.7238C52.7085 40.8974 52.7699 41.0351 52.9114 41.137C53.1277 41.1688 53.2965 41.2759 53.418 41.4584C53.4486 41.4278 53.4794 41.3972 53.5101 41.3666C53.7864 41.5196 54.0012 41.7339 54.1548 42.0093C54.1854 41.9481 54.2162 41.8869 54.2469 41.8257C54.3708 41.9948 54.5397 42.0867 54.7534 42.1012C54.7534 42.2236 54.7534 42.3461 54.7534 42.4685C52.203 42.1402 49.6549 41.8035 47.1091 41.4584C46.3438 41.3613 45.5917 41.2082 44.8527 40.9993C44.6684 39.4076 44.4535 37.816 44.208 36.2244C44.0417 37.2478 43.8729 38.2579 43.7014 39.2546C43.6708 38.7955 43.4251 38.5506 42.9646 38.52C42.9848 38.4121 42.9541 38.3203 42.8725 38.2446C42.665 38.1754 42.4961 38.053 42.366 37.8773C42.3353 37.9078 42.3045 37.9385 42.2739 37.9691C42.2454 37.8528 42.1994 37.7457 42.1357 37.6477C41.9606 37.6294 41.8224 37.5529 41.7213 37.4182C41.6906 37.4487 41.6598 37.4794 41.6292 37.51C41.5985 37.4182 41.5677 37.3263 41.5371 37.2345C41.5064 37.2651 41.4756 37.2957 41.445 37.3263C40.9728 36.9319 40.4662 36.5953 39.9253 36.3163C39.9446 36.2625 39.9753 36.2165 40.0174 36.1785C39.2214 35.7691 38.4386 35.2641 37.6689 34.6634C37.6382 34.694 37.6074 34.7247 37.5768 34.7553C37.454 34.5716 37.3311 34.388 37.2084 34.2043C37.07 34.2351 36.9472 34.2351 36.84 34.2043C36.4068 33.8423 35.9616 33.4903 35.5045 33.1483C35.367 33.0227 35.2289 33.0074 35.0901 33.1024C34.9531 33.0333 34.9377 32.9568 35.044 32.8729C34.9122 32.8302 34.8048 32.7536 34.7217 32.6433C34.3431 32.8181 33.9594 32.7876 33.5704 32.5515C33.5075 32.5848 33.4461 32.6154 33.3862 32.6433C33.4511 31.7297 33.7427 30.9032 34.2612 30.1641C36.3717 31.0098 38.4747 31.8668 40.57 32.7351Z" fill="#6038CA"/>
<path opacity="0.999" fill-rule="evenodd" clip-rule="evenodd" d="M17.8211 31.1738C17.8307 31.4009 17.9228 31.4621 18.0974 31.3575C18.2373 31.4815 18.36 31.6193 18.4658 31.7707C20.7486 33.2753 23.0357 34.8516 25.3272 36.4996C25.3579 36.469 25.3887 36.4384 25.4193 36.4078C25.8264 36.8474 26.3023 37.1841 26.8469 37.4179C26.8191 37.1829 26.8498 36.9686 26.939 36.7751C26.8134 37.3343 26.9976 37.7475 27.4916 38.0147C28.0135 38.076 28.5353 38.076 29.0573 38.0147C29.3061 37.9218 29.521 37.784 29.702 37.6015C30.0027 38.0665 30.4324 38.3879 30.9914 38.5657C30.9607 38.5962 30.9299 38.6269 30.8993 38.6575C30.9866 38.7018 31.0787 38.7171 31.1756 38.7034C31.043 39.6169 30.9509 40.5351 30.8993 41.4581C30.8285 41.5282 30.7825 41.62 30.7611 41.7336C30.4818 41.5317 30.1901 41.3481 29.8862 41.1826C29.8046 41.1069 29.7739 41.0151 29.7941 40.9072C29.6276 40.908 29.474 40.8621 29.3336 40.7694C29.0142 40.451 28.6458 40.2061 28.2284 40.0348C28.1647 39.9369 28.1187 39.8297 28.0902 39.7134C27.9518 39.7442 27.829 39.7442 27.7218 39.7134C27.3937 39.4586 27.0867 39.1832 26.8008 38.887C26.7702 38.9176 26.7394 38.9483 26.7087 38.9789C26.4822 38.7395 26.2366 38.5252 25.9719 38.3361C25.793 38.3782 25.6702 38.2864 25.6035 38.0606C25.5729 38.0912 25.5421 38.1219 25.5114 38.1524C25.3272 38.03 25.1737 37.877 25.0509 37.6933C25.0203 37.7239 24.9895 37.7546 24.9588 37.7851C24.7375 37.5333 24.492 37.319 24.222 37.1424C24.1914 37.173 24.1606 37.2036 24.1299 37.2342C24.0955 37.1501 24.0494 37.0735 23.9918 37.0046C23.4661 36.6355 22.9135 36.2989 22.334 35.9946C22.3646 35.964 22.3954 35.9333 22.4261 35.9028C22.1999 35.7456 21.9542 35.6232 21.6893 35.5355C21.7199 35.5049 21.7507 35.4742 21.7814 35.4436C21.0327 35.0704 20.388 34.6265 19.8473 34.1122C19.4725 33.9573 19.1962 33.7583 19.0184 33.5153C18.3335 33.2108 17.7655 32.8282 17.3145 32.3675C17.2839 32.3981 17.2531 32.4288 17.2224 32.4594C17.1989 32.157 17.0608 32.0498 16.808 32.138C16.8386 32.1074 16.8694 32.0767 16.9001 32.0462C16.7673 32.0115 16.6752 31.935 16.6238 31.8166C16.7159 31.786 16.7773 31.7248 16.808 31.6329C16.8694 31.6329 16.9001 31.6024 16.9001 31.5411C17.2149 31.4365 17.5218 31.3141 17.8211 31.1738Z" fill="#8523BB"/>
<path fill-rule="evenodd" clip-rule="evenodd" d="M43.7011 39.2539C43.7164 39.6225 43.701 39.9898 43.6551 40.3558C43.6206 40.5386 43.5439 40.6917 43.4248 40.8149C43.4385 40.7183 43.4232 40.6265 43.3788 40.5395C43.0478 40.3022 42.7563 40.1033 42.5038 39.9426C42.5812 39.7896 42.5351 39.7743 42.3657 39.8967C42.1546 39.7782 41.9704 39.6252 41.8131 39.4376C41.7824 39.4682 41.7516 39.4988 41.721 39.5294C41.6007 39.2197 41.3704 39.0514 41.0302 39.0244C41.0609 38.9938 41.0916 38.9631 41.1223 38.9325C39.6112 37.8485 38.107 36.8231 36.6094 35.8564C36.5402 35.776 36.4942 35.6842 36.4713 35.581C36.4406 35.6422 36.4098 35.7034 36.3792 35.7646C36.1693 35.6003 35.9851 35.4167 35.8266 35.2137C35.7959 35.2443 35.7651 35.2749 35.7345 35.3055C35.3744 35.0515 35.006 34.7455 34.6293 34.3873C34.5986 34.4178 34.5678 34.4485 34.5372 34.4791C34.1824 34.2393 33.8447 33.9639 33.5241 33.6527C33.4934 33.6832 33.4626 33.7139 33.432 33.7445C33.4013 33.6527 33.3705 33.5608 33.3399 33.469C33.3211 33.7718 33.2444 34.0472 33.1096 34.2954C33.1676 33.7376 33.2596 33.1867 33.3859 32.6426C33.4458 32.6147 33.5072 32.5841 33.5701 32.5508C33.9591 32.7869 34.3428 32.8174 34.7214 32.6426C34.8045 32.7529 34.9119 32.8295 35.0437 32.8722C34.9374 32.9561 34.9528 33.0326 35.0898 33.1017C35.2286 33.0067 35.3667 33.022 35.5042 33.1476C35.9613 33.4896 36.4065 33.8415 36.8397 34.2036C36.9469 34.2344 37.0696 34.2344 37.2081 34.2036C37.3308 34.3873 37.4537 34.5709 37.5765 34.7546C37.6071 34.724 37.6379 34.6933 37.6686 34.6627C38.4382 35.2634 39.2211 35.7684 40.0171 36.1778C39.975 36.2158 39.9443 36.2618 39.925 36.3156C40.4659 36.5946 40.9725 36.9312 41.4447 37.3256C41.4753 37.295 41.5061 37.2644 41.5368 37.2338C41.5674 37.3256 41.5982 37.4174 41.6289 37.5093C41.6595 37.4787 41.6903 37.448 41.721 37.4174C41.8221 37.5522 41.9602 37.6287 42.1354 37.647C42.1991 37.745 42.2451 37.8521 42.2736 37.9684C42.3042 37.9378 42.335 37.9071 42.3657 37.8766C42.4958 38.0523 42.6647 38.1747 42.8722 38.2439C42.9538 38.3196 42.9845 38.4114 42.9643 38.5193C43.4248 38.5499 43.6704 38.7948 43.7011 39.2539Z" fill="#642EC6"/>
<path opacity="0.999" fill-rule="evenodd" clip-rule="evenodd" d="M16.6239 31.8174C16.6753 31.9358 16.7674 32.0123 16.9002 32.0469C16.8695 32.0775 16.8388 32.1082 16.8081 32.1388C17.0609 32.0506 17.199 32.1578 17.2225 32.4602C17.2532 32.4296 17.284 32.3989 17.3146 32.3683C17.7656 32.829 18.3336 33.2116 19.0185 33.5161C19.1963 33.7591 19.4726 33.9581 19.8474 34.113C20.3881 34.6273 21.0328 35.0712 21.7815 35.4444C21.7508 35.475 21.72 35.5057 21.6894 35.5363C21.9544 35.624 22.2 35.7464 22.4262 35.9035C22.3955 35.9341 22.3647 35.9648 22.3341 35.9954C22.9136 36.2997 23.4662 36.6363 23.9919 37.0054C24.0495 37.0743 24.0956 37.1509 24.13 37.235C24.1607 37.2044 24.1915 37.1737 24.2221 37.1432C24.4921 37.3198 24.7376 37.5341 24.9589 37.7859C24.9896 37.7554 25.0204 37.7247 25.051 37.6941C25.1738 37.8778 25.3273 38.0308 25.5115 38.1532C25.5422 38.1227 25.573 38.092 25.6036 38.0614C25.6703 38.2872 25.7931 38.379 25.972 38.3369C26.2367 38.526 26.4823 38.7403 26.7088 38.9796C26.7395 38.9491 26.7703 38.9184 26.8009 38.8878C27.0868 39.184 27.3938 39.4594 27.7219 39.7142C27.8291 39.745 27.9519 39.745 28.0903 39.7142C28.1188 39.8305 28.1648 39.9376 28.2285 40.0356C28.6459 40.2069 29.0143 40.4518 29.3337 40.7702C29.4741 40.8629 29.6277 40.9088 29.7942 40.9079C29.774 41.0158 29.8047 41.1077 29.8863 41.1834C30.1902 41.3489 30.4819 41.5325 30.7612 41.7344C30.7826 41.6208 30.8286 41.529 30.8994 41.4589C30.787 42.4973 30.6949 43.538 30.6231 44.5809C30.1726 44.2832 29.7429 44.0231 29.3337 43.8004C28.6053 43.202 27.8532 42.6358 27.0772 42.1017C27.0466 42.1322 27.0158 42.1629 26.9851 42.1935C26.7365 41.9253 26.4602 41.6805 26.1562 41.4589C26.1256 41.4895 26.0948 41.5201 26.0641 41.5507C25.9064 41.4242 25.7835 41.2711 25.6957 41.0916C25.6036 41.0916 25.5115 41.0916 25.4194 41.0916C25.1763 40.8492 24.9307 40.6044 24.6826 40.357C24.5905 40.3876 24.4984 40.4183 24.4063 40.4488C24.2396 40.0975 23.9941 39.9139 23.6695 39.8979C23.5118 39.7136 23.3583 39.5299 23.209 39.3469C23.1429 39.4343 23.0662 39.4495 22.9788 39.3929C22.3987 39.0667 21.8461 38.6382 21.321 38.1073C20.9936 37.9221 20.7173 37.7385 20.4921 37.5564C19.4651 36.9064 18.452 36.2331 17.4528 35.5363C16.9266 35.047 16.4047 34.7103 15.8871 34.5262C15.9934 34.4423 15.978 34.3658 15.841 34.2966C15.8104 34.3272 15.7796 34.3579 15.7489 34.3885C15.4455 34.1256 15.1231 33.896 14.7819 33.6998C14.7326 33.5061 14.6405 33.4602 14.5056 33.562C14.42 33.4529 14.3894 33.3305 14.4135 33.1947C14.8176 32.8531 15.2475 32.5469 15.7029 32.2765C16.0075 32.1247 16.3144 31.9716 16.6239 31.8174Z" fill="#9022B8"/>
<path opacity="0.995" fill-rule="evenodd" clip-rule="evenodd" d="M40.5698 32.7344C41.6966 33.189 42.8324 33.6175 43.9775 34.0199C45.3698 34.5457 46.7513 35.0966 48.122 35.6727C48.3921 35.9952 48.6838 36.3014 48.997 36.591C49.0276 36.5297 49.0584 36.4686 49.0891 36.4073C49.76 36.922 50.4355 37.4424 51.1153 37.9683C51.1459 37.9378 51.1767 37.9071 51.2074 37.8765C51.3956 38.0679 51.5952 38.2515 51.806 38.4275C52.2578 38.6067 52.6262 38.8669 52.9112 39.208C53.0278 39.2363 53.1353 39.2822 53.2336 39.3457C53.2642 39.3151 53.295 39.2844 53.3257 39.2539C53.4159 39.4154 53.4774 39.5685 53.5099 39.713C53.6034 39.6089 53.6649 39.6394 53.6941 39.8048C53.7247 39.7436 53.7555 39.6824 53.7862 39.6212C53.9402 39.8817 54.1397 40.0959 54.3848 40.2639C54.4485 40.2157 54.4946 40.1545 54.523 40.0803C54.591 40.2383 54.6678 40.3913 54.7532 40.5394C54.8072 40.5202 54.8532 40.4895 54.8914 40.4476C55.0602 40.5547 55.1983 40.6925 55.3058 40.8608C55.3932 40.9174 55.4699 40.9022 55.5361 40.8149C55.5929 40.902 55.5776 40.9785 55.49 41.0444C55.6128 41.0444 55.7356 41.0444 55.8584 41.0444C55.9347 41.2274 56.0574 41.3651 56.2268 41.4576C56.1154 41.8939 55.9312 42.2918 55.6742 42.6514C55.5228 42.671 55.3846 42.6403 55.2598 42.5595C55.2036 41.9941 55.1115 41.4431 54.9835 40.9067C54.926 41.3124 54.8493 41.7103 54.7532 42.1004C54.5394 42.0859 54.3706 41.9941 54.2467 41.8249C54.216 41.8862 54.1852 41.9473 54.1546 42.0086C54.001 41.7331 53.7862 41.5189 53.5099 41.3658C53.4792 41.3964 53.4484 41.4271 53.4178 41.4576C53.2963 41.2752 53.1275 41.168 52.9112 41.1363C52.7697 41.0343 52.7083 40.8966 52.727 40.7231C52.3155 40.7454 52.0546 40.5617 51.9442 40.1721C51.8521 40.2027 51.76 40.2334 51.6679 40.2639C51.6234 40.1769 51.6081 40.0851 51.6218 39.9885C51.1191 39.8828 50.7354 39.6073 50.4706 39.162C50.3634 39.1313 50.2406 39.1313 50.1022 39.162C49.9794 39.009 49.8565 38.856 49.7338 38.7029C49.7031 38.7335 49.6723 38.7642 49.6417 38.7948C49.5571 38.599 49.4343 38.5377 49.2733 38.6111C49.1804 38.4496 49.0423 38.3424 48.8588 38.2897C48.9009 38.2517 48.9317 38.2058 48.9509 38.152C48.8449 38.0389 48.7375 38.0389 48.6286 38.152C48.3749 38.0456 48.1447 37.8467 47.9378 37.5551C47.8504 37.4985 47.7737 37.5137 47.7076 37.601C47.7644 37.4546 47.7337 37.3322 47.6155 37.2337C47.0029 37.0097 46.4196 36.6118 45.8656 36.04C45.8349 36.0706 45.8041 36.1013 45.7735 36.1319C45.5902 35.9339 45.3906 35.7502 45.1748 35.5809C45.0576 35.6035 44.9501 35.6035 44.8525 35.5809C44.7682 35.5049 44.7069 35.4131 44.6683 35.3054C44.4893 35.3476 44.3666 35.2558 44.2999 35.03C44.2692 35.0912 44.2384 35.1524 44.2078 35.2136C43.994 35.1836 43.7638 35.107 43.517 34.9841C43.5785 34.9535 43.6398 34.9228 43.7012 34.8922C43.3805 34.778 43.1042 34.5944 42.8723 34.3413C42.6782 34.3082 42.494 34.247 42.3197 34.1576C42.3504 34.1271 42.3812 34.0964 42.4118 34.0658C41.8567 33.8487 41.4115 33.4967 41.0764 33.0098C41.0457 33.0711 41.0149 33.1322 40.9843 33.1935C40.7619 33.1098 40.6237 32.9568 40.5698 32.7344Z" fill="#5C41CE"/>
<path fill-rule="evenodd" clip-rule="evenodd" d="M43.4251 40.8156C43.2607 41.148 43.015 41.4082 42.6883 41.5961C42.1448 41.8824 41.5922 42.1426 41.0305 42.3766C40.8387 42.3653 40.7006 42.2734 40.616 42.1012C40.4817 42.2157 40.3436 42.2157 40.2016 42.1012C40.0522 41.9696 39.9294 41.8166 39.8332 41.6421C39.1984 41.504 38.7073 41.1673 38.3596 40.632C38.2958 40.6802 38.2498 40.7414 38.2214 40.8156C38.1203 40.6809 37.9821 40.6044 37.807 40.5861C37.8491 40.5481 37.8798 40.5022 37.8991 40.4483C37.8278 40.3371 37.7511 40.3371 37.6688 40.4483C37.5319 40.3792 37.5165 40.3027 37.6228 40.2188C36.9146 39.879 36.2852 39.4353 35.7347 38.8873C35.5653 39.0097 35.5192 38.9944 35.5966 38.8414C34.9499 38.5878 34.4741 38.2052 34.169 37.6936C34.1384 37.7242 34.1076 37.7549 34.0769 37.7854C33.7044 37.5223 33.3667 37.2162 33.0638 36.8672C33.0332 36.8978 33.0024 36.9285 32.9717 36.959C32.9261 36.7779 32.9108 36.5942 32.9257 36.4081C32.9569 35.7012 33.0182 34.9972 33.1099 34.2961C33.2446 34.0479 33.3213 33.7725 33.3401 33.4697C33.3708 33.5616 33.4016 33.6534 33.4322 33.7452C33.4629 33.7146 33.4937 33.684 33.5243 33.6534C33.8449 33.9646 34.1827 34.24 34.5374 34.4798C34.5681 34.4492 34.5989 34.4185 34.6295 34.388C35.0062 34.7462 35.3746 35.0522 35.7347 35.3062C35.7654 35.2756 35.7962 35.245 35.8268 35.2144C35.9853 35.4174 36.1695 35.6011 36.3794 35.7653C36.4101 35.7041 36.4409 35.6429 36.4715 35.5817C36.4945 35.6849 36.5405 35.7767 36.6097 35.8571C38.1072 36.8238 39.6115 37.8492 41.1226 38.9332C41.0919 38.9638 41.0611 38.9945 41.0305 39.0251C41.3707 39.0521 41.6009 39.2204 41.7212 39.5301C41.7519 39.4995 41.7827 39.4689 41.8133 39.4383C41.9706 39.6259 42.1548 39.7789 42.3659 39.8974C42.5354 39.775 42.5814 39.7903 42.5041 39.9433C42.7565 40.104 43.0481 40.3029 43.379 40.5402C43.4235 40.6272 43.4388 40.719 43.4251 40.8156Z" fill="#6928C3"/>
<path opacity="0.998" fill-rule="evenodd" clip-rule="evenodd" d="M14.4135 33.1943C14.3894 33.3301 14.42 33.4525 14.5056 33.5616C14.6405 33.4598 14.7326 33.5057 14.7819 33.6994C15.1231 33.8956 15.4455 34.1252 15.7489 34.388C15.7796 34.3575 15.8104 34.3268 15.841 34.2962C15.978 34.3654 15.9934 34.4419 15.8871 34.5258C16.4047 34.7099 16.9266 35.0466 17.4528 35.5358C18.452 36.2327 19.4651 36.906 20.4921 37.556C20.7173 37.7381 20.9936 37.9217 21.321 38.1069C21.8461 38.6378 22.3987 39.0663 22.9788 39.3924C23.0662 39.4491 23.1429 39.4339 23.209 39.3465C23.3583 39.5295 23.5118 39.7132 23.6695 39.8975C23.9941 39.9135 24.2396 40.0971 24.4063 40.4484C24.4984 40.4178 24.5905 40.3872 24.6826 40.3566C24.9307 40.604 25.1763 40.8488 25.4194 41.0912C25.5115 41.0912 25.6036 41.0912 25.6957 41.0912C25.7835 41.2707 25.9064 41.4238 26.0641 41.5503C26.0948 41.5197 26.1256 41.4891 26.1562 41.4585C26.4602 41.6801 26.7365 41.9249 26.9851 42.1931C27.0158 42.1625 27.0466 42.1318 27.0772 42.1013C27.8532 42.6354 28.6054 43.2016 29.3337 43.8C29.7429 44.0227 30.1726 44.2828 30.6231 44.5805C30.5647 45.0988 30.5339 45.6191 30.531 46.1415C30.2566 46.0355 29.9803 45.9285 29.7021 45.8201C29.7327 45.7895 29.7635 45.7589 29.7942 45.7283C28.9929 45.2983 28.2561 44.7779 27.5838 44.1673C26.7857 43.7129 26.0029 43.1772 25.2352 42.5604C25.2046 42.591 25.1738 42.6216 25.1431 42.6522C25.0519 42.5201 24.9291 42.4282 24.7747 42.3767C24.7302 42.2897 24.715 42.1979 24.7287 42.1013C24.549 42.1263 24.4108 42.0652 24.3142 41.9176C24.2836 41.9482 24.2528 41.9789 24.2221 42.0094C23.4594 41.4837 22.6919 40.9021 21.9196 40.2648C21.889 40.2954 21.8582 40.326 21.8275 40.3566C21.5187 40.0101 21.181 39.7652 20.8144 39.622C20.5092 39.2852 20.1715 39.071 19.8013 38.9792C19.369 38.6864 18.9699 38.3497 18.604 37.9692C18.5734 37.9998 18.5426 38.0304 18.5119 38.061C18.3226 37.9616 18.1998 37.8085 18.1435 37.6019C18.1129 37.6325 18.0821 37.6631 18.0514 37.6937C17.449 37.1682 16.7889 36.7397 16.0713 36.4082C16.085 36.3116 16.0697 36.2197 16.0252 36.1327C15.9946 36.1633 15.9638 36.1939 15.9331 36.2245C15.5364 35.9191 15.1372 35.6131 14.7358 35.3063C14.7052 35.3369 14.6744 35.3675 14.6437 35.3981C14.5476 35.295 14.4862 35.1726 14.4595 35.0308C14.4289 35.0614 14.3981 35.0921 14.3674 35.1226C13.8835 34.9573 13.5611 34.6818 13.4004 34.2962C13.6728 33.8714 14.0105 33.5041 14.4135 33.1943Z" fill="#9920B5"/>
<path opacity="0.955" fill-rule="evenodd" clip-rule="evenodd" d="M4.37457 28.0527C4.37631 28.3006 4.52981 28.4535 4.83507 28.5119C3.58875 31.5719 3.2971 34.7246 3.96012 37.9697C4.40006 39.8879 5.27501 41.5713 6.58497 43.02C6.46387 43.1868 6.32572 43.3399 6.17052 43.4791C4.28879 41.4354 3.24499 39.0174 3.03912 36.2251C2.7891 33.3746 3.23425 30.6505 4.37457 28.0527Z" fill="#D319A4"/>
<path opacity="0.984" fill-rule="evenodd" clip-rule="evenodd" d="M42.9646 19.6969C46.341 19.5772 49.503 20.3271 52.4509 21.9466C55.9384 24.23 57.8878 27.4591 58.2992 31.634C58.5974 34.5815 58.275 37.4586 57.3322 40.2655C57.1205 40.397 56.967 40.3358 56.8717 40.0818C56.8177 40.101 56.7717 40.1317 56.7335 40.1737C56.5709 40.616 56.4021 41.0444 56.227 41.4592C56.0576 41.3666 55.9348 41.2289 55.8586 41.046C55.7358 41.046 55.613 41.046 55.4902 41.046C55.5778 40.9801 55.5931 40.9036 55.5362 40.8164C55.4701 40.9038 55.3934 40.919 55.306 40.8623C55.1985 40.694 55.0604 40.5563 54.8915 40.4491C54.8534 40.4911 54.8074 40.5218 54.7534 40.541C54.668 40.3928 54.5912 40.2399 54.5231 40.0818C54.4948 40.156 54.4487 40.2173 54.385 40.2655C54.1399 40.0974 53.9403 39.8832 53.7863 39.6227C53.7557 39.684 53.7249 39.7451 53.6942 39.8064C53.665 39.641 53.6036 39.6104 53.51 39.7145C53.4775 39.57 53.4161 39.4169 53.3258 39.2554C53.2952 39.286 53.2644 39.3167 53.2337 39.3472C53.1355 39.2838 53.028 39.2379 52.9114 39.2095C52.6263 38.8685 52.2579 38.6082 51.8062 38.429C51.5954 38.2531 51.3958 38.0694 51.2075 37.8781C51.1769 37.9086 51.1461 37.9393 51.1154 37.9699C50.4357 37.4439 49.7602 36.9236 49.0892 36.4089C49.0586 36.4701 49.0278 36.5313 48.9971 36.5925C48.684 36.3029 48.3923 35.9968 48.1222 35.6743C50.9935 36.7766 53.8486 37.9244 56.6875 39.1177C56.7796 39.1789 56.8717 39.1789 56.9638 39.1177C58.1557 35.2708 58.0483 31.4601 56.6414 27.6856C54.9988 24.2735 52.3432 22.0544 48.6748 21.0284C46.9558 20.5655 45.2059 20.3359 43.4251 20.3397C43.399 20.2673 43.353 20.206 43.2869 20.1561C43.2047 20.2673 43.128 20.2673 43.0567 20.1561C43.1051 20.0925 43.1665 20.0466 43.2409 20.0183C43.0635 19.9796 42.9714 19.8724 42.9646 19.6969Z" fill="#5947D0"/>
<path fill-rule="evenodd" clip-rule="evenodd" d="M15.1503 36.2246C15.1503 36.2859 15.1503 36.347 15.1503 36.4083C15.0024 37.7211 15.0639 39.0373 15.3345 40.3567C15.9703 42.6187 17.3211 44.3174 19.3869 45.4529C21.0011 46.3296 22.7203 46.8653 24.5445 47.0598C24.1454 47.1211 23.7462 47.1822 23.3472 47.2435C22.9602 47.2144 22.5918 47.245 22.242 47.3353C21.1363 47.3537 20.0311 47.3843 18.9264 47.4271C17.9056 47.4522 16.8925 47.3757 15.8871 47.1976C13.7299 46.7403 12.7476 45.4088 12.9399 43.2032C12.9828 42.3345 13.1056 41.4774 13.3083 40.6322C13.6027 39.7515 13.879 38.8638 14.1372 37.9693C14.3775 37.4058 14.6538 36.8549 14.9661 36.3164C15.0275 36.2859 15.0888 36.2552 15.1503 36.2246Z" fill="#F4F2F4"/>
<path fill-rule="evenodd" clip-rule="evenodd" d="M31.1757 38.7035C31.0789 38.7172 30.9868 38.7019 30.8994 38.6576C30.9301 38.627 30.9609 38.5964 30.9915 38.5658C30.4326 38.388 30.0029 38.0666 29.7021 37.6016C29.8029 37.4309 29.8796 37.2473 29.9324 37.0507C30.0201 35.7052 30.0815 34.3584 30.1166 33.0104C30.5732 32.1082 31.2946 31.8021 32.2809 32.0922C31.7841 34.2742 31.4157 36.478 31.1757 38.7035Z" fill="#742BC2"/>
<path opacity="0.961" fill-rule="evenodd" clip-rule="evenodd" d="M10.3613 35.3057C10.5012 35.3892 10.6546 35.4657 10.8218 35.5352C10.7797 35.5732 10.749 35.6192 10.7297 35.673C10.9747 35.8707 11.2203 35.9931 11.4665 36.0403C11.3507 36.2167 11.2433 36.4004 11.1442 36.5912C10.977 37.5744 10.7928 38.5538 10.5916 39.5296C10.2883 40.0908 9.84306 40.2285 9.2561 39.9428C9.12779 39.8352 9.05104 39.6975 9.02585 39.5296C9.00145 37.9654 9.44657 36.5574 10.3613 35.3057Z" fill="#B21DAE"/>
<path opacity="0.991" fill-rule="evenodd" clip-rule="evenodd" d="M12.2953 36.6836C12.3206 36.8986 12.3973 36.8986 12.5255 36.6836C12.6217 36.7867 12.683 36.9091 12.7097 37.0509C12.8026 37.0951 12.91 37.1104 13.0321 37.0968C13.1115 37.3478 13.1882 37.3632 13.2623 37.1427C13.3075 37.2614 13.3228 37.3839 13.3084 37.51C13.6041 37.6196 13.8804 37.7725 14.1373 37.9691C13.8791 38.8637 13.6028 39.7513 13.3084 40.632C13.1573 40.5567 13.0038 40.4802 12.8479 40.4025C12.8785 40.3719 12.9093 40.3412 12.94 40.3106C12.8325 40.2647 12.7558 40.1882 12.7097 40.0811C12.587 40.0811 12.4641 40.0811 12.3413 40.0811C12.2492 39.928 12.1571 39.775 12.065 39.622C12.0344 39.6525 12.0036 39.6832 11.9729 39.7138C11.9345 39.5985 11.8578 39.5372 11.7427 39.5301C11.8582 38.5569 12.0424 37.608 12.2953 36.6836Z" fill="#B01FAF"/>
<path fill-rule="evenodd" clip-rule="evenodd" d="M15.1503 36.4082C15.1351 37.1434 15.1503 37.878 15.1964 38.612C15.3806 38.7344 15.5341 38.8874 15.6569 39.0711C15.6876 39.0405 15.7183 39.0098 15.749 38.9793C17.8787 40.579 20.0891 42.1095 22.3802 43.5705C22.4824 43.7116 22.6206 43.7728 22.7946 43.7541C22.7745 43.862 22.8051 43.9538 22.8867 44.0296C24.6772 45.19 26.3502 46.353 27.9062 47.5189C27.9983 47.5189 28.0904 47.5189 28.1825 47.5189C28.2439 47.6413 28.3053 47.7638 28.3667 47.8862C28.3974 47.8556 28.4281 47.8249 28.4588 47.7944C28.5251 47.9372 28.6326 48.0291 28.7811 48.0698C28.3212 48.294 27.8299 48.447 27.3075 48.529C27.0413 48.4024 26.811 48.2188 26.6168 47.978C26.4733 48.0556 26.3812 47.9945 26.3405 47.7944C26.3098 47.8249 26.2791 47.8556 26.2484 47.8862C25.6694 47.2964 25.0093 46.822 24.2682 46.4629C24.2106 46.3941 24.1645 46.3175 24.1301 46.2334C24.0994 46.2639 24.0687 46.2946 24.038 46.3252C23.9534 46.1294 23.8307 46.0682 23.6696 46.1415C23.4972 46.02 23.4205 45.8822 23.4393 45.7283C22.8849 45.4964 22.3476 45.1444 21.8276 44.6724C21.3529 44.6046 20.9845 44.3291 20.7224 43.8459C20.6917 43.8765 20.661 43.9072 20.6303 43.9378C20.2905 43.7606 19.9529 43.5157 19.6172 43.2032C19.5865 43.2337 19.5558 43.2644 19.5251 43.295C19.4806 43.2079 19.4653 43.1161 19.479 43.0195C18.5521 42.5801 17.7079 41.9986 16.9463 41.2749C16.8028 41.3525 16.7107 41.2913 16.67 41.0912C16.6393 41.1218 16.6086 41.1525 16.5779 41.183C16.4564 41.0006 16.2876 40.8934 16.0713 40.8617C16.1941 40.8004 16.1941 40.7393 16.0713 40.678C15.8352 40.5498 15.5896 40.4427 15.3345 40.3566C15.064 39.0372 15.0025 37.721 15.1503 36.4082Z" fill="#AB1FB0"/>
<path fill-rule="evenodd" clip-rule="evenodd" d="M32.9258 36.4082C32.9109 36.5943 32.9263 36.778 32.9719 36.9591C33.0026 36.9286 33.0333 36.8979 33.064 36.8673C33.3668 37.2163 33.7045 37.5224 34.0771 37.7856C34.1078 37.755 34.1385 37.7243 34.1692 37.6937C34.4742 38.2053 34.9501 38.5879 35.5967 38.8415C35.5194 38.9945 35.5654 39.0098 35.7349 38.8874C36.2854 39.4354 36.9148 39.8791 37.6229 40.2189C37.5166 40.3028 37.532 40.3793 37.669 40.4485C37.7512 40.3373 37.8279 40.3373 37.8992 40.4485C37.88 40.5023 37.8492 40.5482 37.8071 40.5862C37.9823 40.6045 38.1205 40.681 38.2216 40.8158C38.2499 40.7416 38.296 40.6803 38.3597 40.6321C38.7074 41.1674 39.1986 41.5041 39.8333 41.6422C39.9296 41.8167 40.0523 41.9697 40.2017 42.1013C40.3437 42.2158 40.4819 42.2158 40.6162 42.1013C40.7007 42.2735 40.8389 42.3654 41.0306 42.3768C40.2003 42.8519 39.3407 43.2804 38.4518 43.6623C38.2171 43.5696 37.9715 43.4932 37.715 43.4327C37.7457 43.4022 37.7765 43.3715 37.8071 43.3409C37.1793 43.0524 36.6267 42.6544 36.1493 42.1472C35.8424 41.9941 35.5353 41.8411 35.2283 41.6881C35.1643 41.4616 34.9801 41.3086 34.6757 41.229C34.6181 41.1601 34.572 41.0835 34.5376 40.9994C34.5069 41.03 34.4762 41.0606 34.4455 41.0912C33.9084 40.6945 33.3711 40.2966 32.8337 39.8975C32.7431 39.6287 32.7124 39.3532 32.7416 39.0711C32.7246 38.1643 32.7859 37.2767 32.9258 36.4082Z" fill="#7626C0"/>
<path fill-rule="evenodd" clip-rule="evenodd" d="M32.7414 39.0713C32.7122 39.3534 32.7429 39.6288 32.8335 39.8977C33.3709 40.2968 33.9081 40.6946 34.4452 41.0914C34.4759 41.0608 34.5067 41.0302 34.5373 40.9996C34.5718 41.0837 34.6178 41.1603 34.6755 41.2292C34.9799 41.3088 35.1641 41.4618 35.2281 41.6883C35.5351 41.8413 35.8421 41.9943 36.1491 42.1474C36.6264 42.6546 37.179 43.0526 37.8069 43.3411C37.7762 43.3717 37.7455 43.4023 37.7148 43.4329C37.9713 43.4933 38.2168 43.5698 38.4516 43.6625C37.9896 43.9539 37.4985 44.1988 36.978 44.3971C36.8242 44.374 36.686 44.3128 36.5635 44.2134C36.4243 44.2829 36.3014 44.3748 36.1951 44.4889C36.1684 44.3471 36.1071 44.2247 36.0109 44.1216C35.9803 44.1522 35.9495 44.1828 35.9188 44.2134C35.8574 44.0298 35.7346 43.9074 35.5504 43.8461C35.5198 43.9074 35.489 43.9685 35.4583 44.0298C35.3066 43.6336 35.0303 43.3581 34.6294 43.2034C34.5988 43.2339 34.568 43.2646 34.5373 43.2952C34.3838 43.1421 34.2304 42.9891 34.0768 42.8361C34.0462 42.8666 34.0154 42.8973 33.9847 42.9279C33.9181 42.7021 33.7953 42.6103 33.6163 42.6524C33.4233 42.5409 33.4387 42.4643 33.6624 42.4229C33.6317 42.3923 33.601 42.3616 33.5703 42.331C33.4204 42.3705 33.2823 42.3858 33.1558 42.3769C32.9616 42.3278 32.9156 42.236 33.0177 42.1015C32.9074 42.0611 32.7999 42.0305 32.6953 42.0097C32.6494 41.4902 32.634 40.9698 32.6493 40.4486C32.6197 39.9716 32.6505 39.5125 32.7414 39.0713Z" fill="#8025BD"/>
<path fill-rule="evenodd" clip-rule="evenodd" d="M13.4006 34.2959C13.5613 34.6815 13.8837 34.9569 14.3677 35.1223C14.3983 35.0917 14.4291 35.0611 14.4598 35.0305C14.4865 35.1723 14.5478 35.2947 14.644 35.3978C14.6746 35.3672 14.7054 35.3365 14.7361 35.306C15.1374 35.6127 15.5366 35.9188 15.9334 36.2242C15.964 36.1936 15.9948 36.163 16.0255 36.1324C16.07 36.2194 16.0852 36.3112 16.0715 36.4078C16.7892 36.7394 17.4492 37.1679 18.0517 37.6934C18.0823 37.6628 18.1131 37.6321 18.1438 37.6016C18.2 37.8082 18.3228 37.9612 18.5122 38.0607C18.5428 38.0301 18.5736 37.9994 18.6043 37.9689C18.9702 38.3494 19.3693 38.6861 19.8016 38.9789C20.1717 39.0706 20.5095 39.2849 20.8147 39.6217C21.1812 39.7648 21.519 40.0097 21.8278 40.3563C21.8584 40.3257 21.8892 40.295 21.9199 40.2645C22.6921 40.9018 23.4596 41.4834 24.2224 42.0091C24.253 41.9785 24.2838 41.9479 24.3145 41.9173C24.4111 42.0648 24.5492 42.126 24.7289 42.1009C24.7152 42.1975 24.7305 42.2894 24.775 42.3764C24.9293 42.4279 25.0521 42.5197 25.1434 42.6519C25.174 42.6213 25.2048 42.5906 25.2355 42.56C26.0031 43.1769 26.786 43.7125 27.584 44.167C28.2563 44.7776 28.9931 45.298 29.7944 45.728C29.7637 45.7586 29.733 45.7892 29.7023 45.8198C29.9805 45.9281 30.2568 46.0352 30.5312 46.1412C30.4819 46.5378 30.4359 46.9356 30.3931 47.3349C29.8855 47.6414 29.3483 47.8863 28.7813 48.0695C28.6328 48.0287 28.5253 47.9369 28.459 47.794C28.4283 47.8246 28.3975 47.8553 28.3669 47.8858C28.3054 47.7634 28.2441 47.6409 28.1827 47.5185C28.0906 47.5185 27.9985 47.5185 27.9064 47.5185C26.3504 46.3527 24.6773 45.1896 22.8869 44.0292C22.8053 43.9535 22.7746 43.8617 22.7948 43.7538C22.6208 43.7724 22.4826 43.7112 22.3804 43.5701C20.0893 42.1091 17.8789 40.5787 15.7492 38.9789C15.7185 39.0095 15.6877 39.0402 15.6571 39.0707C15.5343 38.8871 15.3808 38.734 15.1966 38.6116C15.1505 37.8777 15.1352 37.1431 15.1505 36.4078C15.1505 36.3466 15.1505 36.2854 15.1505 36.2242C15.1642 36.1276 15.149 36.0358 15.1045 35.9487C15.0316 36.063 14.9856 36.1855 14.9663 36.316C14.654 36.8545 14.3777 37.4054 14.1374 37.9689C13.8806 37.7723 13.6043 37.6193 13.3085 37.5097C13.323 37.3837 13.3076 37.2612 13.2625 37.1424C13.1883 37.3629 13.1116 37.3476 13.0322 37.0965C12.9102 37.1101 12.8027 37.0949 12.7099 37.0506C12.6832 36.9088 12.6218 36.7864 12.5257 36.6833C12.3975 36.8984 12.3208 36.8984 12.2954 36.6833C12.3711 36.2135 12.5246 35.7697 12.7559 35.3519C12.1658 35.2819 11.736 35.5115 11.4665 36.0406C11.2203 35.9934 10.9747 35.871 10.7297 35.6733C10.749 35.6194 10.7797 35.5735 10.8218 35.5355C10.6547 35.466 10.5012 35.3895 10.3613 35.306C10.5358 34.9034 10.8427 34.6432 11.2823 34.5255C11.9996 34.5076 12.7057 34.4311 13.4006 34.2959ZM15.1505 36.2242C15.0891 36.2548 15.0278 36.2854 14.9663 36.316C14.9856 36.1855 15.0316 36.063 15.1045 35.9487C15.149 36.0358 15.1642 36.1276 15.1505 36.2242Z" fill="#A320B2"/>
<path opacity="0.974" fill-rule="evenodd" clip-rule="evenodd" d="M11.7427 39.5303C11.8578 39.5373 11.9345 39.5986 11.9729 39.7139C12.0036 39.6833 12.0343 39.6527 12.065 39.6221C12.1571 39.7752 12.2492 39.9281 12.3413 40.0812C12.4641 40.0812 12.5869 40.0812 12.7097 40.0812C12.7558 40.1884 12.8325 40.2649 12.94 40.3108C12.9093 40.3414 12.8785 40.372 12.8479 40.4026C13.0038 40.4804 13.1573 40.5569 13.3084 40.6322C13.1057 41.4774 12.9829 42.3345 12.94 43.2032C12.7082 43.1798 12.4933 43.1032 12.2953 42.9737C12.3259 42.9431 12.3567 42.9124 12.3874 42.8818C12.2953 42.8513 12.2032 42.8206 12.1111 42.79C12.1417 42.7594 12.1725 42.7288 12.2032 42.6982C12.0871 42.596 11.9796 42.5807 11.8808 42.6523C11.7067 42.4912 11.5379 42.3382 11.3743 42.1932C11.4284 41.2949 11.5512 40.4072 11.7427 39.5303Z" fill="#BC1CAB"/>
<path fill-rule="evenodd" clip-rule="evenodd" d="M15.3345 40.3564C15.5895 40.4425 15.8351 40.5496 16.0713 40.6778C16.194 40.7391 16.194 40.8002 16.0713 40.8615C16.2875 40.8932 16.4563 41.0004 16.5778 41.1829C16.6085 41.1523 16.6393 41.1216 16.6699 41.091C16.7106 41.2911 16.8027 41.3523 16.9462 41.2747C17.7078 41.9984 18.5521 42.58 19.479 43.0193C19.4652 43.1159 19.4805 43.2078 19.525 43.2948C19.5557 43.2642 19.5865 43.2336 19.6171 43.203C19.9528 43.5156 20.2905 43.7604 20.6302 43.9376C20.6609 43.907 20.6916 43.8763 20.7223 43.8458C20.9844 44.3289 21.3528 44.6044 21.8275 44.6722C22.3475 45.1442 22.8848 45.4962 23.4393 45.7281C23.4204 45.882 23.4971 46.0198 23.6695 46.1414C23.8306 46.068 23.9534 46.1292 24.0379 46.325C24.0686 46.2944 24.0993 46.2638 24.13 46.2332C24.1645 46.3173 24.2105 46.3939 24.2682 46.4627C25.0092 46.8219 25.6693 47.2962 26.2483 47.886C26.279 47.8554 26.3097 47.8248 26.3404 47.7942C26.3811 47.9943 26.4732 48.0554 26.6167 47.9778C26.811 48.2186 27.0412 48.4022 27.3075 48.5288C26.6474 48.7391 25.972 48.8922 25.2813 48.9879C25.2803 48.8486 25.2189 48.7414 25.0971 48.6665C24.7397 48.5245 24.4327 48.3102 24.1761 48.0237C23.9469 47.8895 23.7013 47.7977 23.4393 47.7483C23.562 47.687 23.562 47.6259 23.4393 47.5646C23.0638 47.3765 22.6646 47.3 22.242 47.3351C22.5918 47.2448 22.9602 47.2141 23.3472 47.2432C23.8499 47.2797 24.3411 47.2338 24.8208 47.1055C24.7335 47.0612 24.6414 47.0459 24.5445 47.0596C22.7203 46.865 21.0011 46.3293 19.3869 45.4527C17.3211 44.3172 15.9703 42.6184 15.3345 40.3564Z" fill="#B321AE"/>
<path opacity="0.981" fill-rule="evenodd" clip-rule="evenodd" d="M57.332 40.2637C56.2289 43.4083 54.6632 46.2854 52.6349 48.8952C52.354 49.0159 52.2926 48.9241 52.4507 48.6197C52.3869 48.5262 52.3256 48.4344 52.2665 48.3442C53.1806 47.1276 53.9788 45.842 54.6611 44.4876C52.108 44.3791 49.5599 44.2261 47.0169 44.0285C46.3488 43.9247 45.6734 43.9095 44.9907 43.9826C44.8679 44.0438 44.745 44.105 44.6223 44.1662C42.8866 45.5828 41.1367 46.9143 39.3726 48.1606C40.9522 46.4786 42.5485 44.8104 44.1618 43.1562C44.3659 43.0391 44.5809 42.9473 44.8065 42.8807C45.5259 42.8189 46.232 42.8955 46.9248 43.1103C47.0091 43.1063 47.0705 43.0757 47.109 43.0184C49.6184 43.4001 52.1358 43.7368 54.6611 44.0285C54.8085 44.0238 54.9467 43.9932 55.0756 43.9367C55.3016 43.5168 55.5012 43.0883 55.6742 42.6511C55.9312 42.2916 56.1154 41.8937 56.2268 41.4574C56.4019 41.0427 56.5707 40.6142 56.7334 40.1719C56.7715 40.1299 56.8176 40.0993 56.8715 40.0801C56.9669 40.3341 57.1203 40.3952 57.332 40.2637Z" fill="#6B2EC5"/>
<path fill-rule="evenodd" clip-rule="evenodd" d="M32.6492 40.4482C32.6339 40.9694 32.6493 41.4898 32.6952 42.0092C32.7998 42.0301 32.9072 42.0607 33.0176 42.1011C32.9154 42.2356 32.9615 42.3274 33.1557 42.3765C33.2822 42.3854 33.4203 42.3701 33.5702 42.3306C33.6008 42.3612 33.6316 42.3919 33.6623 42.4225C33.4386 42.4639 33.4232 42.5404 33.6162 42.652C33.7952 42.6099 33.9179 42.7017 33.9846 42.9275C34.0153 42.8969 34.0461 42.8662 34.0767 42.8357C34.2303 42.9887 34.3837 43.1417 34.5372 43.2948C34.5679 43.2642 34.5987 43.2335 34.6293 43.203C35.0301 43.3577 35.3064 43.6332 35.4582 44.0294C35.4889 43.9681 35.5197 43.907 35.5503 43.8457C35.7345 43.907 35.8573 44.0294 35.9187 44.213C35.9494 44.1824 35.9802 44.1518 36.0108 44.1212C36.107 44.2243 36.1683 44.3467 36.195 44.4885C36.3013 44.3744 36.4242 44.2825 36.5634 44.213C36.6859 44.3124 36.8241 44.3736 36.9779 44.3967C35.7696 45.0142 34.5416 45.611 33.2939 46.1872C33.0311 46.3185 32.7548 46.395 32.465 46.4168C32.4292 44.4096 32.4906 42.4202 32.6492 40.4482Z" fill="#8D27BA"/>
<path opacity="0.996" fill-rule="evenodd" clip-rule="evenodd" d="M11.3743 42.1934C11.5379 42.3384 11.7067 42.4914 11.8808 42.6525C11.9796 42.5809 12.0871 42.5962 12.2032 42.6984C12.1725 42.729 12.1417 42.7596 12.1111 42.7902C12.2032 42.8208 12.2953 42.8515 12.3874 42.882C12.3567 42.9126 12.3259 42.9433 12.2953 42.9739C12.4933 43.1034 12.7082 43.18 12.94 43.2034C12.7477 45.409 13.73 46.7405 15.8872 47.1978C16.8926 47.3759 17.9057 47.4524 18.9265 47.4273C19.2599 47.756 19.6436 48.0314 20.0777 48.2537C20.3974 48.4429 20.7197 48.7031 21.0448 49.0342C21.3086 49.051 21.5542 49.097 21.7816 49.172C20.0918 49.1738 18.4033 49.1279 16.7161 49.0342C15.3097 48.9367 13.9282 48.7072 12.5716 48.3456C12.1002 48.2603 11.6397 48.1379 11.1901 47.9783C11.0296 46.0295 11.091 44.1012 11.3743 42.1934Z" fill="#CB1EA7"/>
<path fill-rule="evenodd" clip-rule="evenodd" d="M24.5445 47.0595C24.6414 47.0459 24.7335 47.0611 24.8208 47.1055C24.3411 47.2337 23.8499 47.2796 23.3472 47.2432C23.7462 47.1819 24.1454 47.1208 24.5445 47.0595Z" fill="#D899D7"/>
<path fill-rule="evenodd" clip-rule="evenodd" d="M22.2421 47.3354C22.6648 47.3003 23.0639 47.3768 23.4394 47.565C23.5622 47.6262 23.5622 47.6874 23.4394 47.7486C23.7014 47.798 23.9471 47.8899 24.1762 48.0241C24.4328 48.3106 24.7399 48.5249 25.0972 48.6669C25.2191 48.7418 25.2804 48.849 25.2814 48.9882C24.1222 49.1498 22.9556 49.211 21.7816 49.1719C21.5542 49.0969 21.3087 49.051 21.0448 49.0342C20.7198 48.703 20.3974 48.4428 20.0778 48.2537C19.6437 48.0314 19.2599 47.7559 18.9265 47.4272C20.0313 47.3845 21.1365 47.3538 22.2421 47.3354Z" fill="#BC1FAB"/>
<path opacity="0.994" fill-rule="evenodd" clip-rule="evenodd" d="M14.9663 52.8447C15.0277 52.8447 15.0584 52.8753 15.0584 52.9365C17.921 53.3962 20.8068 53.5798 23.7157 53.4875C23.5507 53.5617 23.3665 53.6077 23.1631 53.6252C23.3353 53.763 23.5042 53.9008 23.6697 54.0384C23.7004 54.0078 23.7311 53.9772 23.7618 53.9466C23.8546 54.1081 23.9928 54.2153 24.1762 54.268C24.1456 54.2985 24.1148 54.3292 24.0841 54.3598C24.3599 54.3971 24.5595 54.5348 24.6828 54.773C24.8498 54.6712 24.9265 54.7324 24.913 54.9566C25.0099 54.943 25.102 54.9582 25.1893 55.0026C25.6827 55.3011 26.1278 55.653 26.5248 56.0585C26.5555 55.9973 26.5862 55.9361 26.6169 55.8749C26.973 56.2035 27.3568 56.4943 27.7681 56.7472C27.7375 56.7778 27.7067 56.8085 27.676 56.839C28.0569 56.964 28.4099 57.1936 28.7352 57.5277C28.7659 57.4971 28.7966 57.4665 28.8273 57.4359C28.8701 57.5673 28.9469 57.6744 29.0575 57.7573C29.333 57.9253 29.6093 58.0936 29.8864 58.2623C29.968 58.3381 29.9987 58.4299 29.9785 58.5378C30.1352 58.5806 30.2734 58.5806 30.393 58.5378C30.4912 58.819 30.6908 58.9568 30.9916 58.951C30.9302 58.9816 30.8689 59.0122 30.8074 59.0428C31.0237 59.0746 31.1925 59.1817 31.314 59.3642C31.3447 59.3336 31.3754 59.3029 31.4061 59.2724C31.5307 59.3812 31.6382 59.5037 31.7284 59.6397C31.7824 59.6205 31.8285 59.5898 31.8666 59.5478C32.0605 59.7799 32.2754 59.9941 32.5113 60.1906C32.5494 60.1486 32.5955 60.118 32.6494 60.0988C32.7262 60.1906 32.803 60.2824 32.8797 60.3743C32.9104 60.3437 32.9411 60.313 32.9718 60.2824C33.0996 60.3959 33.207 60.5183 33.2941 60.6497C32.1957 60.8144 31.0905 60.9062 29.9785 60.9252C27.8581 60.8161 25.7398 60.709 23.6236 60.6038C25.7621 62.2293 28.0339 63.6526 30.439 64.8736C30.4203 65.0472 30.4817 65.1849 30.6232 65.2868C30.5926 65.3174 30.5618 65.3481 30.5311 65.3787C30.713 65.5708 30.8972 65.7391 31.0837 65.8837C28.0164 64.4166 25.1614 62.6261 22.5184 60.512C18.6219 60.1602 14.723 59.8235 10.8218 59.5019C10.5341 59.483 10.2578 59.4218 9.99286 59.3183C9.71987 59.0561 9.75064 58.8418 10.085 58.6755C11.3014 58.0158 12.5295 57.373 13.769 56.7472C12.1756 56.292 11.2853 55.2513 11.0981 53.6252C11.0737 52.2963 11.1198 50.9649 11.2362 49.6309C11.7273 50.6559 12.3874 51.5588 13.2164 52.3397C13.7601 52.636 14.3434 52.8043 14.9663 52.8447Z" fill="#D719A3"/>
<path opacity="0.989" fill-rule="evenodd" clip-rule="evenodd" d="M41.4909 53.6703C40.5987 54.3594 39.6777 55.0022 38.7279 55.5986C38.4458 55.2934 38.2769 54.9261 38.2214 54.4967C38.1532 53.9717 38.1686 53.4513 38.2674 52.9357C38.4416 52.1745 38.8714 51.6083 39.5568 51.237C40.2743 51.1256 40.8115 51.3857 41.1686 52.0175C41.5016 52.5352 41.6091 53.0861 41.4909 53.6703Z" fill="#F4F2F4"/>
<path fill-rule="evenodd" clip-rule="evenodd" d="M34.6757 56.7012C34.7283 56.8364 34.8051 56.9589 34.9059 57.0685C34.9366 57.0379 34.9673 57.0072 34.998 56.9766C35.1543 57.2487 35.3845 57.4324 35.6888 57.5276C35.7886 57.6346 35.8653 57.757 35.919 57.8949C36.0166 57.9175 36.1241 57.9175 36.2414 57.8949C36.5943 58.1869 36.9474 58.4623 37.3005 58.7213C37.3312 58.6907 37.3619 58.66 37.3926 58.6295C37.4233 58.7213 37.454 58.8131 37.4847 58.9049C37.5508 58.8176 37.6275 58.8024 37.7149 58.859C37.6457 58.9206 37.6149 58.9971 37.6228 59.0886C36.7844 59.4595 35.9247 59.7962 35.0441 60.0986C35.0575 59.8744 34.9808 59.8132 34.8138 59.915C34.5664 59.807 34.3516 59.6539 34.1691 59.4559C34.1384 59.4865 34.1077 59.5171 34.077 59.5477C33.6864 59.3119 33.3487 59.0058 33.0639 58.6295C32.5667 58.4801 32.1215 58.1894 31.7285 57.7571C31.4802 57.6938 31.2806 57.556 31.1298 57.3439C31.0991 57.3745 31.0684 57.4052 31.0377 57.4358C30.726 57.1097 30.3729 56.8495 29.9786 56.6553C29.9209 56.5864 29.8749 56.5098 29.8404 56.4257C29.8097 56.4563 29.779 56.4869 29.7483 56.5175C29.5341 56.2131 29.2424 56.0141 28.8734 55.9207C29.0945 55.8467 29.0791 55.7703 28.8273 55.6911C28.7337 55.7952 28.6723 55.7647 28.6431 55.5993C28.6124 55.6299 28.5817 55.6605 28.551 55.6911C28.4063 55.4686 28.2068 55.3462 27.9524 55.3238C27.9661 55.2272 27.9508 55.1354 27.9063 55.0483C27.8756 55.0789 27.8449 55.1096 27.8142 55.1402C27.5929 54.8585 27.3166 54.6443 26.9853 54.4974C26.9546 54.528 26.9239 54.5586 26.8932 54.5892C26.5087 54.1596 26.0789 53.7923 25.6038 53.4873C25.5019 53.5986 25.4558 53.568 25.4657 53.3955C27.3346 52.6528 28.9771 51.5509 30.393 50.0898C30.3828 51.4518 30.3367 52.8138 30.2549 54.176C30.2593 54.8067 30.3053 55.4342 30.393 56.0584C30.6157 56.7552 31.0915 57.1225 31.8206 57.1603C32.778 57.0369 33.7297 56.8839 34.6757 56.7012Z" fill="#C21FAA"/>
<path opacity="0.878" fill-rule="evenodd" clip-rule="evenodd" d="M52.2666 48.3457C52.3256 48.4359 52.3869 48.5277 52.4508 48.6212C52.2926 48.9256 52.3541 49.0174 52.635 48.8966C51.1142 50.9032 49.4257 52.7702 47.5695 54.4979C47.3575 54.2526 47.3268 53.9771 47.4774 53.6715C49.2444 52.0331 50.8408 50.2578 52.2666 48.3457Z" fill="#7F23BC"/>
<path opacity="0.997" fill-rule="evenodd" clip-rule="evenodd" d="M25.4656 53.3965C25.4557 53.569 25.5018 53.5996 25.6037 53.4883C26.0788 53.7933 26.5086 54.1606 26.8931 54.5902C26.9238 54.5596 26.9546 54.5289 26.9852 54.4984C27.3165 54.6453 27.5928 54.8595 27.8141 55.1411C27.8448 55.1106 27.8756 55.0799 27.9062 55.0493C27.9507 55.1364 27.966 55.2282 27.9523 55.3248C28.2068 55.3472 28.4062 55.4696 28.5509 55.6921C28.5816 55.6615 28.6124 55.6308 28.643 55.6003C28.6722 55.7656 28.7337 55.7962 28.8272 55.6921C29.079 55.7712 29.0944 55.8477 28.8733 55.9216C29.2423 56.0151 29.534 56.2141 29.7482 56.5185C29.7789 56.4879 29.8097 56.4573 29.8403 56.4267C29.8748 56.5108 29.9208 56.5874 29.9785 56.6562C30.3729 56.8504 30.726 57.1107 31.0376 57.4367C31.0683 57.4062 31.0991 57.3755 31.1297 57.3449C31.2805 57.557 31.4801 57.6948 31.7284 57.7581C32.1215 58.1903 32.5667 58.481 33.0638 58.6304C33.3486 59.0067 33.6863 59.3129 34.0769 59.5487C34.1076 59.5181 34.1384 59.4874 34.169 59.4569C34.3515 59.6549 34.5663 59.808 34.8137 59.916C34.9807 59.8141 35.0574 59.8754 35.044 60.0996C34.4602 60.2835 33.877 60.4671 33.2941 60.6506C33.207 60.5192 33.0996 60.3968 32.9717 60.2833C32.9411 60.3139 32.9103 60.3445 32.8796 60.3751C32.8029 60.2833 32.7261 60.1915 32.6494 60.0996C32.5954 60.1188 32.5494 60.1495 32.5112 60.1915C32.2754 59.9949 32.0604 59.7807 31.8665 59.5487C31.8284 59.5906 31.7823 59.6213 31.7284 59.6405C31.6381 59.5045 31.5306 59.382 31.406 59.2732C31.3754 59.3038 31.3446 59.3345 31.3139 59.365C31.1924 59.1826 31.0236 59.0754 30.8074 59.0437C30.8688 59.0131 30.9301 58.9824 30.9916 58.9518C30.6907 58.9576 30.4911 58.8199 30.3929 58.5386C30.2733 58.5814 30.1351 58.5814 29.9785 58.5386C29.9987 58.4307 29.968 58.3389 29.8864 58.2632C29.6093 58.0945 29.333 57.9262 29.0575 57.7581C28.9469 57.6752 28.8701 57.5681 28.8272 57.4367C28.7966 57.4673 28.7658 57.498 28.7351 57.5286C28.4098 57.1944 28.0568 56.9649 27.676 56.8399C27.7067 56.8093 27.7374 56.7786 27.7681 56.7481C27.3568 56.4952 26.973 56.2044 26.6168 55.8757C26.5862 55.937 26.5554 55.9981 26.5247 56.0594C26.1278 55.6539 25.6827 55.3019 25.1893 55.0034C25.102 54.9591 25.0099 54.9438 24.913 54.9575C24.9264 54.7333 24.8497 54.672 24.6827 54.7738C24.5594 54.5357 24.3598 54.3979 24.0841 54.3606C24.1148 54.3301 24.1455 54.2994 24.1762 54.2688C23.9927 54.2161 23.8546 54.1089 23.7617 53.9474C23.7311 53.978 23.7003 54.0087 23.6696 54.0393C23.5041 53.9016 23.3352 53.7639 23.1631 53.626C23.3664 53.6085 23.5506 53.5626 23.7157 53.4883C24.3001 53.4743 24.8833 53.4437 25.4656 53.3965Z" fill="#CA1BA6"/>
<path opacity="0.985" fill-rule="evenodd" clip-rule="evenodd" d="M37.2542 52.2939C37.3892 52.3717 37.4661 52.4941 37.4845 52.6612C37.5151 52.6307 37.5459 52.6 37.5766 52.5694C37.7301 52.7225 37.8835 52.8755 38.0371 53.0285C38.0989 52.9595 38.1756 52.9288 38.2673 52.9367C38.1685 53.4523 38.1531 53.9727 38.2213 54.4977C38.2768 54.9271 38.4456 55.2944 38.7278 55.5996C39.5227 56.5648 40.3055 56.5342 41.0764 55.5078C41.1461 55.3411 41.2228 55.1881 41.3066 55.0487C41.3352 55.1623 41.3812 55.1623 41.4448 55.0487C41.4778 55.3282 41.5393 55.3588 41.629 55.1405C41.6904 55.2629 41.7517 55.3854 41.8132 55.5078C41.9594 55.2812 42.1283 55.2659 42.3197 55.4619C42.0394 55.4948 42.0086 55.5561 42.2276 55.6455C42.1662 55.6761 42.1049 55.7068 42.0434 55.7373C42.298 55.7862 42.5435 55.8628 42.7802 55.9669C42.8221 56.2396 42.9295 56.5151 43.1026 56.7933C43.1582 56.5926 43.2656 56.5773 43.4249 56.7474C43.3943 56.778 43.3635 56.8087 43.3328 56.8392C43.4519 56.8842 43.5748 56.8996 43.7012 56.8851C42.8055 57.2696 41.8845 57.6062 40.9382 57.8952C40.8556 57.7944 40.7789 57.7944 40.708 57.8952C40.5594 57.6861 40.3598 57.5484 40.1093 57.482C40.0457 57.384 39.9996 57.2769 39.9712 57.1606C39.8484 57.1606 39.7255 57.1606 39.6028 57.1606C39.4578 57.0243 39.335 56.8713 39.2344 56.7015C39.0674 56.8033 38.9907 56.7421 39.0041 56.5178C38.9072 56.5315 38.8151 56.5163 38.7278 56.4719C38.1837 56.0063 37.6003 55.5931 36.9779 55.2323C36.887 54.9322 36.8564 54.6261 36.8858 54.3141C36.8919 53.6169 37.0148 52.9436 37.2542 52.2939Z" fill="#A920B0"/>
<path opacity="0.991" fill-rule="evenodd" clip-rule="evenodd" d="M42.6883 52.5691C42.845 53.262 42.9064 53.966 42.8725 54.681C44.4081 54.3442 45.9431 54.0075 47.4775 53.671C47.3269 53.9765 47.3576 54.252 47.5696 54.4974C45.027 56.9719 42.2947 59.2064 39.3727 61.2005C39.2554 61.1373 39.2554 61.0607 39.3727 60.971C39.342 60.9556 39.3113 60.9404 39.2806 60.925C39.2114 61.0055 39.1654 61.0973 39.1424 61.2005C39.0474 61.0603 38.9399 60.9379 38.8201 60.8332C40.5704 59.6253 42.2589 58.3244 43.8856 56.9307C43.8309 56.8881 43.7695 56.8728 43.7014 56.8848C43.5749 56.8992 43.4521 56.8839 43.333 56.8389C43.3637 56.8083 43.3944 56.7776 43.4251 56.7471C43.2658 56.577 43.1584 56.5922 43.1027 56.793C42.9297 56.5147 42.8223 56.2393 42.7804 55.9666C42.5437 55.8624 42.2982 55.7858 42.0436 55.737C42.105 55.7064 42.1664 55.6757 42.2278 55.6452C42.0088 55.5557 42.0395 55.4945 42.3199 55.4615C42.1285 55.2656 41.9596 55.2808 41.8133 55.5074C41.7519 55.385 41.6906 55.2625 41.6291 55.1401C41.5394 55.3585 41.478 55.3278 41.4449 55.0483C41.3814 55.162 41.3353 55.162 41.3068 55.0483C41.4487 54.6016 41.5101 54.1425 41.491 53.671C41.6092 53.0868 41.5017 52.5358 41.1686 52.0181C40.8116 51.3864 40.2744 51.1262 39.5569 51.2376C38.8715 51.609 38.4417 52.1751 38.2675 52.9364C38.1758 52.9285 38.099 52.9591 38.0372 53.0282C37.8837 52.8751 37.7303 52.7221 37.5767 52.5691C37.5461 52.5996 37.5153 52.6303 37.4846 52.6609C37.4662 52.4938 37.3894 52.3714 37.2544 52.2936C37.9555 50.2759 39.3063 49.6178 41.3068 50.3194C41.9881 50.9488 42.4486 51.6987 42.6883 52.5691Z" fill="#9A21B4"/>
<path opacity="0.989" fill-rule="evenodd" clip-rule="evenodd" d="M36.8859 54.3135C36.8565 54.6255 36.8871 54.9316 36.978 55.2317C37.6004 55.5925 38.1838 56.0057 38.7279 56.4713C38.8152 56.5157 38.9073 56.5309 39.0042 56.5173C38.9908 56.7415 39.0675 56.8027 39.2345 56.7009C39.3351 56.8707 39.4579 57.0238 39.6029 57.16C39.7257 57.16 39.8485 57.16 39.9713 57.16C39.9997 57.2763 40.0458 57.3834 40.1094 57.4814C40.3599 57.5478 40.5595 57.6855 40.7081 57.8946C40.779 57.7938 40.8557 57.7938 40.9383 57.8946C39.8655 58.3636 38.7603 58.7614 37.6227 59.0883C37.6148 58.9969 37.6456 58.9204 37.7148 58.8588C37.6274 58.8021 37.5507 58.8173 37.4846 58.9047C37.4539 58.8128 37.4232 58.721 37.3925 58.6292C37.3618 58.6598 37.3311 58.6904 37.3004 58.721C36.9473 58.4621 36.5942 58.1866 36.2412 57.8946C36.124 57.9172 36.0165 57.9172 35.9189 57.8946C35.8652 57.7567 35.7885 57.6343 35.6886 57.5273C35.3844 57.4321 35.1542 57.2484 34.9979 56.9764C34.9672 57.0069 34.9365 57.0376 34.9058 57.0682C34.8049 56.9586 34.7282 56.8362 34.6755 56.7009C35.3781 56.5644 36.0688 56.3807 36.7478 56.15C36.7636 55.5213 36.8097 54.9091 36.8859 54.3135Z" fill="#B722AE"/>
<path opacity="0.901" fill-rule="evenodd" clip-rule="evenodd" d="M38.8202 60.833C38.94 60.9377 39.0475 61.0601 39.1425 61.2003C39.1655 61.0971 39.2115 61.0053 39.2807 60.9248C39.3113 60.9402 39.3421 60.9554 39.3728 60.9707C39.2554 61.0605 39.2554 61.137 39.3728 61.2003C38.2947 61.9679 37.1895 62.7025 36.0572 63.4041C35.9979 63.1613 35.8443 63.0082 35.5967 62.945C36.6836 62.265 37.7581 61.5611 38.8202 60.833Z" fill="#B61CAC"/>
<path opacity="0.933" fill-rule="evenodd" clip-rule="evenodd" d="M35.5967 62.9453C35.8443 63.0086 35.9978 63.1616 36.0572 63.4044C34.5469 64.349 32.9966 65.2366 31.4061 66.0673C31.2862 66.0136 31.1787 65.9525 31.0838 65.8837C30.8973 65.7391 30.7131 65.5707 30.5312 65.3786C30.5618 65.3481 30.5926 65.3174 30.6233 65.2868C30.4817 65.1849 30.4204 65.0472 30.4391 64.8736C30.7436 65.0254 31.0506 65.1785 31.3601 65.3327C32.8047 64.5823 34.2168 63.7865 35.5967 62.9453Z" fill="#C71AA7"/>
</svg>
