<svg width="38" height="14" viewBox="0 0 38 14" fill="none" xmlns="http://www.w3.org/2000/svg">
<g opacity="0.5" clip-path="url(#clip0_3001_58397)">
<path d="M6.47501 0.991926C6.74035 0.991926 6.95441 0.770473 6.95441 0.495963C6.95441 0.221453 6.74035 0 6.47501 0C6.20967 0 5.99561 0.221453 5.99561 0.495963C5.99561 0.770473 6.20967 0.991926 6.47501 0.991926Z" fill="#343A60"/>
<path d="M16.7744 8.51442H15.5859L17.1936 0L19.8537 6.14994L22.5406 0L23.9855 8.51442H22.7971L22.0189 3.74394L19.7958 8.59285L17.5883 3.73472L16.7766 8.51442H16.7744Z" fill="#343A60"/>
<path d="M24.6034 0.0807382H25.8699L27.8879 5.38178L29.9504 0L31.9438 5.38178L34.0309 0.0876586H35.2974L31.8747 8.51211L29.8813 2.90196L27.8633 8.51211L24.6034 0.0807382Z" fill="#343A60"/>
<path d="M36.8274 0H38.0003V8.51442H36.8274V0Z" fill="#343A60"/>
<path fill-rule="evenodd" clip-rule="evenodd" d="M16.5448 13.3006C16.828 13.3006 17.0153 13.1668 17.0755 13.0606V13.2729H17.3497V10.7861H17.0755V11.635C16.9729 11.5289 16.8101 11.4574 16.5626 11.4574C16.0921 11.4574 15.6997 11.838 15.6997 12.3871C15.6997 12.9361 16.0498 13.2982 16.547 13.2982L16.5448 13.3006ZM17.0755 11.9741V12.6916C17.0064 12.8323 16.8369 13.0283 16.5782 13.0283C16.2371 13.0283 15.9873 12.7884 15.9873 12.3824C15.9873 11.9764 16.2705 11.7273 16.5938 11.7273C16.8168 11.7273 16.9707 11.815 17.0733 11.9741H17.0755Z" fill="#343A60"/>
<path fill-rule="evenodd" clip-rule="evenodd" d="M18.1858 10.9203C18.1858 10.8235 18.1078 10.752 18.0141 10.752C17.9115 10.752 17.8335 10.8235 17.8335 10.9203C17.8335 11.0265 17.9115 11.098 18.0141 11.098C18.1078 11.098 18.1858 11.0265 18.1858 10.9203ZM18.1434 11.4947H17.8692V13.2733H18.1434V11.4947Z" fill="#343A60"/>
<path fill-rule="evenodd" clip-rule="evenodd" d="M19.4527 13.9839C19.8897 13.9839 20.222 13.737 20.222 13.135V11.4879H19.9388V11.6471C19.8607 11.5502 19.6824 11.4533 19.4259 11.4533C18.9555 11.4533 18.5697 11.7993 18.5697 12.3737C18.5697 12.9481 18.9109 13.2941 19.4259 13.2941C19.7158 13.2941 19.8362 13.2065 19.9477 13.0727V13.1788C19.9477 13.5064 19.776 13.7001 19.4438 13.7001C19.1695 13.7001 19.0067 13.5663 18.9398 13.4349L18.6923 13.5502C18.786 13.8155 19.0781 13.9839 19.4527 13.9839ZM19.9499 11.9839V12.7013C19.8897 12.8697 19.718 13.0381 19.4705 13.0289C19.1026 13.0289 18.864 12.7889 18.864 12.383C18.864 11.977 19.1472 11.7278 19.4705 11.7278C19.7024 11.7278 19.8719 11.8432 19.9499 11.9839Z" fill="#343A60"/>
<path fill-rule="evenodd" clip-rule="evenodd" d="M21.0606 10.9203C21.0606 10.8235 20.9825 10.752 20.8889 10.752C20.7863 10.752 20.7083 10.8235 20.7083 10.9203C20.7083 11.0265 20.7863 11.098 20.8889 11.098C20.9825 11.098 21.0606 11.0265 21.0606 10.9203ZM21.0182 11.4947H20.7439V13.2733H21.0182V11.4947Z" fill="#343A60"/>
<path d="M21.3611 11.4971H21.7201V11.045H21.9944V11.4971H22.5853V11.7716H21.9944V12.5513C21.9944 12.9043 22.088 13.0196 22.2932 13.0196C22.4136 13.0196 22.5072 12.9666 22.6009 12.895L22.728 13.1073C22.6254 13.2226 22.4537 13.2941 22.2397 13.2941C21.9052 13.2941 21.7179 13.0634 21.7179 12.6205V11.7716H21.3589V11.4971H21.3611Z" fill="#343A60"/>
<path fill-rule="evenodd" clip-rule="evenodd" d="M23.6876 11.4515C23.4401 11.4515 23.1659 11.5576 23.0031 11.7076L23.1391 11.9198C23.3019 11.7952 23.4557 11.726 23.652 11.726C24.011 11.726 24.1135 11.9383 24.1135 12.2566C24.0288 12.2312 23.8393 12.2035 23.7122 12.2035C23.2171 12.2035 22.8916 12.3627 22.8916 12.7526C22.8916 13.0801 23.1391 13.2924 23.5159 13.2924C23.8147 13.2924 24.0132 13.1586 24.1158 13.0086V13.2739H24.39V12.1666C24.39 11.7145 24.1514 11.4492 23.6876 11.4492V11.4515ZM24.1158 12.5127V12.6903C24.0555 12.831 23.8682 13.0363 23.5761 13.0363C23.3442 13.0363 23.1837 12.9302 23.1837 12.7433C23.1837 12.5311 23.3978 12.4596 23.7478 12.4596C23.8839 12.4596 24.031 12.485 24.1158 12.5127Z" fill="#343A60"/>
<path d="M24.8844 10.7793H25.1587V13.2753H24.8844V10.7793Z" fill="#343A60"/>
<path fill-rule="evenodd" clip-rule="evenodd" d="M27.4183 11.4506C27.1708 11.4506 26.8966 11.5567 26.7338 11.7067L26.8698 11.9189C27.0326 11.7943 27.1865 11.7251 27.3827 11.7251C27.7417 11.7251 27.8442 11.9373 27.8442 12.2557C27.7595 12.2303 27.57 12.2026 27.4429 12.2026C26.9479 12.2026 26.6223 12.3618 26.6223 12.7516C26.6223 13.0792 26.8698 13.2914 27.2467 13.2914C27.5454 13.2914 27.7417 13.1576 27.8442 13.0077V13.273H28.1185V12.1657C28.1185 11.7136 27.8799 11.4483 27.4161 11.4483L27.4183 11.4506ZM27.8465 12.5117V12.6894C27.7863 12.8301 27.599 13.0354 27.3069 13.0354C27.0772 13.0354 26.9144 12.9293 26.9144 12.7424C26.9144 12.5302 27.1285 12.4587 27.4786 12.4587C27.6146 12.4587 27.7617 12.4841 27.8465 12.5117Z" fill="#343A60"/>
<path fill-rule="evenodd" clip-rule="evenodd" d="M29.3756 13.9839C29.8126 13.9839 30.1448 13.737 30.1448 13.135V11.4879H29.8616V11.6471C29.7836 11.5502 29.6052 11.4533 29.3488 11.4533C28.8783 11.4533 28.4926 11.7993 28.4926 12.3737C28.4926 12.9481 28.8359 13.2941 29.3488 13.2941C29.6387 13.2941 29.7591 13.2065 29.8706 13.0727V13.1788C29.8706 13.5064 29.6989 13.7001 29.3666 13.7001C29.0924 13.7001 28.9296 13.5663 28.8627 13.4349L28.6152 13.5502C28.7088 13.8155 29.0009 13.9839 29.3756 13.9839ZM29.8639 11.9839V12.7013C29.8126 12.8697 29.6409 13.0381 29.3845 13.0289C29.0166 13.0289 28.778 12.7889 28.778 12.383C28.778 11.977 29.0611 11.7278 29.3845 11.7278C29.6164 11.7278 29.7858 11.8432 29.8639 11.9839Z" fill="#343A60"/>
<path fill-rule="evenodd" clip-rule="evenodd" d="M31.4476 13.3102C31.7308 13.3102 31.9693 13.1856 32.1321 12.9388L31.9515 12.7704C31.8489 12.9204 31.6616 13.0357 31.4543 13.0357C31.1042 13.0357 30.8478 12.8419 30.8299 12.4774H32.1812C32.199 12.3967 32.199 12.3275 32.199 12.2652C32.199 11.7693 31.8556 11.4601 31.403 11.4601C30.8299 11.4601 30.5311 11.8661 30.5311 12.3898C30.5311 12.948 30.899 13.3102 31.4476 13.3102ZM31.9091 12.2214H30.8232C30.8656 11.9284 31.0707 11.7162 31.3874 11.7254C31.6951 11.7254 31.8913 11.9031 31.9091 12.2214Z" fill="#343A60"/>
<path d="M32.5833 11.4975H32.8575V11.7282C32.969 11.5505 33.2009 11.4629 33.4484 11.4629C33.8944 11.4629 34.1419 11.7028 34.1419 12.268V13.276H33.8676V12.3026C33.8676 11.9127 33.7048 11.7351 33.3637 11.7351C33.1496 11.7351 32.9534 11.8758 32.8597 12.0973V13.2737H32.5855V11.4952L32.5833 11.4975Z" fill="#343A60"/>
<path d="M36.1424 12.9043C36.0154 13.1603 35.7054 13.3034 35.4334 13.3034C34.8849 13.3034 34.5192 12.9412 34.5192 12.383C34.5192 11.8616 34.8782 11.4533 35.4178 11.4533C35.7255 11.4533 35.9997 11.594 36.1112 11.8155L35.8972 11.9654C35.7768 11.797 35.6318 11.7255 35.4178 11.7255C35.0677 11.7255 34.8023 12 34.8023 12.3806C34.8023 12.7613 35.0588 13.0358 35.4534 13.0358C35.6586 13.0358 35.8303 12.9297 35.9328 12.7613L36.1469 12.902L36.1424 12.9043Z" fill="#343A60"/>
<path d="M36.5797 13.6996C36.6042 13.7089 36.622 13.7181 36.6488 13.7181C36.7759 13.7181 36.8629 13.6304 36.9833 13.3467L37.0346 13.2129L36.2051 11.5059H36.5306L37.1728 12.8507L37.6611 11.5059H37.9599L37.3088 13.259C37.0769 13.8611 36.8985 14.0018 36.6577 14.0018C36.5886 14.0018 36.5217 13.9834 36.4704 13.958L36.5819 13.7019L36.5797 13.6996Z" fill="#343A60"/>
<path d="M10.6575 8.50495H12.5305L12.9586 7.76216H10.1602L8.93607 11.2847L8.15787 9.83367L6.83115 12.3389V1.61914H6.11316V13.8937H6.83115L8.15787 11.2731L8.97843 13.0517L9.17465 12.5119L9.34635 12.0528" fill="#343A60"/>
<path d="M2.30114 7.00808H0.4192L0 7.75087H2.79838L4.02253 4.21915L4.79181 5.67936L6.11853 3.17417V13.8916H6.84544V1.61938H6.11853L4.80073 4.23992L3.98017 2.46137L3.78395 3.00116H3.77503L3.61225 3.45329V3.46252" fill="#343A60"/>
</g>
<defs>
<clipPath id="clip0_3001_58397">
<rect width="38" height="14" fill="white"/>
</clipPath>
</defs>
</svg>
