<svg width="17" height="17" viewBox="0 0 17 17" fill="none" xmlns="http://www.w3.org/2000/svg">
<path d="M8 15C11.866 15 15 11.866 15 8C15 4.13401 11.866 1 8 1C4.13401 1 1 4.13401 1 8C1 11.866 4.13401 15 8 15Z" stroke="#3068F7" stroke-linecap="round" stroke-linejoin="round"/>
<path d="M6 6.33532C6.16131 5.8901 6.47969 5.51467 6.89877 5.27553C7.31784 5.0364 7.81056 4.94898 8.28966 5.02877C8.76875 5.10856 9.2033 5.35041 9.51635 5.71147C9.82939 6.07254 10.0007 6.52952 10 7.00149C10 8.33383 7.94168 9 7.94168 9" stroke="#3068F7" stroke-linecap="round" stroke-linejoin="round"/>
<path d="M9 12H9.00708" stroke="#3068F7" stroke-linecap="round" stroke-linejoin="round"/>
</svg>
