<svg width="25" height="24" viewBox="0 0 25 24" fill="none" xmlns="http://www.w3.org/2000/svg">
<path d="M15.0621 10.164L11.3773 4.16405C11.0893 3.69452 10.6505 3.33621 10.1323 3.14753C9.61418 2.95885 9.04728 2.95093 8.52404 3.12505L10.7952 10.429L7.1986 10.757L5.45838 8.63405H3.00586L4.53869 12L3.00586 15.366H5.45838L7.1986 13.243L10.7952 13.571L8.52504 20.875C9.04804 21.049 9.61463 21.0411 10.1326 20.8526C10.6505 20.6641 11.0892 20.3062 11.3773 19.837L15.0621 13.836H18.3251C19.6947 13.8359 21.0333 13.4297 22.1712 12.669L22.1913 12.655C22.2987 12.5827 22.3867 12.4852 22.4476 12.371C22.5084 12.2568 22.5402 12.1294 22.5402 12C22.5402 11.8707 22.5084 11.7433 22.4476 11.6291C22.3867 11.5149 22.2987 11.4174 22.1913 11.345L22.1712 11.331C21.0333 10.5703 19.6947 10.1642 18.3251 10.164H15.0621Z" fill="#3068F7"/>
</svg>
