<svg width="24" height="24" viewBox="0 0 24 24" fill="none" xmlns="http://www.w3.org/2000/svg">
<path d="M11.8258 16.5C13.0758 16.5 14.1388 16.063 15.0138 15.188C15.8888 14.313 16.3258 13.25 16.3258 12C16.3258 10.75 15.8888 9.687 15.0138 8.812C14.1388 7.937 13.0758 7.5 11.8258 7.5C10.5758 7.5 9.51283 7.937 8.63783 8.812C7.76283 9.687 7.32583 10.75 7.32583 12C7.32583 13.25 7.76283 14.313 8.63783 15.188C9.51283 16.063 10.5758 16.5 11.8258 16.5ZM11.8258 14.7C11.0758 14.7 10.4388 14.437 9.91383 13.912C9.65872 13.6641 9.45717 13.3665 9.32163 13.0377C9.1861 12.7088 9.11945 12.3556 9.12583 12C9.12583 11.25 9.38883 10.612 9.91383 10.087C10.1619 9.83217 10.4595 9.63087 10.7883 9.49551C11.1172 9.36016 11.4703 9.29362 11.8258 9.3C12.5758 9.3 13.2138 9.562 13.7388 10.087C14.2638 10.612 14.5258 11.25 14.5258 12C14.5258 12.75 14.2638 13.387 13.7388 13.912C13.4907 14.167 13.1929 14.3685 12.8639 14.5041C12.5349 14.6396 12.1816 14.7063 11.8258 14.7ZM11.8258 19.5C9.50883 19.5 7.39283 18.888 5.47583 17.663C3.55883 16.438 2.10883 14.783 1.12583 12.7C1.07154 12.6036 1.03751 12.4971 1.02583 12.387C0.991391 12.1298 0.991391 11.8692 1.02583 11.612C1.03759 11.5023 1.07161 11.3961 1.12583 11.3C2.10883 9.217 3.55883 7.563 5.47583 6.338C7.39283 5.113 9.50883 4.5 11.8258 4.5C14.1428 4.5 16.2588 5.113 18.1758 6.338C20.0928 7.563 21.5428 9.217 22.5258 11.3C22.5758 11.383 22.6088 11.487 22.6258 11.612C22.6601 11.8692 22.6601 12.1298 22.6258 12.387C22.6141 12.4971 22.5801 12.6036 22.5258 12.7C21.5428 14.783 20.0928 16.438 18.1758 17.663C16.2588 18.888 14.1428 19.5 11.8258 19.5Z" fill="#3068F7"/>
</svg>
