<svg width="24" height="24" viewBox="0 0 24 24" fill="none" xmlns="http://www.w3.org/2000/svg">
<path d="M19.1249 17.0109L15.9249 13.8109C16.0555 13.5352 16.1561 13.2462 16.2249 12.9489C16.2919 12.6569 16.3249 12.3449 16.3249 12.0109C16.3249 10.7609 15.8879 9.69888 15.0129 8.82289C14.1379 7.94888 13.0749 7.51089 11.8249 7.51089C11.4919 7.51089 11.1789 7.54489 10.8869 7.61089C10.5896 7.67962 10.3006 7.7802 10.0249 7.91088L7.47489 5.36089C8.15211 5.07941 8.85554 4.8657 9.57489 4.72289C10.3162 4.57922 11.0698 4.50821 11.8249 4.51089C14.2079 4.51089 16.3499 5.14088 18.2499 6.39788C20.1499 7.65788 21.5749 9.29489 22.5249 11.3119C22.5749 11.3949 22.6079 11.4989 22.6249 11.6239C22.6419 11.7489 22.6499 11.8779 22.6499 12.0109C22.6506 12.2498 22.6083 12.487 22.5249 12.7109C22.1419 13.5609 21.6629 14.3529 21.0879 15.0859C20.5209 15.811 19.8609 16.4582 19.1249 17.0109ZM18.9249 22.4109L15.4249 18.9609C14.8419 19.1449 14.2549 19.2829 13.6629 19.3749C13.0709 19.4649 12.4579 19.5109 11.8249 19.5109C9.44189 19.5109 7.29989 18.8829 5.39989 17.6249C3.49989 16.3649 2.07489 14.7279 1.12489 12.7109C1.0706 12.6144 1.03657 12.5079 1.02489 12.3979C0.991704 12.1453 0.991704 11.8895 1.02489 11.6369C1.03782 11.5312 1.07183 11.4292 1.12489 11.3369C1.47489 10.5869 1.89189 9.89488 2.37489 9.26088C2.85503 8.63105 3.39049 8.04539 3.97489 7.51089L1.89989 5.41088C1.8095 5.32106 1.73846 5.21368 1.69117 5.09535C1.64387 4.97703 1.62131 4.85026 1.62489 4.72289C1.62489 4.44889 1.72489 4.21089 1.92489 4.01089C2.01664 3.91972 2.12607 3.84829 2.24645 3.801C2.36683 3.75371 2.49562 3.73155 2.62489 3.73589C2.75414 3.73166 2.88289 3.75388 3.00326 3.80117C3.12363 3.84845 3.23307 3.91982 3.32489 4.01089L20.3249 21.0109C20.5078 21.1933 20.6113 21.4406 20.6129 21.6989C20.6182 21.8312 20.5953 21.9632 20.5456 22.0859C20.496 22.2087 20.4207 22.3195 20.3249 22.4109C20.2331 22.5021 20.1237 22.5735 20.0033 22.6208C19.8829 22.6681 19.7542 22.6902 19.6249 22.6859C19.4956 22.6902 19.3668 22.6681 19.2465 22.6208C19.1261 22.5735 19.0166 22.5021 18.9249 22.4109ZM11.8249 16.5109C12.0079 16.5109 12.1789 16.5029 12.3369 16.4869C12.4959 16.4699 12.6669 16.4369 12.8499 16.3869L7.44989 10.9869C7.39989 11.1699 7.36689 11.3409 7.34989 11.4989C7.33262 11.669 7.32427 11.8399 7.32489 12.0109C7.32489 13.2609 7.76189 14.3239 8.63689 15.1989C9.51189 16.0739 10.5749 16.5109 11.8249 16.5109ZM14.4749 12.3609L11.4749 9.36089C12.4249 9.21089 13.1999 9.47789 13.7999 10.1609C14.3999 10.8449 14.6249 11.5779 14.4749 12.3609Z" fill="#3068F7"/>
</svg>
