<svg width="17" height="17" viewBox="0 0 17 17" fill="none" xmlns="http://www.w3.org/2000/svg">
<g clip-path="url(#clip0_1467_32384)">
<path d="M8.5013 15.5837C12.4133 15.5837 15.5846 12.4123 15.5846 8.50033C15.5846 4.58831 12.4133 1.41699 8.5013 1.41699C4.58929 1.41699 1.41797 4.58831 1.41797 8.50033C1.41797 12.4123 4.58929 15.5837 8.5013 15.5837Z" stroke="#3068F7" stroke-linecap="round" stroke-linejoin="round"/>
<path d="M6.4375 6.37492C6.60403 5.90151 6.93273 5.50232 7.36538 5.24805C7.79804 4.99378 8.30672 4.90083 8.80133 4.98567C9.29595 5.07051 9.74458 5.32766 10.0678 5.71158C10.3909 6.0955 10.5678 6.58141 10.5671 7.08325C10.5671 8.49992 8.44208 9.20825 8.44208 9.20825" stroke="#3068F7" stroke-linecap="round" stroke-linejoin="round"/>
<path d="M8.5 12.0417H8.50708" stroke="#3068F7" stroke-linecap="round" stroke-linejoin="round"/>
</g>
<defs>
<clipPath id="clip0_1467_32384">
<rect width="17" height="17" fill="white"/>
</clipPath>
</defs>
</svg>
