<svg width="33" height="33" viewBox="0 0 33 33" fill="none" xmlns="http://www.w3.org/2000/svg">
<rect width="32.6786" height="32.6786" rx="16.3393" fill="url(#paint0_linear_3020_63486)"/>
<path fill-rule="evenodd" clip-rule="evenodd" d="M25.6631 11.2534C25.8085 10.7942 25.6631 10.4568 24.9711 10.4568H22.6831C22.1013 10.4568 21.833 10.7483 21.6876 11.0697C21.6876 11.0697 20.5241 13.7559 18.8758 15.5008C18.3425 16.0059 18.1 16.1666 17.8092 16.1666C17.6637 16.1666 17.4456 16.0059 17.4456 15.5468V11.2534C17.4456 10.7024 17.2844 10.4568 16.7995 10.4568H13.204C12.8405 10.4568 12.6218 10.7125 12.6218 10.9549C12.6218 11.4773 13.4459 11.5978 13.5309 13.0672V16.2585C13.5309 16.9582 13.3975 17.085 13.1066 17.085C12.3309 17.085 10.4441 14.3868 9.32508 11.2993C9.10577 10.6992 8.88581 10.4568 8.30105 10.4568H6.013C5.35927 10.4568 5.22852 10.7483 5.22852 11.0697C5.22852 11.6437 6.00422 14.4906 8.8403 18.2559C10.731 20.8273 13.3949 22.2211 15.8189 22.2211C17.2733 22.2211 17.4532 21.9116 17.4532 21.3783V19.4348C17.4532 18.8157 17.591 18.6921 18.0516 18.6921C18.391 18.6921 18.9728 18.8528 20.3302 20.0926C21.8815 21.5621 22.1374 22.2211 23.01 22.2211H25.298C25.9517 22.2211 26.2786 21.9116 26.09 21.3006C25.8836 20.6918 25.143 19.8083 24.1602 18.761C23.6268 18.1641 22.8269 17.5212 22.5845 17.1998C22.2452 16.7865 22.3421 16.6028 22.5845 16.2355C22.5845 16.2355 25.3721 12.5161 25.6631 11.2534Z" fill="white"/>
<defs>
<linearGradient id="paint0_linear_3020_63486" x1="16.3393" y1="0" x2="16.3393" y2="32.6786" gradientUnits="userSpaceOnUse">
<stop stop-color="#65A1E6"/>
<stop offset="1" stop-color="#3975BA"/>
</linearGradient>
</defs>
</svg>
