<svg width="21" height="19" viewBox="0 0 21 19" fill="none" xmlns="http://www.w3.org/2000/svg">
<path d="M8.2452 1.84048C9.10654 0.613495 9.53721 0 10.1436 0C10.75 0 11.1807 0.613494 12.042 1.84048L12.3513 2.28101C13.2674 3.58605 13.7255 4.23857 14.3679 4.69424C15.0103 5.1499 15.7875 5.37356 17.3419 5.82092L17.8667 5.97192C19.3282 6.39252 20.0588 6.60281 20.2463 7.16584C20.4337 7.72888 19.969 8.31834 19.04 9.49725L18.7065 9.92052C17.7182 11.1744 17.224 11.8014 16.9786 12.5387C16.7333 13.2759 16.7555 14.0667 16.8001 15.6482L16.8152 16.1821C16.857 17.669 16.878 18.4125 16.3873 18.7604C15.8968 19.1085 15.1791 18.8593 13.7434 18.3608L13.228 18.182C11.7011 17.6518 10.9377 17.3868 10.1436 17.3868C9.34956 17.3868 8.58611 17.6518 7.0592 18.182L6.54379 18.3608C5.10822 18.8593 4.39043 19.1085 3.89984 18.7604C3.40925 18.4125 3.4302 17.669 3.47209 16.1821L3.48712 15.6482C3.53167 14.0667 3.55395 13.2759 3.30858 12.5387C3.0632 11.8014 2.56908 11.1744 1.58086 9.92052L1.24727 9.49726C0.318145 8.31834 -0.146418 7.72888 0.040969 7.16584C0.228358 6.60281 0.95909 6.39252 2.42055 5.97192L2.94527 5.82092C4.49971 5.37356 5.27693 5.1499 5.91934 4.69424C6.56173 4.23857 7.01981 3.58606 7.93594 2.28101L8.2452 1.84048Z" fill="#FED001"/>
</svg>
