<svg width="161" height="53" viewBox="0 0 161 53" fill="none" xmlns="http://www.w3.org/2000/svg">
<g clip-path="url(#clip0_3020_63514)">
<g clip-path="url(#clip1_3020_63514)">
<path d="M150.918 46.2577C153.963 46.2577 156.102 45.7164 157.703 44.5464V39.184C156.05 40.337 154.067 41.0528 151.318 41.0528C146.621 41.0528 144.691 37.4025 144.691 31.6562C144.691 25.6128 147.074 22.5213 151.37 22.5213C153.91 22.5213 156.381 23.3946 157.703 24.233V18.6439C156.328 17.8579 153.91 17.3164 150.657 17.3164C142.273 17.3164 137.906 23.3422 137.906 31.8134C137.906 41.1228 142.151 46.2577 150.918 46.2577ZM109.899 43.8301V38.4503C107.864 39.8479 104.437 41.0528 101.236 41.0528C96.4351 41.0528 94.6256 38.7997 94.3474 34.1364H110.178V30.6607C110.178 20.9668 105.933 17.3164 99.3576 17.3164C91.373 17.3164 87.5631 23.447 87.5631 31.8657C87.5631 41.5594 92.3121 46.2577 100.697 46.2577C104.872 46.2577 107.968 45.1574 109.899 43.8301ZM130.861 45.7164H138.289L127.764 30.9227L137.036 17.8579H130.409L121.154 30.9227V17.8579H114.579V45.7164H121.154V32.2497L130.861 45.7164ZM85.9627 40.5114H83.0402V17.8579H63.9049V20.2507C63.9049 27.0451 63.4701 35.8479 61.1567 40.5114H59.1037V52.0739H65.1747V45.7164H79.8918V52.0739H85.9627V40.5114ZM49.7974 17.8579V28.8789H41.0298V17.8579H34.4541V45.7164H41.0298V34.0839H49.7974V45.7164H56.3554V17.8579H49.7974ZM99.2532 22.5213C102.506 22.5213 103.498 25.2286 103.498 28.7217V29.2631H94.3474C94.5214 24.8443 96.1046 22.5213 99.2532 22.5213ZM76.4821 40.5114H67.2102C69.0367 36.3022 69.5412 28.7217 69.5412 23.9012V23.0628H76.4821V40.5114Z" fill="#040404"/>
<path d="M28.939 45.7177H22.2764V12.4445H19.3018C13.8395 12.4445 10.9692 15.2042 10.9692 19.3087C10.9692 23.9547 12.9523 26.1205 17.0403 28.8801L20.3977 31.1509L10.6909 45.7177H3.47168L12.1869 32.7052C7.15957 29.1072 4.35888 25.614 4.35888 19.693C4.35888 12.2699 9.47322 7.23963 19.2322 7.23963H28.939V45.7177Z" fill="#F3070B"/>
</g>
</g>
<defs>
<clipPath id="clip0_3020_63514">
<rect width="161" height="53" fill="white"/>
</clipPath>
<clipPath id="clip1_3020_63514">
<rect width="161.121" height="46.6404" fill="white" transform="translate(0.143066 6.49902)"/>
</clipPath>
</defs>
</svg>
