<svg width="183" height="60" viewBox="0 0 183 60" fill="none" xmlns="http://www.w3.org/2000/svg">
<g clip-path="url(#clip0_3020_63505)">
<path d="M0 0H59.0539V59.3605H0V0Z" fill="#19AA1E"/>
<path fill-rule="evenodd" clip-rule="evenodd" d="M0 0H59.0539V19.4771L0 10.2031V0Z" fill="#FFB919"/>
<path fill-rule="evenodd" clip-rule="evenodd" d="M0 52.8558L59.0539 43.5819V59.3421H0V52.8558Z" fill="#82D714"/>
<path fill-rule="evenodd" clip-rule="evenodd" d="M0 9.03604L20.6206 12.2792C23.1913 10.6394 26.2361 9.74662 29.5361 9.74662C34.0941 9.74662 38.1963 11.4593 41.1864 14.4838C41.5693 14.8664 41.9157 15.2673 42.2439 15.6681L59.0539 18.31V20.6603L43.9395 18.2918C45.0699 20.4599 45.6715 22.8832 45.6715 25.3246C45.6715 28.5131 44.9605 31.6834 43.5019 34.8537L43.4654 34.9448L42.8455 36.2748H41.3687C38.3422 36.2748 36.3184 37.1858 35.0057 38.8074C33.9665 40.0828 33.3831 41.7954 33.1825 43.6539V43.7085L33.146 44L33.1278 44.1276L33.1096 44.3827C33.0366 45.2208 32.982 45.9131 32.9637 46.4962L59.0722 42.3967V44.7471L0 54.0392V51.6889L26.1449 47.5894L26.1267 47.061V46.9152V46.8424V46.733C26.0902 45.9131 26.0355 45.0932 25.9443 44.2733L25.9261 44.0912L25.8896 43.7632C25.7073 41.8865 25.1057 40.1557 24.0847 38.862C22.7902 37.2405 20.7846 36.3113 17.7763 36.293H16.2266L15.6067 34.963C14.1117 31.738 13.3824 28.5496 13.3824 25.3246C13.3824 21.2798 15.0051 17.3808 17.8857 14.4838C17.9769 14.3927 18.0498 14.3198 18.141 14.2287L0 11.3682V9.03604Z" fill="white"/>
<path fill-rule="evenodd" clip-rule="evenodd" d="M29.5361 12.0623C37.777 12.0623 43.3743 18.4393 43.3743 25.3264C43.3743 28.0958 42.7727 30.9563 41.3688 33.9808C33.2555 33.9808 31.2499 39.8294 30.8671 43.4916L30.8488 43.7285C30.7212 45.0403 30.6483 46.0971 30.63 46.8805L28.424 47.2267V47.1538C28.424 46.3157 28.3328 45.1496 28.1869 43.6556V43.5827C27.8405 39.9205 25.8715 33.9626 17.6852 33.9626C16.2813 30.9563 15.6797 28.0776 15.6797 25.3082C15.6797 18.4393 21.277 12.0623 29.5361 12.0623Z" fill="#0073FA"/>
<path fill-rule="evenodd" clip-rule="evenodd" d="M86.8762 14.5408C79.7475 14.5408 74.4237 18.9682 74.4601 26.6752H81.0784C80.9873 23.5961 82.9016 20.608 86.8762 20.608C89.8845 20.608 91.7989 22.6669 91.7989 25.2723C91.7989 27.9871 89.7022 29.4811 86.3293 31.1573C81.8989 33.3437 79.2552 34.3823 74.4601 36.0038V44.8769H99.11V38.8097H83.4121C85.6912 37.8258 87.9337 36.7691 89.9392 35.7852C95.2813 33.1797 98.4354 30.2281 98.4354 24.9626C98.4354 18.6038 93.768 14.5408 86.8762 14.5408ZM109.156 21.0817H121.937V15.0145H102.775V44.8769H109.156V21.0817ZM131.983 15.0145H125.601V44.8769H131.946L143.852 25.8007V44.8769H150.233V15.0145H143.852L131.983 34.0907V15.0145ZM182.322 33.6717H175.703C174.7 36.9877 171.637 39.2652 168.028 39.2652C162.777 39.2652 159.349 34.6373 159.349 29.9366C159.349 25.2359 162.686 20.608 168.21 20.608C171.856 20.608 174.682 22.9037 175.703 26.2015H182.322C181.355 19.533 176.214 14.5408 168.028 14.5408C158.984 14.5408 152.968 21.0271 152.968 29.9366C152.968 38.8461 158.984 45.3324 168.028 45.3324C176.214 45.3507 181.355 40.4495 182.322 33.6717Z" fill="#262626"/>
</g>
<defs>
<clipPath id="clip0_3020_63505">
<rect width="182.321" height="59.3605" fill="white"/>
</clipPath>
</defs>
</svg>
