<svg width="27" height="27" viewBox="0 0 27 27" fill="none" xmlns="http://www.w3.org/2000/svg">
<circle opacity="0.2" cx="13.5" cy="13.5" r="13" stroke="#3068F7"/>
<mask id="path-2-inside-1_3047_25260" fill="white">
<path fill-rule="evenodd" clip-rule="evenodd" d="M22 14.0008C22 14.4208 21.664 14.7609 21.25 14.7609H19.935L20.405 15.2379C20.5458 15.3818 20.6246 15.5752 20.6246 15.7765C20.6246 15.9778 20.5458 16.1711 20.405 16.3151C20.3359 16.3856 20.2535 16.4416 20.1624 16.4798C20.0714 16.5181 19.9737 16.5378 19.875 16.5378C19.7763 16.5378 19.6786 16.5181 19.5876 16.4798C19.4966 16.4416 19.4141 16.3856 19.345 16.3151L17.815 14.7619H15.352L16.656 16.8801L18.764 17.3752C18.9592 17.4224 19.1279 17.5449 19.2334 17.7159C19.3388 17.8869 19.3724 18.0926 19.327 18.2883C19.3055 18.3849 19.2651 18.4763 19.2082 18.5573C19.1513 18.6383 19.079 18.7072 18.9953 18.7602C18.9117 18.8132 18.8185 18.8491 18.721 18.8659C18.6234 18.8828 18.5235 18.8802 18.427 18.8584L17.78 18.7063L18.476 19.8375C18.5815 20.0086 18.6155 20.2144 18.5708 20.4104C18.5261 20.6064 18.4062 20.7771 18.237 20.8856C18.1534 20.9381 18.0602 20.9735 17.9627 20.9898C17.8653 21.0061 17.7657 21.0029 17.6695 20.9803C17.5734 20.9578 17.4826 20.9165 17.4025 20.8587C17.3225 20.8009 17.2546 20.7278 17.203 20.6436L16.508 19.5114L16.358 20.1685C16.3364 20.2651 16.2959 20.3564 16.239 20.4373C16.182 20.5182 16.1097 20.5871 16.0261 20.6401C15.9425 20.693 15.8493 20.729 15.7519 20.7459C15.6544 20.7628 15.5545 20.7603 15.458 20.7386C15.2628 20.6913 15.0942 20.5688 14.9889 20.3978C14.8837 20.2268 14.8503 20.021 14.896 19.8255L15.384 17.6862L14 15.4379L12.616 17.6862L13.104 19.8265C13.1296 19.9372 13.13 20.0523 13.1052 20.1633C13.0805 20.2742 13.0312 20.3782 12.961 20.4677C12.8908 20.5571 12.8014 20.6296 12.6995 20.6799C12.5976 20.7303 12.4857 20.7572 12.372 20.7586C12.2015 20.7574 12.0365 20.6984 11.9038 20.5912C11.7712 20.484 11.6789 20.335 11.642 20.1685L11.492 19.5114L10.796 20.6436C10.7444 20.7276 10.6766 20.8006 10.5966 20.8583C10.5166 20.916 10.426 20.9574 10.3299 20.9799C10.2339 21.0024 10.1344 21.0056 10.0371 20.9894C9.93975 20.9733 9.84661 20.938 9.76302 20.8856C9.59379 20.7771 9.47392 20.6064 9.42923 20.4104C9.38453 20.2144 9.41857 20.0086 9.52402 19.8375L10.22 18.7073L9.57302 18.8574C9.47649 18.8792 9.37659 18.8818 9.27907 18.8649C9.18154 18.8481 9.08829 18.8122 9.00468 18.7592C8.92107 18.7062 8.84873 18.6373 8.79182 18.5563C8.7349 18.4753 8.69453 18.3839 8.67302 18.2873C8.62787 18.0917 8.66167 17.8863 8.76708 17.7155C8.87249 17.5447 9.041 17.4224 9.23602 17.3752L11.344 16.8801L12.647 14.7619H10.185L8.65502 16.3151C8.58593 16.3856 8.50347 16.4416 8.41247 16.4798C8.32146 16.5181 8.22374 16.5378 8.12502 16.5378C8.02631 16.5378 7.92858 16.5181 7.83758 16.4798C7.74657 16.4416 7.66411 16.3856 7.59502 16.3151C7.45424 16.1711 7.3754 15.9778 7.3754 15.7765C7.3754 15.5752 7.45424 15.3818 7.59502 15.2379L8.06502 14.7619H6.75002C6.65079 14.7612 6.55266 14.741 6.46124 14.7024C6.36983 14.6638 6.28692 14.6075 6.21726 14.5368C6.1476 14.4661 6.09256 14.3824 6.05529 14.2904C6.01801 14.1984 5.99923 14.1 6.00002 14.0008C6.00002 13.5807 6.33602 13.2387 6.75002 13.2387H8.06402L7.59402 12.7626C7.45354 12.6188 7.37489 12.4257 7.37489 12.2246C7.37489 12.0235 7.45354 11.8304 7.59402 11.6865C7.66326 11.6161 7.74583 11.5601 7.83691 11.522C7.92799 11.4838 8.02576 11.4641 8.12452 11.4641C8.22328 11.4641 8.32105 11.4838 8.41213 11.522C8.50321 11.5601 8.58578 11.6161 8.65502 11.6865L10.185 13.2387H12.648L11.343 11.1214L9.23402 10.6264C9.03915 10.5787 8.87095 10.4561 8.76593 10.2851C8.6609 10.1142 8.62751 9.90868 8.67302 9.71327C8.69454 9.61676 8.73488 9.52543 8.79172 9.44453C8.84857 9.36363 8.92081 9.29473 9.00431 9.24178C9.08782 9.18883 9.18094 9.15287 9.27835 9.13595C9.37576 9.11904 9.47556 9.1215 9.57202 9.1432L10.219 9.29522L9.52302 8.16408C9.41757 7.99291 9.38353 7.78717 9.42823 7.59115C9.47292 7.39512 9.59279 7.22448 9.76202 7.11596C9.84549 7.0629 9.93872 7.02703 10.0362 7.01048C10.1338 6.99392 10.2336 6.99701 10.3299 7.01955C10.4262 7.04209 10.517 7.08364 10.5971 7.14176C10.6771 7.19987 10.7448 7.27339 10.796 7.35799L11.492 8.49012L11.641 7.83304C11.6626 7.73649 11.7031 7.64515 11.76 7.56424C11.817 7.48333 11.8893 7.41443 11.9729 7.36149C12.0565 7.30855 12.1497 7.2726 12.2472 7.2557C12.3446 7.23879 12.4445 7.24127 12.541 7.26298C12.7362 7.31022 12.9048 7.43271 13.0101 7.60375C13.1154 7.77479 13.1488 7.98052 13.103 8.17609L12.615 10.3153L14 12.5646L15.384 10.3143L14.896 8.17609C14.8503 7.98052 14.8837 7.77479 14.9889 7.60375C15.0942 7.43271 15.2628 7.31022 15.458 7.26298C15.5545 7.24113 15.6544 7.23855 15.752 7.2554C15.8495 7.27224 15.9427 7.30818 16.0263 7.36114C16.11 7.4141 16.1823 7.48305 16.2392 7.56403C16.2961 7.64501 16.3365 7.73643 16.358 7.83304L16.508 8.49012L17.204 7.35799C17.2553 7.27352 17.3229 7.20013 17.4028 7.14211C17.4828 7.08408 17.5735 7.04258 17.6697 7.02005C17.7659 6.99751 17.8656 6.99438 17.963 7.01085C18.0604 7.02732 18.1536 7.06305 18.237 7.11596C18.4062 7.22448 18.5261 7.39512 18.5708 7.59115C18.6155 7.78717 18.5815 7.99291 18.476 8.16408L17.78 9.29422L18.427 9.1442C18.5235 9.12235 18.6234 9.11978 18.721 9.13662C18.8185 9.15347 18.9117 9.1894 18.9953 9.24236C19.079 9.29532 19.1513 9.36427 19.2082 9.44525C19.2651 9.52623 19.3055 9.61765 19.327 9.71427C19.3721 9.90981 19.3383 10.1153 19.2329 10.286C19.1275 10.4568 18.959 10.5791 18.764 10.6264L16.656 11.1214L15.352 13.2397H17.815L19.345 11.6875C19.4142 11.6172 19.4967 11.5614 19.5877 11.5233C19.6787 11.4852 19.7764 11.4656 19.875 11.4656C19.9736 11.4656 20.0713 11.4852 20.1623 11.5233C20.2533 11.5614 20.3358 11.6172 20.405 11.6875C20.5455 11.8314 20.6241 12.0245 20.6241 12.2256C20.6241 12.4267 20.5455 12.6198 20.405 12.7636L19.935 13.2397H21.25C21.664 13.2397 22 13.5807 22 14.0008Z"/>
</mask>
<path fill-rule="evenodd" clip-rule="evenodd" d="M22 14.0008C22 14.4208 21.664 14.7609 21.25 14.7609H19.935L20.405 15.2379C20.5458 15.3818 20.6246 15.5752 20.6246 15.7765C20.6246 15.9778 20.5458 16.1711 20.405 16.3151C20.3359 16.3856 20.2535 16.4416 20.1624 16.4798C20.0714 16.5181 19.9737 16.5378 19.875 16.5378C19.7763 16.5378 19.6786 16.5181 19.5876 16.4798C19.4966 16.4416 19.4141 16.3856 19.345 16.3151L17.815 14.7619H15.352L16.656 16.8801L18.764 17.3752C18.9592 17.4224 19.1279 17.5449 19.2334 17.7159C19.3388 17.8869 19.3724 18.0926 19.327 18.2883C19.3055 18.3849 19.2651 18.4763 19.2082 18.5573C19.1513 18.6383 19.079 18.7072 18.9953 18.7602C18.9117 18.8132 18.8185 18.8491 18.721 18.8659C18.6234 18.8828 18.5235 18.8802 18.427 18.8584L17.78 18.7063L18.476 19.8375C18.5815 20.0086 18.6155 20.2144 18.5708 20.4104C18.5261 20.6064 18.4062 20.7771 18.237 20.8856C18.1534 20.9381 18.0602 20.9735 17.9627 20.9898C17.8653 21.0061 17.7657 21.0029 17.6695 20.9803C17.5734 20.9578 17.4826 20.9165 17.4025 20.8587C17.3225 20.8009 17.2546 20.7278 17.203 20.6436L16.508 19.5114L16.358 20.1685C16.3364 20.2651 16.2959 20.3564 16.239 20.4373C16.182 20.5182 16.1097 20.5871 16.0261 20.6401C15.9425 20.693 15.8493 20.729 15.7519 20.7459C15.6544 20.7628 15.5545 20.7603 15.458 20.7386C15.2628 20.6913 15.0942 20.5688 14.9889 20.3978C14.8837 20.2268 14.8503 20.021 14.896 19.8255L15.384 17.6862L14 15.4379L12.616 17.6862L13.104 19.8265C13.1296 19.9372 13.13 20.0523 13.1052 20.1633C13.0805 20.2742 13.0312 20.3782 12.961 20.4677C12.8908 20.5571 12.8014 20.6296 12.6995 20.6799C12.5976 20.7303 12.4857 20.7572 12.372 20.7586C12.2015 20.7574 12.0365 20.6984 11.9038 20.5912C11.7712 20.484 11.6789 20.335 11.642 20.1685L11.492 19.5114L10.796 20.6436C10.7444 20.7276 10.6766 20.8006 10.5966 20.8583C10.5166 20.916 10.426 20.9574 10.3299 20.9799C10.2339 21.0024 10.1344 21.0056 10.0371 20.9894C9.93975 20.9733 9.84661 20.938 9.76302 20.8856C9.59379 20.7771 9.47392 20.6064 9.42923 20.4104C9.38453 20.2144 9.41857 20.0086 9.52402 19.8375L10.22 18.7073L9.57302 18.8574C9.47649 18.8792 9.37659 18.8818 9.27907 18.8649C9.18154 18.8481 9.08829 18.8122 9.00468 18.7592C8.92107 18.7062 8.84873 18.6373 8.79182 18.5563C8.7349 18.4753 8.69453 18.3839 8.67302 18.2873C8.62787 18.0917 8.66167 17.8863 8.76708 17.7155C8.87249 17.5447 9.041 17.4224 9.23602 17.3752L11.344 16.8801L12.647 14.7619H10.185L8.65502 16.3151C8.58593 16.3856 8.50347 16.4416 8.41247 16.4798C8.32146 16.5181 8.22374 16.5378 8.12502 16.5378C8.02631 16.5378 7.92858 16.5181 7.83758 16.4798C7.74657 16.4416 7.66411 16.3856 7.59502 16.3151C7.45424 16.1711 7.3754 15.9778 7.3754 15.7765C7.3754 15.5752 7.45424 15.3818 7.59502 15.2379L8.06502 14.7619H6.75002C6.65079 14.7612 6.55266 14.741 6.46124 14.7024C6.36983 14.6638 6.28692 14.6075 6.21726 14.5368C6.1476 14.4661 6.09256 14.3824 6.05529 14.2904C6.01801 14.1984 5.99923 14.1 6.00002 14.0008C6.00002 13.5807 6.33602 13.2387 6.75002 13.2387H8.06402L7.59402 12.7626C7.45354 12.6188 7.37489 12.4257 7.37489 12.2246C7.37489 12.0235 7.45354 11.8304 7.59402 11.6865C7.66326 11.6161 7.74583 11.5601 7.83691 11.522C7.92799 11.4838 8.02576 11.4641 8.12452 11.4641C8.22328 11.4641 8.32105 11.4838 8.41213 11.522C8.50321 11.5601 8.58578 11.6161 8.65502 11.6865L10.185 13.2387H12.648L11.343 11.1214L9.23402 10.6264C9.03915 10.5787 8.87095 10.4561 8.76593 10.2851C8.6609 10.1142 8.62751 9.90868 8.67302 9.71327C8.69454 9.61676 8.73488 9.52543 8.79172 9.44453C8.84857 9.36363 8.92081 9.29473 9.00431 9.24178C9.08782 9.18883 9.18094 9.15287 9.27835 9.13595C9.37576 9.11904 9.47556 9.1215 9.57202 9.1432L10.219 9.29522L9.52302 8.16408C9.41757 7.99291 9.38353 7.78717 9.42823 7.59115C9.47292 7.39512 9.59279 7.22448 9.76202 7.11596C9.84549 7.0629 9.93872 7.02703 10.0362 7.01048C10.1338 6.99392 10.2336 6.99701 10.3299 7.01955C10.4262 7.04209 10.517 7.08364 10.5971 7.14176C10.6771 7.19987 10.7448 7.27339 10.796 7.35799L11.492 8.49012L11.641 7.83304C11.6626 7.73649 11.7031 7.64515 11.76 7.56424C11.817 7.48333 11.8893 7.41443 11.9729 7.36149C12.0565 7.30855 12.1497 7.2726 12.2472 7.2557C12.3446 7.23879 12.4445 7.24127 12.541 7.26298C12.7362 7.31022 12.9048 7.43271 13.0101 7.60375C13.1154 7.77479 13.1488 7.98052 13.103 8.17609L12.615 10.3153L14 12.5646L15.384 10.3143L14.896 8.17609C14.8503 7.98052 14.8837 7.77479 14.9889 7.60375C15.0942 7.43271 15.2628 7.31022 15.458 7.26298C15.5545 7.24113 15.6544 7.23855 15.752 7.2554C15.8495 7.27224 15.9427 7.30818 16.0263 7.36114C16.11 7.4141 16.1823 7.48305 16.2392 7.56403C16.2961 7.64501 16.3365 7.73643 16.358 7.83304L16.508 8.49012L17.204 7.35799C17.2553 7.27352 17.3229 7.20013 17.4028 7.14211C17.4828 7.08408 17.5735 7.04258 17.6697 7.02005C17.7659 6.99751 17.8656 6.99438 17.963 7.01085C18.0604 7.02732 18.1536 7.06305 18.237 7.11596C18.4062 7.22448 18.5261 7.39512 18.5708 7.59115C18.6155 7.78717 18.5815 7.99291 18.476 8.16408L17.78 9.29422L18.427 9.1442C18.5235 9.12235 18.6234 9.11978 18.721 9.13662C18.8185 9.15347 18.9117 9.1894 18.9953 9.24236C19.079 9.29532 19.1513 9.36427 19.2082 9.44525C19.2651 9.52623 19.3055 9.61765 19.327 9.71427C19.3721 9.90981 19.3383 10.1153 19.2329 10.286C19.1275 10.4568 18.959 10.5791 18.764 10.6264L16.656 11.1214L15.352 13.2397H17.815L19.345 11.6875C19.4142 11.6172 19.4967 11.5614 19.5877 11.5233C19.6787 11.4852 19.7764 11.4656 19.875 11.4656C19.9736 11.4656 20.0713 11.4852 20.1623 11.5233C20.2533 11.5614 20.3358 11.6172 20.405 11.6875C20.5455 11.8314 20.6241 12.0245 20.6241 12.2256C20.6241 12.4267 20.5455 12.6198 20.405 12.7636L19.935 13.2397H21.25C21.664 13.2397 22 13.5807 22 14.0008Z" stroke="#3068F7" mask="url(#path-2-inside-1_3047_25260)"/>
</svg>
