<svg width="27" height="27" viewBox="0 0 27 27" fill="none" xmlns="http://www.w3.org/2000/svg">
<circle opacity="0.2" cx="13.5" cy="13.5" r="13" stroke="#3068F7"/>
<path d="M15.6826 8.42871C15.1645 8.5026 14.6341 8.77115 14.2021 9.20312C13.7708 9.63504 13.5019 10.1655 13.4277 10.6836C13.3537 11.2014 13.4736 11.7272 13.8486 12.1016C14.2229 12.4765 14.7493 12.5973 15.2676 12.5234C15.721 12.4588 16.184 12.2451 16.582 11.9033L16.748 11.749C17.1793 11.3166 17.4475 10.7856 17.5215 10.2676C17.5954 9.74971 17.4763 9.22384 17.1016 8.84961C16.7269 8.47498 16.2008 8.35488 15.6826 8.42871ZM13.2998 14.29L7.50488 8.49512C7.40702 8.39731 7.34056 8.2724 7.31348 8.13672C7.28644 8.0009 7.30052 7.85939 7.35352 7.73145C7.40656 7.60377 7.49635 7.49475 7.61133 7.41797C7.72643 7.34113 7.86161 7.29978 8 7.2998H20C20.1384 7.29983 20.2736 7.34112 20.3887 7.41797C20.5038 7.49489 20.5935 7.60453 20.6465 7.73242C20.6994 7.86026 20.7135 8.00102 20.6865 8.13672C20.6595 8.27242 20.5929 8.39726 20.4951 8.49512L14.7002 14.29V19.2998H17C17.1856 19.2998 17.3638 19.3736 17.4951 19.5049C17.6264 19.6362 17.7002 19.8143 17.7002 20C17.7002 20.1857 17.6264 20.3638 17.4951 20.4951C17.3638 20.6264 17.1856 20.7002 17 20.7002H11C10.8144 20.7002 10.6361 20.6264 10.5049 20.4951C10.3736 20.3638 10.2998 20.1856 10.2998 20C10.2998 19.8144 10.3736 19.6362 10.5049 19.5049C10.6361 19.3736 10.8144 19.2998 11 19.2998H13.2998V14.29Z" stroke="#3068F7" stroke-width="0.6"/>
</svg>
