<svg width="27" height="27" viewBox="0 0 27 27" fill="none" xmlns="http://www.w3.org/2000/svg">
<circle opacity="0.2" cx="13.5" cy="13.5" r="13" stroke="#3068F7"/>
<g clip-path="url(#clip0_3047_25269)">
<path d="M12.442 10.1176C12.5549 10.1176 12.6679 10.0741 12.7535 9.98785L12.9888 9.75279C13.0716 9.66863 13.1178 9.55704 13.1178 9.44103C13.1178 9.32501 13.0716 9.21342 12.9888 9.12927C12.9486 9.08843 12.9002 9.05591 12.8466 9.03368C12.7929 9.01146 12.7352 9 12.6768 9C12.6184 9 12.5607 9.01146 12.507 9.03368C12.4534 9.05591 12.405 9.08843 12.3648 9.12927L12.1295 9.36433C11.851 9.64297 12.0524 10.1176 12.442 10.1176ZM14.3242 10.3527C14.4372 10.3527 14.5501 10.3091 14.6357 10.2229L14.871 9.98785C14.9538 9.9037 15 9.79211 15 9.67609C15 9.56008 14.9538 9.44849 14.871 9.36433C14.8308 9.3235 14.7825 9.29098 14.7288 9.26875C14.6752 9.24653 14.6174 9.23507 14.559 9.23507C14.5007 9.23507 14.4429 9.24653 14.3893 9.26875C14.3356 9.29098 14.2872 9.3235 14.2471 9.36433L14.0118 9.60031C13.7332 9.87803 13.9346 10.3527 14.3242 10.3527ZM12.442 12C12.5549 12 12.6679 11.9564 12.7535 11.8702L12.9888 11.6342C13.0713 11.5501 13.1173 11.4387 13.1173 11.3229C13.1173 11.2071 13.0713 11.0957 12.9888 11.0116C12.9486 10.9708 12.9002 10.9383 12.8466 10.916C12.7929 10.8938 12.7352 10.8824 12.6768 10.8824C12.6184 10.8824 12.5607 10.8938 12.507 10.916C12.4534 10.9383 12.405 10.9708 12.3648 11.0116L12.1295 11.2467C11.851 11.5253 12.0524 12 12.442 12Z" fill="#3068F7"/>
<path d="M17.3965 8.68945L17.3955 8.69043C17.3877 8.68291 17.3808 8.67561 17.375 8.66797C17.3808 8.67566 17.3887 8.68193 17.3965 8.68945ZM17.3682 8.65918C17.3626 8.65085 17.3591 8.64226 17.3555 8.63477C17.3592 8.64233 17.3626 8.6509 17.3682 8.65918ZM17.3457 8.61328C17.3444 8.60945 17.3426 8.60632 17.3418 8.60352C17.3358 8.58291 17.3351 8.56515 17.335 8.56348C17.3334 8.54325 17.3343 8.57937 17.3457 8.61328ZM17.6504 8.38477C17.6519 8.38583 17.6529 8.38759 17.6543 8.38867C17.6519 8.38689 17.65 8.38454 17.6475 8.38281C17.6484 8.38346 17.6495 8.3841 17.6504 8.38477ZM17.5449 8.34863C17.5412 8.34844 17.5377 8.34961 17.5342 8.34961V8.34766C17.5376 8.34766 17.5412 8.34843 17.5449 8.34863ZM10.7314 19.6602L10.585 19.6191C9.11887 19.2103 7.95987 17.9574 7.67578 16.3379L7.51855 15.4316H20.4834L20.3242 16.3359V16.3369C20.0401 17.9575 18.881 19.2113 17.415 19.6201L17.2695 19.6611V20.5137H17.2686L17.2695 20.5176C17.2707 20.591 17.2423 20.6619 17.1914 20.7148C17.1404 20.7677 17.0704 20.7973 16.9971 20.7988C16.8565 20.7971 16.7314 20.6769 16.7314 20.5137V19.752L16.5234 19.7598C16.5234 19.7598 16.522 19.7607 16.5186 19.7607H16.4531C16.4113 19.761 16.3537 19.7615 16.2822 19.7617C16.1389 19.7622 15.9406 19.7624 15.7061 19.7627C15.2371 19.7633 14.6222 19.7637 14.0068 19.7637C13.3913 19.7637 12.7749 19.7633 12.3037 19.7627C12.0681 19.7624 11.8686 19.7622 11.7236 19.7617C11.6512 19.7615 11.5926 19.761 11.5498 19.7607H11.4824C11.4805 19.7607 11.4787 19.7598 11.4775 19.7598H11.4756L11.2695 19.7529V20.5137H11.2686L11.2695 20.5176C11.2707 20.591 11.2423 20.6619 11.1914 20.7148C11.1404 20.7677 11.0704 20.7973 10.9971 20.7988C10.8565 20.7971 10.7314 20.6769 10.7314 20.5137V19.6602ZM6.2002 13.7705C6.19898 13.6969 6.22721 13.6262 6.27832 13.5732C6.31679 13.5334 6.36559 13.5057 6.41895 13.4941L6.47266 13.4883H20.2324V7.21094C20.2324 6.44951 19.6643 5.84495 18.9707 5.7793L18.833 5.77344C18.5509 5.77345 18.2755 5.86305 18.0459 6.02637L17.9502 6.10059L17.71 6.30566L17.5908 6.4082L17.6611 6.54785C17.8131 6.84851 17.8691 7.18915 17.8203 7.52246C17.7715 7.85578 17.6204 8.16566 17.3887 8.41016C17.3876 8.41122 17.3866 8.41223 17.3857 8.41309C17.3767 8.42225 17.3569 8.44219 17.3164 8.48438C17.2338 8.57038 17.0573 8.75388 16.6826 9.14258C16.5784 9.2504 16.4128 9.25038 16.3086 9.14258H16.3076L14.54 7.30957C14.4879 7.25412 14.459 7.18065 14.459 7.10449C14.459 7.0279 14.4883 6.95399 14.541 6.89844L14.54 6.89746L15.2471 6.16699L15.248 6.16602C15.4804 5.92149 15.7896 5.76405 16.124 5.71973C16.4586 5.6755 16.7988 5.74702 17.0869 5.92285L17.21 5.99805L17.3203 5.9043L17.6143 5.6543C17.9588 5.36143 18.3934 5.20024 18.8379 5.2002C19.8995 5.2002 20.7695 6.09349 20.7686 7.20996V13.4883H21.5273L21.582 13.4941C21.6351 13.5058 21.6844 13.5336 21.7227 13.5732C21.7735 13.6262 21.801 13.6971 21.7998 13.7705V13.7773C21.8004 13.8138 21.7936 13.8499 21.7803 13.8838C21.7669 13.9178 21.7471 13.9493 21.7217 13.9756C21.6964 14.0017 21.6662 14.0226 21.6328 14.0371C21.5993 14.0516 21.5629 14.059 21.5264 14.0596H6.46875C6.32721 14.0594 6.20041 13.9385 6.2002 13.7744V13.7705Z" stroke="#3068F7" stroke-width="0.4"/>
</g>
<defs>
<clipPath id="clip0_3047_25269">
<rect width="16" height="16" fill="white" transform="translate(6 5)"/>
</clipPath>
</defs>
</svg>
