<svg width="59" height="33" viewBox="0 0 59 33" fill="none" xmlns="http://www.w3.org/2000/svg">
<g clip-path="url(#clip0_3105_88861)">
<path fill-rule="evenodd" clip-rule="evenodd" d="M11.0184 18L15 20.6824V25.6593L11 33L11.0184 18Z" fill="#62B22F"/>
<path fill-rule="evenodd" clip-rule="evenodd" d="M7.95721 16L12 18.4333L0 26L3.91675 18.5982L7.95721 16Z" fill="#974995"/>
<path fill-rule="evenodd" clip-rule="evenodd" d="M26 9L18.5192 8.96293L14.9162 6.81039L11 0L26 9Z" fill="#EE7024"/>
<path fill-rule="evenodd" clip-rule="evenodd" d="M11.0241 0L14.992 7.14908L15 17L11 15.7417L11.0241 0Z" fill="#FBB61B"/>
<path fill-rule="evenodd" clip-rule="evenodd" d="M0 7L4 14.3596L3.98704 18.7167L0.0329897 26L0 7Z" fill="#5A58A3"/>
<path fill-rule="evenodd" clip-rule="evenodd" d="M0 7L27 22.9477L19.263 23L3.99499 14.0111L0 7Z" fill="#2188CB"/>
<path fill-rule="evenodd" clip-rule="evenodd" d="M18.5758 9L26 9.03816L15.0112 16L15 11.2455L18.5758 9Z" fill="#DA0954"/>
<path fill-rule="evenodd" clip-rule="evenodd" d="M41.1412 10.3791C42.0915 9.49886 43.3924 9.05516 44.6721 9.09593C46.0096 9.06835 47.3566 9.16069 48.687 9C48.399 9.89699 47.8146 10.6741 47.425 11.5327C46.4665 11.5507 45.5067 11.5147 44.5493 11.5483C43.318 11.6502 42.1446 12.6635 42.0242 13.9382C43.1445 12.8038 44.8976 12.7271 46.3496 13.1C47.3223 13.4358 48.1888 14.1769 48.5418 15.1746C48.8676 16.0512 48.9208 17.0142 48.7083 17.9243C48.386 19.1727 47.3979 20.1392 46.2327 20.5961C44.8586 21.1214 43.2779 21.1489 41.9097 20.5925C40.6111 20.0553 39.6927 18.8081 39.3787 17.4399C39.0351 16.2227 39.0812 14.4203 39.433 13.1828C39.7375 12.1155 40.3361 11.1298 41.1412 10.3791ZM44.4655 15.1326C43.7348 14.9851 42.9119 15.2885 42.533 15.9409C41.8448 17.1257 42.7903 18.8945 44.3333 18.6714C46.0167 18.4292 46.4547 15.6723 44.4655 15.1326ZM33.5882 12.0687C35.1016 11.691 36.8323 11.8013 38.1249 12.7594C37.6976 13.4598 37.3116 14.1841 36.9196 14.9048C36.2881 14.6913 35.6742 14.352 34.9907 14.3688C34.2658 14.346 33.4808 14.6338 33.0688 15.2669C32.6296 15.9373 32.6084 16.8583 33.0357 17.5418C33.4159 18.187 34.1631 18.4856 34.8726 18.5527C35.4263 18.4892 35.9894 18.41 36.5017 18.1714C36.6245 18.0934 36.7662 18.097 36.9055 18.1066C37.1557 18.8333 37.7035 19.4341 37.9195 20.1692C36.5253 20.9259 34.8632 21.0806 33.3368 20.7041C32.2849 20.3899 31.2827 19.7783 30.6806 18.8261C29.7279 17.3415 29.7645 15.2418 30.8589 13.8435C31.5188 12.9393 32.5281 12.3505 33.5882 12.0687ZM50.178 12.1071C53.1187 12.0855 56.0605 12.0843 59 12.1071C58.974 14.9444 58.9906 17.784 58.9929 20.6213C58.0036 20.6261 57.0132 20.6285 56.0239 20.6213C56.07 18.759 55.9779 16.899 56.0357 15.0427C56.0405 14.8976 56.0074 14.7633 55.9377 14.6386C55.0346 14.659 54.1292 14.6602 53.2261 14.6386C53.1694 16.6292 53.2155 18.6247 53.2037 20.6177C52.1967 20.6357 51.1897 20.6261 50.1839 20.6225C50.1851 17.784 50.1969 14.9468 50.178 12.1095V12.1071Z" fill="#343A60"/>
<path fill-rule="evenodd" clip-rule="evenodd" d="M14.9517 25.3916L18.5487 23.056L26 23L11 33L14.9517 25.3916Z" fill="#037F37"/>
</g>
<defs>
<clipPath id="clip0_3105_88861">
<rect width="59" height="33" fill="white"/>
</clipPath>
</defs>
</svg>
