<svg width="23" height="23" viewBox="0 0 23 23" fill="none" xmlns="http://www.w3.org/2000/svg">
<path d="M11.5 0C17.8513 0 23 5.14873 23 11.5C23 17.8513 17.8513 23 11.5 23C5.14873 23 0 17.8513 0 11.5C0 5.14873 5.14873 0 11.5 0ZM5.11816 8.05078C4.6867 8.05078 4.60069 8.25241 4.60059 8.47461C4.99546 10.2721 5.81092 11.9549 6.9834 13.3887C7.47744 14.1664 8.15345 14.8177 8.9541 15.2891C9.75469 15.7604 10.6575 16.0391 11.5889 16.1006C12.5487 16.1006 12.6679 15.889 12.668 15.5283V14.1943C12.668 13.7711 12.7542 13.6865 13.0674 13.6865C13.2939 13.6867 13.6719 13.7922 14.5664 14.6387C15.5907 15.6451 15.7635 16.0996 16.335 16.0996H17.8457C18.2767 16.0996 18.4921 15.8881 18.3623 15.4746C18.0372 14.8323 17.6076 14.2454 17.0898 13.7383C16.7343 13.3255 16.2043 12.8912 16.0547 12.6689C15.8274 12.3833 15.892 12.2562 16.0547 12.0127C16.8529 10.9467 17.5335 9.79993 18.083 8.5918C18.179 8.27456 18.0826 8.05181 17.6299 8.05176H16.1191C15.9776 8.04195 15.8365 8.07801 15.7178 8.1543C15.5991 8.23063 15.5093 8.34334 15.4619 8.47461C14.9963 9.56737 14.3711 10.5877 13.6064 11.5039C13.2496 11.8537 13.0999 11.959 12.9053 11.959C12.8073 11.9589 12.668 11.8539 12.668 11.5361V8.59082C12.668 8.20982 12.5608 8.05078 12.2363 8.05078H9.86328C9.76652 8.04688 9.67186 8.08024 9.59961 8.14355C9.52728 8.20705 9.48337 8.29657 9.47656 8.3916C9.47703 8.7514 10.0149 8.83608 10.0791 9.83105V12.0127C10.0791 12.4891 9.99348 12.5732 9.79883 12.5732C9.29074 12.5723 8.04043 10.7308 7.30762 8.61328C7.15537 8.22135 7.01567 8.05089 6.62793 8.05078H5.11816Z" fill="#3068F7"/>
</svg>
