<svg width="16" height="16" viewBox="0 0 16 16" fill="none" xmlns="http://www.w3.org/2000/svg">
<path d="M14 7.15784C14 11.5789 8 15.3684 8 15.3684C8 15.3684 2 11.5789 2 7.15784C2 5.6503 2.63214 4.2045 3.75736 3.1385C4.88258 2.0725 6.4087 1.47363 8 1.47363C9.5913 1.47363 11.1174 2.0725 12.2426 3.1385C13.3679 4.2045 14 5.6503 14 7.15784Z" stroke="white" stroke-linecap="round" stroke-linejoin="round"/>
<path d="M8 9.05266C9.10457 9.05266 10 8.20435 10 7.15792C10 6.11149 9.10457 5.26318 8 5.26318C6.89543 5.26318 6 6.11149 6 7.15792C6 8.20435 6.89543 9.05266 8 9.05266Z" stroke="white" stroke-linecap="round" stroke-linejoin="round"/>
</svg>
