<svg width="12" height="12" viewBox="0 0 12 12" fill="none" xmlns="http://www.w3.org/2000/svg">
<g clip-path="url(#clip0_3047_25432)">
<path d="M9.75 3.40479H3.25V9.59526H9.75V3.40479Z" fill="white"/>
<path d="M6 0C2.69164 0 0 2.69164 0 6C0 9.30837 2.69164 12 6 12C9.30837 12 12 9.30837 12 6C12 2.69164 9.30837 0 6 0ZM8.97508 4.59796L5.98028 7.68142C5.93775 7.73212 5.88483 7.77305 5.82511 7.80142C5.76539 7.82985 5.70026 7.84511 5.63412 7.84615H5.62634C5.56164 7.84615 5.49768 7.83249 5.4386 7.80615C5.37951 7.77982 5.32662 7.74135 5.28335 7.69329L3.3561 5.85415C3.31391 5.80935 3.28108 5.75662 3.25956 5.69902C3.23804 5.64138 3.22825 5.58004 3.23077 5.51858C3.23329 5.45712 3.24807 5.39679 3.27425 5.34112C3.30042 5.28546 3.33746 5.23558 3.38318 5.19444C3.4289 5.15329 3.48239 5.1217 3.5405 5.10152C3.59861 5.08134 3.66016 5.07297 3.72154 5.07692C3.78293 5.08087 3.8429 5.09705 3.89795 5.12451C3.95299 5.15197 4.00199 5.19015 4.04207 5.23682L5.61422 6.68135L8.26837 4.0043C8.34769 3.9126 8.45988 3.85578 8.58074 3.84615C8.7016 3.83652 8.82142 3.87484 8.91428 3.95283C9.00714 4.03082 9.06554 4.14222 9.07692 4.26293C9.08831 4.38365 9.05169 4.50399 8.97508 4.59796Z" fill="#36BA5F"/>
</g>
<defs>
<clipPath id="clip0_3047_25432">
<rect width="12" height="12" fill="white"/>
</clipPath>
</defs>
</svg>
