<svg width="13" height="13" viewBox="0 0 13 13" fill="none" xmlns="http://www.w3.org/2000/svg">
<path d="M11.8364 8.72382C10.9186 9.27087 9.8667 9.55987 8.79419 9.55987C5.51086 9.55987 2.83945 6.88838 2.83945 3.60491C2.83945 2.53239 3.12842 1.48047 3.67545 0.562632C3.73171 0.468413 3.7167 0.347711 3.63889 0.270119C3.56132 0.192784 3.44084 0.177537 3.34641 0.233557C1.40507 1.38976 0.199219 3.50928 0.199219 5.76498C0.199219 9.3133 3.08602 12.2 6.63421 12.2C8.88982 12.2 11.0093 10.9941 12.1654 9.0529C12.2217 8.95844 12.2065 8.83798 12.1289 8.76038C12.0511 8.68233 11.9306 8.66756 11.8364 8.72382ZM6.63421 11.7199C3.35062 11.7199 0.679214 9.04845 0.679214 5.76498C0.679214 3.99047 1.4857 2.30691 2.83147 1.18468C2.52093 1.94948 2.35946 2.77146 2.35946 3.60491C2.35946 7.15323 5.24601 10.0399 8.79419 10.0399C9.62764 10.0399 10.4496 9.87839 11.2143 9.56783C10.0922 10.9132 8.40865 11.7199 6.63421 11.7199Z" fill="#3068F7" stroke="#3068F7" stroke-width="0.4"/>
</svg>
