<svg width="16" height="14" viewBox="0 0 16 14" fill="none" xmlns="http://www.w3.org/2000/svg">
<g clip-path="url(#clip0_3047_25104)">
<path d="M12.5624 2.65625C12.2351 2.65625 11.9688 2.88703 11.9688 3.17072C11.9688 3.45441 12.235 3.68517 12.5624 3.68517C12.8897 3.68517 13.156 3.45439 13.156 3.17072C13.156 2.88706 12.8897 2.65625 12.5624 2.65625ZM12.5624 3.29784C12.4815 3.29784 12.4156 3.2408 12.4156 3.1707C12.4156 3.10057 12.4815 3.04353 12.5624 3.04353C12.6433 3.04353 12.7091 3.10057 12.7091 3.1707C12.7091 3.2408 12.6433 3.29784 12.5624 3.29784Z" fill="#6727C4"/>
<path d="M15.0743 1.71475L10.1399 0.859393C10.1398 0.859393 10.1398 0.859368 10.1397 0.859368L10.1386 0.859187C10.138 0.859084 10.1373 0.859084 10.1367 0.85898C10.1283 0.857586 10.1196 0.856708 10.1109 0.856166C10.1079 0.855985 10.1049 0.855856 10.1019 0.855779C10.0995 0.855701 10.0972 0.855469 10.0948 0.855469C10.0894 0.855469 10.0841 0.85583 10.0787 0.856166C10.0769 0.856295 10.075 0.856243 10.0732 0.856398C10.0636 0.857199 10.0543 0.858619 10.0451 0.860426C10.043 0.860839 10.041 0.86133 10.039 0.861795C10.0307 0.863628 10.0226 0.865849 10.0147 0.868482C10.0138 0.868792 10.0128 0.868947 10.0118 0.869283L5.13778 2.55897L2.64081 2.12615C2.51979 2.10513 2.40208 2.17319 2.37789 2.27807C2.35366 2.38293 2.43217 2.48497 2.55319 2.50594L4.93569 2.91891V5.92875L2.93376 5.58175C2.93224 5.58149 2.93075 5.58141 2.92926 5.58118C2.85129 5.5677 2.7713 5.56076 2.69128 5.56076C2.02377 5.56076 1.4807 6.03144 1.4807 6.60995C1.4807 7.10973 1.89056 7.54237 2.45544 7.63915C2.45565 7.63918 2.45585 7.63925 2.45606 7.63928L4.93569 8.06911V9.51723L3.63818 9.29233L3.83651 9.12044C3.92378 9.04479 3.92378 8.92219 3.83651 8.84657C3.74922 8.77096 3.60776 8.77096 3.5205 8.84657L3.18486 9.13736L2.8493 8.84654C2.76201 8.77094 2.62055 8.77094 2.53329 8.84654C2.44602 8.92219 2.44602 9.04479 2.53329 9.12042L2.86887 9.41126L2.53329 9.7021C2.44602 9.77775 2.44602 9.90035 2.53329 9.97598C2.57693 10.0138 2.63413 10.0327 2.69131 10.0327C2.74848 10.0327 2.80568 10.0138 2.84933 9.97598L3.18491 9.68514L3.5205 9.97598C3.56415 10.0138 3.62135 10.0327 3.67852 10.0327C3.73569 10.0327 3.7929 10.0138 3.83654 9.97598C3.91529 9.90771 3.9227 9.80133 3.85936 9.72562L4.93575 9.9122V11.9346L0.446893 11.1565V2.14084L1.66033 2.35117C1.78134 2.37224 1.89906 2.30413 1.92325 2.19924C1.94747 2.09436 1.86896 1.99234 1.74795 1.97138L0.267272 1.71475C0.201668 1.70341 0.133591 1.7181 0.0817814 1.7549C0.0300312 1.79164 0 1.84661 0 1.90463V11.3153C0 11.4076 0.0751673 11.4871 0.179621 11.5052L5.11335 12.3604C5.11385 12.3605 5.11439 12.3606 5.1149 12.3607L5.11525 12.3607C5.11692 12.361 5.11859 12.3611 5.12026 12.3614C5.12574 12.3622 5.13119 12.363 5.13679 12.3635C5.14421 12.3642 5.15166 12.3645 5.15908 12.3645C5.16638 12.3645 5.17365 12.3642 5.18089 12.3635C5.1847 12.3632 5.18842 12.3626 5.19218 12.3622C5.19551 12.3617 5.19885 12.3614 5.20216 12.3608C5.20666 12.3601 5.21104 12.3591 5.21545 12.358C5.21795 12.3575 5.22048 12.357 5.22298 12.3564C5.22748 12.3552 5.23186 12.3538 5.23624 12.3524C5.23815 12.3518 5.24014 12.3513 5.24205 12.3507L5.2456 12.3494C5.2458 12.3494 5.24604 12.3493 5.24625 12.3492L10.1161 10.661L14.9866 11.5052C15.0522 11.5166 15.1203 11.5019 15.1721 11.465C15.2239 11.4283 15.2539 11.3733 15.2539 11.3153V1.90463C15.2539 1.81232 15.1788 1.73285 15.0743 1.71475ZM4.93563 7.67411L2.54362 7.25949C2.54353 7.25946 2.54344 7.25946 2.54336 7.25946C2.54321 7.25943 2.54309 7.25941 2.54294 7.25938C2.18638 7.19863 1.92757 6.92552 1.92757 6.60995C1.92757 6.24497 2.27016 5.94806 2.69125 5.94806C2.74297 5.94806 2.79463 5.95256 2.84474 5.96144C2.8456 5.96159 2.84647 5.96165 2.84733 5.96177L4.93563 6.32375V7.67411ZM5.38255 8.04146L7.83293 7.19199C7.83319 7.19191 7.8334 7.19178 7.83367 7.19171C7.92469 7.15971 8.02119 7.14347 8.12052 7.14347C8.54164 7.14347 8.88423 7.44038 8.88423 7.80536C8.88423 8.07885 8.69465 8.32053 8.40125 8.42115C8.40105 8.42123 8.4009 8.4213 8.40069 8.42138C8.40033 8.42151 8.4 8.42156 8.39965 8.42169L5.38255 9.46765V8.04146ZM9.87132 10.3287L5.38255 11.8848V9.88475L8.56559 8.78127C8.56574 8.78121 8.56586 8.78116 8.56598 8.78111C9.03078 8.62162 9.33109 8.23865 9.33109 7.80533C9.33109 7.22682 8.78802 6.75614 8.12049 6.75614C7.96398 6.75614 7.81159 6.78173 7.66755 6.83218C7.66734 6.83223 7.66716 6.83229 7.66698 6.83236L7.66603 6.8327C7.66585 6.83275 7.66567 6.8328 7.66549 6.83288C7.66543 6.83291 7.66537 6.83293 7.66531 6.83296L5.38255 7.62433V6.2962L9.87132 4.74005V10.3287ZM9.87132 4.32287L5.38255 5.87902V2.89128L9.87132 1.33514V4.32287ZM14.807 11.0791L10.3182 10.301V4.69019L12.5189 5.07167C12.522 5.07221 12.525 5.07244 12.5281 5.07285C12.5308 5.07322 12.5334 5.0736 12.5361 5.07389C12.5451 5.07482 12.554 5.07544 12.5629 5.07544C12.572 5.07544 12.5809 5.07479 12.5897 5.07386C12.5913 5.07368 12.593 5.0735 12.5946 5.07332C12.6035 5.07221 12.6123 5.07074 12.6209 5.06872C12.6294 5.06673 12.6376 5.06423 12.6456 5.06142C12.6473 5.06085 12.6489 5.06028 12.6506 5.05969C12.6585 5.05674 12.6662 5.05349 12.6737 5.0498C12.6745 5.04938 12.6753 5.04889 12.6762 5.04845C12.683 5.04497 12.6895 5.04117 12.6958 5.03709C12.6972 5.03619 12.6986 5.03534 12.7 5.03441C12.7068 5.02979 12.7134 5.02485 12.7196 5.01956C12.7203 5.01894 12.721 5.01827 12.7217 5.01762C12.7276 5.01243 12.7332 5.00696 12.7384 5.0012C12.739 5.00056 12.7396 4.99994 12.7402 4.99929C12.7458 4.99297 12.7509 4.9863 12.7556 4.97933C12.7558 4.97907 12.756 4.97887 12.7562 4.97861L13.6006 3.71098C13.7135 3.54818 13.7733 3.36145 13.7733 3.17074C13.7733 2.59223 13.2302 2.12155 12.5627 2.12155C11.8951 2.12155 11.3521 2.59223 11.3521 3.17074C11.3521 3.36142 11.4118 3.54818 11.5248 3.71098L12.1222 4.60793L10.3182 4.29522V1.2853L14.807 2.06338V11.0791ZM11.9107 3.51573C11.91 3.51461 11.9092 3.5135 11.9085 3.51242C11.8368 3.40965 11.799 3.29147 11.799 3.17074C11.799 2.80577 12.1416 2.50886 12.5627 2.50886C12.9838 2.50886 13.3264 2.80577 13.3264 3.17074C13.3264 3.29153 13.2885 3.40965 13.2169 3.51239C13.2161 3.5135 13.2153 3.51461 13.2146 3.51573L12.5627 4.49442L11.9107 3.51573Z" fill="#6727C4"/>
<path d="M12.5308 8.60675L11.7904 6.55242C11.7617 6.47295 11.6776 6.41823 11.5816 6.41656C11.58 6.4165 11.5785 6.4165 11.5771 6.4165C11.4828 6.4165 11.3984 6.46786 11.3666 6.54506L10.6263 8.34271C10.6045 8.39572 10.6103 8.45428 10.6423 8.50326C10.6743 8.55222 10.7292 8.58666 10.7929 8.59771L11.3472 8.69379V9.39061C11.3472 9.49756 11.4472 9.58426 11.5707 9.58426C11.6941 9.58426 11.7941 9.49756 11.7941 9.39061V8.77125L12.2736 8.85437C12.2882 8.8569 12.3029 8.85814 12.3175 8.85814C12.3802 8.85814 12.4408 8.83526 12.4836 8.79403C12.5364 8.74319 12.5543 8.67203 12.5308 8.60675ZM11.6167 8.34553C11.616 8.3454 11.6153 8.34527 11.6145 8.34514L11.1341 8.26187L11.563 7.22053L11.9919 8.41057L11.6167 8.34553Z" fill="#6727C4"/>
<path d="M14.5034 7.32309L13.7631 5.26876C13.7344 5.18929 13.6504 5.13457 13.5543 5.13289C13.4582 5.13044 13.3717 5.18296 13.3393 5.2614L12.5989 7.05905C12.5771 7.11203 12.583 7.17062 12.6149 7.21958C12.6469 7.26856 12.7019 7.30303 12.7656 7.31405L13.3199 7.41013V8.10695C13.3199 8.21392 13.4199 8.3006 13.5433 8.3006C13.6667 8.3006 13.7668 8.21392 13.7668 8.10695V7.48759L14.2463 7.57071C14.2609 7.57324 14.2756 7.57448 14.2902 7.57448C14.3528 7.57448 14.4134 7.5516 14.4563 7.51037C14.509 7.45953 14.5269 7.38836 14.5034 7.32309ZM13.5893 7.06186C13.5886 7.06173 13.5879 7.06163 13.5873 7.0615L13.1068 6.97821L13.5357 5.93684L13.9646 7.12691L13.5893 7.06186Z" fill="#6727C4"/>
</g>
<defs>
<clipPath id="clip0_3047_25104">
<rect width="15.2539" height="13.2201" fill="white"/>
</clipPath>
</defs>
</svg>
