<svg width="16" height="16" viewBox="0 0 16 16" fill="none" xmlns="http://www.w3.org/2000/svg">
<g clip-path="url(#clip0_3047_25118)">
<path d="M4.34375 6.75488H4.85986V7.78849H4.34375V6.75488Z" fill="#6727C4"/>
<path d="M4.34375 8.04639H4.85986V9.07999H4.34375V8.04639Z" fill="#6727C4"/>
<path d="M4.34375 9.33838H4.85986V10.372H4.34375V9.33838Z" fill="#6727C4"/>
<path d="M4.34375 10.6304H4.85986V11.664H4.34375V10.6304Z" fill="#6727C4"/>
<path d="M4.34375 11.9229H4.85986V12.9565H4.34375V11.9229Z" fill="#6727C4"/>
<path d="M12.0859 6.75452H12.602V7.78812H12.0859V6.75452Z" fill="#6727C4"/>
<path d="M12.0859 8.04651H12.602V9.08011H12.0859V8.04651Z" fill="#6727C4"/>
<path d="M12.0859 9.33838H12.602V10.372H12.0859V9.33838Z" fill="#6727C4"/>
<path d="M12.0859 10.6304H12.602V11.664H12.0859V10.6304Z" fill="#6727C4"/>
<path d="M12.0859 11.9225H12.602V12.9561H12.0859V11.9225Z" fill="#6727C4"/>
<path d="M15.1813 8.82181C15.324 8.82181 15.4394 8.70611 15.4394 8.56341V6.2378C15.4394 6.0951 15.324 5.9794 15.1813 5.9794H13.4406C13.2161 5.73879 13.1214 5.40456 13.1864 5.08181C13.2515 4.75906 13.4682 4.48754 13.7683 4.35304C13.8975 4.29247 13.9532 4.13867 13.8927 4.00934L12.9105 1.90365C12.8503 1.77445 12.6969 1.71869 12.5678 1.77887L3.56889 5.9794H1.76251C1.62 5.9794 1.50445 6.0951 1.50445 6.2378V6.82488L0.149417 7.45561C0.0872979 7.48451 0.0391648 7.53687 0.0157283 7.60134C-0.0078343 7.66569 -0.00481023 7.73685 0.0240445 7.79905L1.0046 9.90765C1.03358 9.96985 1.086 10.018 1.15051 10.0415C1.2149 10.065 1.28609 10.0618 1.34808 10.0327C1.809 9.82097 2.35523 9.97578 2.63684 10.3981C2.45011 10.7024 2.11922 10.8881 1.76251 10.889C1.62 10.889 1.50445 11.0047 1.50445 11.1474V13.473C1.50445 13.6157 1.62 13.7314 1.76251 13.7314H15.1813C15.324 13.7314 15.4394 13.6157 15.4394 13.473V11.1474C15.4394 11.0047 15.324 10.889 15.1813 10.889C14.6113 10.889 14.1491 10.4262 14.1491 9.85541C14.1491 9.28461 14.6113 8.82181 15.1813 8.82181ZM12.551 2.35636L13.3252 4.01376C12.7036 4.44413 12.4822 5.26034 12.8009 5.94659C12.8063 5.9582 12.8145 5.96804 12.8202 5.9794H10.5382L9.83968 4.47732C9.77932 4.34799 9.62585 4.2921 9.4967 4.35253L6.01221 5.9794H4.78985L12.551 2.35636ZM9.9687 5.9794H7.2333L9.48019 4.93002L9.9687 5.9794ZM1.37291 9.47475L0.601264 7.81407L1.50445 7.39492V8.56341C1.50445 8.70611 1.62 8.82181 1.76251 8.82181C2.30936 8.8232 2.75995 9.25205 2.78905 9.79876C2.3992 9.46377 1.86948 9.34252 1.37291 9.47475ZM14.9233 11.3844V13.2146H2.02056V11.3844C2.76625 11.2588 3.31234 10.6124 3.31234 9.85541C3.31234 9.09825 2.76625 8.452 2.02056 8.32645V6.4962H14.9233V8.32645C14.1777 8.452 13.6316 9.09825 13.6316 9.85541C13.6316 10.6124 14.1777 11.2588 14.9233 11.3844Z" fill="#6727C4"/>
<path d="M11.3102 7.01294H5.63305C5.49054 7.01294 5.375 7.12864 5.375 7.27134V12.4394C5.375 12.5821 5.49054 12.6978 5.63305 12.6978H11.3102C11.4529 12.6978 11.5683 12.5821 11.5683 12.4394V7.27134C11.5683 7.12864 11.4529 7.01294 11.3102 7.01294ZM11.0522 12.181H5.89111V7.52974H11.0522V12.181Z" fill="#6727C4"/>
<path d="M10.0898 3.79091L10.5576 3.57251L10.9938 4.50921L10.5261 4.72762L10.0898 3.79091Z" fill="#6727C4"/>
<path d="M10.6328 4.96193L11.1007 4.74365L11.5366 5.68048L11.0689 5.89889L10.6328 4.96193Z" fill="#6727C4"/>
</g>
<defs>
<clipPath id="clip0_3047_25118">
<rect width="15.4395" height="15.4395" fill="white"/>
</clipPath>
</defs>
</svg>
