<svg width="15" height="14" viewBox="0 0 15 14" fill="none" xmlns="http://www.w3.org/2000/svg">
<path d="M10.4775 0.686523H4.52431C3.00073 0.686523 1.76562 1.92163 1.76562 3.44521V9.39843C1.76562 10.922 3.00073 12.1571 4.52431 12.1571H10.4775C12.0011 12.1571 13.2362 10.922 13.2362 9.39843V3.44521C13.2362 1.92163 12.0011 0.686523 10.4775 0.686523Z" stroke="white" stroke-width="1.37283"/>
<path d="M1.76562 3.33358H12.3539C12.3539 1.87165 11.3698 0.686523 10.156 0.686523H3.96353C2.74965 0.686523 1.76562 1.87165 1.76562 3.33358Z" fill="white"/>
<path d="M4.41314 12.7415C4.41314 12.4188 4.0181 12.1572 3.53079 12.1572C3.04348 12.1572 2.64844 12.4188 2.64844 12.7415V13.3377C2.64844 13.6603 3.04348 13.9219 3.53079 13.9219C4.0181 13.9219 4.41314 13.6603 4.41314 13.3377V12.7415Z" fill="white"/>
<path d="M13.2335 12.7415C13.2335 12.4188 12.8384 12.1572 12.3511 12.1572C11.8638 12.1572 11.4688 12.4188 11.4688 12.7415V13.3377C11.4688 13.6603 11.8638 13.9219 12.3511 13.9219C12.8384 13.9219 13.2335 13.6603 13.2335 13.3377V12.7415Z" fill="white"/>
<path d="M14.9991 4.07243C14.9991 3.66433 14.604 3.3335 14.1167 3.3335C13.6294 3.3335 13.2344 3.66433 13.2344 4.07243V6.12397C13.2344 6.53208 13.6294 6.86291 14.1167 6.86291C14.604 6.86291 14.9991 6.53208 14.9991 6.12397V4.07243Z" fill="white"/>
<path d="M1.76471 4.07243C1.76471 3.66433 1.36966 3.3335 0.882353 3.3335C0.395043 3.3335 0 3.66433 0 4.07243V6.12397C0 6.53208 0.395043 6.86291 0.882353 6.86291C1.36966 6.86291 1.76471 6.53208 1.76471 6.12397V4.07243Z" fill="white"/>
<path fill-rule="evenodd" clip-rule="evenodd" d="M1.76562 8.62793H14.1186V9.22775C14.1186 11.333 12.3406 13.0397 10.1473 13.0397H5.73687C3.5436 13.0397 1.76562 11.333 1.76562 9.22775V8.62793ZM5.6899 11.227L3.65179 10.205C3.29857 10.0279 2.92402 10.4047 3.12497 10.7351L3.15164 10.7789C3.61269 11.5368 4.43254 12.0286 5.34433 12.0943L5.86809 12.132C6.30281 12.1633 6.46497 11.5968 6.07457 11.4105L5.6899 11.227ZM12.2324 10.205L10.1943 11.227L9.80961 11.4106C9.41926 11.5969 9.58137 12.1634 10.0161 12.1321L10.5399 12.0943C11.4516 12.0287 12.2715 11.5369 12.7325 10.779L12.7592 10.7352C12.9602 10.4048 12.5857 10.0279 12.2324 10.205Z" fill="white"/>
</svg>
