<svg width="13" height="15" viewBox="0 0 13 15" fill="none" xmlns="http://www.w3.org/2000/svg">
<path d="M8.40854 3.18176H3.9541C3.67796 3.18176 3.4541 2.9579 3.4541 2.68176V2.09088C3.4541 1.81474 3.67796 1.59088 3.9541 1.59088H4.54498C4.82112 1.59088 5.04498 1.36702 5.04498 1.09088V0.5C5.04498 0.223858 5.26884 0 5.54498 0H6.81766C7.09381 0 7.31766 0.223858 7.31766 0.5V1.09088C7.31766 1.36702 7.54152 1.59088 7.81766 1.59088H8.40854C8.68468 1.59088 8.90854 1.81474 8.90854 2.09088V2.68176C8.90854 2.9579 8.68468 3.18176 8.40854 3.18176Z" fill="#6727C4"/>
<path d="M10.2275 4.09033H2.13672C1.86058 4.09033 1.63672 4.31419 1.63672 4.59033V6.76084C1.63672 7.11457 1.99398 7.35645 2.32241 7.22508L5.99639 5.75549C6.1156 5.70781 6.24858 5.70781 6.36778 5.75549L10.0418 7.22508C10.3702 7.35645 10.7275 7.11457 10.7275 6.76084V4.59033C10.7275 4.31419 10.5036 4.09033 10.2275 4.09033Z" fill="#6727C4"/>
<path d="M5.02624 7.12647L0.442156 9.14347C0.214692 9.24355 0.0952547 9.49551 0.161767 9.73495L1.08052 13.0425C1.14064 13.2589 1.33768 13.4087 1.56228 13.4087H5.22761C5.50375 13.4087 5.72761 13.1848 5.72761 12.9087V7.58413C5.72761 7.2231 5.35669 6.98107 5.02624 7.12647Z" fill="#6727C4"/>
<path d="M7.33704 7.12647L11.9211 9.14347C12.1486 9.24355 12.268 9.49551 12.2015 9.73495L11.2828 13.0425C11.2226 13.2589 11.0256 13.4087 10.801 13.4087H7.13567C6.85953 13.4087 6.63567 13.1848 6.63567 12.9087V7.58413C6.63567 7.2231 7.00659 6.98107 7.33704 7.12647Z" fill="#6727C4"/>
<circle cx="4.59028" cy="9.09077" r="0.454537" fill="white"/>
<circle cx="7.7729" cy="9.09077" r="0.454537" fill="white"/>
<rect x="0.5" y="12.7275" width="11.3634" height="2.27268" fill="white"/>
<path d="M0.5 14.0339L1.44469 13.6332C2.12525 13.3446 2.89382 13.3446 3.57437 13.6332C4.18333 13.8915 4.86539 13.9197 5.49355 13.7125L5.98962 13.5488C6.70203 13.3138 7.47879 13.373 8.14737 13.7133C8.76844 14.0294 9.48472 14.1037 10.1575 13.922L11.6361 13.5225" stroke="#6727C4" stroke-linecap="round"/>
</svg>
