<svg width="17" height="17" viewBox="0 0 17 17" fill="none" xmlns="http://www.w3.org/2000/svg">
<path d="M4.371 10.5928L2.001 9.99981L0.000999928 11.9998L3.501 13.4998L5.001 16.9998L7.001 14.9998L6.408 12.6298L9.355 9.95081L13.502 17.0008C13.9148 16.8627 14.2627 16.5779 14.4794 16.2004C14.6962 15.8229 14.7669 15.379 14.678 14.9528L12.932 6.56781L15.134 4.36581C16.0297 3.46509 16.6655 2.33908 16.974 1.10681C17.0115 0.957591 17.0096 0.801201 16.9687 0.652904C16.9277 0.504607 16.8489 0.369468 16.7401 0.260675C16.6313 0.151882 16.4962 0.0731499 16.3479 0.0321623C16.1996 -0.00882515 16.0432 -0.0106684 15.894 0.0268127C14.6612 0.334703 13.5347 0.970515 12.634 1.86681L10.431 4.06881L2.05 2.32181C1.62334 2.23319 1.17899 2.30417 0.801161 2.52128C0.423331 2.73839 0.138272 3.08656 0 3.49981L7.05 7.64581L4.371 10.5928Z" fill="#6727C4"/>
</svg>
