<svg width="13" height="15" viewBox="0 0 13 15" fill="none" xmlns="http://www.w3.org/2000/svg">
<path d="M8.59717 0.686523H3.55251C2.26145 0.686523 1.21484 1.99479 1.21484 3.60861V9.91444C1.21484 11.5283 2.26145 12.8365 3.55251 12.8365H8.59717C9.88823 12.8365 10.9348 11.5283 10.9348 9.91444V3.60861C10.9348 1.99479 9.88823 0.686523 8.59717 0.686523Z" stroke="#6727C4" stroke-width="1.37283"/>
<path d="M3.23252 0.686523C1.29906 0.686523 2.78223 3.11652 4.71569 3.11652H7.43401C9.36747 3.11652 10.8506 0.686523 8.91718 0.686523H3.23252Z" fill="#6727C4"/>
<path d="M3.64469 13.2387C3.64469 13.0165 3.3727 12.8364 3.03719 12.8364C2.70167 12.8364 2.42969 13.0165 2.42969 13.2387V13.6491C2.42969 13.8713 2.70167 14.0514 3.03719 14.0514C3.3727 14.0514 3.64469 13.8713 3.64469 13.6491V13.2387Z" fill="#6727C4"/>
<path d="M8.50504 13.2387C8.50504 13.0165 8.23305 12.8364 7.89754 12.8364C7.56203 12.8364 7.29004 13.0165 7.29004 13.2387V13.6491C7.29004 13.8713 7.56203 14.0514 7.89754 14.0514C8.23305 14.0514 8.50504 13.8713 8.50504 13.6491V13.2387Z" fill="#6727C4"/>
<path d="M12.1505 3.87935C12.1505 3.45788 11.8786 3.11621 11.543 3.11621C11.2075 3.11621 10.9355 3.45788 10.9355 3.87935V5.99808C10.9355 6.41954 11.2075 6.76121 11.543 6.76121C11.8786 6.76121 12.1505 6.41954 12.1505 5.99808V3.87935Z" fill="#6727C4"/>
<path d="M1.215 3.87935C1.215 3.45788 0.943013 3.11621 0.6075 3.11621C0.271987 3.11621 0 3.45788 0 3.87935V5.99808C0 6.41954 0.271987 6.76121 0.6075 6.76121C0.943013 6.76121 1.215 6.41954 1.215 5.99808V3.87935Z" fill="#6727C4"/>
<path fill-rule="evenodd" clip-rule="evenodd" d="M1.21484 8.63732C1.21484 8.2724 1.51068 7.97656 1.87561 7.97656H10.2741C10.639 7.97656 10.9348 8.2724 10.9348 8.63732C10.9348 10.9565 9.53582 12.8366 7.81003 12.8366H4.33965C2.61386 12.8366 1.21484 10.9565 1.21484 8.63732ZM4.30268 10.8397L2.69898 9.71384C2.42105 9.51875 2.12633 9.93389 2.28445 10.2978L2.30544 10.3461C2.66822 11.181 3.31332 11.7228 4.03077 11.7951L4.4429 11.8366C4.78496 11.8711 4.91256 11.247 4.60537 11.0418L4.30268 10.8397ZM9.45069 9.7139L7.84699 10.8397L7.54431 11.042C7.23716 11.2472 7.36472 11.8712 7.70678 11.8367L8.11891 11.7952C8.83635 11.7229 9.48146 11.1811 9.84424 10.3462L9.86523 10.2979C10.0234 9.93395 9.72866 9.51881 9.45069 9.7139Z" fill="#6727C4"/>
</svg>
